<?xml version="1.0" encoding="UTF-8" standalone="no"?>
<!-- Created with Inkscape (http://www.inkscape.org/) -->

<svg
   xmlns:ns0="http://www.iki.fi/pav/software/textext/"
   xmlns:dc="http://purl.org/dc/elements/1.1/"
   xmlns:cc="http://creativecommons.org/ns#"
   xmlns:rdf="http://www.w3.org/1999/02/22-rdf-syntax-ns#"
   xmlns:svg="http://www.w3.org/2000/svg"
   xmlns="http://www.w3.org/2000/svg"
   xmlns:sodipodi="http://sodipodi.sourceforge.net/DTD/sodipodi-0.dtd"
   xmlns:inkscape="http://www.inkscape.org/namespaces/inkscape"
   id="svg7438"
   version="1.1"
   inkscape:version="0.48.4 r9939"
   width="94.562981"
   height="155.88042"
   sodipodi:docname="hip_joint.svg"
   inkscape:export-filename="/home/moorepants/Conferences/PYCON2014/pydy-tutorial-pycon-2014/notebooks/figures/hip_joint.png"
   inkscape:export-xdpi="200"
   inkscape:export-ydpi="200">
  <sodipodi:namedview
     pagecolor="#ffffff"
     bordercolor="#666666"
     borderopacity="1"
     objecttolerance="10"
     gridtolerance="10"
     guidetolerance="10"
     inkscape:pageopacity="0"
     inkscape:pageshadow="2"
     inkscape:window-width="1366"
     inkscape:window-height="744"
     id="namedview7440"
     showgrid="false"
     inkscape:zoom="2.9593728"
     inkscape:cx="-2.6767376"
     inkscape:cy="71.994641"
     inkscape:window-x="0"
     inkscape:window-y="24"
     inkscape:window-maximized="1"
     inkscape:current-layer="svg7438"
     units="in"
     showguides="true"
     inkscape:guide-bbox="true"
     fit-margin-top="0"
     fit-margin-left="0"
     fit-margin-right="0"
     fit-margin-bottom="0" />
  <metadata
     id="metadata7444">
    <rdf:RDF>
      <cc:Work
         rdf:about="">
        <dc:format>image/svg+xml</dc:format>
        <dc:type
           rdf:resource="http://purl.org/dc/dcmitype/StillImage" />
        <dc:title></dc:title>
      </cc:Work>
    </rdf:RDF>
  </metadata>
  <defs
     id="defs7442">
    <marker
       inkscape:stockid="Arrow1Send"
       orient="auto"
       refY="0"
       refX="0"
       id="Arrow1Send"
       style="overflow:visible">
      <path
         id="path3812"
         d="M 0,0 5,-5 -12.5,0 5,5 0,0 z"
         style="fill-rule:evenodd;stroke:#000000;stroke-width:1pt"
         transform="matrix(-0.2,0,0,-0.2,-1.2,0)"
         inkscape:connector-curvature="0" />
    </marker>
    <marker
       inkscape:stockid="Arrow1Sstart"
       orient="auto"
       refY="0"
       refX="0"
       id="Arrow1Sstart"
       style="overflow:visible">
      <path
         id="path3809"
         d="M 0,0 5,-5 -12.5,0 5,5 0,0 z"
         style="fill-rule:evenodd;stroke:#000000;stroke-width:1pt"
         transform="matrix(0.2,0,0,0.2,1.2,0)"
         inkscape:connector-curvature="0" />
    </marker>
    <marker
       inkscape:stockid="Arrow1Sstart"
       orient="auto"
       refY="0"
       refX="0"
       id="Arrow1Sstart-9"
       style="overflow:visible">
      <path
         inkscape:connector-curvature="0"
         id="path3809-1"
         d="M 0,0 5,-5 -12.5,0 5,5 0,0 z"
         style="fill-rule:evenodd;stroke:#000000;stroke-width:1pt"
         transform="matrix(0.2,0,0,0.2,1.2,0)" />
    </marker>
    <marker
       inkscape:stockid="Arrow1Send"
       orient="auto"
       refY="0"
       refX="0"
       id="Arrow1Send-6"
       style="overflow:visible">
      <path
         inkscape:connector-curvature="0"
         id="path3812-2"
         d="M 0,0 5,-5 -12.5,0 5,5 0,0 z"
         style="fill-rule:evenodd;stroke:#000000;stroke-width:1pt"
         transform="matrix(-0.2,0,0,-0.2,-1.2,0)" />
    </marker>
    <marker
       inkscape:stockid="Arrow1Sstart"
       orient="auto"
       refY="0"
       refX="0"
       id="Arrow1Sstart-2"
       style="overflow:visible">
      <path
         inkscape:connector-curvature="0"
         id="path3809-3"
         d="M 0,0 5,-5 -12.5,0 5,5 0,0 z"
         style="fill-rule:evenodd;stroke:#000000;stroke-width:1pt"
         transform="matrix(0.2,0,0,0.2,1.2,0)" />
    </marker>
    <marker
       inkscape:stockid="Arrow1Send"
       orient="auto"
       refY="0"
       refX="0"
       id="Arrow1Send-4"
       style="overflow:visible">
      <path
         inkscape:connector-curvature="0"
         id="path3812-7"
         d="M 0,0 5,-5 -12.5,0 5,5 0,0 z"
         style="fill-rule:evenodd;stroke:#000000;stroke-width:1pt"
         transform="matrix(-0.2,0,0,-0.2,-1.2,0)" />
    </marker>
    <marker
       inkscape:stockid="Arrow1Sstart"
       orient="auto"
       refY="0"
       refX="0"
       id="Arrow1Sstart-6"
       style="overflow:visible">
      <path
         inkscape:connector-curvature="0"
         id="path3809-6"
         d="M 0,0 5,-5 -12.5,0 5,5 0,0 z"
         style="fill-rule:evenodd;stroke:#000000;stroke-width:1pt"
         transform="matrix(0.2,0,0,0.2,1.2,0)" />
    </marker>
    <marker
       inkscape:stockid="Arrow1Send"
       orient="auto"
       refY="0"
       refX="0"
       id="Arrow1Send-3"
       style="overflow:visible">
      <path
         inkscape:connector-curvature="0"
         id="path3812-29"
         d="M 0,0 5,-5 -12.5,0 5,5 0,0 z"
         style="fill-rule:evenodd;stroke:#000000;stroke-width:1pt"
         transform="matrix(-0.2,0,0,-0.2,-1.2,0)" />
    </marker>
    <marker
       inkscape:stockid="Arrow1Sstart"
       orient="auto"
       refY="0"
       refX="0"
       id="Arrow1Sstart-90"
       style="overflow:visible">
      <path
         id="path3809-16"
         d="M 0,0 5,-5 -12.5,0 5,5 0,0 z"
         style="fill-rule:evenodd;stroke:#000000;stroke-width:1pt"
         transform="matrix(0.2,0,0,0.2,1.2,0)"
         inkscape:connector-curvature="0" />
    </marker>
    <marker
       inkscape:stockid="Arrow1Send"
       orient="auto"
       refY="0"
       refX="0"
       id="Arrow1Send-68"
       style="overflow:visible">
      <path
         id="path3812-3"
         d="M 0,0 5,-5 -12.5,0 5,5 0,0 z"
         style="fill-rule:evenodd;stroke:#000000;stroke-width:1pt"
         transform="matrix(-0.2,0,0,-0.2,-1.2,0)"
         inkscape:connector-curvature="0" />
    </marker>
    <marker
       inkscape:stockid="Arrow1SstartP"
       orient="auto"
       refY="0"
       refX="0"
       id="Arrow1SstartP"
       style="overflow:visible">
      <path
         id="path24705"
         d="M 0,0 5,-5 -12.5,0 5,5 0,0 z"
         style="fill:#ff0000;fill-rule:evenodd;stroke:#ff0000;stroke-width:1pt"
         transform="matrix(0.2,0,0,0.2,1.2,0)"
         inkscape:connector-curvature="0" />
    </marker>
    <marker
       inkscape:stockid="Arrow1Sendk"
       orient="auto"
       refY="0"
       refX="0"
       id="Arrow1Sendk"
       style="overflow:visible">
      <path
         id="path24708"
         d="M 0,0 5,-5 -12.5,0 5,5 0,0 z"
         style="fill:#ff0000;fill-rule:evenodd;stroke:#ff0000;stroke-width:1pt"
         transform="matrix(-0.2,0,0,-0.2,-1.2,0)"
         inkscape:connector-curvature="0" />
    </marker>
    <marker
       inkscape:stockid="Arrow1Sstart3"
       orient="auto"
       refY="0"
       refX="0"
       id="Arrow1Sstart3"
       style="overflow:visible">
      <path
         id="path25731"
         d="M 0,0 5,-5 -12.5,0 5,5 0,0 z"
         style="fill:#00ff00;fill-rule:evenodd;stroke:#00ff00;stroke-width:1pt"
         transform="matrix(0.2,0,0,0.2,1.2,0)"
         inkscape:connector-curvature="0" />
    </marker>
    <marker
       inkscape:stockid="Arrow1Sendh"
       orient="auto"
       refY="0"
       refX="0"
       id="Arrow1Sendh"
       style="overflow:visible">
      <path
         id="path25734"
         d="M 0,0 5,-5 -12.5,0 5,5 0,0 z"
         style="fill:#00ff00;fill-rule:evenodd;stroke:#00ff00;stroke-width:1pt"
         transform="matrix(-0.2,0,0,-0.2,-1.2,0)"
         inkscape:connector-curvature="0" />
    </marker>
    <marker
       inkscape:stockid="Arrow1SstartW"
       orient="auto"
       refY="0"
       refX="0"
       id="Arrow1SstartW"
       style="overflow:visible">
      <path
         id="path26765"
         d="M 0,0 5,-5 -12.5,0 5,5 0,0 z"
         style="fill:#0000ff;fill-rule:evenodd;stroke:#0000ff;stroke-width:1pt"
         transform="matrix(0.2,0,0,0.2,1.2,0)"
         inkscape:connector-curvature="0" />
    </marker>
    <marker
       inkscape:stockid="Arrow1SendB"
       orient="auto"
       refY="0"
       refX="0"
       id="Arrow1SendB"
       style="overflow:visible">
      <path
         id="path26768"
         d="M 0,0 5,-5 -12.5,0 5,5 0,0 z"
         style="fill:#0000ff;fill-rule:evenodd;stroke:#0000ff;stroke-width:1pt"
         transform="matrix(-0.2,0,0,-0.2,-1.2,0)"
         inkscape:connector-curvature="0" />
    </marker>
    <marker
       inkscape:stockid="Arrow1SstartR"
       orient="auto"
       refY="0"
       refX="0"
       id="Arrow1SstartR"
       style="overflow:visible">
      <path
         id="path27807"
         d="M 0,0 5,-5 -12.5,0 5,5 0,0 z"
         style="fill:#ff6600;fill-rule:evenodd;stroke:#ff6600;stroke-width:1pt"
         transform="matrix(0.2,0,0,0.2,1.2,0)"
         inkscape:connector-curvature="0" />
    </marker>
    <marker
       inkscape:stockid="Arrow1SendB5"
       orient="auto"
       refY="0"
       refX="0"
       id="Arrow1SendB5"
       style="overflow:visible">
      <path
         id="path27810"
         d="M 0,0 5,-5 -12.5,0 5,5 0,0 z"
         style="fill:#ff6600;fill-rule:evenodd;stroke:#ff6600;stroke-width:1pt"
         transform="matrix(-0.2,0,0,-0.2,-1.2,0)"
         inkscape:connector-curvature="0" />
    </marker>
    <marker
       inkscape:stockid="Arrow1Sstart"
       orient="auto"
       refY="0"
       refX="0"
       id="Arrow1Sstart-90-3"
       style="overflow:visible">
      <path
         id="path3809-16-1"
         d="M 0,0 5,-5 -12.5,0 5,5 0,0 z"
         style="fill-rule:evenodd;stroke:#000000;stroke-width:1pt"
         transform="matrix(0.2,0,0,0.2,1.2,0)"
         inkscape:connector-curvature="0" />
    </marker>
    <marker
       inkscape:stockid="Arrow1Send"
       orient="auto"
       refY="0"
       refX="0"
       id="Arrow1Send-68-3"
       style="overflow:visible">
      <path
         id="path3812-3-9"
         d="M 0,0 5,-5 -12.5,0 5,5 0,0 z"
         style="fill-rule:evenodd;stroke:#000000;stroke-width:1pt"
         transform="matrix(-0.2,0,0,-0.2,-1.2,0)"
         inkscape:connector-curvature="0" />
    </marker>
    <marker
       inkscape:stockid="Arrow1Sstart"
       orient="auto"
       refY="0"
       refX="0"
       id="Arrow1Sstart-90-7"
       style="overflow:visible">
      <path
         id="path3809-16-2"
         d="M 0,0 5,-5 -12.5,0 5,5 0,0 z"
         style="fill-rule:evenodd;stroke:#000000;stroke-width:1pt"
         transform="matrix(0.2,0,0,0.2,1.2,0)"
         inkscape:connector-curvature="0" />
    </marker>
    <marker
       inkscape:stockid="Arrow1Send"
       orient="auto"
       refY="0"
       refX="0"
       id="Arrow1Send-68-39"
       style="overflow:visible">
      <path
         id="path3812-3-0"
         d="M 0,0 5,-5 -12.5,0 5,5 0,0 z"
         style="fill-rule:evenodd;stroke:#000000;stroke-width:1pt"
         transform="matrix(-0.2,0,0,-0.2,-1.2,0)"
         inkscape:connector-curvature="0" />
    </marker>
    <marker
       inkscape:stockid="Arrow1Send"
       orient="auto"
       refY="0"
       refX="0"
       id="Arrow1Send-68-39-8"
       style="overflow:visible">
      <path
         id="path3812-3-0-9"
         d="M 0,0 5,-5 -12.5,0 5,5 0,0 z"
         style="fill-rule:evenodd;stroke:#000000;stroke-width:1pt"
         transform="matrix(-0.2,0,0,-0.2,-1.2,0)"
         inkscape:connector-curvature="0" />
    </marker>
    <marker
       inkscape:stockid="Arrow1Sstart"
       orient="auto"
       refY="0"
       refX="0"
       id="Arrow1Sstart-90-7-0"
       style="overflow:visible">
      <path
         id="path3809-16-2-9"
         d="M 0,0 5,-5 -12.5,0 5,5 0,0 z"
         style="fill-rule:evenodd;stroke:#000000;stroke-width:1pt"
         transform="matrix(0.2,0,0,0.2,1.2,0)"
         inkscape:connector-curvature="0" />
    </marker>
    <marker
       inkscape:stockid="Arrow1Send"
       orient="auto"
       refY="0"
       refX="0"
       id="Arrow1Send-68-39-8-7"
       style="overflow:visible">
      <path
         id="path3812-3-0-9-6"
         d="M 0,0 5,-5 -12.5,0 5,5 0,0 z"
         style="fill-rule:evenodd;stroke:#000000;stroke-width:1pt"
         transform="matrix(-0.2,0,0,-0.2,-1.2,0)"
         inkscape:connector-curvature="0" />
    </marker>
    <marker
       inkscape:stockid="Arrow1Sstart"
       orient="auto"
       refY="0"
       refX="0"
       id="Arrow1Sstart-90-7-4"
       style="overflow:visible">
      <path
         id="path3809-16-2-2"
         d="M 0,0 5,-5 -12.5,0 5,5 0,0 z"
         style="fill-rule:evenodd;stroke:#000000;stroke-width:1pt"
         transform="matrix(0.2,0,0,0.2,1.2,0)"
         inkscape:connector-curvature="0" />
    </marker>
    <marker
       inkscape:stockid="Arrow1Send"
       orient="auto"
       refY="0"
       refX="0"
       id="Arrow1Send-68-39-8-9"
       style="overflow:visible">
      <path
         id="path3812-3-0-9-9"
         d="M 0,0 5,-5 -12.5,0 5,5 0,0 z"
         style="fill-rule:evenodd;stroke:#000000;stroke-width:1pt"
         transform="matrix(-0.2,0,0,-0.2,-1.2,0)"
         inkscape:connector-curvature="0" />
    </marker>
  </defs>
  <path
     sodipodi:nodetypes="cssssssssasssasssssscc"
     inkscape:connector-curvature="0"
     id="path17357"
     d="m 71.221164,121.95331 c 0,0 1.09202,4.12903 1.00605,7.21029 -0.0852,3.05901 -0.58136,6.12682 -1.42104,9.069 -0.83376,2.92211 -1.65033,5.90654 -2.65099,8.77578 -0.82256,2.35774 -1.077,5.13925 -2.90601,6.83988 -1.65134,1.53585 -4.40383,1.67105 -6.63306,1.33055 -1.20293,-0.1834 -2.36224,-0.87229 -3.20181,-1.75358 -1.29338,-1.35731 -1.79438,-3.30505 -2.46135,-5.05752 -1.08982,-2.86351 -1.60152,-5.91589 -2.49089,-8.8478 -0.67281,-2.21804 -1.52866,-4.38045 -2.15189,-6.61298 -0.7487,-2.68216 -1.3801,-5.28262 -1.90297,-8.13384 -0.15535,-0.84686 -0.66823,-2.42879 -0.9186,-3.25201 -0.78629,-2.58538 -0.76945,-4.42476 -0.7702,-6.80763 -4.7e-4,-2.24166 -0.008,-4.42439 0.54572,-6.54043 0.39441,-1.50951 1.30775,-3.32592 1.9425,-4.25828 0.94947,-1.3963 2.64811,-2.95273 5.29488,-3.22741 2.34908,-0.24398 5.35138,-0.3461 7.35191,0.91021 2.93931,1.84479 2.28038,0.9062 4.23714,3.41633 1.30097,1.66796 2.28666,3.70065 3.35028,5.39122 1.3809,2.1952 1.98598,4.41306 2.56029,6.10255 0.55414,1.63002 1.22008,5.44565 1.22008,5.44565 z"
     style="fill:#00ff00;fill-opacity:0.39215686;stroke:#000000;stroke-width:1.07672131px;stroke-linecap:butt;stroke-linejoin:miter;stroke-opacity:1" />
  <path
     sodipodi:nodetypes="ssssssssssssssssssssssssssssssssss"
     inkscape:connector-curvature="0"
     id="path17359"
     d="m 14.397544,33.407693 c 0.79035,2.457821 1.40939,3.43199 1.61487,6.004957 0.40933,5.117098 -4.08755,9.840743 -3.66861,14.956993 0.48367,5.903769 3.75821,11.371063 6.98437,16.339423 3.83035,5.898392 10.00544,9.82017 13.91139,15.66969 1.81258,2.71435 3.02115,5.88776 3.38619,9.1314 0.40051,3.56019 -0.90927,6.010144 -0.93626,9.593264 -0.0244,3.20295 0.42628,6.83727 2.06536,9.58962 1.85855,3.12081 4.78387,5.67715 8.05407,7.25825 1.02507,0.49565 2.84001,0.97643 3.97842,0.96298 3.17091,-0.0362 6.28273,-0.52022 9.22914,-1.69236 3.11644,-1.23939 5.9031,-3.25265 8.10849,-5.77892 1.2356,-1.41639 1.59938,-3.94934 1.48589,-5.82542 -0.30331,-5.01526 -4.35325,-8.13174 -6.66682,-12.592034 -3.14646,-6.06601 -7.09881,-11.86587 -8.95065,-18.44445 -1.1968,-4.251824 0.0635,-8.981434 -1.28258,-13.188565 -0.99904,-3.122539 -2.99659,-5.606462 -3.70831,-8.807347 -0.43501,-1.95738 -0.15131,-3.778575 -0.6886,-5.711591 -0.72508,-2.60971 -2.68394,-4.850797 -4.76867,-6.581817 -3.35781,-2.788082 -8.70685,-2.555859 -11.83369,-5.600169 -2.77606,-2.70287 -6.52958,-6.711924 -5.25145,-10.369597 0.65128,-1.862851 4.81645,-1.065973 5.32807,-2.972627 0.63266,-2.356487 -0.99685,-2.394013 -1.68534,-3.485592 -0.46189,-0.732295 0.46464,-1.510875 0.29349,-2.358619 -0.18125,-0.896417 -2.10743,-2.220395 -1.56386,-2.954998 0.54883,-0.742918 2.17227,-1.101732 2.16664,-2.02531 -0.009,-1.432549 -2.6219,-1.306089 -3.58793,-2.36408 -3.28273,-3.5946689 -2.58622,-7.4513419 -6.63038,-10.1595099 -2.70891,-1.81457899 -5.78884,-1.68149899 -8.5744,-0.965581 -3.5909897,0.921457 -7.2296397,3.205429 -9.0845197,6.415541 -1.75249,3.0329349 -1.99955,7.1159919 -0.96806,10.4629039 1.04151,3.379052 3.94672,6.028668 6.75277,8.178913 1.19621,0.91701 2.6387997,1.29835 3.5897197,2.467479 0.93003,1.143161 2.45017,3.444319 2.90127,4.847164 z"
     style="fill:#ff0000;fill-opacity:0.39215686;stroke:#000000;stroke-width:1.07672131px;stroke-linecap:butt;stroke-linejoin:miter;stroke-opacity:1" />
  <path
     sodipodi:nodetypes="cc"
     inkscape:connector-curvature="0"
     id="path17365"
     d="M 51.681554,106.68759 24.619994,36.407254"
     style="fill:none;stroke:#ff0000;stroke-width:1;stroke-linecap:butt;stroke-linejoin:miter;stroke-miterlimit:4;stroke-opacity:1;stroke-dasharray:2, 1;stroke-dashoffset:0" />
  <path
     inkscape:connector-curvature="0"
     id="path17391"
     d="m 53.826464,115.67458 1.49339,9.92367 9.92366,-1.49338"
     style="fill:none;stroke:#00ff00;stroke-width:1.5;stroke-linecap:butt;stroke-linejoin:miter;stroke-miterlimit:4;stroke-opacity:1;stroke-dasharray:none;marker-start:url(#Arrow1Sstart3);marker-end:url(#Arrow1Sendh)" />
  <path
     sodipodi:nodetypes="cc"
     inkscape:connector-curvature="0"
     id="path17393"
     d="M 59.401864,150.40864 40.140964,31.115791"
     style="fill:none;stroke:#00ff00;stroke-width:1;stroke-linecap:butt;stroke-linejoin:miter;stroke-miterlimit:4;stroke-opacity:1;stroke-dasharray:2, 1;stroke-dashoffset:0" />
  <path
     inkscape:connector-curvature="0"
     id="path17395"
     d="m 34.324454,61.501744 3.50614,9.402979 9.403,-3.506139"
     style="fill:none;stroke:#ff0000;stroke-width:1.5;stroke-linecap:butt;stroke-linejoin:miter;stroke-miterlimit:4;stroke-opacity:1;stroke-dasharray:none;marker-start:url(#Arrow1SstartP);marker-end:url(#Arrow1Sendk)" />
  <g
     id="g17463"
     style="stroke-width:0.0000001"
     ns0:page_width="10cm"
     ns0:preamble=""
     ns0:text="$\\theta_3$"
     transform="matrix(0.9375,0,0,0.9375,28.723984,24.738)">
    <defs
       id="defs17465">
      <g
         id="g17467">
        <symbol
           id="symbol17469"
           overflow="visible"
           style="overflow:visible">
          <path
             id="path17471"
             d=""
             style="stroke:none"
             inkscape:connector-curvature="0" />
        </symbol>
        <symbol
           id="symbol17473"
           overflow="visible"
           style="overflow:visible">
          <path
             id="path17475"
             d="m 4.53125,-4.984375 c 0,-0.65625 -0.171875,-2.046875 -1.1875,-2.046875 -1.390625,0 -2.921875,2.8125 -2.921875,5.09375 0,0.9375 0.28125,2.046875 1.1875,2.046875 1.40625,0 2.921875,-2.859375 2.921875,-5.09375 z M 1.46875,-3.625 C 1.640625,-4.25 1.84375,-5.046875 2.25,-5.765625 2.515625,-6.25 2.875,-6.8125 3.328125,-6.8125 c 0.484375,0 0.546875,0.640625 0.546875,1.203125 0,0.5 -0.078125,1 -0.3125,1.984375 z m 2,0.328125 C 3.359375,-2.84375 3.15625,-2 2.765625,-1.28125 c -0.34375,0.6875 -0.71875,1.171875 -1.15625,1.171875 -0.328125,0 -0.53125,-0.296875 -0.53125,-1.21875 0,-0.421875 0.0625,-1 0.3125,-1.96875 z"
             style="stroke:none"
             inkscape:connector-curvature="0" />
        </symbol>
        <symbol
           id="symbol17477"
           overflow="visible"
           style="overflow:visible">
          <path
             id="path17479"
             d=""
             style="stroke:none"
             inkscape:connector-curvature="0" />
        </symbol>
        <symbol
           id="symbol17481"
           overflow="visible"
           style="overflow:visible">
          <path
             id="path17483"
             d="m 1.90625,-2.328125 c 0.546875,0 0.9375,0.375 0.9375,1.125 0,0.859375 -0.515625,1.125 -0.90625,1.125 -0.28125,0 -0.90625,-0.078125 -1.1875,-0.5 0.328125,0 0.40625,-0.234375 0.40625,-0.390625 0,-0.21875 -0.171875,-0.375 -0.390625,-0.375 -0.1875,0 -0.390625,0.125 -0.390625,0.40625 0,0.65625 0.71875,1.078125 1.5625,1.078125 0.96875,0 1.640625,-0.65625 1.640625,-1.34375 0,-0.546875 -0.4375,-1.09375 -1.203125,-1.25 0.71875,-0.265625 0.984375,-0.78125 0.984375,-1.21875 0,-0.546875 -0.625,-0.953125 -1.40625,-0.953125 -0.765625,0 -1.359375,0.375 -1.359375,0.9375 0,0.234375 0.15625,0.359375 0.359375,0.359375 0.21875,0 0.359375,-0.15625 0.359375,-0.34375 0,-0.203125 -0.140625,-0.359375 -0.359375,-0.375 0.25,-0.296875 0.71875,-0.375 0.984375,-0.375 0.3125,0 0.75,0.15625 0.75,0.75 0,0.296875 -0.09375,0.625 -0.28125,0.828125 -0.21875,0.265625 -0.421875,0.28125 -0.765625,0.3125 -0.171875,0.015625 -0.1875,0.015625 -0.21875,0.015625 -0.015625,0 -0.078125,0.015625 -0.078125,0.09375 0,0.09375 0.0625,0.09375 0.1875,0.09375 z"
             style="stroke:none"
             inkscape:connector-curvature="0" />
        </symbol>
      </g>
    </defs>
    <g
       id="g17485">
      <g
         id="g17487"
         style="fill:#000000;fill-opacity:1">
        <g
           id="use17489"
           transform="translate(0,9.9630003)">
          <path
             id="path4582"
             d="m 4.53125,-4.984375 c 0,-0.65625 -0.171875,-2.046875 -1.1875,-2.046875 -1.390625,0 -2.921875,2.8125 -2.921875,5.09375 0,0.9375 0.28125,2.046875 1.1875,2.046875 1.40625,0 2.921875,-2.859375 2.921875,-5.09375 z M 1.46875,-3.625 C 1.640625,-4.25 1.84375,-5.046875 2.25,-5.765625 2.515625,-6.25 2.875,-6.8125 3.328125,-6.8125 c 0.484375,0 0.546875,0.640625 0.546875,1.203125 0,0.5 -0.078125,1 -0.3125,1.984375 z m 2,0.328125 C 3.359375,-2.84375 3.15625,-2 2.765625,-1.28125 c -0.34375,0.6875 -0.71875,1.171875 -1.15625,1.171875 -0.328125,0 -0.53125,-0.296875 -0.53125,-1.21875 0,-0.421875 0.0625,-1 0.3125,-1.96875 z"
             style="stroke:none"
             inkscape:connector-curvature="0" />
        </g>
      </g>
      <g
         id="g17491"
         style="fill:#000000;fill-opacity:1">
        <g
           id="use17493"
           transform="translate(4.677,11.457)">
          <path
             id="path4590"
             d="m 1.90625,-2.328125 c 0.546875,0 0.9375,0.375 0.9375,1.125 0,0.859375 -0.515625,1.125 -0.90625,1.125 -0.28125,0 -0.90625,-0.078125 -1.1875,-0.5 0.328125,0 0.40625,-0.234375 0.40625,-0.390625 0,-0.21875 -0.171875,-0.375 -0.390625,-0.375 -0.1875,0 -0.390625,0.125 -0.390625,0.40625 0,0.65625 0.71875,1.078125 1.5625,1.078125 0.96875,0 1.640625,-0.65625 1.640625,-1.34375 0,-0.546875 -0.4375,-1.09375 -1.203125,-1.25 0.71875,-0.265625 0.984375,-0.78125 0.984375,-1.21875 0,-0.546875 -0.625,-0.953125 -1.40625,-0.953125 -0.765625,0 -1.359375,0.375 -1.359375,0.9375 0,0.234375 0.15625,0.359375 0.359375,0.359375 0.21875,0 0.359375,-0.15625 0.359375,-0.34375 0,-0.203125 -0.140625,-0.359375 -0.359375,-0.375 0.25,-0.296875 0.71875,-0.375 0.984375,-0.375 0.3125,0 0.75,0.15625 0.75,0.75 0,0.296875 -0.09375,0.625 -0.28125,0.828125 -0.21875,0.265625 -0.421875,0.28125 -0.765625,0.3125 -0.171875,0.015625 -0.1875,0.015625 -0.21875,0.015625 -0.015625,0 -0.078125,0.015625 -0.078125,0.09375 0,0.09375 0.0625,0.09375 0.1875,0.09375 z"
             style="stroke:none"
             inkscape:connector-curvature="0" />
        </g>
      </g>
    </g>
  </g>
  <g
     id="g17671"
     style="fill:#000000;stroke-width:0.0000001"
     ns0:page_width="10cm"
     ns0:preamble=""
     ns0:text="$\\hat{\\mathbf{u}}_x$"
     transform="matrix(0.9375,0,0,0.9375,60.694614,123.66741)">
    <defs
       id="defs17673">
      <g
         id="g17675">
        <symbol
           style="overflow:visible"
           id="symbol17677"
           overflow="visible">
          <path
             inkscape:connector-curvature="0"
             id="path17679"
             d=""
             style="stroke:none" />
        </symbol>
        <symbol
           style="overflow:visible"
           id="symbol17681"
           overflow="visible">
          <path
             inkscape:connector-curvature="0"
             id="path17683"
             d="M 2.5,-6.921875 1.15625,-5.5625 1.328125,-5.390625 2.5,-6.40625 3.640625,-5.390625 3.8125,-5.5625 z"
             style="stroke:none" />
        </symbol>
        <symbol
           style="overflow:visible"
           id="symbol17685"
           overflow="visible">
          <path
             inkscape:connector-curvature="0"
             id="path17687"
             d=""
             style="stroke:none" />
        </symbol>
        <symbol
           style="overflow:visible"
           id="symbol17689"
           overflow="visible">
          <path
             inkscape:connector-curvature="0"
             id="path17691"
             d="m 4.359375,-0.71875 0,0.78125 L 6.125,0 l 0,-0.46875 c -0.609375,0 -0.6875,0 -0.6875,-0.390625 l 0,-3.625 -1.8125,0.078125 0,0.46875 c 0.609375,0 0.6875,0 0.6875,0.390625 l 0,1.90625 c 0,0.8125 -0.515625,1.34375 -1.234375,1.34375 -0.78125,0 -0.8125,-0.25 -0.8125,-0.796875 l 0,-3.390625 -1.8125,0.078125 0,0.46875 c 0.609375,0 0.6875,0 0.6875,0.390625 l 0,2.328125 c 0,1.0625 0.796875,1.28125 1.796875,1.28125 0.25,0 0.96875,0 1.421875,-0.78125 z"
             style="stroke:none" />
        </symbol>
        <symbol
           style="overflow:visible"
           id="symbol17693"
           overflow="visible">
          <path
             inkscape:connector-curvature="0"
             id="path17695"
             d=""
             style="stroke:none" />
        </symbol>
        <symbol
           style="overflow:visible"
           id="symbol17697"
           overflow="visible">
          <path
             inkscape:connector-curvature="0"
             id="path17699"
             d="M 1.734375,-0.734375 C 1.671875,-0.5 1.4375,-0.125 1.078125,-0.125 c -0.015625,0 -0.234375,0 -0.375,-0.09375 0.28125,-0.09375 0.3125,-0.34375 0.3125,-0.390625 0,-0.15625 -0.125,-0.25 -0.28125,-0.25 -0.203125,0 -0.40625,0.15625 -0.40625,0.421875 0,0.34375 0.390625,0.5 0.734375,0.5 0.328125,0 0.609375,-0.1875 0.78125,-0.484375 C 2.015625,-0.0625 2.390625,0.0625 2.671875,0.0625 c 0.8125,0 1.234375,-0.859375 1.234375,-1.0625 0,-0.09375 -0.09375,-0.09375 -0.109375,-0.09375 -0.109375,0 -0.109375,0.046875 -0.140625,0.125 -0.140625,0.484375 -0.5625,0.84375 -0.953125,0.84375 -0.28125,0 -0.421875,-0.1875 -0.421875,-0.453125 0,-0.1875 0.171875,-0.8125 0.359375,-1.59375 C 2.78125,-2.703125 3.09375,-2.875 3.328125,-2.875 c 0.015625,0 0.21875,0 0.375,0.09375 -0.21875,0.0625 -0.3125,0.265625 -0.3125,0.390625 0,0.140625 0.125,0.25 0.28125,0.25 0.15625,0 0.390625,-0.125 0.390625,-0.421875 0,-0.390625 -0.453125,-0.515625 -0.71875,-0.515625 -0.359375,0 -0.640625,0.234375 -0.78125,0.5 -0.125,-0.28125 -0.453125,-0.5 -0.84375,-0.5 C 0.9375,-3.078125 0.5,-2.21875 0.5,-2 c 0,0.078125 0.09375,0.078125 0.109375,0.078125 0.09375,0 0.09375,-0.015625 0.140625,-0.109375 C 0.921875,-2.578125 1.359375,-2.875 1.703125,-2.875 1.9375,-2.875 2.125,-2.75 2.125,-2.421875 2.125,-2.28125 2.03125,-1.9375 1.96875,-1.6875 z"
             style="stroke:none" />
        </symbol>
      </g>
    </defs>
    <g
       style="fill:#000000"
       id="g17701">
      <g
         id="g17703"
         style="fill:#000000;fill-opacity:1">
        <g
           id="use17705"
           style="fill:#000000"
           transform="translate(0.69199997,9.8249998)">
          <path
             inkscape:connector-curvature="0"
             id="path4474"
             d="M 2.5,-6.921875 1.15625,-5.5625 1.328125,-5.390625 2.5,-6.40625 3.640625,-5.390625 3.8125,-5.5625 z"
             style="stroke:none" />
        </g>
      </g>
      <g
         id="g17707"
         style="fill:#000000;fill-opacity:1">
        <g
           id="use17709"
           style="fill:#000000"
           transform="translate(0,9.9630003)">
          <path
             inkscape:connector-curvature="0"
             id="path4486"
             d="m 4.359375,-0.71875 0,0.78125 L 6.125,0 l 0,-0.46875 c -0.609375,0 -0.6875,0 -0.6875,-0.390625 l 0,-3.625 -1.8125,0.078125 0,0.46875 c 0.609375,0 0.6875,0 0.6875,0.390625 l 0,1.90625 c 0,0.8125 -0.515625,1.34375 -1.234375,1.34375 -0.78125,0 -0.8125,-0.25 -0.8125,-0.796875 l 0,-3.390625 -1.8125,0.078125 0,0.46875 c 0.609375,0 0.6875,0 0.6875,0.390625 l 0,2.328125 c 0,1.0625 0.796875,1.28125 1.796875,1.28125 0.25,0 0.96875,0 1.421875,-0.78125 z"
             style="stroke:none" />
        </g>
      </g>
      <g
         id="g17711"
         style="fill:#000000;fill-opacity:1">
        <g
           id="use17713"
           style="fill:#000000"
           transform="translate(6.3649998,11.457)">
          <path
             inkscape:connector-curvature="0"
             id="path4498"
             d="M 1.734375,-0.734375 C 1.671875,-0.5 1.4375,-0.125 1.078125,-0.125 c -0.015625,0 -0.234375,0 -0.375,-0.09375 0.28125,-0.09375 0.3125,-0.34375 0.3125,-0.390625 0,-0.15625 -0.125,-0.25 -0.28125,-0.25 -0.203125,0 -0.40625,0.15625 -0.40625,0.421875 0,0.34375 0.390625,0.5 0.734375,0.5 0.328125,0 0.609375,-0.1875 0.78125,-0.484375 C 2.015625,-0.0625 2.390625,0.0625 2.671875,0.0625 c 0.8125,0 1.234375,-0.859375 1.234375,-1.0625 0,-0.09375 -0.09375,-0.09375 -0.109375,-0.09375 -0.109375,0 -0.109375,0.046875 -0.140625,0.125 -0.140625,0.484375 -0.5625,0.84375 -0.953125,0.84375 -0.28125,0 -0.421875,-0.1875 -0.421875,-0.453125 0,-0.1875 0.171875,-0.8125 0.359375,-1.59375 C 2.78125,-2.703125 3.09375,-2.875 3.328125,-2.875 c 0.015625,0 0.21875,0 0.375,0.09375 -0.21875,0.0625 -0.3125,0.265625 -0.3125,0.390625 0,0.140625 0.125,0.25 0.28125,0.25 0.15625,0 0.390625,-0.125 0.390625,-0.421875 0,-0.390625 -0.453125,-0.515625 -0.71875,-0.515625 -0.359375,0 -0.640625,0.234375 -0.78125,0.5 -0.125,-0.28125 -0.453125,-0.5 -0.84375,-0.5 C 0.9375,-3.078125 0.5,-2.21875 0.5,-2 c 0,0.078125 0.09375,0.078125 0.109375,0.078125 0.09375,0 0.09375,-0.015625 0.140625,-0.109375 C 0.921875,-2.578125 1.359375,-2.875 1.703125,-2.875 1.9375,-2.875 2.125,-2.75 2.125,-2.421875 2.125,-2.28125 2.03125,-1.9375 1.96875,-1.6875 z"
             style="stroke:none" />
        </g>
      </g>
    </g>
  </g>
  <g
     transform="matrix(0.9375,0,0,0.9375,54.989454,104.85393)"
     ns0:text="$\\hat{\\mathbf{u}}_y$"
     ns0:preamble=""
     ns0:page_width="10cm"
     style="fill:#000000;stroke-width:0.0000001"
     id="g17715">
    <defs
       id="defs17717">
      <g
         id="g17719">
        <symbol
           style="overflow:visible"
           overflow="visible"
           id="symbol17721">
          <path
             inkscape:connector-curvature="0"
             style="stroke:none"
             d=""
             id="path17723" />
        </symbol>
        <symbol
           style="overflow:visible"
           overflow="visible"
           id="symbol17725">
          <path
             inkscape:connector-curvature="0"
             style="stroke:none"
             d="M 2.5,-6.921875 1.15625,-5.5625 1.328125,-5.390625 2.5,-6.40625 3.640625,-5.390625 3.8125,-5.5625 z"
             id="path17727" />
        </symbol>
        <symbol
           style="overflow:visible"
           overflow="visible"
           id="symbol17729">
          <path
             inkscape:connector-curvature="0"
             style="stroke:none"
             d=""
             id="path17731" />
        </symbol>
        <symbol
           style="overflow:visible"
           overflow="visible"
           id="symbol17733">
          <path
             inkscape:connector-curvature="0"
             style="stroke:none"
             d="m 4.359375,-0.71875 0,0.78125 L 6.125,0 l 0,-0.46875 c -0.609375,0 -0.6875,0 -0.6875,-0.390625 l 0,-3.625 -1.8125,0.078125 0,0.46875 c 0.609375,0 0.6875,0 0.6875,0.390625 l 0,1.90625 c 0,0.8125 -0.515625,1.34375 -1.234375,1.34375 -0.78125,0 -0.8125,-0.25 -0.8125,-0.796875 l 0,-3.390625 -1.8125,0.078125 0,0.46875 c 0.609375,0 0.6875,0 0.6875,0.390625 l 0,2.328125 c 0,1.0625 0.796875,1.28125 1.796875,1.28125 0.25,0 0.96875,0 1.421875,-0.78125 z"
             id="path17735" />
        </symbol>
        <symbol
           style="overflow:visible"
           overflow="visible"
           id="symbol17737">
          <path
             inkscape:connector-curvature="0"
             style="stroke:none"
             d=""
             id="path17739" />
        </symbol>
        <symbol
           style="overflow:visible"
           overflow="visible"
           id="symbol17741">
          <path
             inkscape:connector-curvature="0"
             style="stroke:none"
             d="M 3.875,-2.625 C 3.90625,-2.71875 3.90625,-2.734375 3.90625,-2.78125 3.90625,-2.921875 3.796875,-3 3.671875,-3 3.59375,-3 3.46875,-2.96875 3.390625,-2.84375 3.359375,-2.796875 3.3125,-2.578125 3.28125,-2.4375 L 3.125,-1.859375 c -0.03125,0.171875 -0.25,1.046875 -0.28125,1.125 0,0 -0.3125,0.609375 -0.84375,0.609375 -0.484375,0 -0.484375,-0.453125 -0.484375,-0.578125 0,-0.375 0.15625,-0.8125 0.375,-1.359375 C 1.96875,-2.28125 2,-2.359375 2,-2.484375 2,-2.8125 1.71875,-3.078125 1.34375,-3.078125 0.640625,-3.078125 0.328125,-2.125 0.328125,-2 c 0,0.078125 0.09375,0.078125 0.125,0.078125 0.09375,0 0.09375,-0.03125 0.125,-0.109375 C 0.75,-2.609375 1.046875,-2.875 1.328125,-2.875 1.4375,-2.875 1.5,-2.796875 1.5,-2.640625 c 0,0.171875 -0.0625,0.3125 -0.09375,0.40625 C 1.0625,-1.375 1,-1.125 1,-0.8125 1,-0.703125 1,-0.375 1.265625,-0.140625 1.484375,0.03125 1.78125,0.0625 1.96875,0.0625 2.25,0.0625 2.5,-0.03125 2.71875,-0.25 2.640625,0.140625 2.5625,0.4375 2.265625,0.78125 2.078125,1 1.796875,1.21875 1.421875,1.21875 c -0.046875,0 -0.375,0 -0.515625,-0.21875 0.375,-0.046875 0.375,-0.375 0.375,-0.390625 0,-0.21875 -0.203125,-0.265625 -0.265625,-0.265625 -0.171875,0 -0.40625,0.140625 -0.40625,0.46875 0,0.34375 0.328125,0.609375 0.828125,0.609375 C 2.140625,1.421875 3,0.875 3.21875,0 z"
             id="path17743" />
        </symbol>
      </g>
    </defs>
    <g
       style="fill:#000000"
       id="g17745">
      <g
         style="fill:#000000;fill-opacity:1"
         id="g17747">
        <g
           id="use17749"
           style="fill:#000000"
           transform="translate(0.69199997,9.8249998)">
          <path
             inkscape:connector-curvature="0"
             style="stroke:none"
             d="M 2.5,-6.921875 1.15625,-5.5625 1.328125,-5.390625 2.5,-6.40625 3.640625,-5.390625 3.8125,-5.5625 z"
             id="path4438" />
        </g>
      </g>
      <g
         style="fill:#000000;fill-opacity:1"
         id="g17751">
        <g
           id="use17753"
           style="fill:#000000"
           transform="translate(0,9.9630003)">
          <path
             inkscape:connector-curvature="0"
             style="stroke:none"
             d="m 4.359375,-0.71875 0,0.78125 L 6.125,0 l 0,-0.46875 c -0.609375,0 -0.6875,0 -0.6875,-0.390625 l 0,-3.625 -1.8125,0.078125 0,0.46875 c 0.609375,0 0.6875,0 0.6875,0.390625 l 0,1.90625 c 0,0.8125 -0.515625,1.34375 -1.234375,1.34375 -0.78125,0 -0.8125,-0.25 -0.8125,-0.796875 l 0,-3.390625 -1.8125,0.078125 0,0.46875 c 0.609375,0 0.6875,0 0.6875,0.390625 l 0,2.328125 c 0,1.0625 0.796875,1.28125 1.796875,1.28125 0.25,0 0.96875,0 1.421875,-0.78125 z"
             id="path4450" />
        </g>
      </g>
      <g
         style="fill:#000000;fill-opacity:1"
         id="g17755">
        <g
           id="use17757"
           style="fill:#000000"
           transform="translate(6.3649998,11.457)">
          <path
             inkscape:connector-curvature="0"
             style="stroke:none"
             d="M 3.875,-2.625 C 3.90625,-2.71875 3.90625,-2.734375 3.90625,-2.78125 3.90625,-2.921875 3.796875,-3 3.671875,-3 3.59375,-3 3.46875,-2.96875 3.390625,-2.84375 3.359375,-2.796875 3.3125,-2.578125 3.28125,-2.4375 L 3.125,-1.859375 c -0.03125,0.171875 -0.25,1.046875 -0.28125,1.125 0,0 -0.3125,0.609375 -0.84375,0.609375 -0.484375,0 -0.484375,-0.453125 -0.484375,-0.578125 0,-0.375 0.15625,-0.8125 0.375,-1.359375 C 1.96875,-2.28125 2,-2.359375 2,-2.484375 2,-2.8125 1.71875,-3.078125 1.34375,-3.078125 0.640625,-3.078125 0.328125,-2.125 0.328125,-2 c 0,0.078125 0.09375,0.078125 0.125,0.078125 0.09375,0 0.09375,-0.03125 0.125,-0.109375 C 0.75,-2.609375 1.046875,-2.875 1.328125,-2.875 1.4375,-2.875 1.5,-2.796875 1.5,-2.640625 c 0,0.171875 -0.0625,0.3125 -0.09375,0.40625 C 1.0625,-1.375 1,-1.125 1,-0.8125 1,-0.703125 1,-0.375 1.265625,-0.140625 1.484375,0.03125 1.78125,0.0625 1.96875,0.0625 2.25,0.0625 2.5,-0.03125 2.71875,-0.25 2.640625,0.140625 2.5625,0.4375 2.265625,0.78125 2.078125,1 1.796875,1.21875 1.421875,1.21875 c -0.046875,0 -0.375,0 -0.515625,-0.21875 0.375,-0.046875 0.375,-0.375 0.375,-0.390625 0,-0.21875 -0.203125,-0.265625 -0.265625,-0.265625 -0.171875,0 -0.40625,0.140625 -0.40625,0.46875 0,0.34375 0.328125,0.609375 0.828125,0.609375 C 2.140625,1.421875 3,0.875 3.21875,0 z"
             id="path4462" />
        </g>
      </g>
    </g>
  </g>
  <g
     id="g17759"
     style="fill:#000000;stroke-width:0.0000001"
     ns0:page_width="10cm"
     ns0:preamble=""
     ns0:text="$\\hat{\\mathbf{t}}_x$"
     transform="matrix(0.9375,0,0,0.9375,43.837094,68.924012)">
    <defs
       id="defs17761">
      <g
         id="g17763">
        <symbol
           style="overflow:visible"
           id="symbol17765"
           overflow="visible">
          <path
             inkscape:connector-curvature="0"
             id="path17767"
             d=""
             style="stroke:none" />
        </symbol>
        <symbol
           style="overflow:visible"
           id="symbol17769"
           overflow="visible">
          <path
             inkscape:connector-curvature="0"
             id="path17772"
             d="M 2.5,-6.921875 1.15625,-5.5625 1.328125,-5.390625 2.5,-6.40625 3.640625,-5.390625 3.8125,-5.5625 z"
             style="stroke:none" />
        </symbol>
        <symbol
           style="overflow:visible"
           id="symbol17774"
           overflow="visible">
          <path
             inkscape:connector-curvature="0"
             id="path17776"
             d=""
             style="stroke:none" />
        </symbol>
        <symbol
           style="overflow:visible"
           id="symbol17778"
           overflow="visible">
          <path
             inkscape:connector-curvature="0"
             id="path17780"
             d="m 1.03125,-3.953125 0,2.734375 c 0,1.0625 0.859375,1.28125 1.578125,1.28125 0.75,0 1.203125,-0.578125 1.203125,-1.296875 l 0,-0.53125 -0.46875,0 0,0.515625 c 0,0.671875 -0.328125,0.90625 -0.609375,0.90625 -0.578125,0 -0.578125,-0.640625 -0.578125,-0.859375 l 0,-2.75 1.46875,0 0,-0.46875 -1.46875,0 0,-1.90625 -0.46875,0 c 0,1 -0.484375,1.984375 -1.484375,2.015625 l 0,0.359375 z"
             style="stroke:none" />
        </symbol>
        <symbol
           style="overflow:visible"
           id="symbol17782"
           overflow="visible">
          <path
             inkscape:connector-curvature="0"
             id="path17784"
             d=""
             style="stroke:none" />
        </symbol>
        <symbol
           style="overflow:visible"
           id="symbol17786"
           overflow="visible">
          <path
             inkscape:connector-curvature="0"
             id="path17788"
             d="M 1.734375,-0.734375 C 1.671875,-0.5 1.4375,-0.125 1.078125,-0.125 c -0.015625,0 -0.234375,0 -0.375,-0.09375 0.28125,-0.09375 0.3125,-0.34375 0.3125,-0.390625 0,-0.15625 -0.125,-0.25 -0.28125,-0.25 -0.203125,0 -0.40625,0.15625 -0.40625,0.421875 0,0.34375 0.390625,0.5 0.734375,0.5 0.328125,0 0.609375,-0.1875 0.78125,-0.484375 C 2.015625,-0.0625 2.390625,0.0625 2.671875,0.0625 c 0.8125,0 1.234375,-0.859375 1.234375,-1.0625 0,-0.09375 -0.09375,-0.09375 -0.109375,-0.09375 -0.109375,0 -0.109375,0.046875 -0.140625,0.125 -0.140625,0.484375 -0.5625,0.84375 -0.953125,0.84375 -0.28125,0 -0.421875,-0.1875 -0.421875,-0.453125 0,-0.1875 0.171875,-0.8125 0.359375,-1.59375 C 2.78125,-2.703125 3.09375,-2.875 3.328125,-2.875 c 0.015625,0 0.21875,0 0.375,0.09375 -0.21875,0.0625 -0.3125,0.265625 -0.3125,0.390625 0,0.140625 0.125,0.25 0.28125,0.25 0.15625,0 0.390625,-0.125 0.390625,-0.421875 0,-0.390625 -0.453125,-0.515625 -0.71875,-0.515625 -0.359375,0 -0.640625,0.234375 -0.78125,0.5 -0.125,-0.28125 -0.453125,-0.5 -0.84375,-0.5 C 0.9375,-3.078125 0.5,-2.21875 0.5,-2 c 0,0.078125 0.09375,0.078125 0.109375,0.078125 0.09375,0 0.09375,-0.015625 0.140625,-0.109375 C 0.921875,-2.578125 1.359375,-2.875 1.703125,-2.875 1.9375,-2.875 2.125,-2.75 2.125,-2.421875 2.125,-2.28125 2.03125,-1.9375 1.96875,-1.6875 z"
             style="stroke:none" />
        </symbol>
      </g>
    </defs>
    <g
       style="fill:#000000"
       id="g17790">
      <g
         id="g17792"
         style="fill:#000000;fill-opacity:1">
        <g
           id="use17794"
           style="fill:#000000"
           transform="translate(-0.26300001,7.927)">
          <path
             inkscape:connector-curvature="0"
             id="path4410"
             d="M 2.5,-6.921875 1.15625,-5.5625 1.328125,-5.390625 2.5,-6.40625 3.640625,-5.390625 3.8125,-5.5625 z"
             style="stroke:none" />
        </g>
      </g>
      <g
         id="g17796"
         style="fill:#000000;fill-opacity:1">
        <g
           id="use17798"
           style="fill:#000000"
           transform="translate(0,9.9630003)">
          <path
             inkscape:connector-curvature="0"
             id="path4418"
             d="m 1.03125,-3.953125 0,2.734375 c 0,1.0625 0.859375,1.28125 1.578125,1.28125 0.75,0 1.203125,-0.578125 1.203125,-1.296875 l 0,-0.53125 -0.46875,0 0,0.515625 c 0,0.671875 -0.328125,0.90625 -0.609375,0.90625 -0.578125,0 -0.578125,-0.640625 -0.578125,-0.859375 l 0,-2.75 1.46875,0 0,-0.46875 -1.46875,0 0,-1.90625 -0.46875,0 c 0,1 -0.484375,1.984375 -1.484375,2.015625 l 0,0.359375 z"
             style="stroke:none" />
        </g>
      </g>
      <g
         id="g17800"
         style="fill:#000000;fill-opacity:1">
        <g
           id="use17802"
           style="fill:#000000"
           transform="translate(4.4549999,11.457)">
          <path
             inkscape:connector-curvature="0"
             id="path4426"
             d="M 1.734375,-0.734375 C 1.671875,-0.5 1.4375,-0.125 1.078125,-0.125 c -0.015625,0 -0.234375,0 -0.375,-0.09375 0.28125,-0.09375 0.3125,-0.34375 0.3125,-0.390625 0,-0.15625 -0.125,-0.25 -0.28125,-0.25 -0.203125,0 -0.40625,0.15625 -0.40625,0.421875 0,0.34375 0.390625,0.5 0.734375,0.5 0.328125,0 0.609375,-0.1875 0.78125,-0.484375 C 2.015625,-0.0625 2.390625,0.0625 2.671875,0.0625 c 0.8125,0 1.234375,-0.859375 1.234375,-1.0625 0,-0.09375 -0.09375,-0.09375 -0.109375,-0.09375 -0.109375,0 -0.109375,0.046875 -0.140625,0.125 -0.140625,0.484375 -0.5625,0.84375 -0.953125,0.84375 -0.28125,0 -0.421875,-0.1875 -0.421875,-0.453125 0,-0.1875 0.171875,-0.8125 0.359375,-1.59375 C 2.78125,-2.703125 3.09375,-2.875 3.328125,-2.875 c 0.015625,0 0.21875,0 0.375,0.09375 -0.21875,0.0625 -0.3125,0.265625 -0.3125,0.390625 0,0.140625 0.125,0.25 0.28125,0.25 0.15625,0 0.390625,-0.125 0.390625,-0.421875 0,-0.390625 -0.453125,-0.515625 -0.71875,-0.515625 -0.359375,0 -0.640625,0.234375 -0.78125,0.5 -0.125,-0.28125 -0.453125,-0.5 -0.84375,-0.5 C 0.9375,-3.078125 0.5,-2.21875 0.5,-2 c 0,0.078125 0.09375,0.078125 0.109375,0.078125 0.09375,0 0.09375,-0.015625 0.140625,-0.109375 C 0.921875,-2.578125 1.359375,-2.875 1.703125,-2.875 1.9375,-2.875 2.125,-2.75 2.125,-2.421875 2.125,-2.28125 2.03125,-1.9375 1.96875,-1.6875 z"
             style="stroke:none" />
        </g>
      </g>
    </g>
  </g>
  <g
     transform="matrix(0.9375,0,0,0.9375,21.916934,54.257383)"
     ns0:text="$\\hat{\\mathbf{t}}_y$"
     ns0:preamble=""
     ns0:page_width="10cm"
     style="fill:#000000;stroke-width:0.0000001"
     id="g17804">
    <defs
       id="defs17806">
      <g
         id="g17808">
        <symbol
           style="overflow:visible"
           overflow="visible"
           id="symbol17810">
          <path
             inkscape:connector-curvature="0"
             style="stroke:none"
             d=""
             id="path17812" />
        </symbol>
        <symbol
           style="overflow:visible"
           overflow="visible"
           id="symbol17814">
          <path
             inkscape:connector-curvature="0"
             style="stroke:none"
             d="M 2.5,-6.921875 1.15625,-5.5625 1.328125,-5.390625 2.5,-6.40625 3.640625,-5.390625 3.8125,-5.5625 z"
             id="path17816" />
        </symbol>
        <symbol
           style="overflow:visible"
           overflow="visible"
           id="symbol17818">
          <path
             inkscape:connector-curvature="0"
             style="stroke:none"
             d=""
             id="path17820" />
        </symbol>
        <symbol
           style="overflow:visible"
           overflow="visible"
           id="symbol17822">
          <path
             inkscape:connector-curvature="0"
             style="stroke:none"
             d="m 1.03125,-3.953125 0,2.734375 c 0,1.0625 0.859375,1.28125 1.578125,1.28125 0.75,0 1.203125,-0.578125 1.203125,-1.296875 l 0,-0.53125 -0.46875,0 0,0.515625 c 0,0.671875 -0.328125,0.90625 -0.609375,0.90625 -0.578125,0 -0.578125,-0.640625 -0.578125,-0.859375 l 0,-2.75 1.46875,0 0,-0.46875 -1.46875,0 0,-1.90625 -0.46875,0 c 0,1 -0.484375,1.984375 -1.484375,2.015625 l 0,0.359375 z"
             id="path17824" />
        </symbol>
        <symbol
           style="overflow:visible"
           overflow="visible"
           id="symbol17826">
          <path
             inkscape:connector-curvature="0"
             style="stroke:none"
             d=""
             id="path17828" />
        </symbol>
        <symbol
           style="overflow:visible"
           overflow="visible"
           id="symbol17830">
          <path
             inkscape:connector-curvature="0"
             style="stroke:none"
             d="M 3.875,-2.625 C 3.90625,-2.71875 3.90625,-2.734375 3.90625,-2.78125 3.90625,-2.921875 3.796875,-3 3.671875,-3 3.59375,-3 3.46875,-2.96875 3.390625,-2.84375 3.359375,-2.796875 3.3125,-2.578125 3.28125,-2.4375 L 3.125,-1.859375 c -0.03125,0.171875 -0.25,1.046875 -0.28125,1.125 0,0 -0.3125,0.609375 -0.84375,0.609375 -0.484375,0 -0.484375,-0.453125 -0.484375,-0.578125 0,-0.375 0.15625,-0.8125 0.375,-1.359375 C 1.96875,-2.28125 2,-2.359375 2,-2.484375 2,-2.8125 1.71875,-3.078125 1.34375,-3.078125 0.640625,-3.078125 0.328125,-2.125 0.328125,-2 c 0,0.078125 0.09375,0.078125 0.125,0.078125 0.09375,0 0.09375,-0.03125 0.125,-0.109375 C 0.75,-2.609375 1.046875,-2.875 1.328125,-2.875 1.4375,-2.875 1.5,-2.796875 1.5,-2.640625 c 0,0.171875 -0.0625,0.3125 -0.09375,0.40625 C 1.0625,-1.375 1,-1.125 1,-0.8125 1,-0.703125 1,-0.375 1.265625,-0.140625 1.484375,0.03125 1.78125,0.0625 1.96875,0.0625 2.25,0.0625 2.5,-0.03125 2.71875,-0.25 2.640625,0.140625 2.5625,0.4375 2.265625,0.78125 2.078125,1 1.796875,1.21875 1.421875,1.21875 c -0.046875,0 -0.375,0 -0.515625,-0.21875 0.375,-0.046875 0.375,-0.375 0.375,-0.390625 0,-0.21875 -0.203125,-0.265625 -0.265625,-0.265625 -0.171875,0 -0.40625,0.140625 -0.40625,0.46875 0,0.34375 0.328125,0.609375 0.828125,0.609375 C 2.140625,1.421875 3,0.875 3.21875,0 z"
             id="path17832" />
        </symbol>
      </g>
    </defs>
    <g
       style="fill:#000000"
       id="g17834">
      <g
         style="fill:#000000;fill-opacity:1"
         id="g17836">
        <g
           id="use17838"
           style="fill:#000000"
           transform="translate(-0.26300001,7.927)">
          <path
             inkscape:connector-curvature="0"
             style="stroke:none"
             d="M 2.5,-6.921875 1.15625,-5.5625 1.328125,-5.390625 2.5,-6.40625 3.640625,-5.390625 3.8125,-5.5625 z"
             id="path4386" />
        </g>
      </g>
      <g
         style="fill:#000000;fill-opacity:1"
         id="g17840">
        <g
           id="use17842"
           style="fill:#000000"
           transform="translate(0,9.9630003)">
          <path
             inkscape:connector-curvature="0"
             style="stroke:none"
             d="m 1.03125,-3.953125 0,2.734375 c 0,1.0625 0.859375,1.28125 1.578125,1.28125 0.75,0 1.203125,-0.578125 1.203125,-1.296875 l 0,-0.53125 -0.46875,0 0,0.515625 c 0,0.671875 -0.328125,0.90625 -0.609375,0.90625 -0.578125,0 -0.578125,-0.640625 -0.578125,-0.859375 l 0,-2.75 1.46875,0 0,-0.46875 -1.46875,0 0,-1.90625 -0.46875,0 c 0,1 -0.484375,1.984375 -1.484375,2.015625 l 0,0.359375 z"
             id="path4394" />
        </g>
      </g>
      <g
         style="fill:#000000;fill-opacity:1"
         id="g17844">
        <g
           id="use17846"
           style="fill:#000000"
           transform="translate(4.4549999,11.457)">
          <path
             inkscape:connector-curvature="0"
             style="stroke:none"
             d="M 3.875,-2.625 C 3.90625,-2.71875 3.90625,-2.734375 3.90625,-2.78125 3.90625,-2.921875 3.796875,-3 3.671875,-3 3.59375,-3 3.46875,-2.96875 3.390625,-2.84375 3.359375,-2.796875 3.3125,-2.578125 3.28125,-2.4375 L 3.125,-1.859375 c -0.03125,0.171875 -0.25,1.046875 -0.28125,1.125 0,0 -0.3125,0.609375 -0.84375,0.609375 -0.484375,0 -0.484375,-0.453125 -0.484375,-0.578125 0,-0.375 0.15625,-0.8125 0.375,-1.359375 C 1.96875,-2.28125 2,-2.359375 2,-2.484375 2,-2.8125 1.71875,-3.078125 1.34375,-3.078125 0.640625,-3.078125 0.328125,-2.125 0.328125,-2 c 0,0.078125 0.09375,0.078125 0.125,0.078125 0.09375,0 0.09375,-0.03125 0.125,-0.109375 C 0.75,-2.609375 1.046875,-2.875 1.328125,-2.875 1.4375,-2.875 1.5,-2.796875 1.5,-2.640625 c 0,0.171875 -0.0625,0.3125 -0.09375,0.40625 C 1.0625,-1.375 1,-1.125 1,-0.8125 1,-0.703125 1,-0.375 1.265625,-0.140625 1.484375,0.03125 1.78125,0.0625 1.96875,0.0625 2.25,0.0625 2.5,-0.03125 2.71875,-0.25 2.640625,0.140625 2.5625,0.4375 2.265625,0.78125 2.078125,1 1.796875,1.21875 1.421875,1.21875 c -0.046875,0 -0.375,0 -0.515625,-0.21875 0.375,-0.046875 0.375,-0.375 0.375,-0.390625 0,-0.21875 -0.203125,-0.265625 -0.265625,-0.265625 -0.171875,0 -0.40625,0.140625 -0.40625,0.46875 0,0.34375 0.328125,0.609375 0.828125,0.609375 C 2.140625,1.421875 3,0.875 3.21875,0 z"
             id="path4402" />
        </g>
      </g>
    </g>
  </g>
  <path
     sodipodi:type="arc"
     style="fill:none;stroke:#000000;stroke-width:1;stroke-miterlimit:4;stroke-opacity:1;stroke-dasharray:none;marker-start:url(#Arrow1Sstart-90-7);marker-end:none"
     id="path17850"
     sodipodi:cx="268.30008"
     sodipodi:cy="35.828762"
     sodipodi:rx="72.312622"
     sodipodi:ry="72.312622"
     d="m 244.20733,-32.352284 a 72.312622,72.312622 0 0 1 12.13664,-3.13632"
     transform="translate(-215.71535,72.760202)"
     sodipodi:start="4.3727202"
     sodipodi:end="4.546287"
     sodipodi:open="true" />
  <path
     transform="matrix(0.78664105,0,0,0.72285937,-13.948766,7.8530351)"
     d="m 86.443495,137.37656 a 2.5424557,2.7667899 0 1 1 -5.084912,0 2.5424557,2.7667899 0 1 1 5.084912,0 z"
     sodipodi:ry="2.7667899"
     sodipodi:rx="2.5424557"
     sodipodi:cy="137.37656"
     sodipodi:cx="83.901039"
     id="path17854"
     style="fill:#000000;fill-opacity:1;marker-end:none"
     sodipodi:type="arc" />
  <g
     inkscape:export-ydpi="136.41562"
     inkscape:export-xdpi="136.41562"
     inkscape:export-filename="D:\Jason's Documents\TU Delft\MSNDC 2009\presentation\bicycle_autolev.png"
     transform="matrix(0.24977489,0,0,0.25000687,-30.841876,-5.1555209)"
     id="g17864"
     style="display:inline">
    <path
       inkscape:connector-curvature="0"
       style="fill:#000000;fill-opacity:1;stroke:#000000;stroke-width:1.58300543;stroke-linecap:round;stroke-linejoin:miter;stroke-miterlimit:4;stroke-opacity:1;stroke-dasharray:none;stroke-dashoffset:0"
       d="m 346.64069,514.88599 c -0.28674,0 -0.57071,0.02 -0.84919,0.0531 l 0,8.3639 8.39202,0 c 0.005,-0.124 0.025,-0.24633 0.025,-0.37173 0,-4.44091 -3.39043,-8.04526 -7.56781,-8.04526 z"
       id="path17866" />
    <path
       inkscape:connector-curvature="0"
       style="fill:#000000;fill-opacity:1;stroke:#000000;stroke-width:1.58300543;stroke-linecap:round;stroke-linejoin:miter;stroke-miterlimit:4;stroke-opacity:1;stroke-dasharray:none;stroke-dashoffset:0"
       d="m 343.35931,533.30298 c 0.28674,0 0.57071,-0.02 0.84919,-0.0531 l 0,-8.3639 -8.39202,0 c -0.005,0.124 -0.025,0.24633 -0.025,0.37173 0,4.44091 3.39043,8.04526 7.56781,8.04526 z"
       id="path17868" />
    <path
       sodipodi:type="arc"
       style="fill:none;stroke:#000000;stroke-width:1;stroke-linecap:round;stroke-linejoin:miter;stroke-miterlimit:4;stroke-opacity:1;stroke-dasharray:none;stroke-dashoffset:0"
       id="path17870"
       sodipodi:cx="338.84628"
       sodipodi:cy="515.57349"
       sodipodi:rx="8.0085917"
       sodipodi:ry="7.8705125"
       d="m 346.85487,515.57349 c 0,4.34676 -3.58556,7.87051 -8.00859,7.87051 -4.42302,0 -8.00859,-3.52375 -8.00859,-7.87051 0,-4.34677 3.58557,-7.87052 8.00859,-7.87052 4.42303,0 8.00859,3.52375 8.00859,7.87052 z"
       transform="matrix(1.1746797,0,0,1.1952882,-53.035866,-92.164416)" />
  </g>
  <path
     transform="matrix(0.78664105,0,0,0.72285937,-6.6702157,51.48801)"
     d="m 86.443495,137.37656 a 2.5424557,2.7667899 0 1 1 -5.084912,0 2.5424557,2.7667899 0 1 1 5.084912,0 z"
     sodipodi:ry="2.7667899"
     sodipodi:rx="2.5424557"
     sodipodi:cy="137.37656"
     sodipodi:cx="83.901039"
     id="path17872"
     style="fill:#000000;fill-opacity:1;marker-end:none"
     sodipodi:type="arc" />
  <g
     inkscape:export-ydpi="136.41562"
     inkscape:export-xdpi="136.41562"
     inkscape:export-filename="D:\Jason's Documents\TU Delft\MSNDC 2009\presentation\bicycle_autolev.png"
     transform="matrix(0.24977489,0,0,0.25000687,-48.176236,-60.165016)"
     id="g17874"
     style="display:inline">
    <path
       inkscape:connector-curvature="0"
       style="fill:#000000;fill-opacity:1;stroke:#000000;stroke-width:1.58300543;stroke-linecap:round;stroke-linejoin:miter;stroke-miterlimit:4;stroke-opacity:1;stroke-dasharray:none;stroke-dashoffset:0"
       d="m 346.64069,514.88599 c -0.28674,0 -0.57071,0.02 -0.84919,0.0531 l 0,8.3639 8.39202,0 c 0.005,-0.124 0.025,-0.24633 0.025,-0.37173 0,-4.44091 -3.39043,-8.04526 -7.56781,-8.04526 z"
       id="path17876" />
    <path
       inkscape:connector-curvature="0"
       style="fill:#000000;fill-opacity:1;stroke:#000000;stroke-width:1.58300543;stroke-linecap:round;stroke-linejoin:miter;stroke-miterlimit:4;stroke-opacity:1;stroke-dasharray:none;stroke-dashoffset:0"
       d="m 343.35931,533.30298 c 0.28674,0 0.57071,-0.02 0.84919,-0.0531 l 0,-8.3639 -8.39202,0 c -0.005,0.124 -0.025,0.24633 -0.025,0.37173 0,4.44091 3.39043,8.04526 7.56781,8.04526 z"
       id="path17878" />
    <path
       sodipodi:type="arc"
       style="fill:none;stroke:#000000;stroke-width:1;stroke-linecap:round;stroke-linejoin:miter;stroke-miterlimit:4;stroke-opacity:1;stroke-dasharray:none;stroke-dashoffset:0"
       id="path17880"
       sodipodi:cx="338.84628"
       sodipodi:cy="515.57349"
       sodipodi:rx="8.0085917"
       sodipodi:ry="7.8705125"
       d="m 346.85487,515.57349 c 0,4.34676 -3.58556,7.87051 -8.00859,7.87051 -4.42302,0 -8.00859,-3.52375 -8.00859,-7.87051 0,-4.34677 3.58557,-7.87052 8.00859,-7.87052 4.42303,0 8.00859,3.52375 8.00859,7.87052 z"
       transform="matrix(1.1746797,0,0,1.1952882,-53.035866,-92.164416)" />
  </g>
  <path
     sodipodi:type="arc"
     style="fill:none;stroke:#000000;stroke-width:1.5;stroke-miterlimit:4;stroke-opacity:1;stroke-dasharray:none;marker-start:url(#Arrow1Sstart-90-7);marker-end:url(#Arrow1Send-68-39-8)"
     id="path12237"
     sodipodi:cx="204.53098"
     sodipodi:cy="130.69911"
     sodipodi:rx="13.619469"
     sodipodi:ry="13.619469"
     d="m 202.27428,117.26791 a 13.619469,13.619469 0 0 1 8.64422,25.45989"
     transform="translate(-136.35999,-19.096531)"
     sodipodi:start="4.5459249"
     sodipodi:end="7.3658237"
     sodipodi:open="true" />
  <g
     id="g12239"
     style="stroke-width:0.0000001"
     ns0:page_width="10cm"
     ns0:preamble=""
     ns0:text="$T_H$"
     transform="matrix(0.9375,0,0,0.9375,82.835324,95.331066)">
    <defs
       id="defs12241">
      <g
         id="g12243">
        <symbol
           style="overflow:visible"
           id="symbol12245"
           overflow="visible">
          <path
             inkscape:connector-curvature="0"
             id="path12247"
             d=""
             style="stroke:none" />
        </symbol>
        <symbol
           style="overflow:visible"
           id="symbol12249"
           overflow="visible">
          <path
             inkscape:connector-curvature="0"
             id="path12251"
             d="m 4.25,-6.046875 c 0.078125,-0.28125 0.109375,-0.34375 0.234375,-0.375 0.09375,-0.015625 0.421875,-0.015625 0.625,-0.015625 1.015625,0 1.453125,0.03125 1.453125,0.8125 0,0.15625 -0.03125,0.546875 -0.078125,0.796875 0,0.046875 -0.03125,0.15625 -0.03125,0.1875 0,0.0625 0.03125,0.140625 0.125,0.140625 0.109375,0 0.125,-0.078125 0.15625,-0.234375 L 7,-6.46875 C 7.015625,-6.515625 7.015625,-6.609375 7.015625,-6.640625 7.015625,-6.75 6.921875,-6.75 6.75,-6.75 l -5.53125,0 c -0.234375,0 -0.25,0.015625 -0.328125,0.203125 l -0.59375,1.75 c 0,0.015625 -0.0625,0.15625 -0.0625,0.1875 0,0.046875 0.0625,0.109375 0.125,0.109375 0.09375,0 0.109375,-0.0625 0.171875,-0.21875 C 1.0625,-6.265625 1.328125,-6.4375 2.796875,-6.4375 l 0.390625,0 c 0.28125,0 0.28125,0.03125 0.28125,0.125 0,0.046875 -0.03125,0.171875 -0.046875,0.203125 L 2.09375,-0.78125 C 2,-0.421875 1.96875,-0.3125 0.90625,-0.3125 c -0.359375,0 -0.421875,0 -0.421875,0.1875 C 0.484375,0 0.59375,0 0.65625,0 c 0.265625,0 0.546875,-0.015625 0.8125,-0.015625 0.28125,0 0.578125,-0.015625 0.859375,-0.015625 0.28125,0 0.546875,0.015625 0.828125,0.015625 C 3.4375,-0.015625 3.734375,0 4.015625,0 c 0.09375,0 0.21875,0 0.21875,-0.203125 0,-0.109375 -0.078125,-0.109375 -0.34375,-0.109375 -0.234375,0 -0.375,0 -0.625,-0.015625 -0.296875,-0.03125 -0.375,-0.0625 -0.375,-0.21875 0,-0.015625 0,-0.0625 0.046875,-0.203125 z"
             style="stroke:none" />
        </symbol>
        <symbol
           style="overflow:visible"
           id="symbol12253"
           overflow="visible">
          <path
             inkscape:connector-curvature="0"
             id="path12255"
             d=""
             style="stroke:none" />
        </symbol>
        <symbol
           style="overflow:visible"
           id="symbol12257"
           overflow="visible">
          <path
             inkscape:connector-curvature="0"
             id="path12259"
             d="m 5.859375,-4.1875 c 0.0625,-0.265625 0.078125,-0.328125 0.59375,-0.328125 0.15625,0 0.234375,0 0.234375,-0.140625 0,-0.03125 -0.015625,-0.109375 -0.109375,-0.109375 -0.203125,0 -0.703125,0.03125 -0.90625,0.03125 -0.125,0 -0.375,0 -0.484375,0 C 5.046875,-4.75 4.875,-4.765625 4.75,-4.765625 c -0.046875,0 -0.15625,0 -0.15625,0.15625 0,0.09375 0.09375,0.09375 0.234375,0.09375 0,0 0.140625,0 0.265625,0.015625 0.140625,0.015625 0.15625,0.03125 0.15625,0.109375 0,0 0,0.046875 -0.03125,0.140625 l -0.40625,1.65625 -2.34375,0 0.40625,-1.625 c 0.0625,-0.234375 0.078125,-0.296875 0.609375,-0.296875 0.125,0 0.21875,0 0.21875,-0.140625 0,-0.03125 -0.03125,-0.109375 -0.109375,-0.109375 -0.203125,0 -0.71875,0.03125 -0.921875,0.03125 -0.109375,0 -0.359375,0 -0.484375,0 C 2.0625,-4.75 1.890625,-4.765625 1.75,-4.765625 c -0.03125,0 -0.140625,0 -0.140625,0.15625 0,0.09375 0.078125,0.09375 0.21875,0.09375 0.015625,0 0.140625,0 0.265625,0.015625 0.15625,0.015625 0.171875,0.03125 0.171875,0.109375 0,0 0,0.046875 -0.03125,0.140625 l -0.9375,3.703125 C 1.25,-0.3125 1.234375,-0.25 0.6875,-0.25 c -0.109375,0 -0.203125,0 -0.203125,0.140625 C 0.484375,-0.03125 0.53125,0 0.59375,0 0.796875,0 1.296875,-0.03125 1.5,-0.03125 c 0.109375,0 0.359375,0 0.484375,0.015625 C 2.125,-0.015625 2.296875,0 2.421875,0 2.453125,0 2.578125,0 2.578125,-0.140625 2.578125,-0.25 2.5,-0.25 2.34375,-0.25 c -0.109375,0 -0.140625,0 -0.265625,-0.015625 -0.15625,-0.015625 -0.15625,-0.03125 -0.15625,-0.109375 0,0 0,-0.046875 0.03125,-0.140625 l 0.453125,-1.828125 2.34375,0 -0.453125,1.796875 C 4.234375,-0.3125 4.21875,-0.25 3.671875,-0.25 3.5625,-0.25 3.46875,-0.25 3.46875,-0.109375 3.46875,-0.03125 3.515625,0 3.578125,0 3.78125,0 4.28125,-0.03125 4.484375,-0.03125 c 0.125,0 0.359375,0 0.484375,0.015625 C 5.109375,-0.015625 5.28125,0 5.421875,0 5.453125,0 5.5625,0 5.5625,-0.140625 5.5625,-0.25 5.484375,-0.25 5.328125,-0.25 5.21875,-0.25 5.1875,-0.25 5.0625,-0.265625 4.90625,-0.28125 4.90625,-0.296875 4.90625,-0.375 c 0,-0.03125 0.03125,-0.109375 0.03125,-0.140625 z"
             style="stroke:none" />
        </symbol>
      </g>
    </defs>
    <g
       id="g12261">
      <g
         id="g12263"
         style="fill:#000000;fill-opacity:1">
        <g
           id="use12265"
           transform="translate(0,9.9630003)">
          <path
             inkscape:connector-curvature="0"
             id="path4189"
             d="m 4.25,-6.046875 c 0.078125,-0.28125 0.109375,-0.34375 0.234375,-0.375 0.09375,-0.015625 0.421875,-0.015625 0.625,-0.015625 1.015625,0 1.453125,0.03125 1.453125,0.8125 0,0.15625 -0.03125,0.546875 -0.078125,0.796875 0,0.046875 -0.03125,0.15625 -0.03125,0.1875 0,0.0625 0.03125,0.140625 0.125,0.140625 0.109375,0 0.125,-0.078125 0.15625,-0.234375 L 7,-6.46875 C 7.015625,-6.515625 7.015625,-6.609375 7.015625,-6.640625 7.015625,-6.75 6.921875,-6.75 6.75,-6.75 l -5.53125,0 c -0.234375,0 -0.25,0.015625 -0.328125,0.203125 l -0.59375,1.75 c 0,0.015625 -0.0625,0.15625 -0.0625,0.1875 0,0.046875 0.0625,0.109375 0.125,0.109375 0.09375,0 0.109375,-0.0625 0.171875,-0.21875 C 1.0625,-6.265625 1.328125,-6.4375 2.796875,-6.4375 l 0.390625,0 c 0.28125,0 0.28125,0.03125 0.28125,0.125 0,0.046875 -0.03125,0.171875 -0.046875,0.203125 L 2.09375,-0.78125 C 2,-0.421875 1.96875,-0.3125 0.90625,-0.3125 c -0.359375,0 -0.421875,0 -0.421875,0.1875 C 0.484375,0 0.59375,0 0.65625,0 c 0.265625,0 0.546875,-0.015625 0.8125,-0.015625 0.28125,0 0.578125,-0.015625 0.859375,-0.015625 0.28125,0 0.546875,0.015625 0.828125,0.015625 C 3.4375,-0.015625 3.734375,0 4.015625,0 c 0.09375,0 0.21875,0 0.21875,-0.203125 0,-0.109375 -0.078125,-0.109375 -0.34375,-0.109375 -0.234375,0 -0.375,0 -0.625,-0.015625 -0.296875,-0.03125 -0.375,-0.0625 -0.375,-0.21875 0,-0.015625 0,-0.0625 0.046875,-0.203125 z"
             style="stroke:none" />
        </g>
      </g>
      <g
         id="g12267"
         style="fill:#000000;fill-opacity:1">
        <g
           id="use12269"
           transform="translate(5.822,11.457)">
          <path
             inkscape:connector-curvature="0"
             id="path4197"
             d="m 5.859375,-4.1875 c 0.0625,-0.265625 0.078125,-0.328125 0.59375,-0.328125 0.15625,0 0.234375,0 0.234375,-0.140625 0,-0.03125 -0.015625,-0.109375 -0.109375,-0.109375 -0.203125,0 -0.703125,0.03125 -0.90625,0.03125 -0.125,0 -0.375,0 -0.484375,0 C 5.046875,-4.75 4.875,-4.765625 4.75,-4.765625 c -0.046875,0 -0.15625,0 -0.15625,0.15625 0,0.09375 0.09375,0.09375 0.234375,0.09375 0,0 0.140625,0 0.265625,0.015625 0.140625,0.015625 0.15625,0.03125 0.15625,0.109375 0,0 0,0.046875 -0.03125,0.140625 l -0.40625,1.65625 -2.34375,0 0.40625,-1.625 c 0.0625,-0.234375 0.078125,-0.296875 0.609375,-0.296875 0.125,0 0.21875,0 0.21875,-0.140625 0,-0.03125 -0.03125,-0.109375 -0.109375,-0.109375 -0.203125,0 -0.71875,0.03125 -0.921875,0.03125 -0.109375,0 -0.359375,0 -0.484375,0 C 2.0625,-4.75 1.890625,-4.765625 1.75,-4.765625 c -0.03125,0 -0.140625,0 -0.140625,0.15625 0,0.09375 0.078125,0.09375 0.21875,0.09375 0.015625,0 0.140625,0 0.265625,0.015625 0.15625,0.015625 0.171875,0.03125 0.171875,0.109375 0,0 0,0.046875 -0.03125,0.140625 l -0.9375,3.703125 C 1.25,-0.3125 1.234375,-0.25 0.6875,-0.25 c -0.109375,0 -0.203125,0 -0.203125,0.140625 C 0.484375,-0.03125 0.53125,0 0.59375,0 0.796875,0 1.296875,-0.03125 1.5,-0.03125 c 0.109375,0 0.359375,0 0.484375,0.015625 C 2.125,-0.015625 2.296875,0 2.421875,0 2.453125,0 2.578125,0 2.578125,-0.140625 2.578125,-0.25 2.5,-0.25 2.34375,-0.25 c -0.109375,0 -0.140625,0 -0.265625,-0.015625 -0.15625,-0.015625 -0.15625,-0.03125 -0.15625,-0.109375 0,0 0,-0.046875 0.03125,-0.140625 l 0.453125,-1.828125 2.34375,0 -0.453125,1.796875 C 4.234375,-0.3125 4.21875,-0.25 3.671875,-0.25 3.5625,-0.25 3.46875,-0.25 3.46875,-0.109375 3.46875,-0.03125 3.515625,0 3.578125,0 3.78125,0 4.28125,-0.03125 4.484375,-0.03125 c 0.125,0 0.359375,0 0.484375,0.015625 C 5.109375,-0.015625 5.28125,0 5.421875,0 5.453125,0 5.5625,0 5.5625,-0.140625 5.5625,-0.25 5.484375,-0.25 5.328125,-0.25 5.21875,-0.25 5.1875,-0.25 5.0625,-0.265625 4.90625,-0.28125 4.90625,-0.296875 4.90625,-0.375 c 0,-0.03125 0.03125,-0.109375 0.03125,-0.140625 z"
             style="stroke:none" />
        </g>
      </g>
    </g>
  </g>
</svg>
