<?xml version="1.0" encoding="UTF-8" standalone="no"?>
<!-- Created with Inkscape (http://www.inkscape.org/) -->

<svg
   xmlns:ns0="http://www.iki.fi/pav/software/textext/"
   xmlns:dc="http://purl.org/dc/elements/1.1/"
   xmlns:cc="http://creativecommons.org/ns#"
   xmlns:rdf="http://www.w3.org/1999/02/22-rdf-syntax-ns#"
   xmlns:svg="http://www.w3.org/2000/svg"
   xmlns="http://www.w3.org/2000/svg"
   xmlns:sodipodi="http://sodipodi.sourceforge.net/DTD/sodipodi-0.dtd"
   xmlns:inkscape="http://www.inkscape.org/namespaces/inkscape"
   id="svg7438"
   version="1.1"
   inkscape:version="0.48.4 r9939"
   width="64.955376"
   height="131.66878"
   sodipodi:docname="knee_joint.svg"
   inkscape:export-filename="/home/moorepants/Conferences/PYCON2014/pydy-tutorial-pycon-2014/notebooks/figures/knee_joint.png"
   inkscape:export-xdpi="200"
   inkscape:export-ydpi="200">
  <sodipodi:namedview
     pagecolor="#ffffff"
     bordercolor="#666666"
     borderopacity="1"
     objecttolerance="10"
     gridtolerance="10"
     guidetolerance="10"
     inkscape:pageopacity="0"
     inkscape:pageshadow="2"
     inkscape:window-width="1366"
     inkscape:window-height="744"
     id="namedview7440"
     showgrid="false"
     inkscape:zoom="2.9593728"
     inkscape:cx="-19.550524"
     inkscape:cy="51.130897"
     inkscape:window-x="0"
     inkscape:window-y="24"
     inkscape:window-maximized="1"
     inkscape:current-layer="svg7438"
     units="in"
     showguides="true"
     inkscape:guide-bbox="true"
     fit-margin-top="0"
     fit-margin-left="0"
     fit-margin-right="0"
     fit-margin-bottom="0" />
  <metadata
     id="metadata7444">
    <rdf:RDF>
      <cc:Work
         rdf:about="">
        <dc:format>image/svg+xml</dc:format>
        <dc:type
           rdf:resource="http://purl.org/dc/dcmitype/StillImage" />
        <dc:title></dc:title>
      </cc:Work>
    </rdf:RDF>
  </metadata>
  <defs
     id="defs7442">
    <marker
       inkscape:stockid="Arrow1Send"
       orient="auto"
       refY="0"
       refX="0"
       id="Arrow1Send"
       style="overflow:visible">
      <path
         id="path3812"
         d="M 0,0 5,-5 -12.5,0 5,5 0,0 z"
         style="fill-rule:evenodd;stroke:#000000;stroke-width:1pt"
         transform="matrix(-0.2,0,0,-0.2,-1.2,0)"
         inkscape:connector-curvature="0" />
    </marker>
    <marker
       inkscape:stockid="Arrow1Sstart"
       orient="auto"
       refY="0"
       refX="0"
       id="Arrow1Sstart"
       style="overflow:visible">
      <path
         id="path3809"
         d="M 0,0 5,-5 -12.5,0 5,5 0,0 z"
         style="fill-rule:evenodd;stroke:#000000;stroke-width:1pt"
         transform="matrix(0.2,0,0,0.2,1.2,0)"
         inkscape:connector-curvature="0" />
    </marker>
    <marker
       inkscape:stockid="Arrow1Sstart"
       orient="auto"
       refY="0"
       refX="0"
       id="Arrow1Sstart-9"
       style="overflow:visible">
      <path
         inkscape:connector-curvature="0"
         id="path3809-1"
         d="M 0,0 5,-5 -12.5,0 5,5 0,0 z"
         style="fill-rule:evenodd;stroke:#000000;stroke-width:1pt"
         transform="matrix(0.2,0,0,0.2,1.2,0)" />
    </marker>
    <marker
       inkscape:stockid="Arrow1Send"
       orient="auto"
       refY="0"
       refX="0"
       id="Arrow1Send-6"
       style="overflow:visible">
      <path
         inkscape:connector-curvature="0"
         id="path3812-2"
         d="M 0,0 5,-5 -12.5,0 5,5 0,0 z"
         style="fill-rule:evenodd;stroke:#000000;stroke-width:1pt"
         transform="matrix(-0.2,0,0,-0.2,-1.2,0)" />
    </marker>
    <marker
       inkscape:stockid="Arrow1Sstart"
       orient="auto"
       refY="0"
       refX="0"
       id="Arrow1Sstart-2"
       style="overflow:visible">
      <path
         inkscape:connector-curvature="0"
         id="path3809-3"
         d="M 0,0 5,-5 -12.5,0 5,5 0,0 z"
         style="fill-rule:evenodd;stroke:#000000;stroke-width:1pt"
         transform="matrix(0.2,0,0,0.2,1.2,0)" />
    </marker>
    <marker
       inkscape:stockid="Arrow1Send"
       orient="auto"
       refY="0"
       refX="0"
       id="Arrow1Send-4"
       style="overflow:visible">
      <path
         inkscape:connector-curvature="0"
         id="path3812-7"
         d="M 0,0 5,-5 -12.5,0 5,5 0,0 z"
         style="fill-rule:evenodd;stroke:#000000;stroke-width:1pt"
         transform="matrix(-0.2,0,0,-0.2,-1.2,0)" />
    </marker>
    <marker
       inkscape:stockid="Arrow1Sstart"
       orient="auto"
       refY="0"
       refX="0"
       id="Arrow1Sstart-6"
       style="overflow:visible">
      <path
         inkscape:connector-curvature="0"
         id="path3809-6"
         d="M 0,0 5,-5 -12.5,0 5,5 0,0 z"
         style="fill-rule:evenodd;stroke:#000000;stroke-width:1pt"
         transform="matrix(0.2,0,0,0.2,1.2,0)" />
    </marker>
    <marker
       inkscape:stockid="Arrow1Send"
       orient="auto"
       refY="0"
       refX="0"
       id="Arrow1Send-3"
       style="overflow:visible">
      <path
         inkscape:connector-curvature="0"
         id="path3812-29"
         d="M 0,0 5,-5 -12.5,0 5,5 0,0 z"
         style="fill-rule:evenodd;stroke:#000000;stroke-width:1pt"
         transform="matrix(-0.2,0,0,-0.2,-1.2,0)" />
    </marker>
    <marker
       inkscape:stockid="Arrow1Sstart"
       orient="auto"
       refY="0"
       refX="0"
       id="Arrow1Sstart-90"
       style="overflow:visible">
      <path
         id="path3809-16"
         d="M 0,0 5,-5 -12.5,0 5,5 0,0 z"
         style="fill-rule:evenodd;stroke:#000000;stroke-width:1pt"
         transform="matrix(0.2,0,0,0.2,1.2,0)"
         inkscape:connector-curvature="0" />
    </marker>
    <marker
       inkscape:stockid="Arrow1Send"
       orient="auto"
       refY="0"
       refX="0"
       id="Arrow1Send-68"
       style="overflow:visible">
      <path
         id="path3812-3"
         d="M 0,0 5,-5 -12.5,0 5,5 0,0 z"
         style="fill-rule:evenodd;stroke:#000000;stroke-width:1pt"
         transform="matrix(-0.2,0,0,-0.2,-1.2,0)"
         inkscape:connector-curvature="0" />
    </marker>
    <marker
       inkscape:stockid="Arrow1SstartP"
       orient="auto"
       refY="0"
       refX="0"
       id="Arrow1SstartP"
       style="overflow:visible">
      <path
         id="path24705"
         d="M 0,0 5,-5 -12.5,0 5,5 0,0 z"
         style="fill:#ff0000;fill-rule:evenodd;stroke:#ff0000;stroke-width:1pt"
         transform="matrix(0.2,0,0,0.2,1.2,0)"
         inkscape:connector-curvature="0" />
    </marker>
    <marker
       inkscape:stockid="Arrow1Sendk"
       orient="auto"
       refY="0"
       refX="0"
       id="Arrow1Sendk"
       style="overflow:visible">
      <path
         id="path24708"
         d="M 0,0 5,-5 -12.5,0 5,5 0,0 z"
         style="fill:#ff0000;fill-rule:evenodd;stroke:#ff0000;stroke-width:1pt"
         transform="matrix(-0.2,0,0,-0.2,-1.2,0)"
         inkscape:connector-curvature="0" />
    </marker>
    <marker
       inkscape:stockid="Arrow1Sstart3"
       orient="auto"
       refY="0"
       refX="0"
       id="Arrow1Sstart3"
       style="overflow:visible">
      <path
         id="path25731"
         d="M 0,0 5,-5 -12.5,0 5,5 0,0 z"
         style="fill:#00ff00;fill-rule:evenodd;stroke:#00ff00;stroke-width:1pt"
         transform="matrix(0.2,0,0,0.2,1.2,0)"
         inkscape:connector-curvature="0" />
    </marker>
    <marker
       inkscape:stockid="Arrow1Sendh"
       orient="auto"
       refY="0"
       refX="0"
       id="Arrow1Sendh"
       style="overflow:visible">
      <path
         id="path25734"
         d="M 0,0 5,-5 -12.5,0 5,5 0,0 z"
         style="fill:#00ff00;fill-rule:evenodd;stroke:#00ff00;stroke-width:1pt"
         transform="matrix(-0.2,0,0,-0.2,-1.2,0)"
         inkscape:connector-curvature="0" />
    </marker>
    <marker
       inkscape:stockid="Arrow1SstartW"
       orient="auto"
       refY="0"
       refX="0"
       id="Arrow1SstartW"
       style="overflow:visible">
      <path
         id="path26765"
         d="M 0,0 5,-5 -12.5,0 5,5 0,0 z"
         style="fill:#0000ff;fill-rule:evenodd;stroke:#0000ff;stroke-width:1pt"
         transform="matrix(0.2,0,0,0.2,1.2,0)"
         inkscape:connector-curvature="0" />
    </marker>
    <marker
       inkscape:stockid="Arrow1SendB"
       orient="auto"
       refY="0"
       refX="0"
       id="Arrow1SendB"
       style="overflow:visible">
      <path
         id="path26768"
         d="M 0,0 5,-5 -12.5,0 5,5 0,0 z"
         style="fill:#0000ff;fill-rule:evenodd;stroke:#0000ff;stroke-width:1pt"
         transform="matrix(-0.2,0,0,-0.2,-1.2,0)"
         inkscape:connector-curvature="0" />
    </marker>
    <marker
       inkscape:stockid="Arrow1SstartR"
       orient="auto"
       refY="0"
       refX="0"
       id="Arrow1SstartR"
       style="overflow:visible">
      <path
         id="path27807"
         d="M 0,0 5,-5 -12.5,0 5,5 0,0 z"
         style="fill:#ff6600;fill-rule:evenodd;stroke:#ff6600;stroke-width:1pt"
         transform="matrix(0.2,0,0,0.2,1.2,0)"
         inkscape:connector-curvature="0" />
    </marker>
    <marker
       inkscape:stockid="Arrow1SendB5"
       orient="auto"
       refY="0"
       refX="0"
       id="Arrow1SendB5"
       style="overflow:visible">
      <path
         id="path27810"
         d="M 0,0 5,-5 -12.5,0 5,5 0,0 z"
         style="fill:#ff6600;fill-rule:evenodd;stroke:#ff6600;stroke-width:1pt"
         transform="matrix(-0.2,0,0,-0.2,-1.2,0)"
         inkscape:connector-curvature="0" />
    </marker>
    <marker
       inkscape:stockid="Arrow1Sstart"
       orient="auto"
       refY="0"
       refX="0"
       id="Arrow1Sstart-90-3"
       style="overflow:visible">
      <path
         id="path3809-16-1"
         d="M 0,0 5,-5 -12.5,0 5,5 0,0 z"
         style="fill-rule:evenodd;stroke:#000000;stroke-width:1pt"
         transform="matrix(0.2,0,0,0.2,1.2,0)"
         inkscape:connector-curvature="0" />
    </marker>
    <marker
       inkscape:stockid="Arrow1Send"
       orient="auto"
       refY="0"
       refX="0"
       id="Arrow1Send-68-3"
       style="overflow:visible">
      <path
         id="path3812-3-9"
         d="M 0,0 5,-5 -12.5,0 5,5 0,0 z"
         style="fill-rule:evenodd;stroke:#000000;stroke-width:1pt"
         transform="matrix(-0.2,0,0,-0.2,-1.2,0)"
         inkscape:connector-curvature="0" />
    </marker>
    <marker
       inkscape:stockid="Arrow1Sstart"
       orient="auto"
       refY="0"
       refX="0"
       id="Arrow1Sstart-90-7"
       style="overflow:visible">
      <path
         id="path3809-16-2"
         d="M 0,0 5,-5 -12.5,0 5,5 0,0 z"
         style="fill-rule:evenodd;stroke:#000000;stroke-width:1pt"
         transform="matrix(0.2,0,0,0.2,1.2,0)"
         inkscape:connector-curvature="0" />
    </marker>
    <marker
       inkscape:stockid="Arrow1Send"
       orient="auto"
       refY="0"
       refX="0"
       id="Arrow1Send-68-39"
       style="overflow:visible">
      <path
         id="path3812-3-0"
         d="M 0,0 5,-5 -12.5,0 5,5 0,0 z"
         style="fill-rule:evenodd;stroke:#000000;stroke-width:1pt"
         transform="matrix(-0.2,0,0,-0.2,-1.2,0)"
         inkscape:connector-curvature="0" />
    </marker>
    <marker
       inkscape:stockid="Arrow1Send"
       orient="auto"
       refY="0"
       refX="0"
       id="Arrow1Send-68-39-8"
       style="overflow:visible">
      <path
         id="path3812-3-0-9"
         d="M 0,0 5,-5 -12.5,0 5,5 0,0 z"
         style="fill-rule:evenodd;stroke:#000000;stroke-width:1pt"
         transform="matrix(-0.2,0,0,-0.2,-1.2,0)"
         inkscape:connector-curvature="0" />
    </marker>
    <marker
       inkscape:stockid="Arrow1Sstart"
       orient="auto"
       refY="0"
       refX="0"
       id="Arrow1Sstart-90-7-0"
       style="overflow:visible">
      <path
         id="path3809-16-2-9"
         d="M 0,0 5,-5 -12.5,0 5,5 0,0 z"
         style="fill-rule:evenodd;stroke:#000000;stroke-width:1pt"
         transform="matrix(0.2,0,0,0.2,1.2,0)"
         inkscape:connector-curvature="0" />
    </marker>
    <marker
       inkscape:stockid="Arrow1Send"
       orient="auto"
       refY="0"
       refX="0"
       id="Arrow1Send-68-39-8-7"
       style="overflow:visible">
      <path
         id="path3812-3-0-9-6"
         d="M 0,0 5,-5 -12.5,0 5,5 0,0 z"
         style="fill-rule:evenodd;stroke:#000000;stroke-width:1pt"
         transform="matrix(-0.2,0,0,-0.2,-1.2,0)"
         inkscape:connector-curvature="0" />
    </marker>
    <marker
       inkscape:stockid="Arrow1Sstart"
       orient="auto"
       refY="0"
       refX="0"
       id="Arrow1Sstart-90-7-4"
       style="overflow:visible">
      <path
         id="path3809-16-2-2"
         d="M 0,0 5,-5 -12.5,0 5,5 0,0 z"
         style="fill-rule:evenodd;stroke:#000000;stroke-width:1pt"
         transform="matrix(0.2,0,0,0.2,1.2,0)"
         inkscape:connector-curvature="0" />
    </marker>
    <marker
       inkscape:stockid="Arrow1Send"
       orient="auto"
       refY="0"
       refX="0"
       id="Arrow1Send-68-39-8-9"
       style="overflow:visible">
      <path
         id="path3812-3-0-9-9"
         d="M 0,0 5,-5 -12.5,0 5,5 0,0 z"
         style="fill-rule:evenodd;stroke:#000000;stroke-width:1pt"
         transform="matrix(-0.2,0,0,-0.2,-1.2,0)"
         inkscape:connector-curvature="0" />
    </marker>
  </defs>
  <path
     sodipodi:type="arc"
     style="fill:none;stroke:#000000;stroke-width:0;stroke-miterlimit:4;stroke-opacity:1;stroke-dasharray:none;marker-end:url(#Arrow1Send-3)"
     id="path5103-1"
     sodipodi:cx="111.00325"
     sodipodi:cy="194.9841"
     sodipodi:rx="22.808887"
     sodipodi:ry="29.398121"
     d="m 133.81214,194.9841 a 22.808887,29.398121 0 1 1 -45.617777,0 22.808887,29.398121 0 1 1 45.617777,0 z"
     transform="matrix(3.1519168,0,0,2.4454528,-367.20004,-406.36486)" />
  <path
     style="fill:#0000ff;fill-opacity:0.39215686;stroke:#000000;stroke-width:1.07672131px;stroke-linecap:butt;stroke-linejoin:miter;stroke-opacity:1"
     d="m 27.95261,70.880886 c -1.08321,2.28825 -1.50199,4.84536 -1.9907,7.3304 -0.594,3.01737 -1.12537,5.37385 -1.01377,8.44795 0.12393,3.41643 0.43409,7.42525 1.18244,10.76159 0.70904,3.162594 2.42427,6.341454 3.6168,9.354004 0.87969,2.2227 2.13732,4.09362 2.92753,6.34852 0.89116,2.54335 0.95178,5.30721 1.33292,7.97527 0.16113,1.12778 0.26476,2.26325 0.40298,3.39343 0.17528,1.43276 -0.20284,3.05784 0.5406,4.29493 0.67771,1.12732 1.92361,2.09165 3.22652,2.27174 1.41571,0.19555 3.37492,-0.084 4.45092,-1.02488 0.88031,-0.76942 1.05552,-2.36137 1.18997,-3.52227 0.19274,-1.66542 -0.95454,-3.92025 -1.30964,-5.55974 -0.7316,-3.37699 -0.95623,-6.03411 -1.55625,-9.43775 -0.50741,-2.87859 -0.76449,-5.46324 -0.9342,-8.38141 -0.17767,-3.05425 0.0687,-7.128434 0.28853,-10.180174 0.31232,-4.3337 0.15777,-7.99268 0.65445,-12.30987 0.26238,-2.27839 0.77467,-4.53063 0.91679,-6.82005 0.0664,-1.07211 0.20154,-2.17214 -0.031,-3.2204 -0.39269,-1.77099 -0.86777,-3.78425 -2.25397,-4.9548 -0.72734,-0.61435 -1.81217,-0.64911 -2.76069,-0.72975 -1.21262,-0.10347 -2.47768,-0.0475 -3.63641,0.32434 -0.77857,0.24936 -1.51109,0.69147 -2.11372,1.2442 -1.32567,1.21538 -2.3608,2.76871 -3.13009,4.39473 z"
     id="path16827"
     inkscape:connector-curvature="0"
     sodipodi:nodetypes="ssssssssssssssssssssssss" />
  <path
     style="fill:#00ff00;fill-opacity:0.39215686;stroke:#000000;stroke-width:1.07672131px;stroke-linecap:butt;stroke-linejoin:miter;stroke-opacity:1"
     d="m 34.15915,38.068136 c 0,0 2.60506,3.38453 3.71841,6.2589 1.10544,2.85356 1.83536,5.87429 2.19991,8.91216 0.36225,3.01705 0.76441,6.08493 0.95235,9.11784 0.15412,2.49235 0.99611,5.15554 -0.0321,7.43154 -0.92817,2.05531 -3.41379,3.24532 -5.60107,3.7942 -1.18015,0.2965 -2.51575,0.11001 -3.63098,-0.37763 -1.71792,-0.7509 -2.93375,-2.35291 -4.22704,-3.71064 -2.11321,-2.2185 -3.76646,-4.83492 -5.72132,-7.19406 -1.47887,-1.78475 -3.10498,-3.44736 -4.54374,-5.26465 -1.7285,-2.18331 -3.3172,-4.33671 -4.9029,-6.76331 -0.47102,-0.72073 -1.55621,-1.98084 -2.105703,-2.64299 -1.72568,-2.07953 -2.4221,-3.78206 -3.34509,-5.97891 -0.86808,-2.06676 -1.71986,-4.07644 -2.02832,-6.24188 -0.22096,-1.54445 -0.0815,-3.57285 0.14291,-4.67823 0.33502,-1.65496 1.29884,-3.74754 3.633,-5.02526 2.07155,-1.13418 4.800323,-2.3904 7.131183,-2.00632 3.42424,0.56333 2.45338,-0.0471 5.22919,1.51005 1.84516,1.0344 3.54078,2.52714 5.17584,3.67427 2.12293,1.48961 3.53928,3.30041 4.72276,4.63593 1.14184,1.28848 3.23274,4.54896 3.23274,4.54896 z"
     id="path16829"
     inkscape:connector-curvature="0"
     sodipodi:nodetypes="cssssssssasssasssssscc" />
  <path
     style="fill:none;stroke:#0000ff;stroke-width:1.5;stroke-linecap:butt;stroke-linejoin:miter;stroke-miterlimit:4;stroke-opacity:1;stroke-dasharray:none;marker-start:url(#Arrow1SstartW);marker-end:url(#Arrow1SendB)"
     d="m 35.82691,81.011936 0.78068,10.00497 10.005,-0.78066"
     id="path16835"
     inkscape:connector-curvature="0" />
  <path
     style="fill:none;stroke:#0000ff;stroke-width:1;stroke-linecap:butt;stroke-linejoin:miter;stroke-miterlimit:4;stroke-opacity:1;stroke-dasharray:2, 1;stroke-dashoffset:0"
     d="M 38.80517,126.56881 30.74235,5.8739661"
     id="path16861"
     inkscape:connector-curvature="0"
     sodipodi:nodetypes="cc" />
  <path
     style="fill:none;stroke:#00ff00;stroke-width:1.5;stroke-linecap:butt;stroke-linejoin:miter;stroke-miterlimit:4;stroke-opacity:1;stroke-dasharray:none;marker-start:url(#Arrow1Sstart3);marker-end:url(#Arrow1Sendh)"
     d="m 15.69003,39.011486 5.218,8.57216 8.57215,-5.21798"
     id="path16863"
     inkscape:connector-curvature="0" />
  <path
     style="fill:none;stroke:#00ff00;stroke-width:1;stroke-linecap:butt;stroke-linejoin:miter;stroke-miterlimit:4;stroke-opacity:1;stroke-dasharray:2, 1;stroke-dashoffset:0"
     d="M 34.27484,68.880276 0.410817,14.566556"
     id="path16865"
     inkscape:connector-curvature="0"
     sodipodi:nodetypes="cc" />
  <path
     sodipodi:type="arc"
     style="fill:#000000;fill-opacity:1;stroke:#000000;stroke-width:1.32612598;stroke-miterlimit:4;stroke-opacity:1;stroke-dasharray:none"
     id="path16869"
     sodipodi:cx="83.901039"
     sodipodi:cy="137.37656"
     sodipodi:rx="2.5424557"
     sodipodi:ry="2.7667899"
     d="m 86.443495,137.37656 a 2.5424557,2.7667899 0 1 1 -5.084912,0 2.5424557,2.7667899 0 1 1 5.084912,0 z"
     transform="matrix(0.62931284,0,0,0.57828749,-14.089183,47.603806)" />
  <g
     id="g16903"
     style="stroke-width:0.0000001"
     ns0:page_width="10cm"
     ns0:preamble=""
     ns0:text="$\\theta_2$"
     transform="matrix(0.9375,0,0,0.9375,10.7944,-2.7485159)">
    <defs
       id="defs16905">
      <g
         id="g16907">
        <symbol
           style="overflow:visible"
           id="symbol16909"
           overflow="visible">
          <path
             inkscape:connector-curvature="0"
             id="path16911"
             d=""
             style="stroke:none" />
        </symbol>
        <symbol
           style="overflow:visible"
           id="symbol16913"
           overflow="visible">
          <path
             inkscape:connector-curvature="0"
             id="path16915"
             d="m 4.53125,-4.984375 c 0,-0.65625 -0.171875,-2.046875 -1.1875,-2.046875 -1.390625,0 -2.921875,2.8125 -2.921875,5.09375 0,0.9375 0.28125,2.046875 1.1875,2.046875 1.40625,0 2.921875,-2.859375 2.921875,-5.09375 z M 1.46875,-3.625 C 1.640625,-4.25 1.84375,-5.046875 2.25,-5.765625 2.515625,-6.25 2.875,-6.8125 3.328125,-6.8125 c 0.484375,0 0.546875,0.640625 0.546875,1.203125 0,0.5 -0.078125,1 -0.3125,1.984375 z m 2,0.328125 C 3.359375,-2.84375 3.15625,-2 2.765625,-1.28125 c -0.34375,0.6875 -0.71875,1.171875 -1.15625,1.171875 -0.328125,0 -0.53125,-0.296875 -0.53125,-1.21875 0,-0.421875 0.0625,-1 0.3125,-1.96875 z"
             style="stroke:none" />
        </symbol>
        <symbol
           style="overflow:visible"
           id="symbol16917"
           overflow="visible">
          <path
             inkscape:connector-curvature="0"
             id="path16919"
             d=""
             style="stroke:none" />
        </symbol>
        <symbol
           style="overflow:visible"
           id="symbol16921"
           overflow="visible">
          <path
             inkscape:connector-curvature="0"
             id="path16923"
             d="m 3.515625,-1.265625 -0.234375,0 c -0.015625,0.15625 -0.09375,0.5625 -0.1875,0.625 -0.046875,0.046875 -0.578125,0.046875 -0.6875,0.046875 l -1.28125,0 c 0.734375,-0.640625 0.984375,-0.84375 1.390625,-1.171875 0.515625,-0.40625 1,-0.84375 1,-1.5 0,-0.84375 -0.734375,-1.359375 -1.625,-1.359375 -0.859375,0 -1.453125,0.609375 -1.453125,1.25 0,0.34375 0.296875,0.390625 0.375,0.390625 0.15625,0 0.359375,-0.125 0.359375,-0.375 0,-0.125 -0.046875,-0.375 -0.40625,-0.375 C 0.984375,-4.21875 1.453125,-4.375 1.78125,-4.375 c 0.703125,0 1.0625,0.546875 1.0625,1.109375 0,0.609375 -0.4375,1.078125 -0.65625,1.328125 L 0.515625,-0.265625 C 0.4375,-0.203125 0.4375,-0.1875 0.4375,0 l 2.875,0 z"
             style="stroke:none" />
        </symbol>
      </g>
    </defs>
    <g
       id="g16925">
      <g
         id="g16927"
         style="fill:#000000;fill-opacity:1">
        <g
           id="use16929"
           transform="translate(0,9.9630003)">
          <path
             style="stroke:none"
             d="m 4.53125,-4.984375 c 0,-0.65625 -0.171875,-2.046875 -1.1875,-2.046875 -1.390625,0 -2.921875,2.8125 -2.921875,5.09375 0,0.9375 0.28125,2.046875 1.1875,2.046875 1.40625,0 2.921875,-2.859375 2.921875,-5.09375 z M 1.46875,-3.625 C 1.640625,-4.25 1.84375,-5.046875 2.25,-5.765625 2.515625,-6.25 2.875,-6.8125 3.328125,-6.8125 c 0.484375,0 0.546875,0.640625 0.546875,1.203125 0,0.5 -0.078125,1 -0.3125,1.984375 z m 2,0.328125 C 3.359375,-2.84375 3.15625,-2 2.765625,-1.28125 c -0.34375,0.6875 -0.71875,1.171875 -1.15625,1.171875 -0.328125,0 -0.53125,-0.296875 -0.53125,-1.21875 0,-0.421875 0.0625,-1 0.3125,-1.96875 z"
             id="path4621"
             inkscape:connector-curvature="0" />
        </g>
      </g>
      <g
         id="g16931"
         style="fill:#000000;fill-opacity:1">
        <g
           id="use16933"
           transform="translate(4.677,11.457)">
          <path
             style="stroke:none"
             d="m 3.515625,-1.265625 -0.234375,0 c -0.015625,0.15625 -0.09375,0.5625 -0.1875,0.625 -0.046875,0.046875 -0.578125,0.046875 -0.6875,0.046875 l -1.28125,0 c 0.734375,-0.640625 0.984375,-0.84375 1.390625,-1.171875 0.515625,-0.40625 1,-0.84375 1,-1.5 0,-0.84375 -0.734375,-1.359375 -1.625,-1.359375 -0.859375,0 -1.453125,0.609375 -1.453125,1.25 0,0.34375 0.296875,0.390625 0.375,0.390625 0.15625,0 0.359375,-0.125 0.359375,-0.375 0,-0.125 -0.046875,-0.375 -0.40625,-0.375 C 0.984375,-4.21875 1.453125,-4.375 1.78125,-4.375 c 0.703125,0 1.0625,0.546875 1.0625,1.109375 0,0.609375 -0.4375,1.078125 -0.65625,1.328125 L 0.515625,-0.265625 C 0.4375,-0.203125 0.4375,-0.1875 0.4375,0 l 2.875,0 z"
             id="path4629"
             inkscape:connector-curvature="0" />
        </g>
      </g>
    </g>
  </g>
  <g
     transform="matrix(0.9375,0,0,0.9375,47.58361,90.520986)"
     ns0:text="$\\hat{\\mathbf{l}}_x$"
     ns0:preamble=""
     ns0:page_width="10cm"
     style="fill:#000000;stroke-width:0.0000001"
     id="g17055">
    <defs
       id="defs17057">
      <g
         id="g17059">
        <symbol
           overflow="visible"
           id="symbol17061"
           style="overflow:visible">
          <path
             style="stroke:none"
             d=""
             id="path17063"
             inkscape:connector-curvature="0" />
        </symbol>
        <symbol
           overflow="visible"
           id="symbol17065"
           style="overflow:visible">
          <path
             style="stroke:none"
             d="M 2.5,-6.921875 1.15625,-5.5625 1.328125,-5.390625 2.5,-6.40625 3.640625,-5.390625 3.8125,-5.5625 z"
             id="path17067"
             inkscape:connector-curvature="0" />
        </symbol>
        <symbol
           overflow="visible"
           id="symbol17069"
           style="overflow:visible">
          <path
             style="stroke:none"
             d=""
             id="path17071"
             inkscape:connector-curvature="0" />
        </symbol>
        <symbol
           overflow="visible"
           id="symbol17073"
           style="overflow:visible">
          <path
             style="stroke:none"
             d="m 2.234375,-6.921875 -1.765625,0.078125 0,0.46875 c 0.625,0 0.6875,0 0.6875,0.390625 l 0,5.515625 -0.6875,0 0,0.46875 c 0.3125,-0.015625 0.796875,-0.03125 1.21875,-0.03125 0.4375,0 0.890625,0.015625 1.234375,0.03125 l 0,-0.46875 -0.6875,0 z"
             id="path17075"
             inkscape:connector-curvature="0" />
        </symbol>
        <symbol
           overflow="visible"
           id="symbol17077"
           style="overflow:visible">
          <path
             style="stroke:none"
             d=""
             id="path17079"
             inkscape:connector-curvature="0" />
        </symbol>
        <symbol
           overflow="visible"
           id="symbol17081"
           style="overflow:visible">
          <path
             style="stroke:none"
             d="M 1.734375,-0.734375 C 1.671875,-0.5 1.4375,-0.125 1.078125,-0.125 c -0.015625,0 -0.234375,0 -0.375,-0.09375 0.28125,-0.09375 0.3125,-0.34375 0.3125,-0.390625 0,-0.15625 -0.125,-0.25 -0.28125,-0.25 -0.203125,0 -0.40625,0.15625 -0.40625,0.421875 0,0.34375 0.390625,0.5 0.734375,0.5 0.328125,0 0.609375,-0.1875 0.78125,-0.484375 C 2.015625,-0.0625 2.390625,0.0625 2.671875,0.0625 c 0.8125,0 1.234375,-0.859375 1.234375,-1.0625 0,-0.09375 -0.09375,-0.09375 -0.109375,-0.09375 -0.109375,0 -0.109375,0.046875 -0.140625,0.125 -0.140625,0.484375 -0.5625,0.84375 -0.953125,0.84375 -0.28125,0 -0.421875,-0.1875 -0.421875,-0.453125 0,-0.1875 0.171875,-0.8125 0.359375,-1.59375 C 2.78125,-2.703125 3.09375,-2.875 3.328125,-2.875 c 0.015625,0 0.21875,0 0.375,0.09375 -0.21875,0.0625 -0.3125,0.265625 -0.3125,0.390625 0,0.140625 0.125,0.25 0.28125,0.25 0.15625,0 0.390625,-0.125 0.390625,-0.421875 0,-0.390625 -0.453125,-0.515625 -0.71875,-0.515625 -0.359375,0 -0.640625,0.234375 -0.78125,0.5 -0.125,-0.28125 -0.453125,-0.5 -0.84375,-0.5 C 0.9375,-3.078125 0.5,-2.21875 0.5,-2 c 0,0.078125 0.09375,0.078125 0.109375,0.078125 0.09375,0 0.09375,-0.015625 0.140625,-0.109375 C 0.921875,-2.578125 1.359375,-2.875 1.703125,-2.875 1.9375,-2.875 2.125,-2.75 2.125,-2.421875 2.125,-2.28125 2.03125,-1.9375 1.96875,-1.6875 z"
             id="path17083"
             inkscape:connector-curvature="0" />
        </symbol>
      </g>
    </defs>
    <g
       id="g17085"
       style="fill:#000000">
      <g
         style="fill:#000000;fill-opacity:1"
         id="g17087">
        <g
           id="use17089"
           style="fill:#000000"
           transform="translate(-0.89899999,7.3340001)">
          <path
             inkscape:connector-curvature="0"
             id="path4550"
             d="M 2.5,-6.921875 1.15625,-5.5625 1.328125,-5.390625 2.5,-6.40625 3.640625,-5.390625 3.8125,-5.5625 z"
             style="stroke:none" />
        </g>
      </g>
      <g
         style="fill:#000000;fill-opacity:1"
         id="g17091">
        <g
           id="use17093"
           style="fill:#000000"
           transform="translate(0,9.9630003)">
          <path
             inkscape:connector-curvature="0"
             id="path4558"
             d="m 2.234375,-6.921875 -1.765625,0.078125 0,0.46875 c 0.625,0 0.6875,0 0.6875,0.390625 l 0,5.515625 -0.6875,0 0,0.46875 c 0.3125,-0.015625 0.796875,-0.03125 1.21875,-0.03125 0.4375,0 0.890625,0.015625 1.234375,0.03125 l 0,-0.46875 -0.6875,0 z"
             style="stroke:none" />
        </g>
      </g>
      <g
         style="fill:#000000;fill-opacity:1"
         id="g17095">
        <g
           id="use17097"
           style="fill:#000000"
           transform="translate(3.1819999,11.457)">
          <path
             inkscape:connector-curvature="0"
             id="path4566"
             d="M 1.734375,-0.734375 C 1.671875,-0.5 1.4375,-0.125 1.078125,-0.125 c -0.015625,0 -0.234375,0 -0.375,-0.09375 0.28125,-0.09375 0.3125,-0.34375 0.3125,-0.390625 0,-0.15625 -0.125,-0.25 -0.28125,-0.25 -0.203125,0 -0.40625,0.15625 -0.40625,0.421875 0,0.34375 0.390625,0.5 0.734375,0.5 0.328125,0 0.609375,-0.1875 0.78125,-0.484375 C 2.015625,-0.0625 2.390625,0.0625 2.671875,0.0625 c 0.8125,0 1.234375,-0.859375 1.234375,-1.0625 0,-0.09375 -0.09375,-0.09375 -0.109375,-0.09375 -0.109375,0 -0.109375,0.046875 -0.140625,0.125 -0.140625,0.484375 -0.5625,0.84375 -0.953125,0.84375 -0.28125,0 -0.421875,-0.1875 -0.421875,-0.453125 0,-0.1875 0.171875,-0.8125 0.359375,-1.59375 C 2.78125,-2.703125 3.09375,-2.875 3.328125,-2.875 c 0.015625,0 0.21875,0 0.375,0.09375 -0.21875,0.0625 -0.3125,0.265625 -0.3125,0.390625 0,0.140625 0.125,0.25 0.28125,0.25 0.15625,0 0.390625,-0.125 0.390625,-0.421875 0,-0.390625 -0.453125,-0.515625 -0.71875,-0.515625 -0.359375,0 -0.640625,0.234375 -0.78125,0.5 -0.125,-0.28125 -0.453125,-0.5 -0.84375,-0.5 C 0.9375,-3.078125 0.5,-2.21875 0.5,-2 c 0,0.078125 0.09375,0.078125 0.109375,0.078125 0.09375,0 0.09375,-0.015625 0.140625,-0.109375 C 0.921875,-2.578125 1.359375,-2.875 1.703125,-2.875 1.9375,-2.875 2.125,-2.75 2.125,-2.421875 2.125,-2.28125 2.03125,-1.9375 1.96875,-1.6875 z"
             style="stroke:none" />
        </g>
      </g>
    </g>
  </g>
  <g
     id="g17099"
     style="fill:#000000;stroke-width:0.0000001"
     ns0:page_width="10cm"
     ns0:preamble=""
     ns0:text="$\\hat{\\mathbf{l}}_y$"
     transform="matrix(0.9375,0,0,0.9375,27.27567,77.177306)">
    <defs
       id="defs17101">
      <g
         id="g17103">
        <symbol
           id="symbol17105"
           overflow="visible"
           style="overflow:visible">
          <path
             id="path17107"
             d=""
             style="stroke:none"
             inkscape:connector-curvature="0" />
        </symbol>
        <symbol
           id="symbol17109"
           overflow="visible"
           style="overflow:visible">
          <path
             id="path17111"
             d="M 2.5,-6.921875 1.15625,-5.5625 1.328125,-5.390625 2.5,-6.40625 3.640625,-5.390625 3.8125,-5.5625 z"
             style="stroke:none"
             inkscape:connector-curvature="0" />
        </symbol>
        <symbol
           id="symbol17113"
           overflow="visible"
           style="overflow:visible">
          <path
             id="path17115"
             d=""
             style="stroke:none"
             inkscape:connector-curvature="0" />
        </symbol>
        <symbol
           id="symbol17117"
           overflow="visible"
           style="overflow:visible">
          <path
             id="path17119"
             d="m 2.234375,-6.921875 -1.765625,0.078125 0,0.46875 c 0.625,0 0.6875,0 0.6875,0.390625 l 0,5.515625 -0.6875,0 0,0.46875 c 0.3125,-0.015625 0.796875,-0.03125 1.21875,-0.03125 0.4375,0 0.890625,0.015625 1.234375,0.03125 l 0,-0.46875 -0.6875,0 z"
             style="stroke:none"
             inkscape:connector-curvature="0" />
        </symbol>
        <symbol
           id="symbol17121"
           overflow="visible"
           style="overflow:visible">
          <path
             id="path17123"
             d=""
             style="stroke:none"
             inkscape:connector-curvature="0" />
        </symbol>
        <symbol
           id="symbol17125"
           overflow="visible"
           style="overflow:visible">
          <path
             id="path17127"
             d="M 3.875,-2.625 C 3.90625,-2.71875 3.90625,-2.734375 3.90625,-2.78125 3.90625,-2.921875 3.796875,-3 3.671875,-3 3.59375,-3 3.46875,-2.96875 3.390625,-2.84375 3.359375,-2.796875 3.3125,-2.578125 3.28125,-2.4375 L 3.125,-1.859375 c -0.03125,0.171875 -0.25,1.046875 -0.28125,1.125 0,0 -0.3125,0.609375 -0.84375,0.609375 -0.484375,0 -0.484375,-0.453125 -0.484375,-0.578125 0,-0.375 0.15625,-0.8125 0.375,-1.359375 C 1.96875,-2.28125 2,-2.359375 2,-2.484375 2,-2.8125 1.71875,-3.078125 1.34375,-3.078125 0.640625,-3.078125 0.328125,-2.125 0.328125,-2 c 0,0.078125 0.09375,0.078125 0.125,0.078125 0.09375,0 0.09375,-0.03125 0.125,-0.109375 C 0.75,-2.609375 1.046875,-2.875 1.328125,-2.875 1.4375,-2.875 1.5,-2.796875 1.5,-2.640625 c 0,0.171875 -0.0625,0.3125 -0.09375,0.40625 C 1.0625,-1.375 1,-1.125 1,-0.8125 1,-0.703125 1,-0.375 1.265625,-0.140625 1.484375,0.03125 1.78125,0.0625 1.96875,0.0625 2.25,0.0625 2.5,-0.03125 2.71875,-0.25 2.640625,0.140625 2.5625,0.4375 2.265625,0.78125 2.078125,1 1.796875,1.21875 1.421875,1.21875 c -0.046875,0 -0.375,0 -0.515625,-0.21875 0.375,-0.046875 0.375,-0.375 0.375,-0.390625 0,-0.21875 -0.203125,-0.265625 -0.265625,-0.265625 -0.171875,0 -0.40625,0.140625 -0.40625,0.46875 0,0.34375 0.328125,0.609375 0.828125,0.609375 C 2.140625,1.421875 3,0.875 3.21875,0 z"
             style="stroke:none"
             inkscape:connector-curvature="0" />
        </symbol>
      </g>
    </defs>
    <g
       id="g17129"
       style="fill:#000000">
      <g
         id="g17131"
         style="fill:#000000;fill-opacity:1">
        <g
           id="use17133"
           style="fill:#000000"
           transform="translate(-0.89899999,7.3340001)">
          <path
             inkscape:connector-curvature="0"
             style="stroke:none"
             d="M 2.5,-6.921875 1.15625,-5.5625 1.328125,-5.390625 2.5,-6.40625 3.640625,-5.390625 3.8125,-5.5625 z"
             id="path4526" />
        </g>
      </g>
      <g
         id="g17135"
         style="fill:#000000;fill-opacity:1">
        <g
           id="use17137"
           style="fill:#000000"
           transform="translate(0,9.9630003)">
          <path
             inkscape:connector-curvature="0"
             style="stroke:none"
             d="m 2.234375,-6.921875 -1.765625,0.078125 0,0.46875 c 0.625,0 0.6875,0 0.6875,0.390625 l 0,5.515625 -0.6875,0 0,0.46875 c 0.3125,-0.015625 0.796875,-0.03125 1.21875,-0.03125 0.4375,0 0.890625,0.015625 1.234375,0.03125 l 0,-0.46875 -0.6875,0 z"
             id="path4534" />
        </g>
      </g>
      <g
         id="g17139"
         style="fill:#000000;fill-opacity:1">
        <g
           id="use17141"
           style="fill:#000000"
           transform="translate(3.1819999,11.457)">
          <path
             inkscape:connector-curvature="0"
             style="stroke:none"
             d="M 3.875,-2.625 C 3.90625,-2.71875 3.90625,-2.734375 3.90625,-2.78125 3.90625,-2.921875 3.796875,-3 3.671875,-3 3.59375,-3 3.46875,-2.96875 3.390625,-2.84375 3.359375,-2.796875 3.3125,-2.578125 3.28125,-2.4375 L 3.125,-1.859375 c -0.03125,0.171875 -0.25,1.046875 -0.28125,1.125 0,0 -0.3125,0.609375 -0.84375,0.609375 -0.484375,0 -0.484375,-0.453125 -0.484375,-0.578125 0,-0.375 0.15625,-0.8125 0.375,-1.359375 C 1.96875,-2.28125 2,-2.359375 2,-2.484375 2,-2.8125 1.71875,-3.078125 1.34375,-3.078125 0.640625,-3.078125 0.328125,-2.125 0.328125,-2 c 0,0.078125 0.09375,0.078125 0.125,0.078125 0.09375,0 0.09375,-0.03125 0.125,-0.109375 C 0.75,-2.609375 1.046875,-2.875 1.328125,-2.875 1.4375,-2.875 1.5,-2.796875 1.5,-2.640625 c 0,0.171875 -0.0625,0.3125 -0.09375,0.40625 C 1.0625,-1.375 1,-1.125 1,-0.8125 1,-0.703125 1,-0.375 1.265625,-0.140625 1.484375,0.03125 1.78125,0.0625 1.96875,0.0625 2.25,0.0625 2.5,-0.03125 2.71875,-0.25 2.640625,0.140625 2.5625,0.4375 2.265625,0.78125 2.078125,1 1.796875,1.21875 1.421875,1.21875 c -0.046875,0 -0.375,0 -0.515625,-0.21875 0.375,-0.046875 0.375,-0.375 0.375,-0.390625 0,-0.21875 -0.203125,-0.265625 -0.265625,-0.265625 -0.171875,0 -0.40625,0.140625 -0.40625,0.46875 0,0.34375 0.328125,0.609375 0.828125,0.609375 C 2.140625,1.421875 3,0.875 3.21875,0 z"
             id="path4542" />
        </g>
      </g>
    </g>
  </g>
  <g
     transform="matrix(0.9375,0,0,0.9375,35.57493,27.888536)"
     ns0:text="$\\hat{\\mathbf{u}}_x$"
     ns0:preamble=""
     ns0:page_width="10cm"
     style="fill:#000000;stroke-width:0.0000001"
     id="g17143">
    <defs
       id="defs17145">
      <g
         id="g17147">
        <symbol
           overflow="visible"
           id="symbol17149"
           style="overflow:visible">
          <path
             style="stroke:none"
             d=""
             id="path17151"
             inkscape:connector-curvature="0" />
        </symbol>
        <symbol
           overflow="visible"
           id="symbol17153"
           style="overflow:visible">
          <path
             style="stroke:none"
             d="M 2.5,-6.921875 1.15625,-5.5625 1.328125,-5.390625 2.5,-6.40625 3.640625,-5.390625 3.8125,-5.5625 z"
             id="path17155"
             inkscape:connector-curvature="0" />
        </symbol>
        <symbol
           overflow="visible"
           id="symbol17157"
           style="overflow:visible">
          <path
             style="stroke:none"
             d=""
             id="path17159"
             inkscape:connector-curvature="0" />
        </symbol>
        <symbol
           overflow="visible"
           id="symbol17161"
           style="overflow:visible">
          <path
             style="stroke:none"
             d="m 4.359375,-0.71875 0,0.78125 L 6.125,0 l 0,-0.46875 c -0.609375,0 -0.6875,0 -0.6875,-0.390625 l 0,-3.625 -1.8125,0.078125 0,0.46875 c 0.609375,0 0.6875,0 0.6875,0.390625 l 0,1.90625 c 0,0.8125 -0.515625,1.34375 -1.234375,1.34375 -0.78125,0 -0.8125,-0.25 -0.8125,-0.796875 l 0,-3.390625 -1.8125,0.078125 0,0.46875 c 0.609375,0 0.6875,0 0.6875,0.390625 l 0,2.328125 c 0,1.0625 0.796875,1.28125 1.796875,1.28125 0.25,0 0.96875,0 1.421875,-0.78125 z"
             id="path17163"
             inkscape:connector-curvature="0" />
        </symbol>
        <symbol
           overflow="visible"
           id="symbol17165"
           style="overflow:visible">
          <path
             style="stroke:none"
             d=""
             id="path17167"
             inkscape:connector-curvature="0" />
        </symbol>
        <symbol
           overflow="visible"
           id="symbol17169"
           style="overflow:visible">
          <path
             style="stroke:none"
             d="M 1.734375,-0.734375 C 1.671875,-0.5 1.4375,-0.125 1.078125,-0.125 c -0.015625,0 -0.234375,0 -0.375,-0.09375 0.28125,-0.09375 0.3125,-0.34375 0.3125,-0.390625 0,-0.15625 -0.125,-0.25 -0.28125,-0.25 -0.203125,0 -0.40625,0.15625 -0.40625,0.421875 0,0.34375 0.390625,0.5 0.734375,0.5 0.328125,0 0.609375,-0.1875 0.78125,-0.484375 C 2.015625,-0.0625 2.390625,0.0625 2.671875,0.0625 c 0.8125,0 1.234375,-0.859375 1.234375,-1.0625 0,-0.09375 -0.09375,-0.09375 -0.109375,-0.09375 -0.109375,0 -0.109375,0.046875 -0.140625,0.125 -0.140625,0.484375 -0.5625,0.84375 -0.953125,0.84375 -0.28125,0 -0.421875,-0.1875 -0.421875,-0.453125 0,-0.1875 0.171875,-0.8125 0.359375,-1.59375 C 2.78125,-2.703125 3.09375,-2.875 3.328125,-2.875 c 0.015625,0 0.21875,0 0.375,0.09375 -0.21875,0.0625 -0.3125,0.265625 -0.3125,0.390625 0,0.140625 0.125,0.25 0.28125,0.25 0.15625,0 0.390625,-0.125 0.390625,-0.421875 0,-0.390625 -0.453125,-0.515625 -0.71875,-0.515625 -0.359375,0 -0.640625,0.234375 -0.78125,0.5 -0.125,-0.28125 -0.453125,-0.5 -0.84375,-0.5 C 0.9375,-3.078125 0.5,-2.21875 0.5,-2 c 0,0.078125 0.09375,0.078125 0.109375,0.078125 0.09375,0 0.09375,-0.015625 0.140625,-0.109375 C 0.921875,-2.578125 1.359375,-2.875 1.703125,-2.875 1.9375,-2.875 2.125,-2.75 2.125,-2.421875 2.125,-2.28125 2.03125,-1.9375 1.96875,-1.6875 z"
             id="path17171"
             inkscape:connector-curvature="0" />
        </symbol>
      </g>
    </defs>
    <g
       id="g17173"
       style="fill:#000000">
      <g
         style="fill:#000000;fill-opacity:1"
         id="g17175">
        <g
           id="use17177"
           style="fill:#000000"
           transform="translate(0.69199997,9.8249998)">
          <path
             inkscape:connector-curvature="0"
             id="path4490"
             d="M 2.5,-6.921875 1.15625,-5.5625 1.328125,-5.390625 2.5,-6.40625 3.640625,-5.390625 3.8125,-5.5625 z"
             style="stroke:none" />
        </g>
      </g>
      <g
         style="fill:#000000;fill-opacity:1"
         id="g17179">
        <g
           id="use17181"
           style="fill:#000000"
           transform="translate(0,9.9630003)">
          <path
             inkscape:connector-curvature="0"
             id="path4502"
             d="m 4.359375,-0.71875 0,0.78125 L 6.125,0 l 0,-0.46875 c -0.609375,0 -0.6875,0 -0.6875,-0.390625 l 0,-3.625 -1.8125,0.078125 0,0.46875 c 0.609375,0 0.6875,0 0.6875,0.390625 l 0,1.90625 c 0,0.8125 -0.515625,1.34375 -1.234375,1.34375 -0.78125,0 -0.8125,-0.25 -0.8125,-0.796875 l 0,-3.390625 -1.8125,0.078125 0,0.46875 c 0.609375,0 0.6875,0 0.6875,0.390625 l 0,2.328125 c 0,1.0625 0.796875,1.28125 1.796875,1.28125 0.25,0 0.96875,0 1.421875,-0.78125 z"
             style="stroke:none" />
        </g>
      </g>
      <g
         style="fill:#000000;fill-opacity:1"
         id="g17183">
        <g
           id="use17185"
           style="fill:#000000"
           transform="translate(6.3649998,11.457)">
          <path
             inkscape:connector-curvature="0"
             id="path4514"
             d="M 1.734375,-0.734375 C 1.671875,-0.5 1.4375,-0.125 1.078125,-0.125 c -0.015625,0 -0.234375,0 -0.375,-0.09375 0.28125,-0.09375 0.3125,-0.34375 0.3125,-0.390625 0,-0.15625 -0.125,-0.25 -0.28125,-0.25 -0.203125,0 -0.40625,0.15625 -0.40625,0.421875 0,0.34375 0.390625,0.5 0.734375,0.5 0.328125,0 0.609375,-0.1875 0.78125,-0.484375 C 2.015625,-0.0625 2.390625,0.0625 2.671875,0.0625 c 0.8125,0 1.234375,-0.859375 1.234375,-1.0625 0,-0.09375 -0.09375,-0.09375 -0.109375,-0.09375 -0.109375,0 -0.109375,0.046875 -0.140625,0.125 -0.140625,0.484375 -0.5625,0.84375 -0.953125,0.84375 -0.28125,0 -0.421875,-0.1875 -0.421875,-0.453125 0,-0.1875 0.171875,-0.8125 0.359375,-1.59375 C 2.78125,-2.703125 3.09375,-2.875 3.328125,-2.875 c 0.015625,0 0.21875,0 0.375,0.09375 -0.21875,0.0625 -0.3125,0.265625 -0.3125,0.390625 0,0.140625 0.125,0.25 0.28125,0.25 0.15625,0 0.390625,-0.125 0.390625,-0.421875 0,-0.390625 -0.453125,-0.515625 -0.71875,-0.515625 -0.359375,0 -0.640625,0.234375 -0.78125,0.5 -0.125,-0.28125 -0.453125,-0.5 -0.84375,-0.5 C 0.9375,-3.078125 0.5,-2.21875 0.5,-2 c 0,0.078125 0.09375,0.078125 0.109375,0.078125 0.09375,0 0.09375,-0.015625 0.140625,-0.109375 C 0.921875,-2.578125 1.359375,-2.875 1.703125,-2.875 1.9375,-2.875 2.125,-2.75 2.125,-2.421875 2.125,-2.28125 2.03125,-1.9375 1.96875,-1.6875 z"
             style="stroke:none" />
        </g>
      </g>
    </g>
  </g>
  <g
     id="g17187"
     style="fill:#000000;stroke-width:0.0000001"
     ns0:page_width="10cm"
     ns0:preamble=""
     ns0:text="$\\hat{\\mathbf{u}}_y$"
     transform="matrix(0.9375,0,0,0.9375,14.57773,26.278586)">
    <defs
       id="defs17189">
      <g
         id="g17191">
        <symbol
           id="symbol17193"
           overflow="visible"
           style="overflow:visible">
          <path
             id="path17195"
             d=""
             style="stroke:none"
             inkscape:connector-curvature="0" />
        </symbol>
        <symbol
           id="symbol17197"
           overflow="visible"
           style="overflow:visible">
          <path
             id="path17199"
             d="M 2.5,-6.921875 1.15625,-5.5625 1.328125,-5.390625 2.5,-6.40625 3.640625,-5.390625 3.8125,-5.5625 z"
             style="stroke:none"
             inkscape:connector-curvature="0" />
        </symbol>
        <symbol
           id="symbol17201"
           overflow="visible"
           style="overflow:visible">
          <path
             id="path17203"
             d=""
             style="stroke:none"
             inkscape:connector-curvature="0" />
        </symbol>
        <symbol
           id="symbol17205"
           overflow="visible"
           style="overflow:visible">
          <path
             id="path17207"
             d="m 4.359375,-0.71875 0,0.78125 L 6.125,0 l 0,-0.46875 c -0.609375,0 -0.6875,0 -0.6875,-0.390625 l 0,-3.625 -1.8125,0.078125 0,0.46875 c 0.609375,0 0.6875,0 0.6875,0.390625 l 0,1.90625 c 0,0.8125 -0.515625,1.34375 -1.234375,1.34375 -0.78125,0 -0.8125,-0.25 -0.8125,-0.796875 l 0,-3.390625 -1.8125,0.078125 0,0.46875 c 0.609375,0 0.6875,0 0.6875,0.390625 l 0,2.328125 c 0,1.0625 0.796875,1.28125 1.796875,1.28125 0.25,0 0.96875,0 1.421875,-0.78125 z"
             style="stroke:none"
             inkscape:connector-curvature="0" />
        </symbol>
        <symbol
           id="symbol17209"
           overflow="visible"
           style="overflow:visible">
          <path
             id="path17211"
             d=""
             style="stroke:none"
             inkscape:connector-curvature="0" />
        </symbol>
        <symbol
           id="symbol17213"
           overflow="visible"
           style="overflow:visible">
          <path
             id="path17215"
             d="M 3.875,-2.625 C 3.90625,-2.71875 3.90625,-2.734375 3.90625,-2.78125 3.90625,-2.921875 3.796875,-3 3.671875,-3 3.59375,-3 3.46875,-2.96875 3.390625,-2.84375 3.359375,-2.796875 3.3125,-2.578125 3.28125,-2.4375 L 3.125,-1.859375 c -0.03125,0.171875 -0.25,1.046875 -0.28125,1.125 0,0 -0.3125,0.609375 -0.84375,0.609375 -0.484375,0 -0.484375,-0.453125 -0.484375,-0.578125 0,-0.375 0.15625,-0.8125 0.375,-1.359375 C 1.96875,-2.28125 2,-2.359375 2,-2.484375 2,-2.8125 1.71875,-3.078125 1.34375,-3.078125 0.640625,-3.078125 0.328125,-2.125 0.328125,-2 c 0,0.078125 0.09375,0.078125 0.125,0.078125 0.09375,0 0.09375,-0.03125 0.125,-0.109375 C 0.75,-2.609375 1.046875,-2.875 1.328125,-2.875 1.4375,-2.875 1.5,-2.796875 1.5,-2.640625 c 0,0.171875 -0.0625,0.3125 -0.09375,0.40625 C 1.0625,-1.375 1,-1.125 1,-0.8125 1,-0.703125 1,-0.375 1.265625,-0.140625 1.484375,0.03125 1.78125,0.0625 1.96875,0.0625 2.25,0.0625 2.5,-0.03125 2.71875,-0.25 2.640625,0.140625 2.5625,0.4375 2.265625,0.78125 2.078125,1 1.796875,1.21875 1.421875,1.21875 c -0.046875,0 -0.375,0 -0.515625,-0.21875 0.375,-0.046875 0.375,-0.375 0.375,-0.390625 0,-0.21875 -0.203125,-0.265625 -0.265625,-0.265625 -0.171875,0 -0.40625,0.140625 -0.40625,0.46875 0,0.34375 0.328125,0.609375 0.828125,0.609375 C 2.140625,1.421875 3,0.875 3.21875,0 z"
             style="stroke:none"
             inkscape:connector-curvature="0" />
        </symbol>
      </g>
    </defs>
    <g
       id="g17217"
       style="fill:#000000">
      <g
         id="g17219"
         style="fill:#000000;fill-opacity:1">
        <g
           id="use17221"
           style="fill:#000000"
           transform="translate(0.69199997,9.8249998)">
          <path
             inkscape:connector-curvature="0"
             style="stroke:none"
             d="M 2.5,-6.921875 1.15625,-5.5625 1.328125,-5.390625 2.5,-6.40625 3.640625,-5.390625 3.8125,-5.5625 z"
             id="path4454" />
        </g>
      </g>
      <g
         id="g17223"
         style="fill:#000000;fill-opacity:1">
        <g
           id="use17225"
           style="fill:#000000"
           transform="translate(0,9.9630003)">
          <path
             inkscape:connector-curvature="0"
             style="stroke:none"
             d="m 4.359375,-0.71875 0,0.78125 L 6.125,0 l 0,-0.46875 c -0.609375,0 -0.6875,0 -0.6875,-0.390625 l 0,-3.625 -1.8125,0.078125 0,0.46875 c 0.609375,0 0.6875,0 0.6875,0.390625 l 0,1.90625 c 0,0.8125 -0.515625,1.34375 -1.234375,1.34375 -0.78125,0 -0.8125,-0.25 -0.8125,-0.796875 l 0,-3.390625 -1.8125,0.078125 0,0.46875 c 0.609375,0 0.6875,0 0.6875,0.390625 l 0,2.328125 c 0,1.0625 0.796875,1.28125 1.796875,1.28125 0.25,0 0.96875,0 1.421875,-0.78125 z"
             id="path4466" />
        </g>
      </g>
      <g
         id="g17227"
         style="fill:#000000;fill-opacity:1">
        <g
           id="use17229"
           style="fill:#000000"
           transform="translate(6.3649998,11.457)">
          <path
             inkscape:connector-curvature="0"
             style="stroke:none"
             d="M 3.875,-2.625 C 3.90625,-2.71875 3.90625,-2.734375 3.90625,-2.78125 3.90625,-2.921875 3.796875,-3 3.671875,-3 3.59375,-3 3.46875,-2.96875 3.390625,-2.84375 3.359375,-2.796875 3.3125,-2.578125 3.28125,-2.4375 L 3.125,-1.859375 c -0.03125,0.171875 -0.25,1.046875 -0.28125,1.125 0,0 -0.3125,0.609375 -0.84375,0.609375 -0.484375,0 -0.484375,-0.453125 -0.484375,-0.578125 0,-0.375 0.15625,-0.8125 0.375,-1.359375 C 1.96875,-2.28125 2,-2.359375 2,-2.484375 2,-2.8125 1.71875,-3.078125 1.34375,-3.078125 0.640625,-3.078125 0.328125,-2.125 0.328125,-2 c 0,0.078125 0.09375,0.078125 0.125,0.078125 0.09375,0 0.09375,-0.03125 0.125,-0.109375 C 0.75,-2.609375 1.046875,-2.875 1.328125,-2.875 1.4375,-2.875 1.5,-2.796875 1.5,-2.640625 c 0,0.171875 -0.0625,0.3125 -0.09375,0.40625 C 1.0625,-1.375 1,-1.125 1,-0.8125 1,-0.703125 1,-0.375 1.265625,-0.140625 1.484375,0.03125 1.78125,0.0625 1.96875,0.0625 2.25,0.0625 2.5,-0.03125 2.71875,-0.25 2.640625,0.140625 2.5625,0.4375 2.265625,0.78125 2.078125,1 1.796875,1.21875 1.421875,1.21875 c -0.046875,0 -0.375,0 -0.515625,-0.21875 0.375,-0.046875 0.375,-0.375 0.375,-0.390625 0,-0.21875 -0.203125,-0.265625 -0.265625,-0.265625 -0.171875,0 -0.40625,0.140625 -0.40625,0.46875 0,0.34375 0.328125,0.609375 0.828125,0.609375 C 2.140625,1.421875 3,0.875 3.21875,0 z"
             id="path4478" />
        </g>
      </g>
    </g>
  </g>
  <path
     sodipodi:open="true"
     sodipodi:end="4.6356409"
     sodipodi:start="4.1887902"
     transform="translate(-123.48263,-77.724091)"
     d="m 127.79599,94.745562 a 61.704994,61.704994 0 0 1 26.1214,-8.085261"
     sodipodi:ry="61.704994"
     sodipodi:rx="61.704994"
     sodipodi:cy="148.18365"
     sodipodi:cx="158.64848"
     id="path17319"
     style="fill:none;stroke:#000000;stroke-width:1;stroke-miterlimit:4;stroke-opacity:1;stroke-dasharray:none;marker-start:url(#Arrow1Sstart-90-7);marker-end:none"
     sodipodi:type="arc" />
  <path
     sodipodi:type="arc"
     style="fill:#000000;fill-opacity:1;marker-end:none"
     id="path17325"
     sodipodi:cx="83.901039"
     sodipodi:cy="137.37656"
     sodipodi:rx="2.5424557"
     sodipodi:ry="2.7667899"
     d="m 86.443495,137.37656 a 2.5424557,2.7667899 0 1 1 -5.084912,0 2.5424557,2.7667899 0 1 1 5.084912,0 z"
     transform="matrix(0.7253278,-0.30447288,0.2797859,0.66651745,-88.535383,-34.17341)" />
  <g
     style="display:inline"
     id="g17327"
     transform="matrix(0.24977489,0,0,0.25000687,-49.751953,-40.158547)"
     inkscape:export-filename="D:\Jason's Documents\TU Delft\MSNDC 2009\presentation\bicycle_autolev.png"
     inkscape:export-xdpi="136.41562"
     inkscape:export-ydpi="136.41562">
    <path
       id="path17329"
       d="m 346.64069,514.88599 c -0.28674,0 -0.57071,0.02 -0.84919,0.0531 l 0,8.3639 8.39202,0 c 0.005,-0.124 0.025,-0.24633 0.025,-0.37173 0,-4.44091 -3.39043,-8.04526 -7.56781,-8.04526 z"
       style="fill:#000000;fill-opacity:1;stroke:#000000;stroke-width:1.58300543;stroke-linecap:round;stroke-linejoin:miter;stroke-miterlimit:4;stroke-opacity:1;stroke-dasharray:none;stroke-dashoffset:0"
       inkscape:connector-curvature="0" />
    <path
       id="path17331"
       d="m 343.35931,533.30298 c 0.28674,0 0.57071,-0.02 0.84919,-0.0531 l 0,-8.3639 -8.39202,0 c -0.005,0.124 -0.025,0.24633 -0.025,0.37173 0,4.44091 3.39043,8.04526 7.56781,8.04526 z"
       style="fill:#000000;fill-opacity:1;stroke:#000000;stroke-width:1.58300543;stroke-linecap:round;stroke-linejoin:miter;stroke-miterlimit:4;stroke-opacity:1;stroke-dasharray:none;stroke-dashoffset:0"
       inkscape:connector-curvature="0" />
    <path
       transform="matrix(1.1746797,0,0,1.1952882,-53.035866,-92.164416)"
       d="m 346.85487,515.57349 c 0,4.34676 -3.58556,7.87051 -8.00859,7.87051 -4.42302,0 -8.00859,-3.52375 -8.00859,-7.87051 0,-4.34677 3.58557,-7.87052 8.00859,-7.87052 4.42303,0 8.00859,3.52375 8.00859,7.87052 z"
       sodipodi:ry="7.8705125"
       sodipodi:rx="8.0085917"
       sodipodi:cy="515.57349"
       sodipodi:cx="338.84628"
       id="path17333"
       style="fill:none;stroke:#000000;stroke-width:1;stroke-linecap:round;stroke-linejoin:miter;stroke-miterlimit:4;stroke-opacity:1;stroke-dasharray:none;stroke-dashoffset:0"
       sodipodi:type="arc" />
  </g>
  <g
     style="display:inline"
     id="g17335"
     transform="matrix(0.23030666,-0.09667647,0.09676626,0.23052055,-109.14681,-39.629485)"
     inkscape:export-filename="D:\Jason's Documents\TU Delft\MSNDC 2009\presentation\bicycle_autolev.png"
     inkscape:export-xdpi="136.41562"
     inkscape:export-ydpi="136.41562">
    <path
       id="path17337"
       d="m 346.64069,514.88599 c -0.28674,0 -0.57071,0.02 -0.84919,0.0531 l 0,8.3639 8.39202,0 c 0.005,-0.124 0.025,-0.24633 0.025,-0.37173 0,-4.44091 -3.39043,-8.04526 -7.56781,-8.04526 z"
       style="fill:#000000;fill-opacity:1;stroke:#000000;stroke-width:1.58300543;stroke-linecap:round;stroke-linejoin:miter;stroke-miterlimit:4;stroke-opacity:1;stroke-dasharray:none;stroke-dashoffset:0"
       inkscape:connector-curvature="0" />
    <path
       id="path17339"
       d="m 343.35931,533.30298 c 0.28674,0 0.57071,-0.02 0.84919,-0.0531 l 0,-8.3639 -8.39202,0 c -0.005,0.124 -0.025,0.24633 -0.025,0.37173 0,4.44091 3.39043,8.04526 7.56781,8.04526 z"
       style="fill:#000000;fill-opacity:1;stroke:#000000;stroke-width:1.58300543;stroke-linecap:round;stroke-linejoin:miter;stroke-miterlimit:4;stroke-opacity:1;stroke-dasharray:none;stroke-dashoffset:0"
       inkscape:connector-curvature="0" />
    <path
       transform="matrix(1.1746797,0,0,1.1952882,-53.035866,-92.164416)"
       d="m 346.85487,515.57349 c 0,4.34676 -3.58556,7.87051 -8.00859,7.87051 -4.42302,0 -8.00859,-3.52375 -8.00859,-7.87051 0,-4.34677 3.58557,-7.87052 8.00859,-7.87052 4.42303,0 8.00859,3.52375 8.00859,7.87052 z"
       sodipodi:ry="7.8705125"
       sodipodi:rx="8.0085917"
       sodipodi:cy="515.57349"
       sodipodi:cx="338.84628"
       id="path17341"
       style="fill:none;stroke:#000000;stroke-width:1;stroke-linecap:round;stroke-linejoin:miter;stroke-miterlimit:4;stroke-opacity:1;stroke-dasharray:none;stroke-dashoffset:0"
       sodipodi:type="arc" />
  </g>
  <path
     sodipodi:type="arc"
     style="fill:#000000;fill-opacity:1;marker-end:none"
     id="path17343"
     sodipodi:cx="83.901039"
     sodipodi:cy="137.37656"
     sodipodi:rx="2.5424557"
     sodipodi:ry="2.7667899"
     d="m 86.443495,137.37656 a 2.5424557,2.7667899 0 1 1 -5.084912,0 2.5424557,2.7667899 0 1 1 5.084912,0 z"
     transform="matrix(0.78664105,0,0,0.72285937,-30.834153,-28.75989)" />
  <path
     sodipodi:type="arc"
     style="fill:none;stroke:#000000;stroke-width:1.5;stroke-miterlimit:4;stroke-opacity:1;stroke-dasharray:none;marker-start:url(#Arrow1Sstart-90-7);marker-end:url(#Arrow1Send-68-39-8)"
     id="path12271"
     sodipodi:cx="204.53098"
     sodipodi:cy="130.69911"
     sodipodi:rx="13.619469"
     sodipodi:ry="13.619469"
     d="m 211.49577,118.9952 a 13.619469,13.619469 0 0 1 -0.57727,23.7326"
     transform="translate(-167.55637,-58.423698)"
     sodipodi:start="5.2491853"
     sodipodi:end="7.3658237"
     sodipodi:open="true" />
  <g
     transform="matrix(0.9375,0,0,0.9375,53.09588,68.979726)"
     ns0:text="$T_K$"
     ns0:preamble=""
     ns0:page_width="10cm"
     style="stroke-width:0.0000001"
     id="g12273">
    <defs
       id="defs12275">
      <g
         id="g12277">
        <symbol
           style="overflow:visible"
           overflow="visible"
           id="symbol12279">
          <path
             inkscape:connector-curvature="0"
             style="stroke:none"
             d=""
             id="path12281" />
        </symbol>
        <symbol
           style="overflow:visible"
           overflow="visible"
           id="symbol12283">
          <path
             inkscape:connector-curvature="0"
             style="stroke:none"
             d="m 4.25,-6.046875 c 0.078125,-0.28125 0.109375,-0.34375 0.234375,-0.375 0.09375,-0.015625 0.421875,-0.015625 0.625,-0.015625 1.015625,0 1.453125,0.03125 1.453125,0.8125 0,0.15625 -0.03125,0.546875 -0.078125,0.796875 0,0.046875 -0.03125,0.15625 -0.03125,0.1875 0,0.0625 0.03125,0.140625 0.125,0.140625 0.109375,0 0.125,-0.078125 0.15625,-0.234375 L 7,-6.46875 C 7.015625,-6.515625 7.015625,-6.609375 7.015625,-6.640625 7.015625,-6.75 6.921875,-6.75 6.75,-6.75 l -5.53125,0 c -0.234375,0 -0.25,0.015625 -0.328125,0.203125 l -0.59375,1.75 c 0,0.015625 -0.0625,0.15625 -0.0625,0.1875 0,0.046875 0.0625,0.109375 0.125,0.109375 0.09375,0 0.109375,-0.0625 0.171875,-0.21875 C 1.0625,-6.265625 1.328125,-6.4375 2.796875,-6.4375 l 0.390625,0 c 0.28125,0 0.28125,0.03125 0.28125,0.125 0,0.046875 -0.03125,0.171875 -0.046875,0.203125 L 2.09375,-0.78125 C 2,-0.421875 1.96875,-0.3125 0.90625,-0.3125 c -0.359375,0 -0.421875,0 -0.421875,0.1875 C 0.484375,0 0.59375,0 0.65625,0 c 0.265625,0 0.546875,-0.015625 0.8125,-0.015625 0.28125,0 0.578125,-0.015625 0.859375,-0.015625 0.28125,0 0.546875,0.015625 0.828125,0.015625 C 3.4375,-0.015625 3.734375,0 4.015625,0 c 0.09375,0 0.21875,0 0.21875,-0.203125 0,-0.109375 -0.078125,-0.109375 -0.34375,-0.109375 -0.234375,0 -0.375,0 -0.625,-0.015625 -0.296875,-0.03125 -0.375,-0.0625 -0.375,-0.21875 0,-0.015625 0,-0.0625 0.046875,-0.203125 z"
             id="path12285" />
        </symbol>
        <symbol
           style="overflow:visible"
           overflow="visible"
           id="symbol12287">
          <path
             inkscape:connector-curvature="0"
             style="stroke:none"
             d=""
             id="path12289" />
        </symbol>
        <symbol
           style="overflow:visible"
           overflow="visible"
           id="symbol12291">
          <path
             inkscape:connector-curvature="0"
             style="stroke:none"
             d="M 3.984375,-2.796875 C 3.953125,-2.859375 3.9375,-2.875 3.9375,-2.890625 c 0,-0.015625 0.015625,-0.015625 0.171875,-0.125 l 0.703125,-0.5 c 0.921875,-0.640625 1.359375,-0.953125 1.84375,-1 0.078125,0 0.171875,0 0.171875,-0.140625 0,-0.0625 -0.046875,-0.09375 -0.09375,-0.09375 -0.15625,0 -0.328125,0.015625 -0.484375,0.015625 -0.1875,0 -0.65625,-0.03125 -0.84375,-0.03125 -0.046875,0 -0.140625,0 -0.140625,0.15625 0,0.015625 0,0.09375 0.09375,0.09375 0.09375,0.015625 0.1875,0.03125 0.1875,0.109375 0,0.125 -0.21875,0.28125 -0.3125,0.34375 L 2.328125,-2.015625 2.875,-4.21875 c 0.0625,-0.234375 0.078125,-0.296875 0.609375,-0.296875 0.125,0 0.21875,0 0.21875,-0.140625 0,-0.0625 -0.046875,-0.109375 -0.109375,-0.109375 -0.203125,0 -0.71875,0.03125 -0.921875,0.03125 -0.109375,0 -0.359375,0 -0.484375,0 C 2.0625,-4.75 1.890625,-4.765625 1.75,-4.765625 c -0.03125,0 -0.140625,0 -0.140625,0.15625 0,0.09375 0.078125,0.09375 0.234375,0.09375 0.109375,0 0.140625,0 0.265625,0.015625 0.140625,0.015625 0.15625,0.03125 0.15625,0.109375 0,0 0,0.046875 -0.03125,0.140625 l -0.9375,3.703125 C 1.25,-0.3125 1.234375,-0.25 0.6875,-0.25 c -0.125,0 -0.203125,0 -0.203125,0.15625 0,0 0,0.09375 0.109375,0.09375 0.203125,0 0.703125,-0.03125 0.90625,-0.03125 0.109375,0 0.359375,0 0.484375,0.015625 C 2.125,-0.015625 2.296875,0 2.421875,0 2.46875,0 2.578125,0 2.578125,-0.15625 2.578125,-0.25 2.484375,-0.25 2.34375,-0.25 c 0,0 -0.140625,0 -0.265625,-0.015625 C 1.921875,-0.28125 1.921875,-0.296875 1.921875,-0.375 1.921875,-0.421875 2,-0.6875 2.25,-1.703125 l 1.15625,-0.8125 1.015625,1.953125 c 0.046875,0.09375 0.046875,0.09375 0.046875,0.125 0,0.171875 -0.203125,0.1875 -0.328125,0.1875 -0.078125,0 -0.171875,0 -0.171875,0.15625 0,0 0,0.09375 0.109375,0.09375 C 4.28125,0 4.78125,-0.03125 4.96875,-0.03125 5.1875,-0.03125 5.46875,0 5.65625,0 5.75,0 5.796875,-0.046875 5.796875,-0.140625 5.796875,-0.25 5.703125,-0.25 5.640625,-0.25 c -0.125,0 -0.34375,-0.015625 -0.46875,-0.234375 z"
             id="path12293" />
        </symbol>
      </g>
    </defs>
    <g
       id="g12295">
      <g
         style="fill:#000000;fill-opacity:1"
         id="g12297">
        <g
           id="use12299"
           transform="translate(0,9.9630003)">
          <path
             inkscape:connector-curvature="0"
             style="stroke:none"
             d="m 4.25,-6.046875 c 0.078125,-0.28125 0.109375,-0.34375 0.234375,-0.375 0.09375,-0.015625 0.421875,-0.015625 0.625,-0.015625 1.015625,0 1.453125,0.03125 1.453125,0.8125 0,0.15625 -0.03125,0.546875 -0.078125,0.796875 0,0.046875 -0.03125,0.15625 -0.03125,0.1875 0,0.0625 0.03125,0.140625 0.125,0.140625 0.109375,0 0.125,-0.078125 0.15625,-0.234375 L 7,-6.46875 C 7.015625,-6.515625 7.015625,-6.609375 7.015625,-6.640625 7.015625,-6.75 6.921875,-6.75 6.75,-6.75 l -5.53125,0 c -0.234375,0 -0.25,0.015625 -0.328125,0.203125 l -0.59375,1.75 c 0,0.015625 -0.0625,0.15625 -0.0625,0.1875 0,0.046875 0.0625,0.109375 0.125,0.109375 0.09375,0 0.109375,-0.0625 0.171875,-0.21875 C 1.0625,-6.265625 1.328125,-6.4375 2.796875,-6.4375 l 0.390625,0 c 0.28125,0 0.28125,0.03125 0.28125,0.125 0,0.046875 -0.03125,0.171875 -0.046875,0.203125 L 2.09375,-0.78125 C 2,-0.421875 1.96875,-0.3125 0.90625,-0.3125 c -0.359375,0 -0.421875,0 -0.421875,0.1875 C 0.484375,0 0.59375,0 0.65625,0 c 0.265625,0 0.546875,-0.015625 0.8125,-0.015625 0.28125,0 0.578125,-0.015625 0.859375,-0.015625 0.28125,0 0.546875,0.015625 0.828125,0.015625 C 3.4375,-0.015625 3.734375,0 4.015625,0 c 0.09375,0 0.21875,0 0.21875,-0.203125 0,-0.109375 -0.078125,-0.109375 -0.34375,-0.109375 -0.234375,0 -0.375,0 -0.625,-0.015625 -0.296875,-0.03125 -0.375,-0.0625 -0.375,-0.21875 0,-0.015625 0,-0.0625 0.046875,-0.203125 z"
             id="path4192" />
        </g>
      </g>
      <g
         style="fill:#000000;fill-opacity:1"
         id="g12301">
        <g
           id="use12303"
           transform="translate(5.822,11.457)">
          <path
             inkscape:connector-curvature="0"
             style="stroke:none"
             d="M 3.984375,-2.796875 C 3.953125,-2.859375 3.9375,-2.875 3.9375,-2.890625 c 0,-0.015625 0.015625,-0.015625 0.171875,-0.125 l 0.703125,-0.5 c 0.921875,-0.640625 1.359375,-0.953125 1.84375,-1 0.078125,0 0.171875,0 0.171875,-0.140625 0,-0.0625 -0.046875,-0.09375 -0.09375,-0.09375 -0.15625,0 -0.328125,0.015625 -0.484375,0.015625 -0.1875,0 -0.65625,-0.03125 -0.84375,-0.03125 -0.046875,0 -0.140625,0 -0.140625,0.15625 0,0.015625 0,0.09375 0.09375,0.09375 0.09375,0.015625 0.1875,0.03125 0.1875,0.109375 0,0.125 -0.21875,0.28125 -0.3125,0.34375 L 2.328125,-2.015625 2.875,-4.21875 c 0.0625,-0.234375 0.078125,-0.296875 0.609375,-0.296875 0.125,0 0.21875,0 0.21875,-0.140625 0,-0.0625 -0.046875,-0.109375 -0.109375,-0.109375 -0.203125,0 -0.71875,0.03125 -0.921875,0.03125 -0.109375,0 -0.359375,0 -0.484375,0 C 2.0625,-4.75 1.890625,-4.765625 1.75,-4.765625 c -0.03125,0 -0.140625,0 -0.140625,0.15625 0,0.09375 0.078125,0.09375 0.234375,0.09375 0.109375,0 0.140625,0 0.265625,0.015625 0.140625,0.015625 0.15625,0.03125 0.15625,0.109375 0,0 0,0.046875 -0.03125,0.140625 l -0.9375,3.703125 C 1.25,-0.3125 1.234375,-0.25 0.6875,-0.25 c -0.125,0 -0.203125,0 -0.203125,0.15625 0,0 0,0.09375 0.109375,0.09375 0.203125,0 0.703125,-0.03125 0.90625,-0.03125 0.109375,0 0.359375,0 0.484375,0.015625 C 2.125,-0.015625 2.296875,0 2.421875,0 2.46875,0 2.578125,0 2.578125,-0.15625 2.578125,-0.25 2.484375,-0.25 2.34375,-0.25 c 0,0 -0.140625,0 -0.265625,-0.015625 C 1.921875,-0.28125 1.921875,-0.296875 1.921875,-0.375 1.921875,-0.421875 2,-0.6875 2.25,-1.703125 l 1.15625,-0.8125 1.015625,1.953125 c 0.046875,0.09375 0.046875,0.09375 0.046875,0.125 0,0.171875 -0.203125,0.1875 -0.328125,0.1875 -0.078125,0 -0.171875,0 -0.171875,0.15625 0,0 0,0.09375 0.109375,0.09375 C 4.28125,0 4.78125,-0.03125 4.96875,-0.03125 5.1875,-0.03125 5.46875,0 5.65625,0 5.75,0 5.796875,-0.046875 5.796875,-0.140625 5.796875,-0.25 5.703125,-0.25 5.640625,-0.25 c -0.125,0 -0.34375,-0.015625 -0.46875,-0.234375 z"
             id="path4200" />
        </g>
      </g>
    </g>
  </g>
</svg>
