<?xml version="1.0" encoding="UTF-8" standalone="no"?>
<!-- Created with Inkscape (http://www.inkscape.org/) -->

<svg
   xmlns:ns0="http://www.iki.fi/pav/software/textext/"
   xmlns:dc="http://purl.org/dc/elements/1.1/"
   xmlns:cc="http://creativecommons.org/ns#"
   xmlns:rdf="http://www.w3.org/1999/02/22-rdf-syntax-ns#"
   xmlns:svg="http://www.w3.org/2000/svg"
   xmlns="http://www.w3.org/2000/svg"
   xmlns:xlink="http://www.w3.org/1999/xlink"
   xmlns:sodipodi="http://sodipodi.sourceforge.net/DTD/sodipodi-0.dtd"
   xmlns:inkscape="http://www.inkscape.org/namespaces/inkscape"
   id="svg7438"
   version="1.1"
   inkscape:version="0.48.4 r9939"
   width="97.68293"
   height="124.27847"
   sodipodi:docname="torso_torque.svg"
   inkscape:export-filename="/home/moorepants/Conferences/PYCON2014/pydy-tutorial-pycon-2014/notebooks/figures/torso_torque.png"
   inkscape:export-xdpi="200"
   inkscape:export-ydpi="200">
  <sodipodi:namedview
     pagecolor="#ffffff"
     bordercolor="#666666"
     borderopacity="1"
     objecttolerance="10"
     gridtolerance="10"
     guidetolerance="10"
     inkscape:pageopacity="0"
     inkscape:pageshadow="2"
     inkscape:window-width="1366"
     inkscape:window-height="744"
     id="namedview7440"
     showgrid="false"
     inkscape:zoom="4.7071708"
     inkscape:cx="48.841465"
     inkscape:cy="62.139236"
     inkscape:window-x="0"
     inkscape:window-y="24"
     inkscape:window-maximized="1"
     inkscape:current-layer="svg7438"
     units="in"
     showguides="true"
     inkscape:guide-bbox="true"
     fit-margin-top="0"
     fit-margin-left="0"
     fit-margin-right="0"
     fit-margin-bottom="0" />
  <metadata
     id="metadata7444">
    <rdf:RDF>
      <cc:Work
         rdf:about="">
        <dc:format>image/svg+xml</dc:format>
        <dc:type
           rdf:resource="http://purl.org/dc/dcmitype/StillImage" />
        <dc:title></dc:title>
      </cc:Work>
    </rdf:RDF>
  </metadata>
  <defs
     id="defs7442">
    <marker
       style="overflow:visible"
       id="Arrow1Send"
       refX="0"
       refY="0"
       orient="auto"
       inkscape:stockid="Arrow1Send">
      <path
         transform="matrix(-0.2,0,0,-0.2,-1.2,0)"
         style="fill-rule:evenodd;stroke:#000000;stroke-width:1pt"
         d="M 0,0 5,-5 -12.5,0 5,5 0,0 z"
         id="path3812"
         inkscape:connector-curvature="0" />
    </marker>
    <marker
       style="overflow:visible"
       id="Arrow1Sstart"
       refX="0"
       refY="0"
       orient="auto"
       inkscape:stockid="Arrow1Sstart">
      <path
         transform="matrix(0.2,0,0,0.2,1.2,0)"
         style="fill-rule:evenodd;stroke:#000000;stroke-width:1pt"
         d="M 0,0 5,-5 -12.5,0 5,5 0,0 z"
         id="path3809"
         inkscape:connector-curvature="0" />
    </marker>
    <marker
       style="overflow:visible"
       id="Arrow1Sstart-9"
       refX="0"
       refY="0"
       orient="auto"
       inkscape:stockid="Arrow1Sstart">
      <path
         transform="matrix(0.2,0,0,0.2,1.2,0)"
         style="fill-rule:evenodd;stroke:#000000;stroke-width:1pt"
         d="M 0,0 5,-5 -12.5,0 5,5 0,0 z"
         id="path3809-1"
         inkscape:connector-curvature="0" />
    </marker>
    <marker
       style="overflow:visible"
       id="Arrow1Send-6"
       refX="0"
       refY="0"
       orient="auto"
       inkscape:stockid="Arrow1Send">
      <path
         transform="matrix(-0.2,0,0,-0.2,-1.2,0)"
         style="fill-rule:evenodd;stroke:#000000;stroke-width:1pt"
         d="M 0,0 5,-5 -12.5,0 5,5 0,0 z"
         id="path3812-2"
         inkscape:connector-curvature="0" />
    </marker>
    <marker
       style="overflow:visible"
       id="Arrow1Sstart-2"
       refX="0"
       refY="0"
       orient="auto"
       inkscape:stockid="Arrow1Sstart">
      <path
         transform="matrix(0.2,0,0,0.2,1.2,0)"
         style="fill-rule:evenodd;stroke:#000000;stroke-width:1pt"
         d="M 0,0 5,-5 -12.5,0 5,5 0,0 z"
         id="path3809-3"
         inkscape:connector-curvature="0" />
    </marker>
    <marker
       style="overflow:visible"
       id="Arrow1Send-4"
       refX="0"
       refY="0"
       orient="auto"
       inkscape:stockid="Arrow1Send">
      <path
         transform="matrix(-0.2,0,0,-0.2,-1.2,0)"
         style="fill-rule:evenodd;stroke:#000000;stroke-width:1pt"
         d="M 0,0 5,-5 -12.5,0 5,5 0,0 z"
         id="path3812-7"
         inkscape:connector-curvature="0" />
    </marker>
    <marker
       style="overflow:visible"
       id="Arrow1Sstart-6"
       refX="0"
       refY="0"
       orient="auto"
       inkscape:stockid="Arrow1Sstart">
      <path
         transform="matrix(0.2,0,0,0.2,1.2,0)"
         style="fill-rule:evenodd;stroke:#000000;stroke-width:1pt"
         d="M 0,0 5,-5 -12.5,0 5,5 0,0 z"
         id="path3809-6"
         inkscape:connector-curvature="0" />
    </marker>
    <marker
       style="overflow:visible"
       id="Arrow1Send-3"
       refX="0"
       refY="0"
       orient="auto"
       inkscape:stockid="Arrow1Send">
      <path
         transform="matrix(-0.2,0,0,-0.2,-1.2,0)"
         style="fill-rule:evenodd;stroke:#000000;stroke-width:1pt"
         d="M 0,0 5,-5 -12.5,0 5,5 0,0 z"
         id="path3812-29"
         inkscape:connector-curvature="0" />
    </marker>
    <marker
       style="overflow:visible"
       id="Arrow1Sstart-90"
       refX="0"
       refY="0"
       orient="auto"
       inkscape:stockid="Arrow1Sstart">
      <path
         inkscape:connector-curvature="0"
         transform="matrix(0.2,0,0,0.2,1.2,0)"
         style="fill-rule:evenodd;stroke:#000000;stroke-width:1pt"
         d="M 0,0 5,-5 -12.5,0 5,5 0,0 z"
         id="path3809-16" />
    </marker>
    <marker
       style="overflow:visible"
       id="Arrow1Send-68"
       refX="0"
       refY="0"
       orient="auto"
       inkscape:stockid="Arrow1Send">
      <path
         inkscape:connector-curvature="0"
         transform="matrix(-0.2,0,0,-0.2,-1.2,0)"
         style="fill-rule:evenodd;stroke:#000000;stroke-width:1pt"
         d="M 0,0 5,-5 -12.5,0 5,5 0,0 z"
         id="path3812-3" />
    </marker>
    <marker
       style="overflow:visible"
       id="Arrow1SstartP"
       refX="0"
       refY="0"
       orient="auto"
       inkscape:stockid="Arrow1SstartP">
      <path
         transform="matrix(0.2,0,0,0.2,1.2,0)"
         style="fill:#ff0000;fill-rule:evenodd;stroke:#ff0000;stroke-width:1pt"
         d="M 0,0 5,-5 -12.5,0 5,5 0,0 z"
         id="path24705"
         inkscape:connector-curvature="0" />
    </marker>
    <marker
       style="overflow:visible"
       id="Arrow1Sendk"
       refX="0"
       refY="0"
       orient="auto"
       inkscape:stockid="Arrow1Sendk">
      <path
         transform="matrix(-0.2,0,0,-0.2,-1.2,0)"
         style="fill:#ff0000;fill-rule:evenodd;stroke:#ff0000;stroke-width:1pt"
         d="M 0,0 5,-5 -12.5,0 5,5 0,0 z"
         id="path24708"
         inkscape:connector-curvature="0" />
    </marker>
    <marker
       style="overflow:visible"
       id="Arrow1Sstart3"
       refX="0"
       refY="0"
       orient="auto"
       inkscape:stockid="Arrow1Sstart3">
      <path
         transform="matrix(0.2,0,0,0.2,1.2,0)"
         style="fill:#00ff00;fill-rule:evenodd;stroke:#00ff00;stroke-width:1pt"
         d="M 0,0 5,-5 -12.5,0 5,5 0,0 z"
         id="path25731"
         inkscape:connector-curvature="0" />
    </marker>
    <marker
       style="overflow:visible"
       id="Arrow1Sendh"
       refX="0"
       refY="0"
       orient="auto"
       inkscape:stockid="Arrow1Sendh">
      <path
         transform="matrix(-0.2,0,0,-0.2,-1.2,0)"
         style="fill:#00ff00;fill-rule:evenodd;stroke:#00ff00;stroke-width:1pt"
         d="M 0,0 5,-5 -12.5,0 5,5 0,0 z"
         id="path25734"
         inkscape:connector-curvature="0" />
    </marker>
    <marker
       style="overflow:visible"
       id="Arrow1SstartW"
       refX="0"
       refY="0"
       orient="auto"
       inkscape:stockid="Arrow1SstartW">
      <path
         transform="matrix(0.2,0,0,0.2,1.2,0)"
         style="fill:#0000ff;fill-rule:evenodd;stroke:#0000ff;stroke-width:1pt"
         d="M 0,0 5,-5 -12.5,0 5,5 0,0 z"
         id="path26765"
         inkscape:connector-curvature="0" />
    </marker>
    <marker
       style="overflow:visible"
       id="Arrow1SendB"
       refX="0"
       refY="0"
       orient="auto"
       inkscape:stockid="Arrow1SendB">
      <path
         transform="matrix(-0.2,0,0,-0.2,-1.2,0)"
         style="fill:#0000ff;fill-rule:evenodd;stroke:#0000ff;stroke-width:1pt"
         d="M 0,0 5,-5 -12.5,0 5,5 0,0 z"
         id="path26768"
         inkscape:connector-curvature="0" />
    </marker>
    <marker
       style="overflow:visible"
       id="Arrow1SstartR"
       refX="0"
       refY="0"
       orient="auto"
       inkscape:stockid="Arrow1SstartR">
      <path
         transform="matrix(0.2,0,0,0.2,1.2,0)"
         style="fill:#ff6600;fill-rule:evenodd;stroke:#ff6600;stroke-width:1pt"
         d="M 0,0 5,-5 -12.5,0 5,5 0,0 z"
         id="path27807"
         inkscape:connector-curvature="0" />
    </marker>
    <marker
       style="overflow:visible"
       id="Arrow1SendB5"
       refX="0"
       refY="0"
       orient="auto"
       inkscape:stockid="Arrow1SendB5">
      <path
         transform="matrix(-0.2,0,0,-0.2,-1.2,0)"
         style="fill:#ff6600;fill-rule:evenodd;stroke:#ff6600;stroke-width:1pt"
         d="M 0,0 5,-5 -12.5,0 5,5 0,0 z"
         id="path27810"
         inkscape:connector-curvature="0" />
    </marker>
    <marker
       style="overflow:visible"
       id="Arrow1Sstart-90-3"
       refX="0"
       refY="0"
       orient="auto"
       inkscape:stockid="Arrow1Sstart">
      <path
         inkscape:connector-curvature="0"
         transform="matrix(0.2,0,0,0.2,1.2,0)"
         style="fill-rule:evenodd;stroke:#000000;stroke-width:1pt"
         d="M 0,0 5,-5 -12.5,0 5,5 0,0 z"
         id="path3809-16-1" />
    </marker>
    <marker
       style="overflow:visible"
       id="Arrow1Send-68-3"
       refX="0"
       refY="0"
       orient="auto"
       inkscape:stockid="Arrow1Send">
      <path
         inkscape:connector-curvature="0"
         transform="matrix(-0.2,0,0,-0.2,-1.2,0)"
         style="fill-rule:evenodd;stroke:#000000;stroke-width:1pt"
         d="M 0,0 5,-5 -12.5,0 5,5 0,0 z"
         id="path3812-3-9" />
    </marker>
    <marker
       style="overflow:visible"
       id="Arrow1Sstart-90-7"
       refX="0"
       refY="0"
       orient="auto"
       inkscape:stockid="Arrow1Sstart">
      <path
         inkscape:connector-curvature="0"
         transform="matrix(0.2,0,0,0.2,1.2,0)"
         style="fill-rule:evenodd;stroke:#000000;stroke-width:1pt"
         d="M 0,0 5,-5 -12.5,0 5,5 0,0 z"
         id="path3809-16-2" />
    </marker>
    <marker
       style="overflow:visible"
       id="Arrow1Send-68-39"
       refX="0"
       refY="0"
       orient="auto"
       inkscape:stockid="Arrow1Send">
      <path
         inkscape:connector-curvature="0"
         transform="matrix(-0.2,0,0,-0.2,-1.2,0)"
         style="fill-rule:evenodd;stroke:#000000;stroke-width:1pt"
         d="M 0,0 5,-5 -12.5,0 5,5 0,0 z"
         id="path3812-3-0" />
    </marker>
    <marker
       style="overflow:visible"
       id="Arrow1Send-68-39-8"
       refX="0"
       refY="0"
       orient="auto"
       inkscape:stockid="Arrow1Send">
      <path
         inkscape:connector-curvature="0"
         transform="matrix(-0.2,0,0,-0.2,-1.2,0)"
         style="fill-rule:evenodd;stroke:#000000;stroke-width:1pt"
         d="M 0,0 5,-5 -12.5,0 5,5 0,0 z"
         id="path3812-3-0-9" />
    </marker>
    <marker
       style="overflow:visible"
       id="Arrow1Sstart-90-7-0"
       refX="0"
       refY="0"
       orient="auto"
       inkscape:stockid="Arrow1Sstart">
      <path
         inkscape:connector-curvature="0"
         transform="matrix(0.2,0,0,0.2,1.2,0)"
         style="fill-rule:evenodd;stroke:#000000;stroke-width:1pt"
         d="M 0,0 5,-5 -12.5,0 5,5 0,0 z"
         id="path3809-16-2-9" />
    </marker>
    <marker
       style="overflow:visible"
       id="Arrow1Send-68-39-8-7"
       refX="0"
       refY="0"
       orient="auto"
       inkscape:stockid="Arrow1Send">
      <path
         inkscape:connector-curvature="0"
         transform="matrix(-0.2,0,0,-0.2,-1.2,0)"
         style="fill-rule:evenodd;stroke:#000000;stroke-width:1pt"
         d="M 0,0 5,-5 -12.5,0 5,5 0,0 z"
         id="path3812-3-0-9-6" />
    </marker>
    <marker
       style="overflow:visible"
       id="Arrow1Sstart-90-7-4"
       refX="0"
       refY="0"
       orient="auto"
       inkscape:stockid="Arrow1Sstart">
      <path
         inkscape:connector-curvature="0"
         transform="matrix(0.2,0,0,0.2,1.2,0)"
         style="fill-rule:evenodd;stroke:#000000;stroke-width:1pt"
         d="M 0,0 5,-5 -12.5,0 5,5 0,0 z"
         id="path3809-16-2-2" />
    </marker>
    <marker
       style="overflow:visible"
       id="Arrow1Send-68-39-8-9"
       refX="0"
       refY="0"
       orient="auto"
       inkscape:stockid="Arrow1Send">
      <path
         inkscape:connector-curvature="0"
         transform="matrix(-0.2,0,0,-0.2,-1.2,0)"
         style="fill-rule:evenodd;stroke:#000000;stroke-width:1pt"
         d="M 0,0 5,-5 -12.5,0 5,5 0,0 z"
         id="path3812-3-0-9-9" />
    </marker>
  </defs>
  <path
     transform="matrix(3.1519168,0,0,2.4454528,-355.85026,-296.48863)"
     d="m 133.81214,194.9841 a 22.808887,29.398121 0 1 1 -45.617777,0 22.808887,29.398121 0 1 1 45.617777,0 z"
     sodipodi:ry="29.398121"
     sodipodi:rx="22.808887"
     sodipodi:cy="194.9841"
     sodipodi:cx="111.00325"
     id="path5103-1"
     style="fill:none;stroke:#000000;stroke-width:0;stroke-miterlimit:4;stroke-opacity:1;stroke-dasharray:none;marker-end:url(#Arrow1Send-3)"
     sodipodi:type="arc" />
  <path
     style="fill:#ff0000;fill-opacity:0.39215686;stroke:#000000;stroke-width:1.07672131px;stroke-linecap:butt;stroke-linejoin:miter;stroke-opacity:1"
     d="m 14.397544,33.407693 c 0.79035,2.457821 1.40939,3.43199 1.61487,6.004957 0.40933,5.117098 -4.08755,9.840743 -3.66861,14.956993 0.48367,5.903769 3.75821,11.371063 6.98437,16.339423 3.83035,5.898392 10.00544,9.82017 13.91139,15.66969 1.81258,2.71435 3.02115,5.88776 3.38619,9.1314 0.40051,3.56019 -0.90927,6.010144 -0.93626,9.593264 -0.0244,3.20295 0.42628,6.83727 2.06536,9.58962 1.85855,3.12081 4.78387,5.67715 8.05407,7.25825 1.02507,0.49565 2.84001,0.97643 3.97842,0.96298 3.17091,-0.0362 6.28273,-0.52022 9.22914,-1.69236 3.11644,-1.23939 5.9031,-3.25265 8.10849,-5.77892 1.2356,-1.41639 1.59938,-3.94934 1.48589,-5.82542 -0.30331,-5.01526 -4.35325,-8.13174 -6.66682,-12.592034 -3.14646,-6.06601 -7.09881,-11.86587 -8.95065,-18.44445 -1.1968,-4.251824 0.0635,-8.981434 -1.28258,-13.188565 -0.99904,-3.122539 -2.99659,-5.606462 -3.70831,-8.807347 -0.43501,-1.95738 -0.15131,-3.778575 -0.6886,-5.711591 -0.72508,-2.60971 -2.68394,-4.850797 -4.76867,-6.581817 -3.35781,-2.788082 -8.70685,-2.555859 -11.83369,-5.600169 -2.77606,-2.70287 -6.52958,-6.711924 -5.25145,-10.369597 0.65128,-1.862851 4.81645,-1.065973 5.32807,-2.972627 0.63266,-2.356487 -0.99685,-2.394013 -1.68534,-3.485592 -0.46189,-0.732295 0.46464,-1.510875 0.29349,-2.358619 -0.18125,-0.896417 -2.10743,-2.220395 -1.56386,-2.954998 0.54883,-0.742918 2.17227,-1.101732 2.16664,-2.02531 -0.009,-1.432549 -2.6219,-1.306089 -3.58793,-2.36408 -3.28273,-3.5946689 -2.58622,-7.4513419 -6.63038,-10.1595099 -2.70891,-1.81457899 -5.78884,-1.68149899 -8.5744,-0.965581 -3.5909897,0.921457 -7.2296397,3.205429 -9.0845197,6.415541 -1.75249,3.0329349 -1.99955,7.1159919 -0.96806,10.4629039 1.04151,3.379052 3.94672,6.028668 6.75277,8.178913 1.19621,0.91701 2.6387997,1.29835 3.5897197,2.467479 0.93003,1.143161 2.45017,3.444319 2.90127,4.847164 z"
     id="path17359"
     inkscape:connector-curvature="0"
     sodipodi:nodetypes="ssssssssssssssssssssssssssssssssss" />
  <path
     style="fill:none;stroke:#ff0000;stroke-width:1.5;stroke-linecap:butt;stroke-linejoin:miter;stroke-miterlimit:4;stroke-opacity:1;stroke-dasharray:none;marker-start:url(#Arrow1SstartP);marker-end:url(#Arrow1Sendk)"
     d="m 34.324454,61.501744 3.50614,9.402979 9.403,-3.506139"
     id="path17395"
     inkscape:connector-curvature="0" />
  <g
     transform="matrix(0.9375,0,0,0.9375,43.837094,69.879764)"
     ns0:text="$\\hat{\\mathbf{t}}_x$"
     ns0:preamble=""
     ns0:page_width="10cm"
     style="fill:#000000;stroke-width:0.0000001"
     id="g17759">
    <defs
       id="defs17761">
      <g
         id="g17763">
        <symbol
           overflow="visible"
           id="symbol17765"
           style="overflow:visible">
          <path
             style="stroke:none"
             d=""
             id="path17767"
             inkscape:connector-curvature="0" />
        </symbol>
        <symbol
           overflow="visible"
           id="symbol17769"
           style="overflow:visible">
          <path
             style="stroke:none"
             d="M 2.5,-6.921875 1.15625,-5.5625 1.328125,-5.390625 2.5,-6.40625 3.640625,-5.390625 3.8125,-5.5625 z"
             id="path17772"
             inkscape:connector-curvature="0" />
        </symbol>
        <symbol
           overflow="visible"
           id="symbol17774"
           style="overflow:visible">
          <path
             style="stroke:none"
             d=""
             id="path17776"
             inkscape:connector-curvature="0" />
        </symbol>
        <symbol
           overflow="visible"
           id="symbol17778"
           style="overflow:visible">
          <path
             style="stroke:none"
             d="m 1.03125,-3.953125 0,2.734375 c 0,1.0625 0.859375,1.28125 1.578125,1.28125 0.75,0 1.203125,-0.578125 1.203125,-1.296875 l 0,-0.53125 -0.46875,0 0,0.515625 c 0,0.671875 -0.328125,0.90625 -0.609375,0.90625 -0.578125,0 -0.578125,-0.640625 -0.578125,-0.859375 l 0,-2.75 1.46875,0 0,-0.46875 -1.46875,0 0,-1.90625 -0.46875,0 c 0,1 -0.484375,1.984375 -1.484375,2.015625 l 0,0.359375 z"
             id="path17780"
             inkscape:connector-curvature="0" />
        </symbol>
        <symbol
           overflow="visible"
           id="symbol17782"
           style="overflow:visible">
          <path
             style="stroke:none"
             d=""
             id="path17784"
             inkscape:connector-curvature="0" />
        </symbol>
        <symbol
           overflow="visible"
           id="symbol17786"
           style="overflow:visible">
          <path
             style="stroke:none"
             d="M 1.734375,-0.734375 C 1.671875,-0.5 1.4375,-0.125 1.078125,-0.125 c -0.015625,0 -0.234375,0 -0.375,-0.09375 0.28125,-0.09375 0.3125,-0.34375 0.3125,-0.390625 0,-0.15625 -0.125,-0.25 -0.28125,-0.25 -0.203125,0 -0.40625,0.15625 -0.40625,0.421875 0,0.34375 0.390625,0.5 0.734375,0.5 0.328125,0 0.609375,-0.1875 0.78125,-0.484375 C 2.015625,-0.0625 2.390625,0.0625 2.671875,0.0625 c 0.8125,0 1.234375,-0.859375 1.234375,-1.0625 0,-0.09375 -0.09375,-0.09375 -0.109375,-0.09375 -0.109375,0 -0.109375,0.046875 -0.140625,0.125 -0.140625,0.484375 -0.5625,0.84375 -0.953125,0.84375 -0.28125,0 -0.421875,-0.1875 -0.421875,-0.453125 0,-0.1875 0.171875,-0.8125 0.359375,-1.59375 C 2.78125,-2.703125 3.09375,-2.875 3.328125,-2.875 c 0.015625,0 0.21875,0 0.375,0.09375 -0.21875,0.0625 -0.3125,0.265625 -0.3125,0.390625 0,0.140625 0.125,0.25 0.28125,0.25 0.15625,0 0.390625,-0.125 0.390625,-0.421875 0,-0.390625 -0.453125,-0.515625 -0.71875,-0.515625 -0.359375,0 -0.640625,0.234375 -0.78125,0.5 -0.125,-0.28125 -0.453125,-0.5 -0.84375,-0.5 C 0.9375,-3.078125 0.5,-2.21875 0.5,-2 c 0,0.078125 0.09375,0.078125 0.109375,0.078125 0.09375,0 0.09375,-0.015625 0.140625,-0.109375 C 0.921875,-2.578125 1.359375,-2.875 1.703125,-2.875 1.9375,-2.875 2.125,-2.75 2.125,-2.421875 2.125,-2.28125 2.03125,-1.9375 1.96875,-1.6875 z"
             id="path17788"
             inkscape:connector-curvature="0" />
        </symbol>
      </g>
    </defs>
    <g
       id="g17790"
       style="fill:#000000">
      <g
         style="fill:#000000;fill-opacity:1"
         id="g17792">
        <g
           transform="translate(-0.26300001,7.927)"
           style="fill:#000000"
           id="use17794">
          <path
             style="stroke:none"
             d="M 2.5,-6.921875 1.15625,-5.5625 1.328125,-5.390625 2.5,-6.40625 3.640625,-5.390625 3.8125,-5.5625 z"
             id="path4418"
             inkscape:connector-curvature="0" />
        </g>
      </g>
      <g
         style="fill:#000000;fill-opacity:1"
         id="g17796">
        <g
           transform="translate(0,9.9630003)"
           style="fill:#000000"
           id="use17798">
          <path
             style="stroke:none"
             d="m 1.03125,-3.953125 0,2.734375 c 0,1.0625 0.859375,1.28125 1.578125,1.28125 0.75,0 1.203125,-0.578125 1.203125,-1.296875 l 0,-0.53125 -0.46875,0 0,0.515625 c 0,0.671875 -0.328125,0.90625 -0.609375,0.90625 -0.578125,0 -0.578125,-0.640625 -0.578125,-0.859375 l 0,-2.75 1.46875,0 0,-0.46875 -1.46875,0 0,-1.90625 -0.46875,0 c 0,1 -0.484375,1.984375 -1.484375,2.015625 l 0,0.359375 z"
             id="path4426"
             inkscape:connector-curvature="0" />
        </g>
      </g>
      <g
         style="fill:#000000;fill-opacity:1"
         id="g17800">
        <g
           transform="translate(4.4549999,11.457)"
           style="fill:#000000"
           id="use17802">
          <path
             style="stroke:none"
             d="M 1.734375,-0.734375 C 1.671875,-0.5 1.4375,-0.125 1.078125,-0.125 c -0.015625,0 -0.234375,0 -0.375,-0.09375 0.28125,-0.09375 0.3125,-0.34375 0.3125,-0.390625 0,-0.15625 -0.125,-0.25 -0.28125,-0.25 -0.203125,0 -0.40625,0.15625 -0.40625,0.421875 0,0.34375 0.390625,0.5 0.734375,0.5 0.328125,0 0.609375,-0.1875 0.78125,-0.484375 C 2.015625,-0.0625 2.390625,0.0625 2.671875,0.0625 c 0.8125,0 1.234375,-0.859375 1.234375,-1.0625 0,-0.09375 -0.09375,-0.09375 -0.109375,-0.09375 -0.109375,0 -0.109375,0.046875 -0.140625,0.125 -0.140625,0.484375 -0.5625,0.84375 -0.953125,0.84375 -0.28125,0 -0.421875,-0.1875 -0.421875,-0.453125 0,-0.1875 0.171875,-0.8125 0.359375,-1.59375 C 2.78125,-2.703125 3.09375,-2.875 3.328125,-2.875 c 0.015625,0 0.21875,0 0.375,0.09375 -0.21875,0.0625 -0.3125,0.265625 -0.3125,0.390625 0,0.140625 0.125,0.25 0.28125,0.25 0.15625,0 0.390625,-0.125 0.390625,-0.421875 0,-0.390625 -0.453125,-0.515625 -0.71875,-0.515625 -0.359375,0 -0.640625,0.234375 -0.78125,0.5 -0.125,-0.28125 -0.453125,-0.5 -0.84375,-0.5 C 0.9375,-3.078125 0.5,-2.21875 0.5,-2 c 0,0.078125 0.09375,0.078125 0.109375,0.078125 0.09375,0 0.09375,-0.015625 0.140625,-0.109375 C 0.921875,-2.578125 1.359375,-2.875 1.703125,-2.875 1.9375,-2.875 2.125,-2.75 2.125,-2.421875 2.125,-2.28125 2.03125,-1.9375 1.96875,-1.6875 z"
             id="path4434"
             inkscape:connector-curvature="0" />
        </g>
      </g>
    </g>
  </g>
  <g
     id="g17804"
     style="fill:#000000;stroke-width:0.0000001"
     ns0:page_width="10cm"
     ns0:preamble=""
     ns0:text="$\\hat{\\mathbf{t}}_y$"
     transform="matrix(0.9375,0,0,0.9375,21.916934,54.257383)">
    <defs
       id="defs17806">
      <g
         id="g17808">
        <symbol
           id="symbol17810"
           overflow="visible"
           style="overflow:visible">
          <path
             id="path17812"
             d=""
             style="stroke:none"
             inkscape:connector-curvature="0" />
        </symbol>
        <symbol
           id="symbol17814"
           overflow="visible"
           style="overflow:visible">
          <path
             id="path17816"
             d="M 2.5,-6.921875 1.15625,-5.5625 1.328125,-5.390625 2.5,-6.40625 3.640625,-5.390625 3.8125,-5.5625 z"
             style="stroke:none"
             inkscape:connector-curvature="0" />
        </symbol>
        <symbol
           id="symbol17818"
           overflow="visible"
           style="overflow:visible">
          <path
             id="path17820"
             d=""
             style="stroke:none"
             inkscape:connector-curvature="0" />
        </symbol>
        <symbol
           id="symbol17822"
           overflow="visible"
           style="overflow:visible">
          <path
             id="path17824"
             d="m 1.03125,-3.953125 0,2.734375 c 0,1.0625 0.859375,1.28125 1.578125,1.28125 0.75,0 1.203125,-0.578125 1.203125,-1.296875 l 0,-0.53125 -0.46875,0 0,0.515625 c 0,0.671875 -0.328125,0.90625 -0.609375,0.90625 -0.578125,0 -0.578125,-0.640625 -0.578125,-0.859375 l 0,-2.75 1.46875,0 0,-0.46875 -1.46875,0 0,-1.90625 -0.46875,0 c 0,1 -0.484375,1.984375 -1.484375,2.015625 l 0,0.359375 z"
             style="stroke:none"
             inkscape:connector-curvature="0" />
        </symbol>
        <symbol
           id="symbol17826"
           overflow="visible"
           style="overflow:visible">
          <path
             id="path17828"
             d=""
             style="stroke:none"
             inkscape:connector-curvature="0" />
        </symbol>
        <symbol
           id="symbol17830"
           overflow="visible"
           style="overflow:visible">
          <path
             id="path17832"
             d="M 3.875,-2.625 C 3.90625,-2.71875 3.90625,-2.734375 3.90625,-2.78125 3.90625,-2.921875 3.796875,-3 3.671875,-3 3.59375,-3 3.46875,-2.96875 3.390625,-2.84375 3.359375,-2.796875 3.3125,-2.578125 3.28125,-2.4375 L 3.125,-1.859375 c -0.03125,0.171875 -0.25,1.046875 -0.28125,1.125 0,0 -0.3125,0.609375 -0.84375,0.609375 -0.484375,0 -0.484375,-0.453125 -0.484375,-0.578125 0,-0.375 0.15625,-0.8125 0.375,-1.359375 C 1.96875,-2.28125 2,-2.359375 2,-2.484375 2,-2.8125 1.71875,-3.078125 1.34375,-3.078125 0.640625,-3.078125 0.328125,-2.125 0.328125,-2 c 0,0.078125 0.09375,0.078125 0.125,0.078125 0.09375,0 0.09375,-0.03125 0.125,-0.109375 C 0.75,-2.609375 1.046875,-2.875 1.328125,-2.875 1.4375,-2.875 1.5,-2.796875 1.5,-2.640625 c 0,0.171875 -0.0625,0.3125 -0.09375,0.40625 C 1.0625,-1.375 1,-1.125 1,-0.8125 1,-0.703125 1,-0.375 1.265625,-0.140625 1.484375,0.03125 1.78125,0.0625 1.96875,0.0625 2.25,0.0625 2.5,-0.03125 2.71875,-0.25 2.640625,0.140625 2.5625,0.4375 2.265625,0.78125 2.078125,1 1.796875,1.21875 1.421875,1.21875 c -0.046875,0 -0.375,0 -0.515625,-0.21875 0.375,-0.046875 0.375,-0.375 0.375,-0.390625 0,-0.21875 -0.203125,-0.265625 -0.265625,-0.265625 -0.171875,0 -0.40625,0.140625 -0.40625,0.46875 0,0.34375 0.328125,0.609375 0.828125,0.609375 C 2.140625,1.421875 3,0.875 3.21875,0 z"
             style="stroke:none"
             inkscape:connector-curvature="0" />
        </symbol>
      </g>
    </defs>
    <g
       id="g17834"
       style="fill:#000000">
      <g
         id="g17836"
         style="fill:#000000;fill-opacity:1">
        <g
           transform="translate(-0.26300001,7.927)"
           style="fill:#000000"
           id="use17838">
          <path
             id="path4394"
             d="M 2.5,-6.921875 1.15625,-5.5625 1.328125,-5.390625 2.5,-6.40625 3.640625,-5.390625 3.8125,-5.5625 z"
             style="stroke:none"
             inkscape:connector-curvature="0" />
        </g>
      </g>
      <g
         id="g17840"
         style="fill:#000000;fill-opacity:1">
        <g
           transform="translate(0,9.9630003)"
           style="fill:#000000"
           id="use17842">
          <path
             id="path4402"
             d="m 1.03125,-3.953125 0,2.734375 c 0,1.0625 0.859375,1.28125 1.578125,1.28125 0.75,0 1.203125,-0.578125 1.203125,-1.296875 l 0,-0.53125 -0.46875,0 0,0.515625 c 0,0.671875 -0.328125,0.90625 -0.609375,0.90625 -0.578125,0 -0.578125,-0.640625 -0.578125,-0.859375 l 0,-2.75 1.46875,0 0,-0.46875 -1.46875,0 0,-1.90625 -0.46875,0 c 0,1 -0.484375,1.984375 -1.484375,2.015625 l 0,0.359375 z"
             style="stroke:none"
             inkscape:connector-curvature="0" />
        </g>
      </g>
      <g
         id="g17844"
         style="fill:#000000;fill-opacity:1">
        <g
           transform="translate(4.4549999,11.457)"
           style="fill:#000000"
           id="use17846">
          <path
             id="path4410"
             d="M 3.875,-2.625 C 3.90625,-2.71875 3.90625,-2.734375 3.90625,-2.78125 3.90625,-2.921875 3.796875,-3 3.671875,-3 3.59375,-3 3.46875,-2.96875 3.390625,-2.84375 3.359375,-2.796875 3.3125,-2.578125 3.28125,-2.4375 L 3.125,-1.859375 c -0.03125,0.171875 -0.25,1.046875 -0.28125,1.125 0,0 -0.3125,0.609375 -0.84375,0.609375 -0.484375,0 -0.484375,-0.453125 -0.484375,-0.578125 0,-0.375 0.15625,-0.8125 0.375,-1.359375 C 1.96875,-2.28125 2,-2.359375 2,-2.484375 2,-2.8125 1.71875,-3.078125 1.34375,-3.078125 0.640625,-3.078125 0.328125,-2.125 0.328125,-2 c 0,0.078125 0.09375,0.078125 0.125,0.078125 0.09375,0 0.09375,-0.03125 0.125,-0.109375 C 0.75,-2.609375 1.046875,-2.875 1.328125,-2.875 1.4375,-2.875 1.5,-2.796875 1.5,-2.640625 c 0,0.171875 -0.0625,0.3125 -0.09375,0.40625 C 1.0625,-1.375 1,-1.125 1,-0.8125 1,-0.703125 1,-0.375 1.265625,-0.140625 1.484375,0.03125 1.78125,0.0625 1.96875,0.0625 2.25,0.0625 2.5,-0.03125 2.71875,-0.25 2.640625,0.140625 2.5625,0.4375 2.265625,0.78125 2.078125,1 1.796875,1.21875 1.421875,1.21875 c -0.046875,0 -0.375,0 -0.515625,-0.21875 0.375,-0.046875 0.375,-0.375 0.375,-0.390625 0,-0.21875 -0.203125,-0.265625 -0.265625,-0.265625 -0.171875,0 -0.40625,0.140625 -0.40625,0.46875 0,0.34375 0.328125,0.609375 0.828125,0.609375 C 2.140625,1.421875 3,0.875 3.21875,0 z"
             style="stroke:none"
             inkscape:connector-curvature="0" />
        </g>
      </g>
    </g>
  </g>
  <path
     sodipodi:type="arc"
     style="fill:#000000;fill-opacity:1;marker-end:none"
     id="path17854"
     sodipodi:cx="83.901039"
     sodipodi:cy="137.37656"
     sodipodi:rx="2.5424557"
     sodipodi:ry="2.7667899"
     d="m 86.443495,137.37656 a 2.5424557,2.7667899 0 1 1 -5.084912,0 2.5424557,2.7667899 0 1 1 5.084912,0 z"
     transform="matrix(0.78664105,0,0,0.72285937,-13.948766,7.8530351)" />
  <g
     style="display:inline"
     id="g17874"
     transform="matrix(0.24977489,0,0,0.25000687,-48.176236,-60.165016)"
     inkscape:export-filename="D:\Jason's Documents\TU Delft\MSNDC 2009\presentation\bicycle_autolev.png"
     inkscape:export-xdpi="136.41562"
     inkscape:export-ydpi="136.41562">
    <path
       id="path17876"
       d="m 346.64069,514.88599 c -0.28674,0 -0.57071,0.02 -0.84919,0.0531 l 0,8.3639 8.39202,0 c 0.005,-0.124 0.025,-0.24633 0.025,-0.37173 0,-4.44091 -3.39043,-8.04526 -7.56781,-8.04526 z"
       style="fill:#000000;fill-opacity:1;stroke:#000000;stroke-width:1.58300543;stroke-linecap:round;stroke-linejoin:miter;stroke-miterlimit:4;stroke-opacity:1;stroke-dasharray:none;stroke-dashoffset:0"
       inkscape:connector-curvature="0" />
    <path
       id="path17878"
       d="m 343.35931,533.30298 c 0.28674,0 0.57071,-0.02 0.84919,-0.0531 l 0,-8.3639 -8.39202,0 c -0.005,0.124 -0.025,0.24633 -0.025,0.37173 0,4.44091 3.39043,8.04526 7.56781,8.04526 z"
       style="fill:#000000;fill-opacity:1;stroke:#000000;stroke-width:1.58300543;stroke-linecap:round;stroke-linejoin:miter;stroke-miterlimit:4;stroke-opacity:1;stroke-dasharray:none;stroke-dashoffset:0"
       inkscape:connector-curvature="0" />
    <path
       transform="matrix(1.1746797,0,0,1.1952882,-53.035866,-92.164416)"
       d="m 346.85487,515.57349 c 0,4.34676 -3.58556,7.87051 -8.00859,7.87051 -4.42302,0 -8.00859,-3.52375 -8.00859,-7.87051 0,-4.34677 3.58557,-7.87052 8.00859,-7.87052 4.42303,0 8.00859,3.52375 8.00859,7.87052 z"
       sodipodi:ry="7.8705125"
       sodipodi:rx="8.0085917"
       sodipodi:cy="515.57349"
       sodipodi:cx="338.84628"
       id="path17880"
       style="fill:none;stroke:#000000;stroke-width:1;stroke-linecap:round;stroke-linejoin:miter;stroke-miterlimit:4;stroke-opacity:1;stroke-dasharray:none;stroke-dashoffset:0"
       sodipodi:type="arc" />
  </g>
  <path
     sodipodi:open="true"
     sodipodi:end="7.3658237"
     sodipodi:start="4.5459249"
     transform="translate(-136.35999,-19.096531)"
     d="m 202.27428,117.26791 a 13.619469,13.619469 0 0 1 8.64422,25.45989"
     sodipodi:ry="13.619469"
     sodipodi:rx="13.619469"
     sodipodi:cy="130.69911"
     sodipodi:cx="204.53098"
     id="path12237"
     style="fill:none;stroke:#000000;stroke-width:1.5;stroke-miterlimit:4;stroke-opacity:1;stroke-dasharray:none;marker-start:url(#Arrow1Sstart-90-7);marker-end:none"
     sodipodi:type="arc" />
  <g
     transform="matrix(0.9375,0,0,0.9375,82.835324,95.331066)"
     ns0:text="$T_H$"
     ns0:preamble=""
     ns0:page_width="10cm"
     style="stroke-width:0.0000001"
     id="g12239">
    <defs
       id="defs12241">
      <g
         id="g12243">
        <symbol
           overflow="visible"
           id="symbol12245"
           style="overflow:visible">
          <path
             style="stroke:none"
             d=""
             id="path12247"
             inkscape:connector-curvature="0" />
        </symbol>
        <symbol
           overflow="visible"
           id="symbol12249"
           style="overflow:visible">
          <path
             style="stroke:none"
             d="m 4.25,-6.046875 c 0.078125,-0.28125 0.109375,-0.34375 0.234375,-0.375 0.09375,-0.015625 0.421875,-0.015625 0.625,-0.015625 1.015625,0 1.453125,0.03125 1.453125,0.8125 0,0.15625 -0.03125,0.546875 -0.078125,0.796875 0,0.046875 -0.03125,0.15625 -0.03125,0.1875 0,0.0625 0.03125,0.140625 0.125,0.140625 0.109375,0 0.125,-0.078125 0.15625,-0.234375 L 7,-6.46875 C 7.015625,-6.515625 7.015625,-6.609375 7.015625,-6.640625 7.015625,-6.75 6.921875,-6.75 6.75,-6.75 l -5.53125,0 c -0.234375,0 -0.25,0.015625 -0.328125,0.203125 l -0.59375,1.75 c 0,0.015625 -0.0625,0.15625 -0.0625,0.1875 0,0.046875 0.0625,0.109375 0.125,0.109375 0.09375,0 0.109375,-0.0625 0.171875,-0.21875 C 1.0625,-6.265625 1.328125,-6.4375 2.796875,-6.4375 l 0.390625,0 c 0.28125,0 0.28125,0.03125 0.28125,0.125 0,0.046875 -0.03125,0.171875 -0.046875,0.203125 L 2.09375,-0.78125 C 2,-0.421875 1.96875,-0.3125 0.90625,-0.3125 c -0.359375,0 -0.421875,0 -0.421875,0.1875 C 0.484375,0 0.59375,0 0.65625,0 c 0.265625,0 0.546875,-0.015625 0.8125,-0.015625 0.28125,0 0.578125,-0.015625 0.859375,-0.015625 0.28125,0 0.546875,0.015625 0.828125,0.015625 C 3.4375,-0.015625 3.734375,0 4.015625,0 c 0.09375,0 0.21875,0 0.21875,-0.203125 0,-0.109375 -0.078125,-0.109375 -0.34375,-0.109375 -0.234375,0 -0.375,0 -0.625,-0.015625 -0.296875,-0.03125 -0.375,-0.0625 -0.375,-0.21875 0,-0.015625 0,-0.0625 0.046875,-0.203125 z"
             id="path12251"
             inkscape:connector-curvature="0" />
        </symbol>
        <symbol
           overflow="visible"
           id="symbol12253"
           style="overflow:visible">
          <path
             style="stroke:none"
             d=""
             id="path12255"
             inkscape:connector-curvature="0" />
        </symbol>
        <symbol
           overflow="visible"
           id="symbol12257"
           style="overflow:visible">
          <path
             style="stroke:none"
             d="m 5.859375,-4.1875 c 0.0625,-0.265625 0.078125,-0.328125 0.59375,-0.328125 0.15625,0 0.234375,0 0.234375,-0.140625 0,-0.03125 -0.015625,-0.109375 -0.109375,-0.109375 -0.203125,0 -0.703125,0.03125 -0.90625,0.03125 -0.125,0 -0.375,0 -0.484375,0 C 5.046875,-4.75 4.875,-4.765625 4.75,-4.765625 c -0.046875,0 -0.15625,0 -0.15625,0.15625 0,0.09375 0.09375,0.09375 0.234375,0.09375 0,0 0.140625,0 0.265625,0.015625 0.140625,0.015625 0.15625,0.03125 0.15625,0.109375 0,0 0,0.046875 -0.03125,0.140625 l -0.40625,1.65625 -2.34375,0 0.40625,-1.625 c 0.0625,-0.234375 0.078125,-0.296875 0.609375,-0.296875 0.125,0 0.21875,0 0.21875,-0.140625 0,-0.03125 -0.03125,-0.109375 -0.109375,-0.109375 -0.203125,0 -0.71875,0.03125 -0.921875,0.03125 -0.109375,0 -0.359375,0 -0.484375,0 C 2.0625,-4.75 1.890625,-4.765625 1.75,-4.765625 c -0.03125,0 -0.140625,0 -0.140625,0.15625 0,0.09375 0.078125,0.09375 0.21875,0.09375 0.015625,0 0.140625,0 0.265625,0.015625 0.15625,0.015625 0.171875,0.03125 0.171875,0.109375 0,0 0,0.046875 -0.03125,0.140625 l -0.9375,3.703125 C 1.25,-0.3125 1.234375,-0.25 0.6875,-0.25 c -0.109375,0 -0.203125,0 -0.203125,0.140625 C 0.484375,-0.03125 0.53125,0 0.59375,0 0.796875,0 1.296875,-0.03125 1.5,-0.03125 c 0.109375,0 0.359375,0 0.484375,0.015625 C 2.125,-0.015625 2.296875,0 2.421875,0 2.453125,0 2.578125,0 2.578125,-0.140625 2.578125,-0.25 2.5,-0.25 2.34375,-0.25 c -0.109375,0 -0.140625,0 -0.265625,-0.015625 -0.15625,-0.015625 -0.15625,-0.03125 -0.15625,-0.109375 0,0 0,-0.046875 0.03125,-0.140625 l 0.453125,-1.828125 2.34375,0 -0.453125,1.796875 C 4.234375,-0.3125 4.21875,-0.25 3.671875,-0.25 3.5625,-0.25 3.46875,-0.25 3.46875,-0.109375 3.46875,-0.03125 3.515625,0 3.578125,0 3.78125,0 4.28125,-0.03125 4.484375,-0.03125 c 0.125,0 0.359375,0 0.484375,0.015625 C 5.109375,-0.015625 5.28125,0 5.421875,0 5.453125,0 5.5625,0 5.5625,-0.140625 5.5625,-0.25 5.484375,-0.25 5.328125,-0.25 5.21875,-0.25 5.1875,-0.25 5.0625,-0.265625 4.90625,-0.28125 4.90625,-0.296875 4.90625,-0.375 c 0,-0.03125 0.03125,-0.109375 0.03125,-0.140625 z"
             id="path12259"
             inkscape:connector-curvature="0" />
        </symbol>
      </g>
    </defs>
    <g
       id="g12261">
      <g
         style="fill:#000000;fill-opacity:1"
         id="g12263">
        <g
           transform="translate(0,9.9630003)"
           id="use12265">
          <path
             style="stroke:none"
             d="m 4.25,-6.046875 c 0.078125,-0.28125 0.109375,-0.34375 0.234375,-0.375 0.09375,-0.015625 0.421875,-0.015625 0.625,-0.015625 1.015625,0 1.453125,0.03125 1.453125,0.8125 0,0.15625 -0.03125,0.546875 -0.078125,0.796875 0,0.046875 -0.03125,0.15625 -0.03125,0.1875 0,0.0625 0.03125,0.140625 0.125,0.140625 0.109375,0 0.125,-0.078125 0.15625,-0.234375 L 7,-6.46875 C 7.015625,-6.515625 7.015625,-6.609375 7.015625,-6.640625 7.015625,-6.75 6.921875,-6.75 6.75,-6.75 l -5.53125,0 c -0.234375,0 -0.25,0.015625 -0.328125,0.203125 l -0.59375,1.75 c 0,0.015625 -0.0625,0.15625 -0.0625,0.1875 0,0.046875 0.0625,0.109375 0.125,0.109375 0.09375,0 0.109375,-0.0625 0.171875,-0.21875 C 1.0625,-6.265625 1.328125,-6.4375 2.796875,-6.4375 l 0.390625,0 c 0.28125,0 0.28125,0.03125 0.28125,0.125 0,0.046875 -0.03125,0.171875 -0.046875,0.203125 L 2.09375,-0.78125 C 2,-0.421875 1.96875,-0.3125 0.90625,-0.3125 c -0.359375,0 -0.421875,0 -0.421875,0.1875 C 0.484375,0 0.59375,0 0.65625,0 c 0.265625,0 0.546875,-0.015625 0.8125,-0.015625 0.28125,0 0.578125,-0.015625 0.859375,-0.015625 0.28125,0 0.546875,0.015625 0.828125,0.015625 C 3.4375,-0.015625 3.734375,0 4.015625,0 c 0.09375,0 0.21875,0 0.21875,-0.203125 0,-0.109375 -0.078125,-0.109375 -0.34375,-0.109375 -0.234375,0 -0.375,0 -0.625,-0.015625 -0.296875,-0.03125 -0.375,-0.0625 -0.375,-0.21875 0,-0.015625 0,-0.0625 0.046875,-0.203125 z"
             id="path4189"
             inkscape:connector-curvature="0" />
        </g>
      </g>
      <g
         style="fill:#000000;fill-opacity:1"
         id="g12267">
        <g
           transform="translate(5.822,11.457)"
           id="use12269">
          <path
             style="stroke:none"
             d="m 5.859375,-4.1875 c 0.0625,-0.265625 0.078125,-0.328125 0.59375,-0.328125 0.15625,0 0.234375,0 0.234375,-0.140625 0,-0.03125 -0.015625,-0.109375 -0.109375,-0.109375 -0.203125,0 -0.703125,0.03125 -0.90625,0.03125 -0.125,0 -0.375,0 -0.484375,0 C 5.046875,-4.75 4.875,-4.765625 4.75,-4.765625 c -0.046875,0 -0.15625,0 -0.15625,0.15625 0,0.09375 0.09375,0.09375 0.234375,0.09375 0,0 0.140625,0 0.265625,0.015625 0.140625,0.015625 0.15625,0.03125 0.15625,0.109375 0,0 0,0.046875 -0.03125,0.140625 l -0.40625,1.65625 -2.34375,0 0.40625,-1.625 c 0.0625,-0.234375 0.078125,-0.296875 0.609375,-0.296875 0.125,0 0.21875,0 0.21875,-0.140625 0,-0.03125 -0.03125,-0.109375 -0.109375,-0.109375 -0.203125,0 -0.71875,0.03125 -0.921875,0.03125 -0.109375,0 -0.359375,0 -0.484375,0 C 2.0625,-4.75 1.890625,-4.765625 1.75,-4.765625 c -0.03125,0 -0.140625,0 -0.140625,0.15625 0,0.09375 0.078125,0.09375 0.21875,0.09375 0.015625,0 0.140625,0 0.265625,0.015625 0.15625,0.015625 0.171875,0.03125 0.171875,0.109375 0,0 0,0.046875 -0.03125,0.140625 l -0.9375,3.703125 C 1.25,-0.3125 1.234375,-0.25 0.6875,-0.25 c -0.109375,0 -0.203125,0 -0.203125,0.140625 C 0.484375,-0.03125 0.53125,0 0.59375,0 0.796875,0 1.296875,-0.03125 1.5,-0.03125 c 0.109375,0 0.359375,0 0.484375,0.015625 C 2.125,-0.015625 2.296875,0 2.421875,0 2.453125,0 2.578125,0 2.578125,-0.140625 2.578125,-0.25 2.5,-0.25 2.34375,-0.25 c -0.109375,0 -0.140625,0 -0.265625,-0.015625 -0.15625,-0.015625 -0.15625,-0.03125 -0.15625,-0.109375 0,0 0,-0.046875 0.03125,-0.140625 l 0.453125,-1.828125 2.34375,0 -0.453125,1.796875 C 4.234375,-0.3125 4.21875,-0.25 3.671875,-0.25 3.5625,-0.25 3.46875,-0.25 3.46875,-0.109375 3.46875,-0.03125 3.515625,0 3.578125,0 3.78125,0 4.28125,-0.03125 4.484375,-0.03125 c 0.125,0 0.359375,0 0.484375,0.015625 C 5.109375,-0.015625 5.28125,0 5.421875,0 5.453125,0 5.5625,0 5.5625,-0.140625 5.5625,-0.25 5.484375,-0.25 5.328125,-0.25 5.21875,-0.25 5.1875,-0.25 5.0625,-0.265625 4.90625,-0.28125 4.90625,-0.296875 4.90625,-0.375 c 0,-0.03125 0.03125,-0.109375 0.03125,-0.140625 z"
             id="path4197"
             inkscape:connector-curvature="0" />
        </g>
      </g>
    </g>
  </g>
  <g
     id="g5941"
     style="stroke-width:0.0000001"
     ns0:page_width="10cm"
     ns0:preamble=""
     ns0:text="$+$"
     transform="matrix(1.25,0,0,1.25,88.698554,83.712186)">
    <defs
       id="defs5943">
      <g
         id="g5945">
        <symbol
           id="textext-aa8f7f73-0"
           overflow="visible"
           style="overflow:visible">
          <path
             id="path5948"
             d=""
             style="stroke:none"
             inkscape:connector-curvature="0" />
        </symbol>
        <symbol
           id="textext-aa8f7f73-1"
           overflow="visible"
           style="overflow:visible">
          <path
             id="path5951"
             d="m 4.078125,-2.296875 2.78125,0 C 7,-2.296875 7.1875,-2.296875 7.1875,-2.5 7.1875,-2.6875 7,-2.6875 6.859375,-2.6875 l -2.78125,0 0,-2.796875 c 0,-0.140625 0,-0.328125 -0.203125,-0.328125 -0.203125,0 -0.203125,0.1875 -0.203125,0.328125 l 0,2.796875 -2.78125,0 c -0.140625,0 -0.328125,0 -0.328125,0.1875 0,0.203125 0.1875,0.203125 0.328125,0.203125 l 2.78125,0 0,2.796875 c 0,0.140625 0,0.328125 0.203125,0.328125 0.203125,0 0.203125,-0.1875 0.203125,-0.328125 z"
             style="stroke:none"
             inkscape:connector-curvature="0" />
        </symbol>
      </g>
    </defs>
    <g
       id="textext-aa8f7f73-2">
      <g
         id="g5954"
         style="fill:#000000;fill-opacity:1">
        <use
           id="use5956"
           y="9.9630003"
           x="0"
           xlink:href="#textext-aa8f7f73-1"
           width="360"
           height="270" />
      </g>
    </g>
  </g>
</svg>
