<?xml version="1.0" encoding="UTF-8" standalone="no"?>
<!-- Created with Inkscape (http://www.inkscape.org/) -->

<svg
   xmlns:dc="http://purl.org/dc/elements/1.1/"
   xmlns:cc="http://creativecommons.org/ns#"
   xmlns:rdf="http://www.w3.org/1999/02/22-rdf-syntax-ns#"
   xmlns:svg="http://www.w3.org/2000/svg"
   xmlns="http://www.w3.org/2000/svg"
   xmlns:sodipodi="http://sodipodi.sourceforge.net/DTD/sodipodi-0.dtd"
   xmlns:inkscape="http://www.inkscape.org/namespaces/inkscape"
   width="387.4455"
   height="123.89941"
   id="svg4803"
   version="1.1"
   inkscape:version="0.48.3.1 r9886"
   sodipodi:docname="vector_dot.svg">
  <defs
     id="defs4805" />
  <sodipodi:namedview
     id="base"
     pagecolor="#ffffff"
     bordercolor="#666666"
     borderopacity="1.0"
     inkscape:pageopacity="0.0"
     inkscape:pageshadow="2"
     inkscape:zoom="1.4"
     inkscape:cx="406.21161"
     inkscape:cy="63.939866"
     inkscape:document-units="px"
     inkscape:current-layer="layer1"
     showgrid="false"
     inkscape:window-width="848"
     inkscape:window-height="789"
     inkscape:window-x="711"
     inkscape:window-y="71"
     inkscape:window-maximized="0"
     fit-margin-top="0"
     fit-margin-left="0"
     fit-margin-right="10"
     fit-margin-bottom="0" />
  <metadata
     id="metadata4808">
    <rdf:RDF>
      <cc:Work
         rdf:about="">
        <dc:format>image/svg+xml</dc:format>
        <dc:type
           rdf:resource="http://purl.org/dc/dcmitype/StillImage" />
        <dc:title></dc:title>
      </cc:Work>
    </rdf:RDF>
  </metadata>
  <g
     inkscape:label="Layer 1"
     inkscape:groupmode="layer"
     id="layer1"
     transform="translate(-265.67202,-472.40263)">
    <path
       style="fill:#204a87;fill-opacity:1;stroke:none"
       id="path5378"
       d="m 299.28405,571.97288 c 0.0149,-1.69067 0.46988,-3.35334 0.88164,-4.98335 0.73046,-3.35068 1.36011,-6.72205 2.05687,-10.07967 1.11018,-5.93622 2.64426,-11.77693 4.1146,-17.63015 1.55155,-5.72854 2.98214,-11.48301 4.21397,-17.2885 0.99794,-4.41993 1.73521,-8.88588 2.35298,-13.37255 0.32899,-2.32394 0.56696,-4.66794 0.19403,-6.9971 -0.0834,-0.39073 -0.0922,-0.47114 -0.19182,-0.81872 -0.0187,-0.0651 -0.09,-0.25574 -0.0625,-0.19371 0.16671,0.37579 0.26098,0.55561 0.59326,0.80802 1.07776,0.13938 1.35559,0.4555 2.15,-0.21723 0.18621,-0.15771 0.25584,-0.42221 0.43222,-0.59083 0.0793,-0.0758 -0.0815,0.204 -0.13034,0.30222 -0.12183,0.24467 -0.25965,0.4811 -0.38264,0.72517 -0.57036,1.17542 -1.46537,2.10004 -2.41196,2.97594 -0.8129,0.72352 -1.63089,1.44082 -2.26393,2.33207 -0.20472,0.10326 -0.5405,1.80194 -0.38294,1.04296 -0.12382,-1.01002 -0.53126,-1.27698 -1.44846,-1.503 -0.0438,-0.0106 -7.4e-4,-0.0931 0.0164,-0.1345 1.08813,-0.96874 1.74837,-2.27357 2.43365,-3.53354 0.63768,-1.24421 1.06488,-2.57525 1.592,-3.86411 0.4364,-1.01958 1.32343,-2.31001 2.63598,-2.03352 0.49578,0.10446 0.91568,0.43404 1.37353,0.65107 1.1787,1.24572 1.96982,2.78278 2.8207,4.25564 1.28765,2.255 2.70981,4.41075 4.29054,6.46836 0.99917,1.31901 2.19622,2.47073 3.21241,3.77521 1.71316,2.23427 -1.44659,4.65703 -3.15973,2.42276 l 0,0 c -0.98675,-1.3234 -2.25436,-2.42249 -3.21064,-3.7729 -1.686,-2.19644 -3.20594,-4.49682 -4.58068,-6.90236 -0.64094,-1.11046 -1.23927,-2.24494 -2.01563,-3.26876 1.59095,0.53395 1.35026,0.53387 2.57809,-0.54972 0.1411,-0.12448 -0.42181,0.60916 -0.27279,0.49426 -0.61297,1.39536 -1.02226,2.88664 -1.76722,4.22879 -0.95749,1.75518 -1.94627,3.52225 -3.52647,4.80305 -0.26894,0.18279 -0.51986,0.39538 -0.80681,0.54836 -1.26926,0.67666 -2.9539,0.53083 -3.77541,-0.78108 -0.1957,-0.31252 -0.24172,-0.69675 -0.36259,-1.04511 0.0232,-1.3248 0.39767,-2.5533 1.14916,-3.66169 0.80761,-1.07649 1.74542,-2.0251 2.76995,-2.8977 0.6054,-0.55746 1.20849,-1.10558 1.56825,-1.86398 0.39384,-0.76249 0.79275,-1.88175 1.75885,-2.04147 0.52772,-0.0872 1.06635,0.0848 1.59952,0.12728 1.19358,0.77962 1.49539,1.76306 1.71332,3.10596 0.40683,2.71452 0.22334,5.43927 -0.1848,8.14744 -0.63184,4.58139 -1.38455,9.14202 -2.40245,13.65561 -1.24251,5.85339 -2.68225,11.65624 -4.24722,17.43201 -1.45709,5.79984 -2.97864,11.587 -4.07772,17.46933 -0.70894,3.41389 -1.34536,6.84273 -2.09565,10.24807 -0.33282,1.30996 -0.7227,2.64932 -0.75975,4.00564 0,2.81548 -3.98169,2.81548 -3.98169,0 z"
       inkscape:connector-curvature="0" />
    <path
       style="fill:#204a87;fill-opacity:1;stroke:none"
       id="path5382"
       d="m 300.25456,483.03355 c -0.55613,-0.1889 -1.07056,-0.0863 -1.63914,-0.029 -0.80313,0.0655 -0.17106,0.0304 -0.22181,0.0914 -0.14412,0.17333 -0.31666,0.32092 -0.47392,0.48243 -0.71297,0.90662 -1.11822,2.03908 -1.48316,3.12334 -0.39258,1.27838 -0.52777,2.58205 -0.31748,3.90236 0.18371,0.95179 0.67113,1.73131 1.25396,2.4755 0.45345,0.47651 0.87722,0.47659 -0.0773,0.21359 -0.12371,-0.10008 -0.3195,0.0962 -0.40569,0.0624 -0.0628,-0.0249 0.0817,-0.10737 0.12039,-0.16266 0.18743,-0.26834 0.3693,-0.54051 0.55558,-0.80964 0.61231,-1.23653 1.04552,-2.55868 1.5253,-3.85196 0.47352,-1.31172 0.90268,-2.62855 1.14399,-4.00384 -0.0684,-0.76833 0.50938,-1.55941 0.38103,-2.30194 -0.019,-0.11666 -0.0386,-0.23361 -0.0697,-0.34758 0.33023,0.37057 0.53853,0.907 0.99071,1.11171 1.17798,0.53324 2.24073,-0.0933 2.50538,-1.17414 0.2579,0.71385 0.57055,1.43292 0.90406,2.12195 0.57916,1.24006 1.54004,2.24261 2.46635,3.23045 0.8447,0.8061 1.84711,1.42511 2.83246,2.043 0.52599,0.29253 1.06644,0.52194 1.5616,0.87311 2.25124,1.69079 -0.13995,4.87451 -2.39116,3.1837 l 0,0 c -0.28905,-0.14562 -0.91868,-0.43507 -1.29504,-0.68931 -1.26898,-0.80435 -2.55454,-1.61171 -3.61459,-2.68934 -1.20324,-1.2872 -2.40479,-2.61645 -3.15114,-4.23266 -0.55452,-1.1684 -1.14764,-2.38156 -1.29091,-3.67919 0.0221,-0.30366 0.009,-0.61211 0.0663,-0.91091 0.25707,-1.31878 1.67892,-2.24869 3.03134,-1.71185 0.50507,0.2005 0.75388,0.78287 1.13083,1.17432 0.1676,0.48746 0.26213,0.99599 0.30089,1.50996 0.0257,1.09736 -0.28772,2.11266 -0.43914,3.19139 -0.2926,1.60625 -0.76887,3.15571 -1.33069,4.68766 -0.59561,1.60111 -1.1172,3.25367 -1.98484,4.73298 -0.87743,1.26537 -1.80922,2.5536 -3.49939,2.62396 -0.33514,-0.0487 -0.67551,-0.0698 -1.00545,-0.14613 -0.85627,-0.19814 -1.50901,-1.01782 -2.09762,-1.59614 -1.01805,-1.30353 -1.7732,-2.73665 -2.06208,-4.38627 -0.24344,-1.94321 -0.12117,-3.8638 0.49576,-5.7361 0.57108,-1.64252 1.22262,-3.31179 2.40615,-4.6189 0.87663,-0.88978 1.81789,-1.71023 3.14065,-1.74826 1.00766,-0.10128 2.01737,-0.17103 3.00327,0.12794 2.7314,0.68287 1.76572,4.54564 -0.96569,3.8628 z"
       inkscape:connector-curvature="0" />
    <path
       style="fill:#204a87;fill-opacity:1;stroke:none"
       id="path5386"
       d="m 302.36733,569.87212 c 2.23598,-0.5473 4.41618,-1.29885 6.60644,-2.00213 5.13634,-1.7545 10.36067,-3.23594 15.56588,-4.77007 6.82662,-1.97907 13.67544,-3.88007 20.53403,-5.74492 6.49487,-1.74802 12.95623,-3.61659 19.43165,-5.4347 4.1899,-1.14609 8.39466,-2.23604 12.58254,-3.38903 0.78262,-0.21564 1.5652,-0.43146 2.34767,-0.64773 0.11759,-0.0326 0.46022,-0.1587 0.35069,-0.10499 -0.13926,0.0684 -0.27629,0.1411 -0.41444,0.21165 0.21372,1.18084 0.38736,2.36965 0.64116,3.54253 0.0164,0.0761 0.52564,0.0231 0.49594,0.0254 -0.077,0.005 -0.15396,0.0119 -0.23097,0.0185 -1.01865,-0.13167 -1.72551,-0.62398 -2.57823,-1.1162 -1.44504,-0.79331 -3.02634,-1.31671 -4.5744,-1.87125 -2.28812,-0.79957 -4.55286,-1.66034 -6.85447,-2.42128 -0.7877,-0.23626 -1.53137,-0.5979 -2.30553,-0.86984 -0.0893,-0.0312 -0.37198,-0.0695 -0.27904,-0.0518 0.0552,0.0105 0.11123,0.0172 0.16676,0.0256 0.5172,-3.49586 -0.67023,-4.41941 1.16706,-3.75215 0.75383,0.27376 1.41967,0.7371 2.16286,1.03774 1.94266,0.82109 4.03586,1.1388 6.09956,1.49447 2.28853,0.33697 4.58111,0.62796 6.83884,1.13962 1.3194,0.39413 2.90533,1.00268 3.19599,2.5582 0.0708,0.37934 -0.0119,0.77172 -0.0189,1.15758 -0.33522,0.97574 -0.91426,1.8274 -1.2309,2.80899 -0.27785,1.21423 -0.29658,2.47035 -0.33004,3.71016 -0.10749,1.24084 -0.26885,2.47638 -0.41757,3.71283 -0.0309,0.78874 -0.21158,1.16388 -0.53348,1.99178 -1.7094,2.23717 -4.87321,-0.18025 -3.16383,-2.41742 l 0,0 c -0.70782,2.12427 -0.22702,0.56084 -0.25588,-0.0498 0.13411,-1.1149 0.27247,-2.22947 0.39058,-3.34619 0.0453,-1.63428 0.0883,-3.29093 0.53753,-4.87436 0.10365,-0.29952 0.84656,-2.2855 1.10249,-2.46215 0.0547,-0.0377 -0.009,0.13245 -0.0136,0.1986 0.0285,0.19807 0.0197,0.40527 0.0859,0.59419 0.29536,0.8454 1.15393,0.75476 -0.23176,0.30004 -2.18803,-0.50027 -4.41472,-0.76016 -6.63159,-1.09822 -2.36678,-0.40794 -4.75761,-0.80296 -6.98112,-1.75401 -0.24228,-0.1059 -1.74175,-0.73477 -1.99906,-0.97235 -0.0372,-0.0343 0.1006,0.0119 0.15083,0.0173 0.12939,-1.32147 0.25878,-2.64293 0.38816,-3.9644 1.18121,0.1466 2.23613,0.71949 3.35668,1.08534 2.33209,0.77245 4.6286,1.64105 6.9468,2.45309 1.77237,0.63546 3.57519,1.2466 5.22202,2.17127 0.49501,0.28585 2.58617,1.30921 0.3761,0.58836 -0.26128,0.0337 0.72227,-0.0527 0.80335,0.0439 0.27371,1.19409 0.54742,2.38816 0.82114,3.58221 -1.0984,0.60453 -2.35765,0.76934 -3.54639,1.14347 -4.18141,1.1512 -8.37958,2.23987 -12.56314,3.38363 -6.48595,1.82098 -12.95781,3.69268 -19.46326,5.44344 -6.83154,1.85744 -13.65333,3.75096 -20.45307,5.72198 -5.17457,1.52511 -10.36839,2.997 -15.47427,4.74187 -2.33313,0.74914 -4.65587,1.55179 -7.04283,2.11545 -2.7608,0.55216 -3.54166,-3.35219 -0.78087,-3.90437 z"
       inkscape:connector-curvature="0" />
    <path
       style="fill:#204a87;fill-opacity:1;stroke:none"
       id="path5388"
       d="m 389.66955,532.53157 c 0.009,1.00807 0.27742,2.00359 0.5447,2.97047 0.41333,1.66692 0.73195,3.36065 0.99836,5.05741 0.182,1.82282 0.43823,3.63717 0.62116,5.46005 0.20492,1.41699 0.0699,2.86506 0.24918,4.28083 0.0989,0.59033 0.20926,1.17876 0.33557,1.76382 0.17809,1.83018 -1.45936,3.15872 -3.13467,2.19047 -0.76757,-0.44359 -0.96611,-1.20496 -1.11135,-1.97978 -0.0627,-1.20601 -0.26304,-2.39646 -0.39019,-3.59694 -0.19152,-1.67953 -0.19451,-3.35093 0.11667,-5.01266 0.5318,-1.86185 1.08243,-2.89084 2.73567,-3.9793 1.4908,-0.74034 3.1498,-0.80082 4.77968,-0.84781 1.62025,-0.10379 3.13092,0.31778 4.48246,1.18772 1.53365,1.21975 1.87427,2.63361 1.7342,4.51722 -0.31542,1.75887 -1.29143,3.27227 -2.24612,4.74723 -0.92326,1.4506 -2.03876,2.69101 -3.46464,3.64953 -1.09562,0.66856 -2.3322,0.99953 -3.58649,1.20579 -0.0906,0.012 -0.18117,0.0241 -0.27176,0.0363 -2.79191,0.36348 -3.30596,-3.58486 -0.51404,-3.94834 l 0,0 c 0.0506,-0.007 0.10099,-0.012 0.1516,-0.0189 0.70471,-0.11029 1.41195,-0.26242 2.04312,-0.60839 0.98742,-0.60874 1.65956,-1.53106 2.30245,-2.484 0.61771,-0.94831 1.26547,-1.91222 1.62576,-2.99303 0.0347,-0.16423 -0.018,-0.35194 0.0615,-0.4998 0.0168,-0.0313 0.0766,0.0819 0.094,0.0508 0.0533,-0.0952 -0.1982,-0.35986 -0.23657,-0.40935 -0.19259,-0.43527 -1.68571,-0.47046 -2.0638,-0.4528 -0.94757,0.0257 -1.90315,0.0459 -2.82859,0.27339 -0.0809,0.029 -0.18577,0.007 -0.24985,0.0643 -0.36742,0.32903 -0.44405,0.87034 -0.64475,1.29299 -0.2854,1.25564 -0.16723,2.54064 -0.0606,3.81267 0.11759,1.12738 0.31972,2.24665 0.36135,3.3804 -0.0157,0.15685 0.012,-0.0313 -0.12979,-0.18837 -0.37979,-0.41944 -1.03952,-1.13159 -1.75324,-0.85197 -1.88943,0.74022 -1.6468,0.97228 -1.69424,2.30144 -0.15488,-0.71968 -0.29251,-1.44333 -0.40154,-2.17145 -0.14232,-1.43468 -0.0945,-2.88126 -0.25287,-4.31614 -0.17413,-1.75029 -0.4253,-3.4917 -0.59335,-5.2425 -0.24002,-1.55118 -0.53494,-3.09854 -0.90563,-4.6234 -0.35366,-1.31084 -0.6873,-2.65167 -0.68497,-4.01799 0,-2.81547 3.98166,-2.81547 3.98166,0 z"
       inkscape:connector-curvature="0" />
    <path
       style="fill:#204a87;fill-opacity:1;stroke:none"
       id="path8060"
       d="m 53.16452,70.01238 c 0.690258,0.504054 1.358562,1.037136 2.002905,1.598554 0.552157,0.602486 1.117413,1.192027 1.618715,1.838176 0.520988,0.655534 0.965071,1.354829 1.365514,2.089466 0.349388,0.674151 0.6341,1.372001 0.959818,2.057853 0.222201,0.386281 0.312023,1.068912 0.444835,1.296664 0.258907,0.430165 0.395575,0.9172 0.487233,1.405939 0.05391,0.428767 0.04948,0.862208 0.04931,1.293578 -0.0011,0.434558 -0.0026,0.869115 -0.0033,1.303674 3.58e-4,1.179979 0.105308,-0.112848 -0.54868,-0.606874 -0.03191,-0.01691 -0.06382,-0.03382 -0.09573,-0.05074 1.972422,0.780739 0.86829,3.570164 -1.104131,2.789426 l 0,0 c -0.08225,-0.03684 -0.164494,-0.07367 -0.246741,-0.110509 -0.717119,-0.463705 -1.081936,-1.169426 -1.00471,-2.026456 7.45e-4,-0.433316 0.0022,-0.86663 0.0033,-1.299945 1.58e-4,-0.279389 0.0021,-0.559292 -0.01477,-0.838253 -0.0042,-0.036 -0.09395,-0.400806 -0.196241,-0.500723 C 56.66248,79.803519 56.551823,79.334288 56.394173,78.867759 56.105034,78.2334 55.82738,77.596802 55.517422,76.974133 55.192551,76.377865 54.84283,75.806254 54.409756,75.280176 54.032025,74.784953 53.589309,74.348427 53.193609,73.870149 52.607029,73.355927 51.993845,72.873203 51.36452,72.41238 c -1.697057,-1.272792 0.102943,-3.672792 1.8,-2.4 z"
       inkscape:connector-curvature="0"
       transform="translate(258.72229,478.22726)" />
    <path
       style="fill:#204a87;fill-opacity:1;stroke:none"
       id="path8062"
       d="m 61.498875,65.575684 c -0.173744,0.65301 -0.285271,1.320408 -0.350544,1.99245 -0.04468,0.580649 -0.05003,1.163175 -0.0527,1.745214 0.03301,0.340616 -0.04367,0.696051 0.0012,1.035285 0.0032,0.0242 -8.5e-4,-0.07676 0.02253,-0.0697 0.03094,0.0093 0.02644,0.05899 0.03966,0.08848 0.148552,0.50399 0.293017,0.994671 0.509578,1.473576 0.282157,0.426056 0.490874,0.800086 0.714949,1.117921 0.19921,0.330433 0.432715,0.634268 0.691808,0.9195 0.152659,0.180288 0.17443,0.147217 0.411765,0.166045 0.364685,0.04172 0.732912,0.03995 1.099506,0.03979 0.0537,-2.95e-4 0.214585,-0.0058 0.16111,-8.84e-4 -0.506982,0.04697 -0.187462,0.0092 -0.05312,-0.06209 0.01609,-0.0085 -0.06857,0.0036 -0.05414,-0.0075 0.01904,-0.01468 0.507828,-0.301766 0.543778,-0.32294 0.526497,-0.346831 0.978038,-0.787271 1.477087,-1.169854 0.538131,-0.479574 0.970272,-1.061522 1.405389,-1.633773 0.364445,-0.646058 0.650816,-1.351324 0.888932,-2.056097 0.195447,-0.708532 0.223647,-1.448314 0.25017,-2.178741 0.0024,-0.490559 0.07114,-0.980686 -0.07705,-1.442516 -0.12655,-0.513324 -0.232342,-0.969736 -0.495575,-1.41751 -0.226935,-0.488694 -0.629628,-0.767981 -1.008406,-1.120486 -0.422784,-0.34085 -0.794843,-0.743128 -1.211059,-1.091963 -0.296166,-0.221198 -0.711065,-0.395444 -1.105092,-0.509812 -0.355135,-0.1184 -0.723121,-0.143246 -1.093743,-0.157083 -1.555967,-0.307525 0.198449,0.06654 -0.938583,-0.241136 -0.04312,-0.01167 0.113494,0.01659 0.119402,0.06088 6.26e-4,0.0047 -0.36735,0.04007 -0.592624,0.06185 -0.164375,-0.02434 -0.549523,0.200531 -0.996477,0.441442 -0.267594,0.256333 -0.551053,0.470295 -0.786469,0.759078 0.128725,-0.151372 0.07589,0.0854 0.07287,0.199891 -0.04566,0.245864 0.08976,1.255291 -0.07351,0.210273 -0.866814,-1.014657 0.374141,0.136513 0.533768,0.269162 0.358584,0.229417 0.72966,0.438446 1.108072,0.642823 0.549222,0.271723 1.130246,0.462216 1.695067,0.697047 0.556051,0.279509 1.171597,0.360012 1.782951,0.421075 0.464507,0.04152 0.931241,0.05025 1.397363,0.0509 0.263781,-7.8e-4 0.527559,-0.0023 0.791339,-0.0033 2.121303,-0.0085 2.133288,2.991501 0.01199,2.999976 l 0,0 c -0.269545,0.0011 -0.539088,0.0027 -0.808635,0.0034 -0.568602,-0.0012 -1.137865,-0.01378 -1.704275,-0.06718 -0.919821,-0.09933 -1.841005,-0.251603 -2.681469,-0.65995 -0.604053,-0.319096 -1.316769,-0.458207 -1.915795,-0.805425 -0.575557,-0.313733 -1.151858,-0.632144 -1.669502,-1.036879 -0.46134,-0.361025 -0.980573,-0.739699 -1.270116,-1.266086 -0.150457,-0.565185 -0.250681,-1.013136 -0.194308,-1.588389 0.03751,-0.720634 0.181469,-1.394299 0.62025,-1.988662 0.482807,-0.572301 1.050002,-1.058473 1.668679,-1.479381 0.666051,-0.357819 1.363801,-0.720554 2.130425,-0.785891 0.311506,-0.02994 1.765413,-0.249707 1.888637,0.08938 0.0082,0.02253 -0.04649,0.01171 -0.06974,0.01757 0.639629,0.02659 1.275482,0.09683 1.887381,0.296994 0.785048,0.261241 1.564247,0.594859 2.199252,1.137832 0.426403,0.394155 0.850238,0.791774 1.295459,1.170934 0.201333,0.236345 -0.120602,-0.131295 0.411098,0.353435 0.464638,0.423592 0.828819,0.934434 1.138387,1.479196 0.342844,0.647982 0.594123,1.31934 0.748922,2.03669 0.211295,0.784182 0.240073,1.565764 0.189034,2.373906 -0.03932,1.028225 -0.102197,2.065761 -0.415044,3.05362 -0.353687,0.996285 -0.745158,2.004409 -1.334146,2.885353 -0.603031,0.792643 -1.219165,1.590823 -1.997599,2.220933 -0.600632,0.424381 -1.097399,0.994416 -1.750487,1.351695 -0.659114,0.388006 -1.316386,0.832894 -2.119301,0.808271 -0.541106,-2.5e-5 -1.084863,-0.0032 -1.620991,-0.08537 -0.814237,-0.161414 -1.57915,-0.462779 -2.126837,-1.120418 -0.334933,-0.377833 -0.652868,-0.770882 -0.916145,-1.202978 -0.357117,-0.521268 -0.674971,-1.059233 -0.991653,-1.606295 -0.249383,-0.558853 -0.440972,-1.131922 -0.60722,-1.719721 -0.218295,-0.674448 -0.262936,-1.346024 -0.228696,-2.050123 0.0032,-0.677338 0.01116,-1.355292 0.06765,-2.030705 0.08379,-0.815861 0.214055,-1.62707 0.425129,-2.420555 0.514496,-2.057983 3.424923,-1.330376 2.910428,0.727607 z"
       inkscape:connector-curvature="0"
       transform="translate(258.72229,478.22726)" />
    <path
       style="fill:#204a87;fill-opacity:1;stroke:none"
       id="path5388-0"
       d="m 348.66222,573.1301 c 0.009,1.00807 0.27742,2.00359 0.5447,2.97047 0.41333,1.66692 0.73195,3.36065 0.99836,5.05741 0.182,1.82282 0.43823,3.63717 0.62116,5.46005 0.20492,1.41699 0.0699,2.86506 0.24918,4.28083 0.0989,0.59033 0.20926,1.17876 0.33557,1.76382 0.17809,1.83018 -1.45936,3.15872 -3.13467,2.19047 -0.76757,-0.44359 -0.96611,-1.20496 -1.11135,-1.97978 -0.0627,-1.20601 -0.26304,-2.39646 -0.39019,-3.59694 -0.19152,-1.67953 -0.19451,-3.35093 0.11667,-5.01266 0.5318,-1.86185 1.08243,-2.89084 2.73567,-3.9793 1.4908,-0.74034 3.1498,-0.80082 4.77968,-0.84781 1.62025,-0.10379 3.13092,0.31778 4.48246,1.18772 1.53365,1.21975 1.87427,2.63361 1.7342,4.51722 -0.31542,1.75887 -1.29143,3.27227 -2.24612,4.74723 -0.92326,1.4506 -2.03876,2.69101 -3.46464,3.64953 -1.09562,0.66856 -2.3322,0.99953 -3.58649,1.20579 -0.0906,0.012 -0.18117,0.0241 -0.27176,0.0363 -2.79191,0.36348 -3.30596,-3.58486 -0.51404,-3.94834 l 0,0 c 0.0506,-0.007 0.10099,-0.012 0.1516,-0.0189 0.70471,-0.11029 1.41195,-0.26242 2.04312,-0.60839 0.98742,-0.60874 1.65956,-1.53106 2.30245,-2.484 0.61771,-0.94831 1.26547,-1.91222 1.62576,-2.99303 0.0347,-0.16423 -0.018,-0.35194 0.0615,-0.4998 0.0168,-0.0313 0.0766,0.0819 0.094,0.0508 0.0533,-0.0952 -0.1982,-0.35986 -0.23657,-0.40935 -0.19259,-0.43527 -1.68571,-0.47046 -2.0638,-0.4528 -0.94757,0.0257 -1.90315,0.0459 -2.82859,0.27339 -0.0809,0.029 -0.18577,0.007 -0.24985,0.0643 -0.36742,0.32903 -0.44405,0.87034 -0.64475,1.29299 -0.2854,1.25564 -0.16723,2.54064 -0.0606,3.81267 0.11759,1.12738 0.31972,2.24665 0.36135,3.3804 -0.0157,0.15685 0.012,-0.0313 -0.12979,-0.18837 -0.37979,-0.41944 -1.03952,-1.13159 -1.75324,-0.85197 -1.88943,0.74022 -1.6468,0.97228 -1.69424,2.30144 -0.15488,-0.71968 -0.29251,-1.44333 -0.40154,-2.17145 -0.14232,-1.43468 -0.0945,-2.88126 -0.25287,-4.31614 -0.17413,-1.75029 -0.4253,-3.4917 -0.59335,-5.2425 -0.24002,-1.55118 -0.53494,-3.09854 -0.90563,-4.6234 -0.35366,-1.31084 -0.6873,-2.65167 -0.68497,-4.01799 0,-2.81547 3.98166,-2.81547 3.98166,0 z"
       inkscape:connector-curvature="0" />
    <path
       style="fill:#204a87;fill-opacity:1;stroke:none"
       id="path8084"
       d="m 82.81728,95.011381 c 0,1.022697 0,2.045395 0,3.068092 -0.07289,0.988829 0.04759,1.943557 0.208527,2.914157 0.159513,0.99822 0.198928,2.00229 0.395423,2.99361 0.231785,0.927 0.324163,1.87563 0.374761,2.82707 -0.0519,0.80589 0.147927,1.56651 0.308842,2.3472 0.146177,0.81846 0.170321,1.64098 0.335869,2.45514 0.274096,0.55617 0.127096,1.5909 0.378465,2.10115 0.197047,0.57992 0.354711,1.1703 0.453379,1.77472 0.04019,0.30398 0.06694,0.60991 0.0739,0.9165 3.17e-4,0.0799 6.33e-4,0.0401 -9.28e-4,0.11944 -0.06318,2.12038 -3.06185,2.03103 -2.998669,-0.0893 l 0,0 c 5.5e-5,0.009 -0.0012,0.0189 1.65e-4,0.0283 -0.0043,-0.17479 -0.0196,-0.34914 -0.0402,-0.52273 -0.06282,-0.50431 -0.251943,-0.98138 -0.389928,-1.46741 -0.169713,-0.75019 -0.222957,-1.51996 -0.41691,-2.2672 -0.16271,-0.81151 -0.221454,-1.62518 -0.333378,-2.44292 -0.190502,-0.92425 -0.407595,-1.8451 -0.366541,-2.7967 -0.04117,-0.80982 -0.11941,-1.61572 -0.322322,-2.40368 -0.200093,-1.02222 -0.266201,-2.05231 -0.411531,-3.08246 -0.187414,-1.13064 -0.317907,-2.255519 -0.248923,-3.404817 0,-1.022697 0,-2.045395 0,-3.068092 0,-2.12132 3,-2.12132 3,0 z"
       inkscape:connector-curvature="0"
       transform="translate(258.72229,478.22726)" />
    <path
       style="fill:#204a87;fill-opacity:1;stroke:none"
       id="path8088"
       d="m 103.02033,91.475847 c 0.0593,0.976618 0.2082,1.966614 0.39947,2.928791 0.2373,1.274749 0.58784,2.522446 0.83093,3.79598 0.12645,1.037483 0.25097,2.059502 0.47686,3.079822 0.33886,0.85494 0.54972,1.74861 0.69564,2.65424 0.11022,0.72117 0.12171,1.45186 0.12806,2.17983 0.001,0.63589 -0.002,1.27177 -0.004,1.90765 -0.002,0.61974 -0.002,1.23948 -0.002,1.85922 -1.2e-4,0.52586 -8e-5,1.05172 -7e-5,1.57758 2e-5,0.47675 3e-5,0.9535 3e-5,1.43025 0,0.30397 0,0.60794 0,0.91191 0,0.0545 0,0.10908 0,0.16361 -10e-6,2.12132 -3.00001,2.12131 -3,-1e-5 l 0,0 c 0,-0.0545 0,-0.10906 0,-0.16359 0,-0.30397 0,-0.60793 0,-0.91189 0,-0.47674 -10e-6,-0.95347 -3e-5,-1.4302 -1e-5,-0.52618 -5e-5,-1.05235 7e-5,-1.57852 1.8e-4,-0.62205 4.5e-4,-1.2441 0.002,-1.86615 0.002,-0.62476 0.005,-1.24952 0.004,-1.87429 -0.005,-0.58045 -0.008,-1.16361 -0.0917,-1.73923 -0.12885,-0.84889 -0.37587,-1.66304 -0.66115,-2.47194 -0.23234,-1.04947 -0.37872,-2.10152 -0.49527,-3.169391 -0.23923,-1.271495 -0.59925,-2.515082 -0.82953,-3.788652 -0.21571,-1.151055 -0.40554,-2.325586 -0.45339,-3.49502 0,-2.12132 3,-2.12132 3,0 z"
       inkscape:connector-curvature="0"
       transform="translate(258.72229,478.22726)" />
    <path
       style="fill:#204a87;fill-opacity:1;stroke:none"
       id="path5382-8"
       d="m 284.38141,531.94119 c -0.55613,-0.1889 -1.07056,-0.0863 -1.63914,-0.029 -0.80313,0.0655 -0.17106,0.0304 -0.22181,0.0914 -0.14412,0.17333 -0.31666,0.32092 -0.47392,0.48243 -0.71297,0.90662 -1.11822,2.03908 -1.48316,3.12334 -0.39258,1.27838 -0.52777,2.58205 -0.31748,3.90236 0.18371,0.95179 0.67113,1.73131 1.25396,2.4755 0.45345,0.47651 0.87722,0.47659 -0.0773,0.21359 -0.12371,-0.10008 -0.3195,0.0962 -0.40569,0.0624 -0.0628,-0.0249 0.0817,-0.10737 0.12039,-0.16266 0.18743,-0.26834 0.3693,-0.54051 0.55558,-0.80964 0.61231,-1.23653 1.04552,-2.55868 1.5253,-3.85196 0.47352,-1.31172 0.90268,-2.62855 1.14399,-4.00384 -0.0684,-0.76833 0.50938,-1.55941 0.38103,-2.30194 -0.019,-0.11666 -0.0386,-0.23361 -0.0697,-0.34758 0.33023,0.37057 0.53853,0.907 0.99071,1.11171 1.17798,0.53324 2.24073,-0.0933 2.50538,-1.17414 0.2579,0.71385 0.57055,1.43292 0.90406,2.12195 0.57916,1.24006 1.54004,2.24261 2.46635,3.23045 0.8447,0.8061 1.84711,1.42511 2.83246,2.043 0.52599,0.29253 1.06644,0.52194 1.5616,0.87311 2.25124,1.69079 -0.13995,4.87451 -2.39116,3.1837 l 0,0 c -0.28905,-0.14562 -0.91868,-0.43507 -1.29504,-0.68931 -1.26898,-0.80435 -2.55454,-1.61171 -3.61459,-2.68934 -1.20324,-1.2872 -2.40479,-2.61645 -3.15114,-4.23266 -0.55452,-1.1684 -1.14764,-2.38156 -1.29091,-3.67919 0.0221,-0.30366 0.009,-0.61211 0.0663,-0.91091 0.25707,-1.31878 1.67892,-2.24869 3.03134,-1.71185 0.50507,0.2005 0.75388,0.78287 1.13083,1.17432 0.1676,0.48746 0.26213,0.99599 0.30089,1.50996 0.0257,1.09736 -0.28772,2.11266 -0.43914,3.19139 -0.2926,1.60625 -0.76887,3.15571 -1.33069,4.68766 -0.59561,1.60111 -1.1172,3.25367 -1.98484,4.73298 -0.87743,1.26537 -1.80922,2.5536 -3.49939,2.62396 -0.33514,-0.0487 -0.67551,-0.0698 -1.00545,-0.14613 -0.85627,-0.19814 -1.50901,-1.01782 -2.09762,-1.59614 -1.01805,-1.30353 -1.7732,-2.73665 -2.06208,-4.38627 -0.24344,-1.94321 -0.12117,-3.8638 0.49576,-5.7361 0.57108,-1.64252 1.22262,-3.31179 2.40615,-4.6189 0.87663,-0.88978 1.81789,-1.71023 3.14065,-1.74826 1.00766,-0.10128 2.01737,-0.17103 3.00327,0.12794 2.7314,0.68287 1.76572,4.54564 -0.96569,3.8628 z"
       inkscape:connector-curvature="0" />
    <path
       style="fill:#204a87;fill-opacity:1;stroke:none"
       id="path8090-8"
       d="m 292.85209,519.252 c 0.13831,0.78965 0.3902,1.54221 0.60631,2.31153 0.13409,0.88532 0.53666,1.67353 0.8644,2.49366 0.3521,0.85511 0.73353,1.698 1.06571,2.56124 0.2732,0.72776 0.47375,1.49743 0.78575,2.21011 0.21978,0.75729 0.59378,1.43974 0.94279,2.14167 0.42768,0.81547 0.85158,1.63477 1.23979,2.47012 0.26324,0.64148 0.39229,1.33757 0.73485,1.94689 0.33189,0.4894 0.52358,1.04441 0.76678,1.57633 0.23749,0.61958 0.52037,1.21977 0.74501,1.84488 0.0293,0.0878 0.0537,0.17734 0.0879,0.26334 0.0357,0.0898 -0.17272,-0.34085 -0.108,-0.26908 0.37623,0.41724 0.25378,0.25369 0.49546,0.64045 0.0637,0.32368 0.12746,0.64736 0.19119,0.97105 -0.15456,2.11568 -3.14658,1.89709 -2.99202,-0.21859 l 0,0 c 0.069,0.25162 0.13799,0.50324 0.20699,0.75486 0.54162,0.47918 -0.73185,-0.67187 -0.70702,-1.13386 -0.19285,-0.5459 -0.4436,-1.06833 -0.64915,-1.60851 -0.22704,-0.49972 -0.39452,-1.00498 -0.71063,-1.45987 -0.32195,-0.65785 -0.58045,-1.34264 -0.78289,-2.04571 -0.3761,-0.81294 -0.79064,-1.60834 -1.20675,-2.40119 -0.37796,-0.76747 -0.78407,-1.5208 -1.03353,-2.3433 -0.2938,-0.74923 -0.54113,-1.52009 -0.8119,-2.27672 -0.31549,-0.85303 -0.70779,-1.67769 -1.04986,-2.52029 -0.35853,-0.91867 -0.80854,-1.80599 -0.96477,-2.79231 -0.21913,-0.79494 -0.47907,-1.57587 -0.62681,-2.3891 -0.51449,-2.05798 2.39593,-2.78559 2.91043,-0.7276 z"
       inkscape:connector-curvature="0" />
    <path
       style="fill:#204a87;fill-opacity:1;stroke:none"
       id="path8092-9"
       d="m 268.55527,529.55158 c 0.46012,0.86947 0.94659,1.72386 1.37775,2.60901 0.54044,0.88798 0.83093,1.88753 1.15222,2.86761 0.3658,0.88229 0.70514,1.78116 1.13687,2.63414 0.56879,0.87681 1.07508,1.78056 1.46947,2.74896 0.32181,0.89982 0.61449,1.80263 0.79978,2.74139 0.31006,0.76146 0.33869,1.60211 0.58475,2.37713 0.15488,0.74658 0.50169,1.42058 0.75613,2.13415 0.3106,0.52952 0.49898,1.118 0.82509,1.64188 0.34049,0.52996 0.73661,1.01732 1.11321,1.5205 0.0106,0.18252 0.93115,1.11556 0.29136,0.47356 -0.0346,-0.0261 -0.0751,-0.0363 -0.11586,-0.0487 2.06903,0.46809 1.40704,3.39414 -0.66199,2.92604 l 0,0 c -0.19268,-0.0486 -0.38309,-0.10309 -0.5617,-0.19304 -0.59743,-0.32235 -1.02427,-0.79184 -1.36358,-1.37369 -0.42655,-0.58774 -0.89855,-1.14196 -1.27626,-1.7651 -0.41408,-0.70768 -0.72081,-1.46029 -1.08316,-2.19421 -0.25829,-0.77307 -0.65126,-1.49999 -0.81057,-2.30696 -0.23197,-0.87059 -0.35113,-1.7678 -0.64331,-2.62435 -0.13911,-0.75094 -0.38976,-1.46475 -0.63578,-2.18564 -0.3592,-0.90064 -0.87514,-1.70974 -1.37488,-2.53837 -0.48407,-0.98847 -0.90067,-2.01013 -1.3009,-3.03502 -0.27824,-0.85267 -0.51965,-1.7202 -0.99884,-2.48841 -0.42503,-0.87584 -0.91204,-1.71731 -1.36308,-2.57927 -0.94868,-1.89736 1.7346,-3.239 2.68328,-1.34164 z"
       inkscape:connector-curvature="0" />
    <path
       style="fill:#204a87;fill-opacity:1;stroke:none"
       id="path5378-0"
       d="m 506.27202,565.4195 c 0.0149,-1.69067 0.46988,-3.35334 0.88164,-4.98335 0.73046,-3.35068 1.36011,-6.72205 2.05687,-10.07967 1.11018,-5.93622 2.64426,-11.77693 4.1146,-17.63015 1.55155,-5.72854 2.98214,-11.48301 4.21397,-17.2885 0.99794,-4.41993 1.73521,-8.88588 2.35298,-13.37255 0.32899,-2.32394 0.56696,-4.66794 0.19403,-6.9971 -0.0834,-0.39073 -0.0922,-0.47114 -0.19182,-0.81872 -0.0187,-0.0651 -0.09,-0.25574 -0.0625,-0.19371 0.16671,0.37579 0.26098,0.55561 0.59326,0.80802 1.07776,0.13938 1.35559,0.4555 2.15,-0.21723 0.18621,-0.15771 0.25584,-0.42221 0.43222,-0.59083 0.0793,-0.0758 -0.0815,0.204 -0.13034,0.30222 -0.12183,0.24467 -0.25965,0.4811 -0.38264,0.72517 -0.57036,1.17542 -1.46537,2.10004 -2.41196,2.97594 -0.8129,0.72352 -1.63089,1.44082 -2.26393,2.33207 -0.20472,0.10326 -0.5405,1.80194 -0.38294,1.04296 -0.12382,-1.01002 -0.53126,-1.27698 -1.44846,-1.503 -0.0438,-0.0106 -7.4e-4,-0.0931 0.0164,-0.1345 1.08813,-0.96874 1.74837,-2.27357 2.43365,-3.53354 0.63768,-1.24421 1.06488,-2.57525 1.592,-3.86411 0.4364,-1.01958 1.32343,-2.31001 2.63598,-2.03352 0.49578,0.10446 0.91568,0.43404 1.37353,0.65107 1.1787,1.24572 1.96982,2.78278 2.8207,4.25564 1.28765,2.255 2.70981,4.41075 4.29054,6.46836 0.99917,1.31901 2.19622,2.47073 3.21241,3.77521 1.71316,2.23427 -1.44659,4.65703 -3.15973,2.42276 l 0,0 c -0.98675,-1.3234 -2.25436,-2.42249 -3.21064,-3.7729 -1.686,-2.19644 -3.20594,-4.49682 -4.58068,-6.90236 -0.64094,-1.11046 -1.23927,-2.24494 -2.01563,-3.26876 1.59095,0.53395 1.35026,0.53387 2.57809,-0.54972 0.1411,-0.12448 -0.42181,0.60916 -0.27279,0.49426 -0.61297,1.39536 -1.02226,2.88664 -1.76722,4.22879 -0.95749,1.75518 -1.94627,3.52225 -3.52647,4.80305 -0.26894,0.18279 -0.51986,0.39538 -0.80681,0.54836 -1.26926,0.67666 -2.9539,0.53083 -3.77541,-0.78108 -0.1957,-0.31252 -0.24172,-0.69675 -0.36259,-1.04511 0.0232,-1.3248 0.39767,-2.5533 1.14916,-3.66169 0.80761,-1.07649 1.74542,-2.0251 2.76995,-2.8977 0.6054,-0.55746 1.20849,-1.10558 1.56825,-1.86398 0.39384,-0.76249 0.79275,-1.88175 1.75885,-2.04147 0.52772,-0.0872 1.06635,0.0848 1.59952,0.12728 1.19358,0.77962 1.49539,1.76306 1.71332,3.10596 0.40683,2.71452 0.22334,5.43927 -0.1848,8.14744 -0.63184,4.58139 -1.38455,9.14202 -2.40245,13.65561 -1.24251,5.85339 -2.68225,11.65624 -4.24722,17.43201 -1.45709,5.79984 -2.97864,11.587 -4.07772,17.46933 -0.70894,3.41389 -1.34536,6.84273 -2.09565,10.24807 -0.33282,1.30996 -0.7227,2.64932 -0.75975,4.00564 0,2.81548 -3.98169,2.81548 -3.98169,0 z"
       inkscape:connector-curvature="0" />
    <path
       style="fill:#204a87;fill-opacity:1;stroke:none"
       id="path5382-9"
       d="m 507.24253,476.48017 c -0.55613,-0.1889 -1.07056,-0.0863 -1.63914,-0.029 -0.80313,0.0655 -0.17106,0.0304 -0.22181,0.0914 -0.14412,0.17333 -0.31666,0.32092 -0.47392,0.48243 -0.71297,0.90662 -1.11822,2.03908 -1.48316,3.12334 -0.39258,1.27838 -0.52777,2.58205 -0.31748,3.90236 0.18371,0.95179 0.67113,1.73131 1.25396,2.4755 0.45345,0.47651 0.87722,0.47659 -0.0773,0.21359 -0.12371,-0.10008 -0.3195,0.0962 -0.40569,0.0624 -0.0628,-0.0249 0.0817,-0.10737 0.12039,-0.16266 0.18743,-0.26834 0.3693,-0.54051 0.55558,-0.80964 0.61231,-1.23653 1.04552,-2.55868 1.5253,-3.85196 0.47352,-1.31172 0.90268,-2.62855 1.14399,-4.00384 -0.0684,-0.76833 0.50938,-1.55941 0.38103,-2.30194 -0.019,-0.11666 -0.0386,-0.23361 -0.0697,-0.34758 0.33023,0.37057 0.53853,0.907 0.99071,1.11171 1.17798,0.53324 2.24073,-0.0933 2.50538,-1.17414 0.2579,0.71385 0.57055,1.43292 0.90406,2.12195 0.57916,1.24006 1.54004,2.24261 2.46635,3.23045 0.8447,0.8061 1.84711,1.42511 2.83246,2.043 0.52599,0.29253 1.06644,0.52194 1.5616,0.87311 2.25124,1.69079 -0.13995,4.87451 -2.39116,3.1837 l 0,0 c -0.28905,-0.14562 -0.91868,-0.43507 -1.29504,-0.68931 -1.26898,-0.80435 -2.55454,-1.61171 -3.61459,-2.68934 -1.20324,-1.2872 -2.40479,-2.61645 -3.15114,-4.23266 -0.55452,-1.1684 -1.14764,-2.38156 -1.29091,-3.67919 0.0221,-0.30366 0.009,-0.61211 0.0663,-0.91091 0.25707,-1.31878 1.67892,-2.24869 3.03134,-1.71185 0.50507,0.2005 0.75388,0.78287 1.13083,1.17432 0.1676,0.48746 0.26213,0.99599 0.30089,1.50996 0.0257,1.09736 -0.28772,2.11266 -0.43914,3.19139 -0.2926,1.60625 -0.76887,3.15571 -1.33069,4.68766 -0.59561,1.60111 -1.1172,3.25367 -1.98484,4.73298 -0.87743,1.26537 -1.80922,2.5536 -3.49939,2.62396 -0.33514,-0.0487 -0.67551,-0.0698 -1.00545,-0.14613 -0.85627,-0.19814 -1.50901,-1.01782 -2.09762,-1.59614 -1.01805,-1.30353 -1.7732,-2.73665 -2.06208,-4.38627 -0.24344,-1.94321 -0.12117,-3.8638 0.49576,-5.7361 0.57108,-1.64252 1.22262,-3.31179 2.40615,-4.6189 0.87663,-0.88978 1.81789,-1.71023 3.14065,-1.74826 1.00766,-0.10128 2.01737,-0.17103 3.00327,0.12794 2.7314,0.68287 1.76572,4.54564 -0.96569,3.8628 z"
       inkscape:connector-curvature="0" />
    <path
       style="fill:#204a87;fill-opacity:1;stroke:none"
       id="path5386-2"
       d="m 509.24079,563.40294 c 2.23016,0.57054 4.50734,0.93462 6.77066,1.34603 5.35723,0.87194 10.66345,2.02619 15.97763,3.12496 6.95401,1.47009 13.89083,3.0195 20.81924,4.6054 6.55254,1.51761 13.13231,2.91311 19.7007,4.35974 4.23578,0.96277 8.45823,1.98207 12.69548,2.93781 0.79193,0.17845 1.5839,0.35673 2.376,0.53456 0.11908,0.0266 0.48071,0.0768 0.3588,0.0726 -0.15507,-0.005 -0.31019,-0.006 -0.46528,-0.009 -0.36774,1.14229 -0.77459,2.27273 -1.10322,3.42688 -0.0214,0.0748 0.45279,0.26799 0.4255,0.25603 -0.0703,-0.0319 -0.14141,-0.062 -0.21245,-0.0925 -0.83652,-0.596 -1.22813,-1.36324 -1.74844,-2.19912 -0.90096,-1.38049 -2.04926,-2.58708 -3.15357,-3.80548 -1.64168,-1.78316 -3.23392,-3.6093 -4.9057,-5.36474 -0.58353,-0.57946 -1.06916,-1.24879 -1.62395,-1.85335 -0.0641,-0.0696 -0.29538,-0.23653 -0.22173,-0.17714 0.0437,0.0353 0.09,0.0676 0.13504,0.10114 2.10301,-2.84005 1.49064,-4.21407 2.79698,-2.75999 0.53599,0.59659 0.90506,1.31896 1.419,1.93425 1.32682,1.6394 3.02356,2.9057 4.6764,4.19158 1.85996,1.3753 3.74516,2.71195 5.49567,4.22683 0.97817,0.96919 2.09045,2.25307 1.61408,3.76211 -0.11625,0.36797 -0.37403,0.67513 -0.56198,1.01219 -0.75533,0.70279 -1.66729,1.18127 -2.409,1.89796 -0.81708,0.94018 -1.42532,2.03938 -2.03887,3.11725 -0.67934,1.0439 -1.4037,2.05775 -2.11734,3.07836 -0.39881,0.68119 -0.7349,0.92699 -1.40885,1.50564 -2.56172,1.16815 -4.21373,-2.45462 -1.65203,-3.62278 l 0,0 c -1.62504,1.54037 -0.46444,0.38777 -0.20225,-0.16447 0.6435,-0.92027 1.29058,-1.83825 1.92082,-2.76767 0.80982,-1.42025 1.62815,-2.86132 2.77032,-4.04644 0.23252,-0.21538 1.82338,-1.61724 2.13235,-1.6525 0.066,-0.007 -0.0703,0.1126 -0.10556,0.16878 -0.0682,0.18814 -0.17353,0.36677 -0.20413,0.5646 -0.13771,0.88486 0.66233,1.20935 -0.34577,0.15548 -1.69439,-1.472 -3.53612,-2.75017 -5.33236,-4.09267 -1.89556,-1.47477 -3.81842,-2.94946 -5.33176,-4.83581 -0.16382,-0.20754 -1.19026,-1.46862 -1.30531,-1.7994 -0.0167,-0.0478 0.0831,0.0579 0.12489,0.0863 0.73664,-1.10471 1.47328,-2.20941 2.20991,-3.31413 0.97288,0.68575 1.63355,1.68804 2.44964,2.53861 1.69325,1.77995 3.30982,3.62796 4.97217,5.43629 1.26405,1.39545 2.56642,2.78378 3.5835,4.3752 0.30199,0.48534 1.66452,2.37312 0.0546,0.69616 -0.24634,-0.0933 0.66194,0.29376 0.68796,0.41716 -0.32107,1.18224 -0.64212,2.36446 -0.96315,3.54667 -1.25367,0.0158 -2.44209,-0.43199 -3.66691,-0.66195 -4.2307,-0.95427 -8.44673,-1.97159 -12.67582,-2.93343 -6.57904,-1.44906 -13.16954,-2.84674 -19.7327,-4.36693 -6.90106,-1.57969 -13.81051,-3.12296 -20.73702,-4.58749 -5.2829,-1.09229 -10.55771,-2.2406 -15.88355,-3.10668 -2.41094,-0.43826 -4.83792,-0.82442 -7.20897,-1.45164 -2.6954,-0.81347 -1.54497,-4.62532 1.15043,-3.81187 z"
       inkscape:connector-curvature="0" />
    <path
       style="fill:#204a87;fill-opacity:1;stroke:none"
       id="path5388-8"
       d="m 589.08138,549.71677 c 0.009,1.00807 0.27742,2.00359 0.5447,2.97047 0.41333,1.66692 0.73195,3.36065 0.99836,5.05741 0.182,1.82282 0.43823,3.63717 0.62116,5.46005 0.20492,1.41699 0.0699,2.86506 0.24918,4.28083 0.0989,0.59033 0.20926,1.17876 0.33557,1.76382 0.17809,1.83018 -1.45936,3.15872 -3.13467,2.19047 -0.76757,-0.44359 -0.96611,-1.20496 -1.11135,-1.97978 -0.0627,-1.20601 -0.26304,-2.39646 -0.39019,-3.59694 -0.19152,-1.67953 -0.19451,-3.35093 0.11667,-5.01266 0.5318,-1.86185 1.08243,-2.89084 2.73567,-3.9793 1.4908,-0.74034 3.1498,-0.80082 4.77968,-0.84781 1.62025,-0.10379 3.13092,0.31778 4.48246,1.18772 1.53365,1.21975 1.87427,2.63361 1.7342,4.51722 -0.31542,1.75887 -1.29143,3.27227 -2.24612,4.74723 -0.92326,1.4506 -2.03876,2.69101 -3.46464,3.64953 -1.09562,0.66856 -2.3322,0.99953 -3.58649,1.20579 -0.0906,0.012 -0.18117,0.0241 -0.27176,0.0363 -2.79191,0.36348 -3.30596,-3.58486 -0.51404,-3.94834 l 0,0 c 0.0506,-0.007 0.10099,-0.012 0.1516,-0.0189 0.70471,-0.11029 1.41195,-0.26242 2.04312,-0.60839 0.98742,-0.60874 1.65956,-1.53106 2.30245,-2.484 0.61771,-0.94831 1.26547,-1.91222 1.62576,-2.99303 0.0347,-0.16423 -0.018,-0.35194 0.0615,-0.4998 0.0168,-0.0313 0.0766,0.0819 0.094,0.0508 0.0533,-0.0952 -0.1982,-0.35986 -0.23657,-0.40935 -0.19259,-0.43527 -1.68571,-0.47046 -2.0638,-0.4528 -0.94757,0.0257 -1.90315,0.0459 -2.82859,0.27339 -0.0809,0.029 -0.18577,0.007 -0.24985,0.0643 -0.36742,0.32903 -0.44405,0.87034 -0.64475,1.29299 -0.2854,1.25564 -0.16723,2.54064 -0.0606,3.81267 0.11759,1.12738 0.31972,2.24665 0.36135,3.3804 -0.0157,0.15685 0.012,-0.0313 -0.12979,-0.18837 -0.37979,-0.41944 -1.03952,-1.13159 -1.75324,-0.85197 -1.88943,0.74022 -1.6468,0.97228 -1.69424,2.30144 -0.15488,-0.71968 -0.29251,-1.44333 -0.40154,-2.17145 -0.14232,-1.43468 -0.0945,-2.88126 -0.25287,-4.31614 -0.17413,-1.75029 -0.4253,-3.4917 -0.59335,-5.2425 -0.24002,-1.55118 -0.53494,-3.09854 -0.90563,-4.6234 -0.35366,-1.31084 -0.6873,-2.65167 -0.68497,-4.01799 0,-2.81547 3.98166,-2.81547 3.98166,0 z"
       inkscape:connector-curvature="0" />
    <path
       style="fill:#204a87;fill-opacity:1;stroke:none"
       id="path8175"
       d="m 517.52071,546.34837 c 1.09947,0.26887 2.18431,0.59577 3.27115,0.91333 0.97244,0.30496 1.98497,0.40197 2.96852,0.6607 0.728,0.15334 1.366,0.55584 2.08757,0.73082 0.58254,0.2055 1.14668,0.44428 1.75485,0.56119 0.51254,0.122 0.96192,0.39373 1.46497,0.53868 1.48893,0.37751 1.61581,1.72155 0.91975,2.67888 0.18799,-0.33302 0.0712,0.21981 0.0641,0.35174 -0.2176,0.78973 -0.35227,1.59588 -0.54011,2.39226 -0.18265,0.88211 -0.5479,1.7056 -0.80126,2.56693 -0.18794,0.57237 -0.49683,1.08882 -0.67472,1.66363 -0.15576,0.37215 -0.37842,0.70747 -0.48729,1.09116 -0.0442,0.3754 -0.38448,0.92087 -0.4967,1.18508 -0.0478,0.18041 -0.0471,0.36864 -0.0513,0.55461 0.0486,0.62979 -0.0683,1.07919 -0.25319,1.70212 -0.24034,0.38431 -0.54275,0.59707 -0.92996,0.79471 -1.93131,0.87751 -3.1723,-1.85378 -1.24099,-2.73129 l 0,0 c -0.19995,0.11958 -0.3291,0.25347 -0.44521,0.46835 -0.29171,1.40117 -0.0651,0.0414 -0.12942,-0.31971 0.016,-0.49556 0.0558,-0.99304 0.22031,-1.46502 0.28063,-0.70766 0.4863,-0.84281 0.41433,-0.90957 0.11402,-0.41077 0.28713,-0.98826 0.5384,-1.27298 0.17737,-0.55595 0.41977,-1.08049 0.65883,-1.6116 0.24291,-0.81825 0.58342,-1.60012 0.76559,-2.43536 0.16078,-0.60139 0.19923,-1.34384 0.45846,-1.85936 0.0476,-0.7095 0.1446,-1.40784 0.56185,-2.00723 -0.67085,1.25022 1.98497,2.47699 0.60158,2.04061 -0.41386,-0.12327 -0.82236,-0.26717 -1.20254,-0.47413 -0.66595,-0.13498 -1.30983,-0.33671 -1.93549,-0.60292 -0.72003,-0.19748 -1.38403,-0.52342 -2.09364,-0.73243 -1.00447,-0.2712 -2.05036,-0.34368 -3.04036,-0.68077 -1.04827,-0.30757 -2.09415,-0.62662 -3.15569,-0.88201 -2.05798,-0.51449 -1.33038,-3.42492 0.72761,-2.91042 z"
       inkscape:connector-curvature="0" />
    <path
       style="fill:#204a87;fill-opacity:1;stroke:none"
       id="path5382-9-1"
       d="m 579.94025,513.87199 c -0.55613,-0.1889 -1.07056,-0.0863 -1.63914,-0.029 -0.80313,0.0655 -0.17106,0.0304 -0.22181,0.0914 -0.14412,0.17333 -0.31666,0.32092 -0.47392,0.48243 -0.71297,0.90662 -1.11822,2.03908 -1.48316,3.12334 -0.39258,1.27838 -0.52777,2.58205 -0.31748,3.90236 0.18371,0.95179 0.67113,1.73131 1.25396,2.4755 0.45345,0.47651 0.87722,0.47659 -0.0773,0.21359 -0.12371,-0.10008 -0.3195,0.0962 -0.40569,0.0624 -0.0628,-0.0249 0.0817,-0.10737 0.12039,-0.16266 0.18743,-0.26834 0.3693,-0.54051 0.55558,-0.80964 0.61231,-1.23653 1.04552,-2.55868 1.5253,-3.85196 0.47352,-1.31172 0.90268,-2.62855 1.14399,-4.00384 -0.0684,-0.76833 0.50938,-1.55941 0.38103,-2.30194 -0.019,-0.11666 -0.0386,-0.23361 -0.0697,-0.34758 0.33023,0.37057 0.53853,0.907 0.99071,1.11171 1.17798,0.53324 2.24073,-0.0933 2.50538,-1.17414 0.2579,0.71385 0.57055,1.43292 0.90406,2.12195 0.57916,1.24006 1.54004,2.24261 2.46635,3.23045 0.8447,0.8061 1.84711,1.42511 2.83246,2.043 0.52599,0.29253 1.06644,0.52194 1.5616,0.87311 2.25124,1.69079 -0.13995,4.87451 -2.39116,3.1837 l 0,0 c -0.28905,-0.14562 -0.91868,-0.43507 -1.29504,-0.68931 -1.26898,-0.80435 -2.55454,-1.61171 -3.61459,-2.68934 -1.20324,-1.2872 -2.40479,-2.61645 -3.15114,-4.23266 -0.55452,-1.1684 -1.14764,-2.38156 -1.29091,-3.67919 0.0221,-0.30366 0.009,-0.61211 0.0663,-0.91091 0.25707,-1.31878 1.67892,-2.24869 3.03134,-1.71185 0.50507,0.2005 0.75388,0.78287 1.13083,1.17432 0.1676,0.48746 0.26213,0.99599 0.30089,1.50996 0.0257,1.09736 -0.28772,2.11266 -0.43914,3.19139 -0.2926,1.60625 -0.76887,3.15571 -1.33069,4.68766 -0.59561,1.60111 -1.1172,3.25367 -1.98484,4.73298 -0.87743,1.26537 -1.80922,2.5536 -3.49939,2.62396 -0.33514,-0.0487 -0.67551,-0.0698 -1.00545,-0.14613 -0.85627,-0.19814 -1.50901,-1.01782 -2.09762,-1.59614 -1.01805,-1.30353 -1.7732,-2.73665 -2.06208,-4.38627 -0.24344,-1.94321 -0.12117,-3.8638 0.49576,-5.7361 0.57108,-1.64252 1.22262,-3.31179 2.40615,-4.6189 0.87663,-0.88978 1.81789,-1.71023 3.14065,-1.74826 1.00766,-0.10128 2.01737,-0.17103 3.00327,0.12794 2.7314,0.68287 1.76572,4.54564 -0.96569,3.8628 z"
       inkscape:connector-curvature="0" />
    <path
       style="fill:#204a87;fill-opacity:1;stroke:none"
       id="path5388-8-8"
       d="m 602.81456,504.43973 c 0.009,1.00807 0.27742,2.00359 0.5447,2.97047 0.41333,1.66692 0.73195,3.36065 0.99836,5.05741 0.182,1.82282 0.43823,3.63717 0.62116,5.46005 0.20492,1.41699 0.0699,2.86506 0.24918,4.28083 0.0989,0.59033 0.20926,1.17876 0.33557,1.76382 0.17809,1.83018 -1.45936,3.15872 -3.13467,2.19047 -0.76757,-0.44359 -0.96611,-1.20496 -1.11135,-1.97978 -0.0627,-1.20601 -0.26304,-2.39646 -0.39019,-3.59694 -0.19152,-1.67953 -0.19451,-3.35093 0.11667,-5.01266 0.5318,-1.86185 1.08243,-2.89084 2.73567,-3.9793 1.4908,-0.74034 3.1498,-0.80082 4.77968,-0.84781 1.62025,-0.10379 3.13092,0.31778 4.48246,1.18772 1.53365,1.21975 1.87427,2.63361 1.7342,4.51722 -0.31542,1.75887 -1.29143,3.27227 -2.24612,4.74723 -0.92326,1.4506 -2.03876,2.69101 -3.46464,3.64953 -1.09562,0.66856 -2.3322,0.99953 -3.58649,1.20579 -0.0906,0.012 -0.18117,0.0241 -0.27176,0.0363 -2.79191,0.36348 -3.30596,-3.58486 -0.51404,-3.94834 l 0,0 c 0.0506,-0.007 0.10099,-0.012 0.1516,-0.0189 0.70471,-0.11029 1.41195,-0.26242 2.04312,-0.60839 0.98742,-0.60874 1.65956,-1.53106 2.30245,-2.484 0.61771,-0.94831 1.26547,-1.91222 1.62576,-2.99303 0.0347,-0.16423 -0.018,-0.35194 0.0615,-0.4998 0.0168,-0.0313 0.0766,0.0819 0.094,0.0508 0.0533,-0.0952 -0.1982,-0.35986 -0.23657,-0.40935 -0.19259,-0.43527 -1.68571,-0.47046 -2.0638,-0.4528 -0.94757,0.0257 -1.90315,0.0459 -2.82859,0.27339 -0.0809,0.029 -0.18577,0.007 -0.24985,0.0643 -0.36742,0.32903 -0.44405,0.87034 -0.64475,1.29299 -0.2854,1.25564 -0.16723,2.54064 -0.0606,3.81267 0.11759,1.12738 0.31972,2.24665 0.36135,3.3804 -0.0157,0.15685 0.012,-0.0313 -0.12979,-0.18837 -0.37979,-0.41944 -1.03952,-1.13159 -1.75324,-0.85197 -1.88943,0.74022 -1.6468,0.97228 -1.69424,2.30144 -0.15488,-0.71968 -0.29251,-1.44333 -0.40154,-2.17145 -0.14232,-1.43468 -0.0945,-2.88126 -0.25287,-4.31614 -0.17413,-1.75029 -0.4253,-3.4917 -0.59335,-5.2425 -0.24002,-1.55118 -0.53494,-3.09854 -0.90563,-4.6234 -0.35366,-1.31084 -0.6873,-2.65167 -0.68497,-4.01799 0,-2.81547 3.98166,-2.81547 3.98166,0 z"
       inkscape:connector-curvature="0" />
    <path
       style="fill:#204a87;fill-opacity:1;stroke:none"
       id="path8213"
       d="m 593.61091,515.36553 c -1.05834,0.60228 -1.83903,0.87109 -3.05722,0.43348 -1.17007,-0.766 -1.4908,-2.02108 -1.19447,-3.32886 0.49341,-1.21124 1.41148,-1.85717 2.72795,-1.84755 1.1035,0.25414 1.73259,0.94016 2.01293,2.0112 0.11684,1.36438 -0.67046,2.17637 -1.89915,2.5917 -0.13487,0.0302 -0.26975,0.0605 -0.40463,0.0907 -2.08086,0.41231 -2.66395,-2.53048 -0.58309,-2.94278 l 0,0 c 0.0212,-6.8e-4 0.0423,-10e-4 0.0635,-0.002 0.0509,-0.0143 0.18182,-0.0808 0.15441,-0.0357 -0.2417,0.39833 -0.38701,0.49509 -0.24636,1.00596 0.11476,0.10317 0.38829,0.30504 0.69344,0.2736 0.48931,-0.15619 0.38506,-0.17419 0.36945,-0.33481 -0.007,-0.0277 -0.049,-0.2074 -0.0557,-0.17925 -0.0176,0.0741 0.076,0.26513 0.009,0.22834 -0.0591,-0.0326 -0.10101,-0.0897 -0.15151,-0.1345 -0.0945,-0.0467 -0.18898,-0.0934 -0.28347,-0.14006 -0.1673,-0.008 -0.20648,-0.0195 -0.41078,0.0503 -0.0281,0.01 -0.0896,0.0746 -0.0616,0.0646 0.33962,-0.12212 0.63855,-0.35749 0.97528,-0.48764 1.89737,-0.94869 3.23901,1.73459 1.34164,2.68328 z"
       inkscape:connector-curvature="0" />
    <path
       style="fill:#204a87;fill-opacity:1;stroke:none"
       id="path8215"
       d="m 620.33374,511.37727 c 1.1972,-0.13015 2.40684,-0.0438 3.6085,-0.0188 0.72856,0.0138 0.37033,0.008 1.07466,0.0186 2.12107,0.0331 2.07432,3.03269 -0.0467,2.99964 l 0,0 c -0.71623,-0.0112 -0.35274,-0.005 -1.09047,-0.0189 -0.93888,-0.0196 -1.88199,-0.0325 -2.81834,-0.0702 -2.05798,0.51449 -2.78559,-2.39593 -0.7276,-2.91043 z"
       inkscape:connector-curvature="0" />
    <path
       style="fill:#204a87;fill-opacity:1;stroke:none"
       id="path8217"
       d="m 621.20262,515.93859 c 0.98998,0.0552 1.96153,-0.15407 2.93699,-0.28994 0.75042,-0.0878 0.3758,-0.0487 1.12385,-0.11743 2.11259,-0.1923 2.38454,2.79535 0.27196,2.98765 l 0,0 c -0.65113,0.0586 -0.32359,0.025 -0.98259,0.10118 -1.11175,0.15434 -2.22197,0.37663 -3.35021,0.31854 -2.12133,0 -2.12133,-3 0,-3 z"
       inkscape:connector-curvature="0" />
    <path
       style="fill:#204a87;fill-opacity:1;stroke:none"
       id="path8219"
       d="m 633.85127,508.35229 c -0.49415,0.10329 -0.75293,0.58714 -0.91505,1.02676 -0.57311,1.30186 -0.70028,2.71348 -0.80003,4.11461 -0.0865,1.46752 -0.14215,2.93133 0.0428,4.39129 0.19235,0.95686 0.56928,1.85086 1.11551,2.65823 0.29429,0.5535 0.75839,0.96299 1.2197,1.37208 0.54282,0.1125 -0.0708,0.0727 0.2681,-0.0243 0.62583,-0.23533 1.12053,-0.60357 1.59372,-1.06889 0.83352,-0.79073 1.49642,-1.7221 2.02482,-2.73839 0.67067,-1.23832 1.15901,-2.56077 1.48454,-3.92883 0.19877,-1.09414 0.33009,-2.19982 0.16259,-3.30314 -0.20916,-0.64784 -0.63028,-1.12387 -1.14192,-1.55603 -0.60288,-0.55257 -1.39175,-0.78287 -2.13241,-1.09126 -0.60367,-0.18652 -1.11991,-0.54458 -1.64335,-0.88563 -0.30482,-0.19789 -0.0833,-0.0423 -0.59068,-0.55757 -1.26039,-1.70629 1.15266,-3.48875 2.41305,-1.78247 l 0,0 c -0.34088,-0.28139 -0.41451,-0.32273 -0.18461,-0.17347 0.49006,0.31933 0.58634,0.4489 1.161,0.63056 1.04768,0.4381 2.13585,0.81923 2.97461,1.62164 1.0126,0.9289 1.83407,1.99557 2.11476,3.37419 0.19965,1.48231 0.0826,2.96326 -0.21698,4.42787 -0.39452,1.61279 -0.96143,3.17721 -1.75542,4.63943 -0.69831,1.28061 -1.51909,2.48372 -2.59069,3.48561 -0.89374,0.84706 -1.88282,1.51305 -3.08172,1.84753 -1.05808,0.18911 -2.00467,0.009 -2.85154,-0.67374 -0.66179,-0.58848 -1.3052,-1.20816 -1.74705,-1.98662 -0.76006,-1.20636 -1.34531,-2.49746 -1.57313,-3.91684 -0.20247,-1.65577 -0.16533,-3.31475 -0.0578,-4.9782 0.13068,-1.7738 0.33566,-3.55115 1.08403,-5.18836 0.76067,-1.47248 1.86673,-2.64038 3.62319,-2.73604 2.12132,0 2.12132,3 0,3 z"
       inkscape:connector-curvature="0" />
  </g>
</svg>
