<?xml version="1.0" encoding="UTF-8" standalone="no"?>
<!-- Created with Inkscape (http://www.inkscape.org/) -->

<svg
   xmlns:dc="http://purl.org/dc/elements/1.1/"
   xmlns:cc="http://creativecommons.org/ns#"
   xmlns:rdf="http://www.w3.org/1999/02/22-rdf-syntax-ns#"
   xmlns:svg="http://www.w3.org/2000/svg"
   xmlns="http://www.w3.org/2000/svg"
   xmlns:sodipodi="http://sodipodi.sourceforge.net/DTD/sodipodi-0.dtd"
   xmlns:inkscape="http://www.inkscape.org/namespaces/inkscape"
   width="289.98825"
   height="95.709045"
   id="svg4803"
   version="1.1"
   inkscape:version="0.48.3.1 r9886"
   sodipodi:docname="vector_scaling.svg">
  <defs
     id="defs4805" />
  <sodipodi:namedview
     id="base"
     pagecolor="#ffffff"
     bordercolor="#666666"
     borderopacity="1.0"
     inkscape:pageopacity="0.0"
     inkscape:pageshadow="2"
     inkscape:zoom="1.4"
     inkscape:cx="207.68434"
     inkscape:cy="-0.77959353"
     inkscape:document-units="px"
     inkscape:current-layer="layer1"
     showgrid="false"
     inkscape:window-width="848"
     inkscape:window-height="789"
     inkscape:window-x="711"
     inkscape:window-y="71"
     inkscape:window-maximized="0"
     fit-margin-top="0"
     fit-margin-left="0"
     fit-margin-right="0"
     fit-margin-bottom="0" />
  <metadata
     id="metadata4808">
    <rdf:RDF>
      <cc:Work
         rdf:about="">
        <dc:format>image/svg+xml</dc:format>
        <dc:type
           rdf:resource="http://purl.org/dc/dcmitype/StillImage" />
        <dc:title></dc:title>
      </cc:Work>
    </rdf:RDF>
  </metadata>
  <g
     inkscape:label="Layer 1"
     inkscape:groupmode="layer"
     id="layer1"
     transform="translate(-215.42482,-456.0766)">
    <path
       style="fill:#204a87;fill-opacity:1;stroke:none"
       id="path5378"
       d="m 215.80721,543.4279 c 0.87577,-1.25967 2.06704,-2.27334 3.20925,-3.28461 2.26101,-2.1381 4.45702,-4.34325 6.69633,-6.50378 3.86782,-3.882 8.00456,-7.47564 12.09993,-11.11125 4.09247,-3.50063 8.10753,-7.08255 11.9997,-10.80435 3.00829,-2.8028 5.84473,-5.77341 8.60219,-8.82065 1.43502,-1.57377 2.81207,-3.20912 3.72361,-5.14573 0.1373,-0.33554 0.17182,-0.40031 0.27488,-0.7118 0.0193,-0.0584 0.0633,-0.23772 0.0523,-0.17715 -0.0672,0.36694 -0.0885,0.54995 0.0315,0.90907 0.7366,0.65562 0.7832,1.03465 1.7227,0.93663 0.22023,-0.023 0.40768,-0.18566 0.62612,-0.22185 0.0982,-0.0162 -0.16539,0.11125 -0.25224,0.15988 -0.21644,0.12111 -0.44066,0.22785 -0.65765,0.34791 -1.02862,0.58941 -2.17235,0.82481 -3.32982,0.99731 -0.97933,0.12665 -1.95931,0.24602 -2.88959,0.59038 -0.20626,-0.0273 -1.32662,1.07431 -0.82039,0.58596 0.42368,-0.82042 0.2548,-1.22889 -0.31715,-1.86734 -0.0274,-0.0303 0.0471,-0.0702 0.0811,-0.0924 1.31104,-0.16972 2.47322,-0.81016 3.63122,-1.4042 1.11425,-0.60654 2.11514,-1.38582 3.16936,-2.08236 0.84851,-0.54111 2.17332,-1.0548 3.0158,-0.17633 0.31821,0.33183 0.46442,0.79361 0.69663,1.19042 0.24651,1.53654 0.0535,3.09327 -0.0619,4.63243 -0.18795,2.3488 -0.22432,4.69198 -0.0916,7.0427 0.0744,1.49966 0.38278,2.97513 0.47742,4.47261 0.14161,2.55086 -3.46586,2.75111 -3.60745,0.20026 l 0,0 c -0.0629,-1.4966 -0.45103,-2.9687 -0.47727,-4.46997 -0.1406,-2.50862 -0.10358,-5.01021 0.0961,-7.5164 0.0874,-1.16015 0.21907,-2.31651 0.16068,-3.48098 0.91951,1.21382 0.73914,1.09069 2.21363,0.90632 0.16943,-0.0211 -0.6277,0.24091 -0.45723,0.231 -1.17304,0.73248 -2.24245,1.64103 -3.48721,2.26613 -1.61528,0.82603 -3.2601,1.64496 -5.09957,1.79696 -0.29507,-5.1e-4 -0.59187,0.0305 -0.8852,-0.002 -1.29745,-0.14186 -2.48566,-1.11265 -2.43058,-2.51615 0.0131,-0.33434 0.17511,-0.64588 0.26265,-0.96883 0.69486,-0.98119 1.6038,-1.71056 2.7339,-2.15711 1.15588,-0.39392 2.34395,-0.62541 3.55815,-0.75558 0.73888,-0.10828 1.47124,-0.21074 2.12874,-0.59526 0.68515,-0.37015 1.55653,-1.00514 2.36238,-0.63082 0.44018,0.20449 0.75597,0.60885 1.1339,0.91336 0.49601,1.19477 0.21934,2.08628 -0.30404,3.20435 -1.08318,2.24282 -2.6141,4.19143 -4.30494,6.01273 -2.81644,3.11105 -5.71287,6.14473 -8.78403,9.00754 -3.92466,3.75225 -7.97133,7.36575 -12.09801,10.89491 -4.05813,3.60238 -8.15809,7.16228 -11.99004,11.00957 -2.27721,2.19647 -4.50769,4.44125 -6.81152,6.61018 -0.91936,0.81173 -1.89654,1.61632 -2.6179,2.61406 -1.43977,2.11045 -4.4244,0.0743 -2.98463,-2.03615 z"
       inkscape:connector-curvature="0" />
    <path
       style="fill:#204a87;fill-opacity:1;stroke:none"
       id="path5382"
       d="m 245.81464,482.63777 c -0.50465,-0.17141 -0.97144,-0.0784 -1.48737,-0.0263 -0.72877,0.0594 -0.15523,0.0276 -0.20128,0.0829 -0.13077,0.15728 -0.28734,0.29121 -0.43004,0.43777 -0.64695,0.82267 -1.01468,1.85027 -1.34583,2.83414 -0.35623,1.16002 -0.4789,2.34298 -0.28808,3.54104 0.1667,0.86366 0.60899,1.571 1.13785,2.24629 0.41147,0.43239 0.796,0.43246 -0.0701,0.19381 -0.11225,-0.0908 -0.28991,0.0873 -0.36813,0.0566 -0.057,-0.0226 0.0742,-0.0974 0.10924,-0.1476 0.17009,-0.2435 0.33511,-0.49046 0.50414,-0.73467 0.55562,-1.12204 0.94872,-2.32177 1.38407,-3.49531 0.42968,-1.19026 0.81911,-2.38517 1.03807,-3.63312 -0.062,-0.69719 0.46222,-1.41502 0.34575,-2.0888 -0.0173,-0.10586 -0.035,-0.21199 -0.0632,-0.3154 0.29965,0.33626 0.48866,0.82303 0.89898,1.00878 1.0689,0.48387 2.03325,-0.0847 2.2734,-1.06543 0.23402,0.64776 0.51772,1.30025 0.82035,1.92548 0.52554,1.12524 1.39745,2.03496 2.23799,2.93134 0.76649,0.73146 1.67609,1.29316 2.57019,1.85384 0.4773,0.26544 0.9677,0.47361 1.41702,0.79226 2.04279,1.53425 -0.12699,4.42318 -2.16976,2.88892 l 0,0 c -0.26229,-0.13214 -0.83362,-0.39478 -1.17513,-0.62549 -1.15149,-0.72987 -2.31802,-1.46247 -3.27991,-2.44032 -1.09184,-1.16802 -2.18213,-2.3742 -2.85938,-3.84076 -0.50317,-1.06021 -1.04137,-2.16105 -1.17138,-3.33853 0.02,-0.27554 0.008,-0.55544 0.0601,-0.82657 0.23326,-1.19667 1.52346,-2.04048 2.75065,-1.55335 0.45831,0.18194 0.68408,0.71039 1.02613,1.06559 0.15208,0.44233 0.23787,0.90377 0.27304,1.37016 0.0233,0.99575 -0.26109,1.91704 -0.39848,2.89589 -0.26552,1.45753 -0.69769,2.86352 -1.20749,4.25363 -0.54046,1.45286 -1.01375,2.95241 -1.80105,4.29474 -0.7962,1.14821 -1.64171,2.31717 -3.17539,2.38101 -0.30411,-0.0442 -0.61296,-0.0634 -0.91235,-0.1326 -0.77699,-0.17979 -1.36929,-0.92358 -1.9034,-1.44835 -0.92379,-1.18284 -1.60901,-2.48326 -1.87115,-3.98014 -0.2209,-1.76329 -0.10995,-3.50605 0.44985,-5.20499 0.51821,-1.49044 1.10942,-3.00515 2.18337,-4.19124 0.79546,-0.80739 1.64957,-1.55187 2.84985,-1.58638 0.91436,-0.0919 1.83059,-0.1552 2.7252,0.11609 2.4785,0.61965 1.60223,4.12476 -0.87628,3.50514 z"
       inkscape:connector-curvature="0" />
    <path
       style="fill:#a40000;fill-opacity:1;stroke:none"
       id="path5388"
       d="m 328.15951,458.12784 c 0.008,0.91474 0.25174,1.81808 0.49428,2.69544 0.37505,1.51257 0.66417,3.04948 0.90591,4.58914 0.16515,1.65404 0.39765,3.30039 0.56365,4.9545 0.18595,1.28578 0.0634,2.59977 0.22611,3.88446 0.0897,0.53566 0.18988,1.06962 0.3045,1.6005 0.1616,1.66073 -1.32424,2.86625 -2.84444,1.98766 -0.69649,-0.40252 -0.87665,-1.0934 -1.00844,-1.79647 -0.0569,-1.09434 -0.23869,-2.17457 -0.35406,-3.2639 -0.17379,-1.52402 -0.17651,-3.04066 0.10587,-4.54854 0.48256,-1.68945 0.9822,-2.62317 2.48237,-3.61085 1.35276,-0.67179 2.85815,-0.72667 4.33712,-0.76931 1.47023,-0.0942 2.84102,0.28836 4.06743,1.07775 1.39164,1.10682 1.70073,2.38976 1.57363,4.09897 -0.28622,1.59601 -1.17186,2.96928 -2.03815,4.30767 -0.83778,1.31629 -1.84999,2.44186 -3.14385,3.31163 -0.99417,0.60665 -2.11626,0.90698 -3.25441,1.09414 -0.0822,0.0109 -0.1644,0.0219 -0.2466,0.0329 -2.53341,0.32982 -2.99986,-3.25294 -0.46645,-3.58277 l 0,0 c 0.0459,-0.006 0.0916,-0.0109 0.13757,-0.0172 0.63946,-0.10008 1.28122,-0.23812 1.85394,-0.55206 0.89599,-0.55237 1.5059,-1.38929 2.08927,-2.254 0.56051,-0.86051 1.1483,-1.73516 1.47522,-2.71591 0.0315,-0.14902 -0.0163,-0.31935 0.0558,-0.45352 0.0153,-0.0284 0.0695,0.0743 0.0853,0.0461 0.0484,-0.0864 -0.17985,-0.32654 -0.21467,-0.37144 -0.17476,-0.39497 -1.52963,-0.4269 -1.87271,-0.41088 -0.85984,0.0233 -1.72693,0.0416 -2.56668,0.24808 -0.0734,0.0263 -0.16857,0.006 -0.22672,0.0583 -0.33341,0.29856 -0.40294,0.78975 -0.58506,1.17327 -0.25897,1.13938 -0.15174,2.3054 -0.055,3.45965 0.1067,1.023 0.29012,2.03863 0.32789,3.0674 -0.0143,0.14233 0.0109,-0.0284 -0.11777,-0.17092 -0.34463,-0.38061 -0.94327,-1.02682 -1.59091,-0.77309 -1.71448,0.67169 -1.49432,0.88226 -1.53737,2.08835 -0.14054,-0.65304 -0.26542,-1.30969 -0.36436,-1.97039 -0.12914,-1.30184 -0.0857,-2.61448 -0.22945,-3.91651 -0.15802,-1.58823 -0.38592,-3.1684 -0.53841,-4.75709 -0.2178,-1.40756 -0.48542,-2.81165 -0.82178,-4.19532 -0.32092,-1.18946 -0.62367,-2.40614 -0.62155,-3.64596 0,-2.55478 3.613,-2.55478 3.613,0 z"
       inkscape:connector-curvature="0" />
    <path
       style="fill:#a40000;fill-opacity:1;stroke:none"
       id="path5536"
       d="m 311.74781,547.0984 c 0.70814,-0.57342 1.43141,-1.12143 2.1422,-1.69209 1.03859,-0.86722 2.18034,-1.59355 3.296,-2.35405 1.46505,-0.97084 2.89124,-1.99783 4.2523,-3.10989 1.46698,-1.29607 3.00424,-2.50817 4.50266,-3.7668 1.51112,-1.21904 2.97456,-2.49718 4.42649,-3.78596 1.30198,-1.11091 2.5802,-2.248 3.88838,-3.35152 1.30561,-1.10967 2.585,-2.24824 3.86889,-3.38289 1.47939,-1.32828 3.00025,-2.60986 4.52562,-3.88487 1.55562,-1.34926 3.13338,-2.67226 4.66574,-4.04813 1.77313,-1.56461 3.57087,-3.10076 5.3491,-4.65946 1.89424,-1.61498 3.79988,-3.21665 5.71147,-4.81106 1.94058,-1.64539 3.84514,-3.33383 5.74498,-5.0262 1.73269,-1.56447 3.39945,-3.19801 5.1312,-4.76343 1.61803,-1.44674 3.18219,-2.9516 4.73433,-4.46828 1.76646,-1.66671 3.57699,-3.28465 5.43633,-4.84688 2.01917,-1.75555 4.17763,-3.33657 6.36053,-4.87964 2.48716,-1.69992 4.94322,-3.44334 7.4041,-5.18053 2.67285,-1.90474 5.42857,-3.68691 8.17932,-5.4758 2.37793,-1.48537 4.6135,-3.17764 6.88525,-4.81601 1.70134,-1.22821 3.29591,-2.59383 4.96713,-3.86153 0.88221,-0.65188 1.71055,-1.38715 2.48915,-2.15965 0.11998,-0.12758 0.23824,-0.25719 0.34745,-0.39411 -1.26791,2.00178 3.38524,3.35299 0.66847,2.90284 -0.28476,-0.10755 -0.57714,-0.19231 -0.87007,-0.2741 -2.68363,-0.75126 -1.6212,-4.54649 1.06243,-3.79524 l 0,0 c 0.2863,0.0803 0.57913,0.15956 0.85193,0.26908 -0.12253,-0.008 -0.24561,-0.0101 -0.36758,-0.0244 -0.10026,-0.0117 0.2444,-0.0804 0.3028,0.002 1.48272,2.09011 2.37501,1.90433 1.63745,3.0966 -0.25865,0.37868 -0.56608,0.72052 -0.88849,1.04589 -0.90831,0.87038 -1.83207,1.73446 -2.85363,2.4725 -1.69754,1.28422 -3.31093,2.67644 -5.04197,3.91684 -2.32331,1.67496 -4.61028,3.40402 -7.04168,4.92319 -2.70888,1.76167 -5.42329,3.51579 -8.05533,5.39176 -2.46048,1.73637 -4.91531,3.48018 -7.40214,5.17916 -2.09393,1.47944 -4.16529,2.99418 -6.10073,4.67931 -1.78452,1.49751 -3.5198,3.05106 -5.21638,4.6476 -1.58875,1.55228 -3.19003,3.09222 -4.84596,4.57317 -1.73898,1.57164 -3.41072,3.21394 -5.15257,4.78261 -1.93194,1.72066 -3.86846,3.43756 -5.84221,5.11001 -1.8871,1.57341 -3.76745,3.15505 -5.63792,4.74818 -1.76675,1.54825 -3.55232,3.07473 -5.31425,4.62856 -1.56728,1.40623 -3.17922,2.76045 -4.77068,4.13901 -1.49763,1.25182 -2.99133,2.5095 -4.44334,3.81415 -1.30654,1.15464 -2.6091,2.31277 -3.93756,3.44219 -1.28387,1.08302 -2.53795,2.19938 -3.8162,3.28913 -1.48041,1.30914 -2.96654,2.61426 -4.50564,3.85422 -1.51344,1.27017 -3.06397,2.4958 -4.54638,3.80297 -1.45113,1.181 -2.96439,2.28079 -4.52491,3.31323 -1.03271,0.70224 -2.09078,1.37143 -3.05151,2.17343 -0.59904,0.47732 -1.1847,0.97042 -1.81776,1.40167 -1.97057,1.97057 -4.75737,-0.81624 -2.78681,-2.78681 z"
       inkscape:connector-curvature="0" />
    <path
       style="fill:#a40000;fill-opacity:1;stroke:none"
       id="path5538"
       d="m 408.33818,461.06949 c 0.8166,-0.19981 1.7153,-0.26122 2.57006,-0.32129 1.00428,-0.0559 2.00516,-0.0374 3.00222,-0.17423 0.818,-0.0842 1.61865,-0.21548 2.41803,-0.40407 0.50664,-0.10983 1.01483,-0.2156 1.53006,-0.27497 1.7092,0.0987 2.39463,1.06107 2.57132,2.66525 0.006,0.82208 0.17353,1.6265 0.27072,2.44086 0.0985,0.91594 0.14071,1.8364 0.16178,2.75694 0.0238,0.19868 -0.0113,0.4002 0.007,0.59907 0.003,0.0325 2.5e-4,-0.0672 0.0139,-0.0968 0.004,-0.009 0.0651,0.14537 0.13016,0.34112 0.19733,0.54538 0.22912,1.12157 0.24636,1.69535 0.0784,2.7857 -3.86119,2.89654 -3.93957,0.11085 l 0,0 c -0.007,-0.28978 0.0199,-0.37249 -0.0559,-0.59097 -0.19465,-0.6443 -0.40251,-1.28289 -0.34192,-1.96935 -0.0179,-0.79633 -0.0527,-1.59262 -0.13573,-2.38519 -0.0974,-0.84069 -0.27301,-1.67423 -0.27953,-2.52307 -0.0158,-0.30655 0.10376,0.12355 0.20924,0.24069 0.49114,0.54546 0.80804,0.62589 1.5288,0.63733 -0.33034,0.0407 -0.67978,0.12252 -1.01364,0.18916 -0.92323,0.21683 -1.8519,0.3728 -2.79509,0.47365 -1.08282,0.14357 -2.16627,0.15936 -3.25659,0.20011 -0.95369,0.0644 -1.89566,0.19922 -2.84152,0.33064 -2.7868,0 -2.7868,-3.94113 0,-3.94113 z"
       inkscape:connector-curvature="0" />
    <path
       style="fill:#a40000;fill-opacity:1;stroke:none"
       id="path5562"
       d="m 344.56006,463.86751 c 1.45091,-0.32885 2.92421,-0.53798 4.39657,-0.74693 1.75076,-0.23614 3.51387,-0.35835 5.27803,-0.43306 0.15346,-0.006 0.30692,-0.0105 0.46038,-0.0158 2.78519,-0.0949 2.91942,3.84394 0.13424,3.93885 l 0,0 c -0.14284,0.005 -0.28567,0.01 -0.4285,0.0145 -1.63487,0.0687 -3.26887,0.1803 -4.89149,0.39762 -1.33661,0.18889 -2.67573,0.37343 -3.99336,0.6682 -2.7036,0.67589 -3.65946,-3.14756 -0.95587,-3.82346 z"
       inkscape:connector-curvature="0" />
    <path
       style="fill:#a40000;fill-opacity:1;stroke:none"
       id="path5566"
       d="m 347.07619,469.828 c 1.16193,-0.0277 2.31647,-0.2663 3.45643,-0.48229 1.87843,-0.3789 3.75938,-0.71809 5.66448,-0.92996 0.90412,-0.0933 1.81142,-0.15948 2.72005,-0.1856 0.14438,-0.006 0.28857,-0.002 0.43273,0.006 2.77924,0.20523 2.489,4.13567 -0.29023,3.93044 l 0,0 c 0.17695,0.008 0.0218,-7.9e-4 -0.0318,0.004 -0.80094,0.0218 -1.60062,0.0826 -2.39763,0.16327 -1.80587,0.19838 -3.58671,0.52865 -5.36738,0.8856 -1.38135,0.25931 -2.77716,0.53478 -4.18665,0.55053 -2.78681,0 -2.78681,-3.94113 0,-3.94113 z"
       inkscape:connector-curvature="0" />
    <path
       style="fill:#a40000;fill-opacity:1;stroke:none"
       id="path5570"
       d="m 360.47942,457.59926 c 0.82906,-0.32873 1.63438,-0.70659 2.48678,-0.9741 1.0169,-0.43422 2.07137,-0.5767 3.1691,-0.5441 1.5073,0.12862 2.73299,0.92206 3.82033,1.91459 1.06454,1.01717 1.58048,2.39013 1.96086,3.7776 0.37336,1.77054 -0.0432,3.45078 -0.64585,5.11092 -0.61316,1.53743 -1.49183,2.94176 -2.36947,4.33733 -0.77066,1.25748 -1.75267,2.35058 -2.94253,3.21712 -0.54745,0.36958 -1.08748,0.73803 -1.63436,1.1047 0.14695,-0.13337 -0.39804,0.28768 -0.31218,0.19903 0.17566,-0.18133 0.46628,-0.27982 0.55384,-0.51661 0.47336,-1.28008 0.45597,-2.60105 -1.23666,-3.00514 0.90683,0.006 1.81373,0.002 2.72057,3.7e-4 1.87524,-0.003 3.75048,-0.003 5.62572,-0.004 1.25098,0.0456 2.49835,0.16915 3.73737,0.3454 0.31225,0.0485 0.13496,0.0152 0.52968,0.11087 2.66768,0.8061 1.52767,4.57876 -1.14,3.77265 l 0,0 c 0.2523,0.0517 0.27102,0.0523 0.0532,0.0181 -1.05413,-0.15118 -2.11533,-0.25581 -3.17917,-0.30583 -1.87347,5.3e-4 -3.74695,0.002 -5.62042,0.004 -1.01196,0.002 -2.02461,0.0159 -3.03621,-0.0125 -2.29661,-0.32237 -2.75606,-2.76631 -0.88466,-3.88365 0.52466,-0.3484 1.04444,-0.70115 1.56387,-1.0565 0.79725,-0.49704 1.35026,-1.32232 1.86568,-2.08606 0.73164,-1.16334 1.47531,-2.32695 2.00682,-3.59966 0.33384,-0.89165 0.648,-1.77537 0.53434,-2.74369 -0.16669,-0.67611 -0.37008,-1.40834 -0.8594,-1.92179 -0.34879,-0.36314 -0.77725,-0.69997 -1.26824,-0.83915 -0.66175,-0.04 -1.24955,0.11142 -1.86621,0.37691 -0.64627,0.18324 -1.23432,0.51518 -1.87031,0.72832 -2.49259,1.2463 -4.25511,-2.27876 -1.76253,-3.52505 z"
       inkscape:connector-curvature="0" />
    <path
       style="fill:#a40000;fill-opacity:1;stroke:none"
       id="path5582"
       d="m 384.46847,466.60308 c -0.44426,-0.0177 -0.83317,0.0293 -1.25782,0.19553 -0.24198,0.15381 -0.5566,0.39589 -0.74514,0.69195 -0.36753,0.50126 -0.6175,1.08748 -0.80824,1.67732 -0.15409,0.53573 -0.18909,1.07884 -0.10442,1.62515 0.16169,0.39287 0.40655,0.70589 0.68759,1.01914 0.0335,-0.0254 0.46402,0.0443 -0.0162,-0.053 -0.57762,0.0697 -0.27677,-0.027 -0.005,-0.30419 0.1864,-0.19015 0.34793,-0.40319 0.5213,-0.60529 0.57485,-1.01319 1.17959,-2.01473 1.6982,-3.05825 0.35481,-0.73861 0.53494,-1.53348 0.61998,-2.34362 0.0218,-0.22689 0.0339,-0.4754 0.0313,-0.69581 0.16003,2.17139 2.78077,2.38204 3.56681,0.80249 0.0273,-0.12823 0.02,-0.26913 0.082,-0.3847 0.0289,-0.0541 0.0121,0.12249 0.0266,0.18212 0.0415,0.17172 0.1005,0.33872 0.15191,0.50773 0.0906,0.29794 0.19462,0.59166 0.2893,0.88834 0.31523,1.01272 0.82915,1.93889 1.42925,2.80728 0.59875,0.72901 1.14156,1.51408 1.7987,2.19312 0.12795,0.0284 0.77388,0.9677 0.6614,0.7127 2.15828,1.76298 -0.33495,4.81525 -2.49322,3.05228 l 0,0 c -0.38628,-0.33096 -0.69238,-0.72157 -1.05135,-1.078 -0.77236,-0.84406 -1.47661,-1.74918 -2.17057,-2.6581 -0.80541,-1.19015 -1.50149,-2.45195 -1.9289,-3.83141 -0.3606,-1.13074 -0.79469,-2.25276 -0.58813,-3.46139 0.16296,-0.45116 0.52996,-1.37398 1.06265,-1.51099 1.30375,-0.33534 2.94915,-0.60738 3.10141,1.616 0.0148,0.43416 -0.0123,0.86857 -0.0529,1.30075 -0.14984,1.272 -0.4471,2.51919 -1.01671,3.67485 -0.67301,1.32224 -1.39539,2.63369 -2.23285,3.85818 -0.8994,1.03905 -1.83789,2.02694 -3.25632,2.26943 -1.28538,-0.0222 -2.2654,-0.34104 -3.19094,-1.28107 -0.78126,-0.90122 -1.40275,-1.90686 -1.6316,-3.09579 -0.14308,-1.154 -0.0759,-2.30483 0.2802,-3.41912 0.34779,-0.99421 0.77402,-1.97567 1.42013,-2.8159 0.72852,-0.89988 1.58272,-1.61588 2.67424,-2.03957 0.79547,-0.23578 1.6107,-0.42539 2.44734,-0.37934 2.7868,0 2.7868,3.94113 0,3.94113 z"
       inkscape:connector-curvature="0" />
    <path
       style="fill:#a40000;fill-opacity:1;stroke:none"
       id="path5378-8"
       d="m 485.14411,498.05453 c -0.87578,1.25967 -2.06705,2.27334 -3.20925,3.28461 -2.26101,2.13809 -4.45703,4.34325 -6.69633,6.50377 -3.86783,3.88201 -8.00457,7.47565 -12.09993,11.11126 -4.09247,3.50063 -8.10753,7.08254 -11.99971,10.80434 -3.00829,2.80281 -5.84473,5.77341 -8.60219,8.82066 -1.43501,1.57376 -2.81207,3.20911 -3.7236,5.14573 -0.1373,0.33553 -0.17182,0.40031 -0.27489,0.71179 -0.0193,0.0584 -0.0633,0.23772 -0.0523,0.17715 0.0672,-0.36694 0.0885,-0.54994 -0.0315,-0.90907 -0.7366,-0.65561 -0.7832,-1.03464 -1.7227,-0.93662 -0.22023,0.023 -0.40768,0.18565 -0.62612,0.22185 -0.0982,0.0162 0.1654,-0.11125 0.25224,-0.15989 0.21645,-0.1211 0.44067,-0.22784 0.65766,-0.34791 1.02862,-0.58941 2.17234,-0.8248 3.32981,-0.99731 0.97934,-0.12664 1.95931,-0.24602 2.8896,-0.59037 0.20625,0.0273 1.32662,-1.07431 0.82038,-0.58597 -0.42368,0.82043 -0.25479,1.22889 0.31716,1.86735 0.0274,0.0303 -0.0471,0.0702 -0.0811,0.0924 -1.31104,0.16971 -2.47322,0.81015 -3.63122,1.40419 -1.11425,0.60654 -2.11514,1.38582 -3.16936,2.08237 -0.84851,0.54111 -2.17333,1.0548 -3.01581,0.17632 -0.3182,-0.33182 -0.46442,-0.7936 -0.69663,-1.19041 -0.24651,-1.53655 -0.0535,-3.09327 0.0619,-4.63243 0.18795,-2.34881 0.22432,-4.69198 0.0916,-7.0427 -0.0744,-1.49967 -0.38278,-2.97513 -0.47742,-4.47261 -0.14162,-2.55086 3.46585,-2.75111 3.60744,-0.20027 l 0,0 c 0.0629,1.49661 0.45104,2.96871 0.47728,4.46998 0.1406,2.50862 0.10357,5.01021 -0.0961,7.51639 -0.0874,1.16015 -0.21907,2.31652 -0.16068,3.48098 -0.9195,-1.21382 -0.73913,-1.09068 -2.21362,-0.90632 -0.16943,0.0211 0.6277,-0.24091 0.45723,-0.23099 1.17303,-0.73249 2.24244,-1.64104 3.4872,-2.26613 1.61528,-0.82604 3.2601,-1.64497 5.09958,-1.79696 0.29506,5e-4 0.59187,-0.0305 0.88519,0.002 1.29745,0.14185 2.48566,1.11265 2.43058,2.51615 -0.0131,0.33433 -0.17511,0.64588 -0.26265,0.96882 -0.69485,0.9812 -1.6038,1.71057 -2.7339,2.15711 -1.15588,0.39393 -2.34395,0.62542 -3.55815,0.75559 -0.73887,0.10828 -1.47124,0.21074 -2.12874,0.59525 -0.68515,0.37016 -1.55652,1.00515 -2.36238,0.63083 -0.44017,-0.20449 -0.75597,-0.60885 -1.13389,-0.91336 -0.49602,-1.19478 -0.21934,-2.08629 0.30403,-3.20435 1.08319,-2.24282 2.61411,-4.19143 4.30494,-6.01274 2.81645,-3.11104 5.71288,-6.14473 8.78404,-9.00753 3.92465,-3.75225 7.97132,-7.36576 12.098,-10.89492 4.05813,-3.60237 8.15809,-7.16228 11.99004,-11.00956 2.27721,-2.19648 4.5077,-4.44126 6.81153,-6.61018 0.91936,-0.81173 1.89653,-1.61633 2.61789,-2.61407 1.43978,-2.11045 4.4244,-0.0743 2.98463,2.03615 z"
       inkscape:connector-curvature="0" />
    <path
       style="fill:#a40000;fill-opacity:1;stroke:none"
       id="path5631"
       d="m 460.62056,539.35157 c -0.43856,-0.12187 -0.8822,-0.21657 -1.33574,-0.25606 -0.21959,-0.002 -0.44522,-0.0497 -0.66509,-0.0311 -0.0256,0.002 0.0702,0.0271 0.0587,0.0501 -0.0147,0.0295 -0.0503,0.0426 -0.0754,0.0638 -0.82191,0.42245 -1.42761,1.10275 -1.9788,1.82688 -0.63525,0.98305 -0.76017,2.14803 -0.86512,3.28571 -0.0672,0.99671 0.25824,1.84713 0.8027,2.65593 0.33163,0.38966 0.71301,0.7327 1.21724,0.86431 0.1108,0.0376 0.81272,0.11627 0.38188,0.026 2.68184,-0.75763 3.75328,3.03506 1.07144,3.7927 l 0,0 c -0.94483,0.23769 -1.87608,0.20656 -2.80047,-0.115 -1.2923,-0.50212 -2.3832,-1.28823 -3.1858,-2.43766 -0.98851,-1.57737 -1.55887,-3.27491 -1.40996,-5.16422 0.1878,-1.88825 0.53708,-3.75431 1.67707,-5.32733 0.91643,-1.16208 1.94152,-2.22972 3.27947,-2.90809 0.92344,-0.44043 1.85005,-0.66167 2.8723,-0.50484 0.64654,0.0661 1.28509,0.17918 1.91145,0.35535 2.70359,0.6759 1.74773,4.49936 -0.95587,3.82346 z"
       inkscape:connector-curvature="0" />
    <path
       style="fill:#a40000;fill-opacity:1;stroke:none"
       id="path5633"
       d="m 466.65496,537.90558 c 1.01729,-0.0266 2.0403,0.056 3.05416,-0.0412 0.60745,-0.0702 1.21275,-0.15701 1.81954,-0.23236 2.76568,-0.34252 3.25007,3.56873 0.4844,3.91125 l 0,0 c -0.66221,0.0818 -1.32238,0.17953 -1.98606,0.2494 -1.12267,0.0812 -2.24684,0.0508 -3.37204,0.0541 -2.78681,0 -2.78681,-3.94113 0,-3.94113 z"
       inkscape:connector-curvature="0" />
    <path
       style="fill:#a40000;fill-opacity:1;stroke:none"
       id="path5635"
       d="m 467.53622,544.18058 c 0.62057,0.25477 1.33007,0.17004 1.98871,0.16364 0.51806,-0.068 1.01891,-0.21651 1.52599,-0.33543 0.36933,-0.0737 0.29066,-0.0657 -0.21913,0.0909 2.44633,-1.33481 4.33404,2.12483 1.88771,3.45964 l 0,0 c -0.72608,0.28661 -0.4491,0.22809 -0.79713,0.29307 -0.78407,0.16107 -1.55187,0.42332 -2.36311,0.43283 -1.28777,0.0101 -2.60675,0.0191 -3.78557,-0.57957 -2.4926,-1.2463 -0.73007,-4.77135 1.76253,-3.52505 z"
       inkscape:connector-curvature="0" />
    <path
       style="fill:#a40000;fill-opacity:1;stroke:none"
       id="path5637"
       d="m 479.03247,539.98204 c 1.13945,0.19878 2.30434,0.0761 3.45285,0.0292 0.90826,-0.006 1.81237,-0.13583 2.69525,-0.34438 0.0364,5e-4 0.27216,-0.0867 0.0686,-0.0147 2.58566,-1.03956 4.05581,2.6171 1.47016,3.65666 l 0,0 c -0.21068,0.0793 -0.42503,0.14691 -0.64493,0.19642 -1.12455,0.25934 -2.27283,0.42879 -3.42848,0.44381 -1.46129,0.0596 -2.94018,0.18465 -4.38634,-0.10253 -2.73269,-0.54654 -1.95977,-4.41114 0.77292,-3.8646 z"
       inkscape:connector-curvature="0" />
    <path
       style="fill:#a40000;fill-opacity:1;stroke:none"
       id="path5645"
       d="m 496.53068,537.46745 c -0.0455,-0.12683 -1.25174,0.1271 -0.83094,0.10013 -0.52655,0.49245 -0.74538,1.18198 -0.95853,1.85036 -0.30876,1.30098 -0.63179,2.60981 -0.65835,3.9521 -0.0266,0.78362 0.0698,1.61988 0.3053,2.32082 0.14522,-0.28396 -0.65048,-0.50979 -0.63278,-0.59688 0.006,-0.0307 0.0627,-7.9e-4 0.0941,-0.002 -0.20463,-0.0659 -0.0995,-0.006 0.0117,-0.12509 0.0163,-0.0176 -0.0477,-0.005 -0.0716,-0.007 0.05,-0.0515 0.0999,-0.10296 0.14984,-0.15444 0.0869,-0.0898 0.17374,-0.17957 0.26061,-0.26935 0.63409,-0.66611 1.14999,-1.45596 1.55398,-2.2805 0.50843,-0.96116 0.7582,-2.00603 0.90486,-3.07452 0.0139,-0.14357 0.03,-0.28693 0.0416,-0.43069 0.0295,-0.36609 0.0431,-0.73364 0.0497,-1.10079 0.006,-0.30658 0.0314,-0.36427 -0.0176,-0.21478 -0.10424,-0.21477 -0.34303,-0.38077 0.23977,0.38404 0.1141,0.14972 0.24056,0.21267 0.3904,0.30312 0.39554,0.10745 0.83808,0.42096 -0.40581,-0.11289 -0.32848,-0.14097 -0.59359,-0.40695 -0.8335,-0.66199 -1.29353,-1.62072 0.32314,-1.08082 3.17564,-2.28195 0.22688,0.39955 0.45999,0.78237 0.65008,1.22864 0.24619,0.58778 0.3847,1.21085 0.58262,1.81475 0.23004,0.60368 0.55182,1.17136 0.83055,1.75541 0.32483,0.78995 0.67116,1.5665 1.10645,2.30193 0.33755,0.62809 0.6951,1.24324 1.06554,1.85085 0.25747,0.39987 0.498,0.80511 0.72583,1.22267 0.0251,0.0459 -0.0439,-0.0949 -0.0658,-0.14234 0.13774,0.19283 0.26619,0.39204 0.39074,0.59356 0.0251,0.0408 0.10643,0.15857 0.0747,0.12272 -0.50798,-0.57362 -0.14546,-0.27998 -0.54227,-0.57293 -0.14332,-0.0761 -0.0759,-0.0456 -0.20032,-0.0957 2.6574,0.83935 1.47038,4.59748 -1.18702,3.75813 l 0,0 c -0.32826,-0.11419 -0.15448,-0.0456 -0.5185,-0.21275 -0.49525,-0.32029 -0.89516,-0.72708 -1.18085,-1.24259 -0.29996,-0.45659 -0.56888,-0.92744 -0.86616,-1.38687 -0.37906,-0.62965 -0.7554,-1.26032 -1.10063,-1.90985 -0.48104,-0.83322 -0.90385,-1.69556 -1.25895,-2.59032 -0.36229,-0.76018 -0.78415,-1.49734 -1.04284,-2.30184 -0.15414,-0.52268 -0.27165,-1.05428 -0.49329,-1.55481 -0.0537,-0.0953 -0.33137,-0.54247 -0.44764,-0.78468 1.70036,-0.81815 4.43663,-0.80475 3.25509,-2.18219 -0.29152,-0.28123 -0.55032,-0.25601 -0.93055,-0.40665 -0.27169,-0.10764 1.62557,0.34033 0.85222,0.20581 0.90576,0.47374 1.44512,1.25041 1.62211,2.25105 0.11517,0.98233 0.0598,1.96684 -0.0594,2.94892 -0.21836,1.49784 -0.58864,2.96453 -1.29763,4.31363 -0.61108,1.16707 -1.31929,2.30133 -2.24829,3.24494 -0.95888,0.97021 -2.00021,1.73635 -3.42814,1.72954 -1.23519,-0.104 -2.27194,-0.59552 -2.81941,-1.77772 -0.49002,-1.28491 -0.66016,-2.64155 -0.62318,-4.01642 0.0768,-1.71768 0.40271,-3.40346 0.85864,-5.06073 0.50764,-1.48051 1.16288,-2.8901 2.45967,-3.84712 0.25377,-0.1496 0.49517,-0.32251 0.76131,-0.4488 0.71167,-0.33774 1.53787,-0.34775 2.30687,-0.3479 2.7868,0 2.7868,3.94114 0,3.94114 z"
       inkscape:connector-curvature="0" />
  </g>
</svg>
