<?xml version="1.0" encoding="UTF-8" standalone="no"?>
<!-- Created with Inkscape (http://www.inkscape.org/) -->

<svg
   xmlns:dc="http://purl.org/dc/elements/1.1/"
   xmlns:cc="http://creativecommons.org/ns#"
   xmlns:rdf="http://www.w3.org/1999/02/22-rdf-syntax-ns#"
   xmlns:svg="http://www.w3.org/2000/svg"
   xmlns="http://www.w3.org/2000/svg"
   xmlns:sodipodi="http://sodipodi.sourceforge.net/DTD/sodipodi-0.dtd"
   xmlns:inkscape="http://www.inkscape.org/namespaces/inkscape"
   width="387.4455"
   height="123.89941"
   id="svg4803"
   version="1.1"
   inkscape:version="0.48.3.1 r9886"
   sodipodi:docname="vector_cross.svg">
  <defs
     id="defs4805" />
  <sodipodi:namedview
     id="base"
     pagecolor="#ffffff"
     bordercolor="#666666"
     borderopacity="1.0"
     inkscape:pageopacity="0.0"
     inkscape:pageshadow="2"
     inkscape:zoom="1.979899"
     inkscape:cx="176.97486"
     inkscape:cy="72.308244"
     inkscape:document-units="px"
     inkscape:current-layer="layer1"
     showgrid="false"
     inkscape:window-width="858"
     inkscape:window-height="789"
     inkscape:window-x="701"
     inkscape:window-y="71"
     inkscape:window-maximized="0"
     fit-margin-top="0"
     fit-margin-left="0"
     fit-margin-right="10"
     fit-margin-bottom="0" />
  <metadata
     id="metadata4808">
    <rdf:RDF>
      <cc:Work
         rdf:about="">
        <dc:format>image/svg+xml</dc:format>
        <dc:type
           rdf:resource="http://purl.org/dc/dcmitype/StillImage" />
        <dc:title></dc:title>
      </cc:Work>
    </rdf:RDF>
  </metadata>
  <g
     inkscape:label="Layer 1"
     inkscape:groupmode="layer"
     id="layer1"
     transform="translate(-265.67202,-472.40263)">
    <path
       style="fill:#204a87;fill-opacity:1;stroke:none"
       id="path5378"
       d="m 299.28405,571.97288 c 0.0149,-1.69067 0.46988,-3.35334 0.88164,-4.98335 0.73046,-3.35068 1.36011,-6.72205 2.05687,-10.07967 1.11018,-5.93622 2.64426,-11.77693 4.1146,-17.63015 1.55155,-5.72854 2.98214,-11.48301 4.21397,-17.2885 0.99794,-4.41993 1.73521,-8.88588 2.35298,-13.37255 0.32899,-2.32394 0.56696,-4.66794 0.19403,-6.9971 -0.0834,-0.39073 -0.0922,-0.47114 -0.19182,-0.81872 -0.0187,-0.0651 -0.09,-0.25574 -0.0625,-0.19371 0.16671,0.37579 0.26098,0.55561 0.59326,0.80802 1.07776,0.13938 1.35559,0.4555 2.15,-0.21723 0.18621,-0.15771 0.25584,-0.42221 0.43222,-0.59083 0.0793,-0.0758 -0.0815,0.204 -0.13034,0.30222 -0.12183,0.24467 -0.25965,0.4811 -0.38264,0.72517 -0.57036,1.17542 -1.46537,2.10004 -2.41196,2.97594 -0.8129,0.72352 -1.63089,1.44082 -2.26393,2.33207 -0.20472,0.10326 -0.5405,1.80194 -0.38294,1.04296 -0.12382,-1.01002 -0.53126,-1.27698 -1.44846,-1.503 -0.0438,-0.0106 -7.4e-4,-0.0931 0.0164,-0.1345 1.08813,-0.96874 1.74837,-2.27357 2.43365,-3.53354 0.63768,-1.24421 1.06488,-2.57525 1.592,-3.86411 0.4364,-1.01958 1.32343,-2.31001 2.63598,-2.03352 0.49578,0.10446 0.91568,0.43404 1.37353,0.65107 1.1787,1.24572 1.96982,2.78278 2.8207,4.25564 1.28765,2.255 2.70981,4.41075 4.29054,6.46836 0.99917,1.31901 2.19622,2.47073 3.21241,3.77521 1.71316,2.23427 -1.44659,4.65703 -3.15973,2.42276 l 0,0 c -0.98675,-1.3234 -2.25436,-2.42249 -3.21064,-3.7729 -1.686,-2.19644 -3.20594,-4.49682 -4.58068,-6.90236 -0.64094,-1.11046 -1.23927,-2.24494 -2.01563,-3.26876 1.59095,0.53395 1.35026,0.53387 2.57809,-0.54972 0.1411,-0.12448 -0.42181,0.60916 -0.27279,0.49426 -0.61297,1.39536 -1.02226,2.88664 -1.76722,4.22879 -0.95749,1.75518 -1.94627,3.52225 -3.52647,4.80305 -0.26894,0.18279 -0.51986,0.39538 -0.80681,0.54836 -1.26926,0.67666 -2.9539,0.53083 -3.77541,-0.78108 -0.1957,-0.31252 -0.24172,-0.69675 -0.36259,-1.04511 0.0232,-1.3248 0.39767,-2.5533 1.14916,-3.66169 0.80761,-1.07649 1.74542,-2.0251 2.76995,-2.8977 0.6054,-0.55746 1.20849,-1.10558 1.56825,-1.86398 0.39384,-0.76249 0.79275,-1.88175 1.75885,-2.04147 0.52772,-0.0872 1.06635,0.0848 1.59952,0.12728 1.19358,0.77962 1.49539,1.76306 1.71332,3.10596 0.40683,2.71452 0.22334,5.43927 -0.1848,8.14744 -0.63184,4.58139 -1.38455,9.14202 -2.40245,13.65561 -1.24251,5.85339 -2.68225,11.65624 -4.24722,17.43201 -1.45709,5.79984 -2.97864,11.587 -4.07772,17.46933 -0.70894,3.41389 -1.34536,6.84273 -2.09565,10.24807 -0.33282,1.30996 -0.7227,2.64932 -0.75975,4.00564 0,2.81548 -3.98169,2.81548 -3.98169,0 z"
       inkscape:connector-curvature="0" />
    <path
       style="fill:#204a87;fill-opacity:1;stroke:none"
       id="path5382"
       d="m 300.25456,483.03355 c -0.55613,-0.1889 -1.07056,-0.0863 -1.63914,-0.029 -0.80313,0.0655 -0.17106,0.0304 -0.22181,0.0914 -0.14412,0.17333 -0.31666,0.32092 -0.47392,0.48243 -0.71297,0.90662 -1.11822,2.03908 -1.48316,3.12334 -0.39258,1.27838 -0.52777,2.58205 -0.31748,3.90236 0.18371,0.95179 0.67113,1.73131 1.25396,2.4755 0.45345,0.47651 0.87722,0.47659 -0.0773,0.21359 -0.12371,-0.10008 -0.3195,0.0962 -0.40569,0.0624 -0.0628,-0.0249 0.0817,-0.10737 0.12039,-0.16266 0.18743,-0.26834 0.3693,-0.54051 0.55558,-0.80964 0.61231,-1.23653 1.04552,-2.55868 1.5253,-3.85196 0.47352,-1.31172 0.90268,-2.62855 1.14399,-4.00384 -0.0684,-0.76833 0.50938,-1.55941 0.38103,-2.30194 -0.019,-0.11666 -0.0386,-0.23361 -0.0697,-0.34758 0.33023,0.37057 0.53853,0.907 0.99071,1.11171 1.17798,0.53324 2.24073,-0.0933 2.50538,-1.17414 0.2579,0.71385 0.57055,1.43292 0.90406,2.12195 0.57916,1.24006 1.54004,2.24261 2.46635,3.23045 0.8447,0.8061 1.84711,1.42511 2.83246,2.043 0.52599,0.29253 1.06644,0.52194 1.5616,0.87311 2.25124,1.69079 -0.13995,4.87451 -2.39116,3.1837 l 0,0 c -0.28905,-0.14562 -0.91868,-0.43507 -1.29504,-0.68931 -1.26898,-0.80435 -2.55454,-1.61171 -3.61459,-2.68934 -1.20324,-1.2872 -2.40479,-2.61645 -3.15114,-4.23266 -0.55452,-1.1684 -1.14764,-2.38156 -1.29091,-3.67919 0.0221,-0.30366 0.009,-0.61211 0.0663,-0.91091 0.25707,-1.31878 1.67892,-2.24869 3.03134,-1.71185 0.50507,0.2005 0.75388,0.78287 1.13083,1.17432 0.1676,0.48746 0.26213,0.99599 0.30089,1.50996 0.0257,1.09736 -0.28772,2.11266 -0.43914,3.19139 -0.2926,1.60625 -0.76887,3.15571 -1.33069,4.68766 -0.59561,1.60111 -1.1172,3.25367 -1.98484,4.73298 -0.87743,1.26537 -1.80922,2.5536 -3.49939,2.62396 -0.33514,-0.0487 -0.67551,-0.0698 -1.00545,-0.14613 -0.85627,-0.19814 -1.50901,-1.01782 -2.09762,-1.59614 -1.01805,-1.30353 -1.7732,-2.73665 -2.06208,-4.38627 -0.24344,-1.94321 -0.12117,-3.8638 0.49576,-5.7361 0.57108,-1.64252 1.22262,-3.31179 2.40615,-4.6189 0.87663,-0.88978 1.81789,-1.71023 3.14065,-1.74826 1.00766,-0.10128 2.01737,-0.17103 3.00327,0.12794 2.7314,0.68287 1.76572,4.54564 -0.96569,3.8628 z"
       inkscape:connector-curvature="0" />
    <path
       style="fill:#204a87;fill-opacity:1;stroke:none"
       id="path5386"
       d="m 302.36733,569.87212 c 2.23598,-0.5473 4.41618,-1.29885 6.60644,-2.00213 5.13634,-1.7545 10.36067,-3.23594 15.56588,-4.77007 6.82662,-1.97907 13.67544,-3.88007 20.53403,-5.74492 6.49487,-1.74802 12.95623,-3.61659 19.43165,-5.4347 4.1899,-1.14609 8.39466,-2.23604 12.58254,-3.38903 0.78262,-0.21564 1.5652,-0.43146 2.34767,-0.64773 0.11759,-0.0326 0.46022,-0.1587 0.35069,-0.10499 -0.13926,0.0684 -0.27629,0.1411 -0.41444,0.21165 0.21372,1.18084 0.38736,2.36965 0.64116,3.54253 0.0164,0.0761 0.52564,0.0231 0.49594,0.0254 -0.077,0.005 -0.15396,0.0119 -0.23097,0.0185 -1.01865,-0.13167 -1.72551,-0.62398 -2.57823,-1.1162 -1.44504,-0.79331 -3.02634,-1.31671 -4.5744,-1.87125 -2.28812,-0.79957 -4.55286,-1.66034 -6.85447,-2.42128 -0.7877,-0.23626 -1.53137,-0.5979 -2.30553,-0.86984 -0.0893,-0.0312 -0.37198,-0.0695 -0.27904,-0.0518 0.0552,0.0105 0.11123,0.0172 0.16676,0.0256 0.5172,-3.49586 -0.67023,-4.41941 1.16706,-3.75215 0.75383,0.27376 1.41967,0.7371 2.16286,1.03774 1.94266,0.82109 4.03586,1.1388 6.09956,1.49447 2.28853,0.33697 4.58111,0.62796 6.83884,1.13962 1.3194,0.39413 2.90533,1.00268 3.19599,2.5582 0.0708,0.37934 -0.0119,0.77172 -0.0189,1.15758 -0.33522,0.97574 -0.91426,1.8274 -1.2309,2.80899 -0.27785,1.21423 -0.29658,2.47035 -0.33004,3.71016 -0.10749,1.24084 -0.26885,2.47638 -0.41757,3.71283 -0.0309,0.78874 -0.21158,1.16388 -0.53348,1.99178 -1.7094,2.23717 -4.87321,-0.18025 -3.16383,-2.41742 l 0,0 c -0.70782,2.12427 -0.22702,0.56084 -0.25588,-0.0498 0.13411,-1.1149 0.27247,-2.22947 0.39058,-3.34619 0.0453,-1.63428 0.0883,-3.29093 0.53753,-4.87436 0.10365,-0.29952 0.84656,-2.2855 1.10249,-2.46215 0.0547,-0.0377 -0.009,0.13245 -0.0136,0.1986 0.0285,0.19807 0.0197,0.40527 0.0859,0.59419 0.29536,0.8454 1.15393,0.75476 -0.23176,0.30004 -2.18803,-0.50027 -4.41472,-0.76016 -6.63159,-1.09822 -2.36678,-0.40794 -4.75761,-0.80296 -6.98112,-1.75401 -0.24228,-0.1059 -1.74175,-0.73477 -1.99906,-0.97235 -0.0372,-0.0343 0.1006,0.0119 0.15083,0.0173 0.12939,-1.32147 0.25878,-2.64293 0.38816,-3.9644 1.18121,0.1466 2.23613,0.71949 3.35668,1.08534 2.33209,0.77245 4.6286,1.64105 6.9468,2.45309 1.77237,0.63546 3.57519,1.2466 5.22202,2.17127 0.49501,0.28585 2.58617,1.30921 0.3761,0.58836 -0.26128,0.0337 0.72227,-0.0527 0.80335,0.0439 0.27371,1.19409 0.54742,2.38816 0.82114,3.58221 -1.0984,0.60453 -2.35765,0.76934 -3.54639,1.14347 -4.18141,1.1512 -8.37958,2.23987 -12.56314,3.38363 -6.48595,1.82098 -12.95781,3.69268 -19.46326,5.44344 -6.83154,1.85744 -13.65333,3.75096 -20.45307,5.72198 -5.17457,1.52511 -10.36839,2.997 -15.47427,4.74187 -2.33313,0.74914 -4.65587,1.55179 -7.04283,2.11545 -2.7608,0.55216 -3.54166,-3.35219 -0.78087,-3.90437 z"
       inkscape:connector-curvature="0" />
    <path
       style="fill:#204a87;fill-opacity:1;stroke:none"
       id="path5388"
       d="m 389.66955,532.53157 c 0.009,1.00807 0.27742,2.00359 0.5447,2.97047 0.41333,1.66692 0.73195,3.36065 0.99836,5.05741 0.182,1.82282 0.43823,3.63717 0.62116,5.46005 0.20492,1.41699 0.0699,2.86506 0.24918,4.28083 0.0989,0.59033 0.20926,1.17876 0.33557,1.76382 0.17809,1.83018 -1.45936,3.15872 -3.13467,2.19047 -0.76757,-0.44359 -0.96611,-1.20496 -1.11135,-1.97978 -0.0627,-1.20601 -0.26304,-2.39646 -0.39019,-3.59694 -0.19152,-1.67953 -0.19451,-3.35093 0.11667,-5.01266 0.5318,-1.86185 1.08243,-2.89084 2.73567,-3.9793 1.4908,-0.74034 3.1498,-0.80082 4.77968,-0.84781 1.62025,-0.10379 3.13092,0.31778 4.48246,1.18772 1.53365,1.21975 1.87427,2.63361 1.7342,4.51722 -0.31542,1.75887 -1.29143,3.27227 -2.24612,4.74723 -0.92326,1.4506 -2.03876,2.69101 -3.46464,3.64953 -1.09562,0.66856 -2.3322,0.99953 -3.58649,1.20579 -0.0906,0.012 -0.18117,0.0241 -0.27176,0.0363 -2.79191,0.36348 -3.30596,-3.58486 -0.51404,-3.94834 l 0,0 c 0.0506,-0.007 0.10099,-0.012 0.1516,-0.0189 0.70471,-0.11029 1.41195,-0.26242 2.04312,-0.60839 0.98742,-0.60874 1.65956,-1.53106 2.30245,-2.484 0.61771,-0.94831 1.26547,-1.91222 1.62576,-2.99303 0.0347,-0.16423 -0.018,-0.35194 0.0615,-0.4998 0.0168,-0.0313 0.0766,0.0819 0.094,0.0508 0.0533,-0.0952 -0.1982,-0.35986 -0.23657,-0.40935 -0.19259,-0.43527 -1.68571,-0.47046 -2.0638,-0.4528 -0.94757,0.0257 -1.90315,0.0459 -2.82859,0.27339 -0.0809,0.029 -0.18577,0.007 -0.24985,0.0643 -0.36742,0.32903 -0.44405,0.87034 -0.64475,1.29299 -0.2854,1.25564 -0.16723,2.54064 -0.0606,3.81267 0.11759,1.12738 0.31972,2.24665 0.36135,3.3804 -0.0157,0.15685 0.012,-0.0313 -0.12979,-0.18837 -0.37979,-0.41944 -1.03952,-1.13159 -1.75324,-0.85197 -1.88943,0.74022 -1.6468,0.97228 -1.69424,2.30144 -0.15488,-0.71968 -0.29251,-1.44333 -0.40154,-2.17145 -0.14232,-1.43468 -0.0945,-2.88126 -0.25287,-4.31614 -0.17413,-1.75029 -0.4253,-3.4917 -0.59335,-5.2425 -0.24002,-1.55118 -0.53494,-3.09854 -0.90563,-4.6234 -0.35366,-1.31084 -0.6873,-2.65167 -0.68497,-4.01799 0,-2.81547 3.98166,-2.81547 3.98166,0 z"
       inkscape:connector-curvature="0" />
    <path
       style="fill:#204a87;fill-opacity:1;stroke:none"
       id="path8060"
       d="m 53.16452,70.01238 c 0.690258,0.504054 1.358562,1.037136 2.002905,1.598554 0.552157,0.602486 1.117413,1.192027 1.618715,1.838176 0.520988,0.655534 0.965071,1.354829 1.365514,2.089466 0.349388,0.674151 0.6341,1.372001 0.959818,2.057853 0.222201,0.386281 0.312023,1.068912 0.444835,1.296664 0.258907,0.430165 0.395575,0.9172 0.487233,1.405939 0.05391,0.428767 0.04948,0.862208 0.04931,1.293578 -0.0011,0.434558 -0.0026,0.869115 -0.0033,1.303674 3.58e-4,1.179979 0.105308,-0.112848 -0.54868,-0.606874 -0.03191,-0.01691 -0.06382,-0.03382 -0.09573,-0.05074 1.972422,0.780739 0.86829,3.570164 -1.104131,2.789426 l 0,0 c -0.08225,-0.03684 -0.164494,-0.07367 -0.246741,-0.110509 -0.717119,-0.463705 -1.081936,-1.169426 -1.00471,-2.026456 7.45e-4,-0.433316 0.0022,-0.86663 0.0033,-1.299945 1.58e-4,-0.279389 0.0021,-0.559292 -0.01477,-0.838253 -0.0042,-0.036 -0.09395,-0.400806 -0.196241,-0.500723 C 56.66248,79.803519 56.551823,79.334288 56.394173,78.867759 56.105034,78.2334 55.82738,77.596802 55.517422,76.974133 55.192551,76.377865 54.84283,75.806254 54.409756,75.280176 54.032025,74.784953 53.589309,74.348427 53.193609,73.870149 52.607029,73.355927 51.993845,72.873203 51.36452,72.41238 c -1.697057,-1.272792 0.102943,-3.672792 1.8,-2.4 z"
       inkscape:connector-curvature="0"
       transform="translate(258.72229,478.22726)" />
    <path
       style="fill:#204a87;fill-opacity:1;stroke:none"
       id="path8062"
       d="m 61.498875,65.575684 c -0.173744,0.65301 -0.285271,1.320408 -0.350544,1.99245 -0.04468,0.580649 -0.05003,1.163175 -0.0527,1.745214 0.03301,0.340616 -0.04367,0.696051 0.0012,1.035285 0.0032,0.0242 -8.5e-4,-0.07676 0.02253,-0.0697 0.03094,0.0093 0.02644,0.05899 0.03966,0.08848 0.148552,0.50399 0.293017,0.994671 0.509578,1.473576 0.282157,0.426056 0.490874,0.800086 0.714949,1.117921 0.19921,0.330433 0.432715,0.634268 0.691808,0.9195 0.152659,0.180288 0.17443,0.147217 0.411765,0.166045 0.364685,0.04172 0.732912,0.03995 1.099506,0.03979 0.0537,-2.95e-4 0.214585,-0.0058 0.16111,-8.84e-4 -0.506982,0.04697 -0.187462,0.0092 -0.05312,-0.06209 0.01609,-0.0085 -0.06857,0.0036 -0.05414,-0.0075 0.01904,-0.01468 0.507828,-0.301766 0.543778,-0.32294 0.526497,-0.346831 0.978038,-0.787271 1.477087,-1.169854 0.538131,-0.479574 0.970272,-1.061522 1.405389,-1.633773 0.364445,-0.646058 0.650816,-1.351324 0.888932,-2.056097 0.195447,-0.708532 0.223647,-1.448314 0.25017,-2.178741 0.0024,-0.490559 0.07114,-0.980686 -0.07705,-1.442516 -0.12655,-0.513324 -0.232342,-0.969736 -0.495575,-1.41751 -0.226935,-0.488694 -0.629628,-0.767981 -1.008406,-1.120486 -0.422784,-0.34085 -0.794843,-0.743128 -1.211059,-1.091963 -0.296166,-0.221198 -0.711065,-0.395444 -1.105092,-0.509812 -0.355135,-0.1184 -0.723121,-0.143246 -1.093743,-0.157083 -1.555967,-0.307525 0.198449,0.06654 -0.938583,-0.241136 -0.04312,-0.01167 0.113494,0.01659 0.119402,0.06088 6.26e-4,0.0047 -0.36735,0.04007 -0.592624,0.06185 -0.164375,-0.02434 -0.549523,0.200531 -0.996477,0.441442 -0.267594,0.256333 -0.551053,0.470295 -0.786469,0.759078 0.128725,-0.151372 0.07589,0.0854 0.07287,0.199891 -0.04566,0.245864 0.08976,1.255291 -0.07351,0.210273 -0.866814,-1.014657 0.374141,0.136513 0.533768,0.269162 0.358584,0.229417 0.72966,0.438446 1.108072,0.642823 0.549222,0.271723 1.130246,0.462216 1.695067,0.697047 0.556051,0.279509 1.171597,0.360012 1.782951,0.421075 0.464507,0.04152 0.931241,0.05025 1.397363,0.0509 0.263781,-7.8e-4 0.527559,-0.0023 0.791339,-0.0033 2.121303,-0.0085 2.133288,2.991501 0.01199,2.999976 l 0,0 c -0.269545,0.0011 -0.539088,0.0027 -0.808635,0.0034 -0.568602,-0.0012 -1.137865,-0.01378 -1.704275,-0.06718 -0.919821,-0.09933 -1.841005,-0.251603 -2.681469,-0.65995 -0.604053,-0.319096 -1.316769,-0.458207 -1.915795,-0.805425 -0.575557,-0.313733 -1.151858,-0.632144 -1.669502,-1.036879 -0.46134,-0.361025 -0.980573,-0.739699 -1.270116,-1.266086 -0.150457,-0.565185 -0.250681,-1.013136 -0.194308,-1.588389 0.03751,-0.720634 0.181469,-1.394299 0.62025,-1.988662 0.482807,-0.572301 1.050002,-1.058473 1.668679,-1.479381 0.666051,-0.357819 1.363801,-0.720554 2.130425,-0.785891 0.311506,-0.02994 1.765413,-0.249707 1.888637,0.08938 0.0082,0.02253 -0.04649,0.01171 -0.06974,0.01757 0.639629,0.02659 1.275482,0.09683 1.887381,0.296994 0.785048,0.261241 1.564247,0.594859 2.199252,1.137832 0.426403,0.394155 0.850238,0.791774 1.295459,1.170934 0.201333,0.236345 -0.120602,-0.131295 0.411098,0.353435 0.464638,0.423592 0.828819,0.934434 1.138387,1.479196 0.342844,0.647982 0.594123,1.31934 0.748922,2.03669 0.211295,0.784182 0.240073,1.565764 0.189034,2.373906 -0.03932,1.028225 -0.102197,2.065761 -0.415044,3.05362 -0.353687,0.996285 -0.745158,2.004409 -1.334146,2.885353 -0.603031,0.792643 -1.219165,1.590823 -1.997599,2.220933 -0.600632,0.424381 -1.097399,0.994416 -1.750487,1.351695 -0.659114,0.388006 -1.316386,0.832894 -2.119301,0.808271 -0.541106,-2.5e-5 -1.084863,-0.0032 -1.620991,-0.08537 -0.814237,-0.161414 -1.57915,-0.462779 -2.126837,-1.120418 -0.334933,-0.377833 -0.652868,-0.770882 -0.916145,-1.202978 -0.357117,-0.521268 -0.674971,-1.059233 -0.991653,-1.606295 -0.249383,-0.558853 -0.440972,-1.131922 -0.60722,-1.719721 -0.218295,-0.674448 -0.262936,-1.346024 -0.228696,-2.050123 0.0032,-0.677338 0.01116,-1.355292 0.06765,-2.030705 0.08379,-0.815861 0.214055,-1.62707 0.425129,-2.420555 0.514496,-2.057983 3.424923,-1.330376 2.910428,0.727607 z"
       inkscape:connector-curvature="0"
       transform="translate(258.72229,478.22726)" />
    <path
       style="fill:#204a87;fill-opacity:1;stroke:none"
       id="path5388-0"
       d="m 348.66222,573.1301 c 0.009,1.00807 0.27742,2.00359 0.5447,2.97047 0.41333,1.66692 0.73195,3.36065 0.99836,5.05741 0.182,1.82282 0.43823,3.63717 0.62116,5.46005 0.20492,1.41699 0.0699,2.86506 0.24918,4.28083 0.0989,0.59033 0.20926,1.17876 0.33557,1.76382 0.17809,1.83018 -1.45936,3.15872 -3.13467,2.19047 -0.76757,-0.44359 -0.96611,-1.20496 -1.11135,-1.97978 -0.0627,-1.20601 -0.26304,-2.39646 -0.39019,-3.59694 -0.19152,-1.67953 -0.19451,-3.35093 0.11667,-5.01266 0.5318,-1.86185 1.08243,-2.89084 2.73567,-3.9793 1.4908,-0.74034 3.1498,-0.80082 4.77968,-0.84781 1.62025,-0.10379 3.13092,0.31778 4.48246,1.18772 1.53365,1.21975 1.87427,2.63361 1.7342,4.51722 -0.31542,1.75887 -1.29143,3.27227 -2.24612,4.74723 -0.92326,1.4506 -2.03876,2.69101 -3.46464,3.64953 -1.09562,0.66856 -2.3322,0.99953 -3.58649,1.20579 -0.0906,0.012 -0.18117,0.0241 -0.27176,0.0363 -2.79191,0.36348 -3.30596,-3.58486 -0.51404,-3.94834 l 0,0 c 0.0506,-0.007 0.10099,-0.012 0.1516,-0.0189 0.70471,-0.11029 1.41195,-0.26242 2.04312,-0.60839 0.98742,-0.60874 1.65956,-1.53106 2.30245,-2.484 0.61771,-0.94831 1.26547,-1.91222 1.62576,-2.99303 0.0347,-0.16423 -0.018,-0.35194 0.0615,-0.4998 0.0168,-0.0313 0.0766,0.0819 0.094,0.0508 0.0533,-0.0952 -0.1982,-0.35986 -0.23657,-0.40935 -0.19259,-0.43527 -1.68571,-0.47046 -2.0638,-0.4528 -0.94757,0.0257 -1.90315,0.0459 -2.82859,0.27339 -0.0809,0.029 -0.18577,0.007 -0.24985,0.0643 -0.36742,0.32903 -0.44405,0.87034 -0.64475,1.29299 -0.2854,1.25564 -0.16723,2.54064 -0.0606,3.81267 0.11759,1.12738 0.31972,2.24665 0.36135,3.3804 -0.0157,0.15685 0.012,-0.0313 -0.12979,-0.18837 -0.37979,-0.41944 -1.03952,-1.13159 -1.75324,-0.85197 -1.88943,0.74022 -1.6468,0.97228 -1.69424,2.30144 -0.15488,-0.71968 -0.29251,-1.44333 -0.40154,-2.17145 -0.14232,-1.43468 -0.0945,-2.88126 -0.25287,-4.31614 -0.17413,-1.75029 -0.4253,-3.4917 -0.59335,-5.2425 -0.24002,-1.55118 -0.53494,-3.09854 -0.90563,-4.6234 -0.35366,-1.31084 -0.6873,-2.65167 -0.68497,-4.01799 0,-2.81547 3.98166,-2.81547 3.98166,0 z"
       inkscape:connector-curvature="0" />
    <path
       style="fill:#204a87;fill-opacity:1;stroke:none"
       id="path8084"
       d="m 82.81728,95.011381 c 0,1.022697 0,2.045395 0,3.068092 -0.07289,0.988829 0.04759,1.943557 0.208527,2.914157 0.159513,0.99822 0.198928,2.00229 0.395423,2.99361 0.231785,0.927 0.324163,1.87563 0.374761,2.82707 -0.0519,0.80589 0.147927,1.56651 0.308842,2.3472 0.146177,0.81846 0.170321,1.64098 0.335869,2.45514 0.274096,0.55617 0.127096,1.5909 0.378465,2.10115 0.197047,0.57992 0.354711,1.1703 0.453379,1.77472 0.04019,0.30398 0.06694,0.60991 0.0739,0.9165 3.17e-4,0.0799 6.33e-4,0.0401 -9.28e-4,0.11944 -0.06318,2.12038 -3.06185,2.03103 -2.998669,-0.0893 l 0,0 c 5.5e-5,0.009 -0.0012,0.0189 1.65e-4,0.0283 -0.0043,-0.17479 -0.0196,-0.34914 -0.0402,-0.52273 -0.06282,-0.50431 -0.251943,-0.98138 -0.389928,-1.46741 -0.169713,-0.75019 -0.222957,-1.51996 -0.41691,-2.2672 -0.16271,-0.81151 -0.221454,-1.62518 -0.333378,-2.44292 -0.190502,-0.92425 -0.407595,-1.8451 -0.366541,-2.7967 -0.04117,-0.80982 -0.11941,-1.61572 -0.322322,-2.40368 -0.200093,-1.02222 -0.266201,-2.05231 -0.411531,-3.08246 -0.187414,-1.13064 -0.317907,-2.255519 -0.248923,-3.404817 0,-1.022697 0,-2.045395 0,-3.068092 0,-2.12132 3,-2.12132 3,0 z"
       inkscape:connector-curvature="0"
       transform="translate(258.72229,478.22726)" />
    <path
       style="fill:#204a87;fill-opacity:1;stroke:none"
       id="path8088"
       d="m 103.02033,91.475847 c 0.0593,0.976618 0.2082,1.966614 0.39947,2.928791 0.2373,1.274749 0.58784,2.522446 0.83093,3.79598 0.12645,1.037483 0.25097,2.059502 0.47686,3.079822 0.33886,0.85494 0.54972,1.74861 0.69564,2.65424 0.11022,0.72117 0.12171,1.45186 0.12806,2.17983 0.001,0.63589 -0.002,1.27177 -0.004,1.90765 -0.002,0.61974 -0.002,1.23948 -0.002,1.85922 -1.2e-4,0.52586 -8e-5,1.05172 -7e-5,1.57758 2e-5,0.47675 3e-5,0.9535 3e-5,1.43025 0,0.30397 0,0.60794 0,0.91191 0,0.0545 0,0.10908 0,0.16361 -10e-6,2.12132 -3.00001,2.12131 -3,-1e-5 l 0,0 c 0,-0.0545 0,-0.10906 0,-0.16359 0,-0.30397 0,-0.60793 0,-0.91189 0,-0.47674 -10e-6,-0.95347 -3e-5,-1.4302 -1e-5,-0.52618 -5e-5,-1.05235 7e-5,-1.57852 1.8e-4,-0.62205 4.5e-4,-1.2441 0.002,-1.86615 0.002,-0.62476 0.005,-1.24952 0.004,-1.87429 -0.005,-0.58045 -0.008,-1.16361 -0.0917,-1.73923 -0.12885,-0.84889 -0.37587,-1.66304 -0.66115,-2.47194 -0.23234,-1.04947 -0.37872,-2.10152 -0.49527,-3.169391 -0.23923,-1.271495 -0.59925,-2.515082 -0.82953,-3.788652 -0.21571,-1.151055 -0.40554,-2.325586 -0.45339,-3.49502 0,-2.12132 3,-2.12132 3,0 z"
       inkscape:connector-curvature="0"
       transform="translate(258.72229,478.22726)" />
    <path
       style="fill:#204a87;fill-opacity:1;stroke:none"
       id="path5382-8"
       d="m 284.38141,531.94119 c -0.55613,-0.1889 -1.07056,-0.0863 -1.63914,-0.029 -0.80313,0.0655 -0.17106,0.0304 -0.22181,0.0914 -0.14412,0.17333 -0.31666,0.32092 -0.47392,0.48243 -0.71297,0.90662 -1.11822,2.03908 -1.48316,3.12334 -0.39258,1.27838 -0.52777,2.58205 -0.31748,3.90236 0.18371,0.95179 0.67113,1.73131 1.25396,2.4755 0.45345,0.47651 0.87722,0.47659 -0.0773,0.21359 -0.12371,-0.10008 -0.3195,0.0962 -0.40569,0.0624 -0.0628,-0.0249 0.0817,-0.10737 0.12039,-0.16266 0.18743,-0.26834 0.3693,-0.54051 0.55558,-0.80964 0.61231,-1.23653 1.04552,-2.55868 1.5253,-3.85196 0.47352,-1.31172 0.90268,-2.62855 1.14399,-4.00384 -0.0684,-0.76833 0.50938,-1.55941 0.38103,-2.30194 -0.019,-0.11666 -0.0386,-0.23361 -0.0697,-0.34758 0.33023,0.37057 0.53853,0.907 0.99071,1.11171 1.17798,0.53324 2.24073,-0.0933 2.50538,-1.17414 0.2579,0.71385 0.57055,1.43292 0.90406,2.12195 0.57916,1.24006 1.54004,2.24261 2.46635,3.23045 0.8447,0.8061 1.84711,1.42511 2.83246,2.043 0.52599,0.29253 1.06644,0.52194 1.5616,0.87311 2.25124,1.69079 -0.13995,4.87451 -2.39116,3.1837 l 0,0 c -0.28905,-0.14562 -0.91868,-0.43507 -1.29504,-0.68931 -1.26898,-0.80435 -2.55454,-1.61171 -3.61459,-2.68934 -1.20324,-1.2872 -2.40479,-2.61645 -3.15114,-4.23266 -0.55452,-1.1684 -1.14764,-2.38156 -1.29091,-3.67919 0.0221,-0.30366 0.009,-0.61211 0.0663,-0.91091 0.25707,-1.31878 1.67892,-2.24869 3.03134,-1.71185 0.50507,0.2005 0.75388,0.78287 1.13083,1.17432 0.1676,0.48746 0.26213,0.99599 0.30089,1.50996 0.0257,1.09736 -0.28772,2.11266 -0.43914,3.19139 -0.2926,1.60625 -0.76887,3.15571 -1.33069,4.68766 -0.59561,1.60111 -1.1172,3.25367 -1.98484,4.73298 -0.87743,1.26537 -1.80922,2.5536 -3.49939,2.62396 -0.33514,-0.0487 -0.67551,-0.0698 -1.00545,-0.14613 -0.85627,-0.19814 -1.50901,-1.01782 -2.09762,-1.59614 -1.01805,-1.30353 -1.7732,-2.73665 -2.06208,-4.38627 -0.24344,-1.94321 -0.12117,-3.8638 0.49576,-5.7361 0.57108,-1.64252 1.22262,-3.31179 2.40615,-4.6189 0.87663,-0.88978 1.81789,-1.71023 3.14065,-1.74826 1.00766,-0.10128 2.01737,-0.17103 3.00327,0.12794 2.7314,0.68287 1.76572,4.54564 -0.96569,3.8628 z"
       inkscape:connector-curvature="0" />
    <path
       style="fill:#204a87;fill-opacity:1;stroke:none"
       id="path8090-8"
       d="m 292.85209,519.252 c 0.13831,0.78965 0.3902,1.54221 0.60631,2.31153 0.13409,0.88532 0.53666,1.67353 0.8644,2.49366 0.3521,0.85511 0.73353,1.698 1.06571,2.56124 0.2732,0.72776 0.47375,1.49743 0.78575,2.21011 0.21978,0.75729 0.59378,1.43974 0.94279,2.14167 0.42768,0.81547 0.85158,1.63477 1.23979,2.47012 0.26324,0.64148 0.39229,1.33757 0.73485,1.94689 0.33189,0.4894 0.52358,1.04441 0.76678,1.57633 0.23749,0.61958 0.52037,1.21977 0.74501,1.84488 0.0293,0.0878 0.0537,0.17734 0.0879,0.26334 0.0357,0.0898 -0.17272,-0.34085 -0.108,-0.26908 0.37623,0.41724 0.25378,0.25369 0.49546,0.64045 0.0637,0.32368 0.12746,0.64736 0.19119,0.97105 -0.15456,2.11568 -3.14658,1.89709 -2.99202,-0.21859 l 0,0 c 0.069,0.25162 0.13799,0.50324 0.20699,0.75486 0.54162,0.47918 -0.73185,-0.67187 -0.70702,-1.13386 -0.19285,-0.5459 -0.4436,-1.06833 -0.64915,-1.60851 -0.22704,-0.49972 -0.39452,-1.00498 -0.71063,-1.45987 -0.32195,-0.65785 -0.58045,-1.34264 -0.78289,-2.04571 -0.3761,-0.81294 -0.79064,-1.60834 -1.20675,-2.40119 -0.37796,-0.76747 -0.78407,-1.5208 -1.03353,-2.3433 -0.2938,-0.74923 -0.54113,-1.52009 -0.8119,-2.27672 -0.31549,-0.85303 -0.70779,-1.67769 -1.04986,-2.52029 -0.35853,-0.91867 -0.80854,-1.80599 -0.96477,-2.79231 -0.21913,-0.79494 -0.47907,-1.57587 -0.62681,-2.3891 -0.51449,-2.05798 2.39593,-2.78559 2.91043,-0.7276 z"
       inkscape:connector-curvature="0" />
    <path
       style="fill:#204a87;fill-opacity:1;stroke:none"
       id="path8092-9"
       d="m 268.55527,529.55158 c 0.46012,0.86947 0.94659,1.72386 1.37775,2.60901 0.54044,0.88798 0.83093,1.88753 1.15222,2.86761 0.3658,0.88229 0.70514,1.78116 1.13687,2.63414 0.56879,0.87681 1.07508,1.78056 1.46947,2.74896 0.32181,0.89982 0.61449,1.80263 0.79978,2.74139 0.31006,0.76146 0.33869,1.60211 0.58475,2.37713 0.15488,0.74658 0.50169,1.42058 0.75613,2.13415 0.3106,0.52952 0.49898,1.118 0.82509,1.64188 0.34049,0.52996 0.73661,1.01732 1.11321,1.5205 0.0106,0.18252 0.93115,1.11556 0.29136,0.47356 -0.0346,-0.0261 -0.0751,-0.0363 -0.11586,-0.0487 2.06903,0.46809 1.40704,3.39414 -0.66199,2.92604 l 0,0 c -0.19268,-0.0486 -0.38309,-0.10309 -0.5617,-0.19304 -0.59743,-0.32235 -1.02427,-0.79184 -1.36358,-1.37369 -0.42655,-0.58774 -0.89855,-1.14196 -1.27626,-1.7651 -0.41408,-0.70768 -0.72081,-1.46029 -1.08316,-2.19421 -0.25829,-0.77307 -0.65126,-1.49999 -0.81057,-2.30696 -0.23197,-0.87059 -0.35113,-1.7678 -0.64331,-2.62435 -0.13911,-0.75094 -0.38976,-1.46475 -0.63578,-2.18564 -0.3592,-0.90064 -0.87514,-1.70974 -1.37488,-2.53837 -0.48407,-0.98847 -0.90067,-2.01013 -1.3009,-3.03502 -0.27824,-0.85267 -0.51965,-1.7202 -0.99884,-2.48841 -0.42503,-0.87584 -0.91204,-1.71731 -1.36308,-2.57927 -0.94868,-1.89736 1.7346,-3.239 2.68328,-1.34164 z"
       inkscape:connector-curvature="0" />
    <path
       style="fill:#204a87;fill-opacity:1;stroke:none"
       id="path5378-0"
       d="m 472.43191,589.66316 c 0.0149,-1.69067 0.46988,-3.35334 0.88164,-4.98335 0.73046,-3.35068 1.36011,-6.72205 2.05687,-10.07967 1.11018,-5.93622 2.64426,-11.77693 4.1146,-17.63015 1.55155,-5.72854 2.98214,-11.48301 4.21397,-17.2885 0.99794,-4.41993 1.73521,-8.88588 2.35298,-13.37255 0.32899,-2.32394 0.56696,-4.66794 0.19403,-6.9971 -0.0834,-0.39073 -0.0922,-0.47114 -0.19182,-0.81872 -0.0187,-0.0651 -0.09,-0.25574 -0.0625,-0.19371 0.16671,0.37579 0.26098,0.55561 0.59326,0.80802 1.07776,0.13938 1.35559,0.4555 2.15,-0.21723 0.18621,-0.15771 0.25584,-0.42221 0.43222,-0.59083 0.0793,-0.0758 -0.0815,0.204 -0.13034,0.30222 -0.12183,0.24467 -0.25965,0.4811 -0.38264,0.72517 -0.57036,1.17542 -1.46537,2.10004 -2.41196,2.97594 -0.8129,0.72352 -1.63089,1.44082 -2.26393,2.33207 -0.20472,0.10326 -0.5405,1.80194 -0.38294,1.04296 -0.12382,-1.01002 -0.53126,-1.27698 -1.44846,-1.503 -0.0438,-0.0106 -7.4e-4,-0.0931 0.0164,-0.1345 1.08813,-0.96874 1.74837,-2.27357 2.43365,-3.53354 0.63768,-1.24421 1.06488,-2.57525 1.592,-3.86411 0.4364,-1.01958 1.32343,-2.31001 2.63598,-2.03352 0.49578,0.10446 0.91568,0.43404 1.37353,0.65107 1.1787,1.24572 1.96982,2.78278 2.8207,4.25564 1.28765,2.255 2.70981,4.41075 4.29054,6.46836 0.99917,1.31901 2.19622,2.47073 3.21241,3.77521 1.71316,2.23427 -1.44659,4.65703 -3.15973,2.42276 l 0,0 c -0.98675,-1.3234 -2.25436,-2.42249 -3.21064,-3.7729 -1.686,-2.19644 -3.20594,-4.49682 -4.58068,-6.90236 -0.64094,-1.11046 -1.23927,-2.24494 -2.01563,-3.26876 1.59095,0.53395 1.35026,0.53387 2.57809,-0.54972 0.1411,-0.12448 -0.42181,0.60916 -0.27279,0.49426 -0.61297,1.39536 -1.02226,2.88664 -1.76722,4.22879 -0.95749,1.75518 -1.94627,3.52225 -3.52647,4.80305 -0.26894,0.18279 -0.51986,0.39538 -0.80681,0.54836 -1.26926,0.67666 -2.9539,0.53083 -3.77541,-0.78108 -0.1957,-0.31252 -0.24172,-0.69675 -0.36259,-1.04511 0.0232,-1.3248 0.39767,-2.5533 1.14916,-3.66169 0.80761,-1.07649 1.74542,-2.0251 2.76995,-2.8977 0.6054,-0.55746 1.20849,-1.10558 1.56825,-1.86398 0.39384,-0.76249 0.79275,-1.88175 1.75885,-2.04147 0.52772,-0.0872 1.06635,0.0848 1.59952,0.12728 1.19358,0.77962 1.49539,1.76306 1.71332,3.10596 0.40683,2.71452 0.22334,5.43927 -0.1848,8.14744 -0.63184,4.58139 -1.38455,9.14202 -2.40245,13.65561 -1.24251,5.85339 -2.68225,11.65624 -4.24722,17.43201 -1.45709,5.79984 -2.97864,11.587 -4.07772,17.46933 -0.70894,3.41389 -1.34536,6.84273 -2.09565,10.24807 -0.33282,1.30996 -0.7227,2.64932 -0.75975,4.00564 0,2.81548 -3.98169,2.81548 -3.98169,0 z"
       inkscape:connector-curvature="0" />
    <path
       style="fill:#204a87;fill-opacity:1;stroke:none"
       id="path5382-9"
       d="m 473.40242,500.72383 c -0.55613,-0.1889 -1.07056,-0.0863 -1.63914,-0.029 -0.80313,0.0655 -0.17106,0.0304 -0.22181,0.0914 -0.14412,0.17333 -0.31666,0.32092 -0.47392,0.48243 -0.71297,0.90662 -1.11822,2.03908 -1.48316,3.12334 -0.39258,1.27838 -0.52777,2.58205 -0.31748,3.90236 0.18371,0.95179 0.67113,1.73131 1.25396,2.4755 0.45345,0.47651 0.87722,0.47659 -0.0773,0.21359 -0.12371,-0.10008 -0.3195,0.0962 -0.40569,0.0624 -0.0628,-0.0249 0.0817,-0.10737 0.12039,-0.16266 0.18743,-0.26834 0.3693,-0.54051 0.55558,-0.80964 0.61231,-1.23653 1.04552,-2.55868 1.5253,-3.85196 0.47352,-1.31172 0.90268,-2.62855 1.14399,-4.00384 -0.0684,-0.76833 0.50938,-1.55941 0.38103,-2.30194 -0.019,-0.11666 -0.0386,-0.23361 -0.0697,-0.34758 0.33023,0.37057 0.53853,0.907 0.99071,1.11171 1.17798,0.53324 2.24073,-0.0933 2.50538,-1.17414 0.2579,0.71385 0.57055,1.43292 0.90406,2.12195 0.57916,1.24006 1.54004,2.24261 2.46635,3.23045 0.8447,0.8061 1.84711,1.42511 2.83246,2.043 0.52599,0.29253 1.06644,0.52194 1.5616,0.87311 2.25124,1.69079 -0.13995,4.87451 -2.39116,3.1837 l 0,0 c -0.28905,-0.14562 -0.91868,-0.43507 -1.29504,-0.68931 -1.26898,-0.80435 -2.55454,-1.61171 -3.61459,-2.68934 -1.20324,-1.2872 -2.40479,-2.61645 -3.15114,-4.23266 -0.55452,-1.1684 -1.14764,-2.38156 -1.29091,-3.67919 0.0221,-0.30366 0.009,-0.61211 0.0663,-0.91091 0.25707,-1.31878 1.67892,-2.24869 3.03134,-1.71185 0.50507,0.2005 0.75388,0.78287 1.13083,1.17432 0.1676,0.48746 0.26213,0.99599 0.30089,1.50996 0.0257,1.09736 -0.28772,2.11266 -0.43914,3.19139 -0.2926,1.60625 -0.76887,3.15571 -1.33069,4.68766 -0.59561,1.60111 -1.1172,3.25367 -1.98484,4.73298 -0.87743,1.26537 -1.80922,2.5536 -3.49939,2.62396 -0.33514,-0.0487 -0.67551,-0.0698 -1.00545,-0.14613 -0.85627,-0.19814 -1.50901,-1.01782 -2.09762,-1.59614 -1.01805,-1.30353 -1.7732,-2.73665 -2.06208,-4.38627 -0.24344,-1.94321 -0.12117,-3.8638 0.49576,-5.7361 0.57108,-1.64252 1.22262,-3.31179 2.40615,-4.6189 0.87663,-0.88978 1.81789,-1.71023 3.14065,-1.74826 1.00766,-0.10128 2.01737,-0.17103 3.00327,0.12794 2.7314,0.68287 1.76572,4.54564 -0.96569,3.8628 z"
       inkscape:connector-curvature="0" />
    <path
       style="fill:#204a87;fill-opacity:1;stroke:none"
       id="path5388-8"
       d="m 527.54329,480.52132 c 0.009,1.00807 0.27742,2.00359 0.5447,2.97047 0.41333,1.66692 0.73195,3.36065 0.99836,5.05741 0.182,1.82282 0.43823,3.63717 0.62116,5.46005 0.20492,1.41699 0.0699,2.86506 0.24918,4.28083 0.0989,0.59033 0.20926,1.17876 0.33557,1.76382 0.17809,1.83018 -1.45936,3.15872 -3.13467,2.19047 -0.76757,-0.44359 -0.96611,-1.20496 -1.11135,-1.97978 -0.0627,-1.20601 -0.26304,-2.39646 -0.39019,-3.59694 -0.19152,-1.67953 -0.19451,-3.35093 0.11667,-5.01266 0.5318,-1.86185 1.08243,-2.89084 2.73567,-3.9793 1.4908,-0.74034 3.1498,-0.80082 4.77968,-0.84781 1.62025,-0.10379 3.13092,0.31778 4.48246,1.18772 1.53365,1.21975 1.87427,2.63361 1.7342,4.51722 -0.31542,1.75887 -1.29143,3.27227 -2.24612,4.74723 -0.92326,1.4506 -2.03876,2.69101 -3.46464,3.64953 -1.09562,0.66856 -2.3322,0.99953 -3.58649,1.20579 -0.0906,0.012 -0.18117,0.0241 -0.27176,0.0363 -2.79191,0.36348 -3.30596,-3.58486 -0.51404,-3.94834 l 0,0 c 0.0506,-0.007 0.10099,-0.012 0.1516,-0.0189 0.70471,-0.11029 1.41195,-0.26242 2.04312,-0.60839 0.98742,-0.60874 1.65956,-1.53106 2.30245,-2.484 0.61771,-0.94831 1.26547,-1.91222 1.62576,-2.99303 0.0347,-0.16423 -0.018,-0.35194 0.0615,-0.4998 0.0168,-0.0313 0.0766,0.0819 0.094,0.0508 0.0533,-0.0952 -0.1982,-0.35986 -0.23657,-0.40935 -0.19259,-0.43527 -1.68571,-0.47046 -2.0638,-0.4528 -0.94757,0.0257 -1.90315,0.0459 -2.82859,0.27339 -0.0809,0.029 -0.18577,0.007 -0.24985,0.0643 -0.36742,0.32903 -0.44405,0.87034 -0.64475,1.29299 -0.2854,1.25564 -0.16723,2.54064 -0.0606,3.81267 0.11759,1.12738 0.31972,2.24665 0.36135,3.3804 -0.0157,0.15685 0.012,-0.0313 -0.12979,-0.18837 -0.37979,-0.41944 -1.03952,-1.13159 -1.75324,-0.85197 -1.88943,0.74022 -1.6468,0.97228 -1.69424,2.30144 -0.15488,-0.71968 -0.29251,-1.44333 -0.40154,-2.17145 -0.14232,-1.43468 -0.0945,-2.88126 -0.25287,-4.31614 -0.17413,-1.75029 -0.4253,-3.4917 -0.59335,-5.2425 -0.24002,-1.55118 -0.53494,-3.09854 -0.90563,-4.6234 -0.35366,-1.31084 -0.6873,-2.65167 -0.68497,-4.01799 0,-2.81547 3.98166,-2.81547 3.98166,0 z"
       inkscape:connector-curvature="0" />
    <path
       style="fill:#204a87;fill-opacity:1;stroke:none"
       id="path5382-9-1"
       d="m 573.94025,533.87199 c -0.55613,-0.1889 -1.07056,-0.0863 -1.63914,-0.029 -0.80313,0.0655 -0.17106,0.0304 -0.22181,0.0914 -0.14412,0.17333 -0.31666,0.32092 -0.47392,0.48243 -0.71297,0.90662 -1.11822,2.03908 -1.48316,3.12334 -0.39258,1.27838 -0.52777,2.58205 -0.31748,3.90236 0.18371,0.95179 0.67113,1.73131 1.25396,2.4755 0.45345,0.47651 0.87722,0.47659 -0.0773,0.21359 -0.12371,-0.10008 -0.3195,0.0962 -0.40569,0.0624 -0.0628,-0.0249 0.0817,-0.10737 0.12039,-0.16266 0.18743,-0.26834 0.3693,-0.54051 0.55558,-0.80964 0.61231,-1.23653 1.04552,-2.55868 1.5253,-3.85196 0.47352,-1.31172 0.90268,-2.62855 1.14399,-4.00384 -0.0684,-0.76833 0.50938,-1.55941 0.38103,-2.30194 -0.019,-0.11666 -0.0386,-0.23361 -0.0697,-0.34758 0.33023,0.37057 0.53853,0.907 0.99071,1.11171 1.17798,0.53324 2.24073,-0.0933 2.50538,-1.17414 0.2579,0.71385 0.57055,1.43292 0.90406,2.12195 0.57916,1.24006 1.54004,2.24261 2.46635,3.23045 0.8447,0.8061 1.84711,1.42511 2.83246,2.043 0.52599,0.29253 1.06644,0.52194 1.5616,0.87311 2.25124,1.69079 -0.13995,4.87451 -2.39116,3.1837 l 0,0 c -0.28905,-0.14562 -0.91868,-0.43507 -1.29504,-0.68931 -1.26898,-0.80435 -2.55454,-1.61171 -3.61459,-2.68934 -1.20324,-1.2872 -2.40479,-2.61645 -3.15114,-4.23266 -0.55452,-1.1684 -1.14764,-2.38156 -1.29091,-3.67919 0.0221,-0.30366 0.009,-0.61211 0.0663,-0.91091 0.25707,-1.31878 1.67892,-2.24869 3.03134,-1.71185 0.50507,0.2005 0.75388,0.78287 1.13083,1.17432 0.1676,0.48746 0.26213,0.99599 0.30089,1.50996 0.0257,1.09736 -0.28772,2.11266 -0.43914,3.19139 -0.2926,1.60625 -0.76887,3.15571 -1.33069,4.68766 -0.59561,1.60111 -1.1172,3.25367 -1.98484,4.73298 -0.87743,1.26537 -1.80922,2.5536 -3.49939,2.62396 -0.33514,-0.0487 -0.67551,-0.0698 -1.00545,-0.14613 -0.85627,-0.19814 -1.50901,-1.01782 -2.09762,-1.59614 -1.01805,-1.30353 -1.7732,-2.73665 -2.06208,-4.38627 -0.24344,-1.94321 -0.12117,-3.8638 0.49576,-5.7361 0.57108,-1.64252 1.22262,-3.31179 2.40615,-4.6189 0.87663,-0.88978 1.81789,-1.71023 3.14065,-1.74826 1.00766,-0.10128 2.01737,-0.17103 3.00327,0.12794 2.7314,0.68287 1.76572,4.54564 -0.96569,3.8628 z"
       inkscape:connector-curvature="0" />
    <path
       style="fill:#204a87;fill-opacity:1;stroke:none"
       id="path5388-8-8"
       d="m 602.81456,524.43973 c 0.009,1.00807 0.27742,2.00359 0.5447,2.97047 0.41333,1.66692 0.73195,3.36065 0.99836,5.05741 0.182,1.82282 0.43823,3.63717 0.62116,5.46005 0.20492,1.41699 0.0699,2.86506 0.24918,4.28083 0.0989,0.59033 0.20926,1.17876 0.33557,1.76382 0.17809,1.83018 -1.45936,3.15872 -3.13467,2.19047 -0.76757,-0.44359 -0.96611,-1.20496 -1.11135,-1.97978 -0.0627,-1.20601 -0.26304,-2.39646 -0.39019,-3.59694 -0.19152,-1.67953 -0.19451,-3.35093 0.11667,-5.01266 0.5318,-1.86185 1.08243,-2.89084 2.73567,-3.9793 1.4908,-0.74034 3.1498,-0.80082 4.77968,-0.84781 1.62025,-0.10379 3.13092,0.31778 4.48246,1.18772 1.53365,1.21975 1.87427,2.63361 1.7342,4.51722 -0.31542,1.75887 -1.29143,3.27227 -2.24612,4.74723 -0.92326,1.4506 -2.03876,2.69101 -3.46464,3.64953 -1.09562,0.66856 -2.3322,0.99953 -3.58649,1.20579 -0.0906,0.012 -0.18117,0.0241 -0.27176,0.0363 -2.79191,0.36348 -3.30596,-3.58486 -0.51404,-3.94834 l 0,0 c 0.0506,-0.007 0.10099,-0.012 0.1516,-0.0189 0.70471,-0.11029 1.41195,-0.26242 2.04312,-0.60839 0.98742,-0.60874 1.65956,-1.53106 2.30245,-2.484 0.61771,-0.94831 1.26547,-1.91222 1.62576,-2.99303 0.0347,-0.16423 -0.018,-0.35194 0.0615,-0.4998 0.0168,-0.0313 0.0766,0.0819 0.094,0.0508 0.0533,-0.0952 -0.1982,-0.35986 -0.23657,-0.40935 -0.19259,-0.43527 -1.68571,-0.47046 -2.0638,-0.4528 -0.94757,0.0257 -1.90315,0.0459 -2.82859,0.27339 -0.0809,0.029 -0.18577,0.007 -0.24985,0.0643 -0.36742,0.32903 -0.44405,0.87034 -0.64475,1.29299 -0.2854,1.25564 -0.16723,2.54064 -0.0606,3.81267 0.11759,1.12738 0.31972,2.24665 0.36135,3.3804 -0.0157,0.15685 0.012,-0.0313 -0.12979,-0.18837 -0.37979,-0.41944 -1.03952,-1.13159 -1.75324,-0.85197 -1.88943,0.74022 -1.6468,0.97228 -1.69424,2.30144 -0.15488,-0.71968 -0.29251,-1.44333 -0.40154,-2.17145 -0.14232,-1.43468 -0.0945,-2.88126 -0.25287,-4.31614 -0.17413,-1.75029 -0.4253,-3.4917 -0.59335,-5.2425 -0.24002,-1.55118 -0.53494,-3.09854 -0.90563,-4.6234 -0.35366,-1.31084 -0.6873,-2.65167 -0.68497,-4.01799 0,-2.81547 3.98166,-2.81547 3.98166,0 z"
       inkscape:connector-curvature="0" />
    <path
       style="fill:#204a87;fill-opacity:1;stroke:none"
       id="path8215"
       d="m 620.33374,531.37727 c 1.1972,-0.13015 2.40684,-0.0438 3.6085,-0.0188 0.72856,0.0138 0.37033,0.008 1.07466,0.0186 2.12107,0.0331 2.07432,3.03269 -0.0467,2.99964 l 0,0 c -0.71623,-0.0112 -0.35274,-0.005 -1.09047,-0.0189 -0.93888,-0.0196 -1.88199,-0.0325 -2.81834,-0.0702 -2.05798,0.51449 -2.78559,-2.39593 -0.7276,-2.91043 z"
       inkscape:connector-curvature="0" />
    <path
       style="fill:#204a87;fill-opacity:1;stroke:none"
       id="path8217"
       d="m 621.20262,535.93859 c 0.98998,0.0552 1.96153,-0.15407 2.93699,-0.28994 0.75042,-0.0878 0.3758,-0.0487 1.12385,-0.11743 2.11259,-0.1923 2.38454,2.79535 0.27196,2.98765 l 0,0 c -0.65113,0.0586 -0.32359,0.025 -0.98259,0.10118 -1.11175,0.15434 -2.22197,0.37663 -3.35021,0.31854 -2.12133,0 -2.12133,-3 0,-3 z"
       inkscape:connector-curvature="0" />
    <path
       style="fill:#204a87;fill-opacity:1;stroke:none"
       id="path8219"
       d="m 633.85127,528.35229 c -0.49415,0.10329 -0.75293,0.58714 -0.91505,1.02676 -0.57311,1.30186 -0.70028,2.71348 -0.80003,4.11461 -0.0865,1.46752 -0.14215,2.93133 0.0428,4.39129 0.19235,0.95686 0.56928,1.85086 1.11551,2.65823 0.29429,0.5535 0.75839,0.96299 1.2197,1.37208 0.54282,0.1125 -0.0708,0.0727 0.2681,-0.0243 0.62583,-0.23533 1.12053,-0.60357 1.59372,-1.06889 0.83352,-0.79073 1.49642,-1.7221 2.02482,-2.73839 0.67067,-1.23832 1.15901,-2.56077 1.48454,-3.92883 0.19877,-1.09414 0.33009,-2.19982 0.16259,-3.30314 -0.20916,-0.64784 -0.63028,-1.12387 -1.14192,-1.55603 -0.60288,-0.55257 -1.39175,-0.78287 -2.13241,-1.09126 -0.60367,-0.18652 -1.11991,-0.54458 -1.64335,-0.88563 -0.30482,-0.19789 -0.0833,-0.0423 -0.59068,-0.55757 -1.26039,-1.70629 1.15266,-3.48875 2.41305,-1.78247 l 0,0 c -0.34088,-0.28139 -0.41451,-0.32273 -0.18461,-0.17347 0.49006,0.31933 0.58634,0.4489 1.161,0.63056 1.04768,0.4381 2.13585,0.81923 2.97461,1.62164 1.0126,0.9289 1.83407,1.99557 2.11476,3.37419 0.19965,1.48231 0.0826,2.96326 -0.21698,4.42787 -0.39452,1.61279 -0.96143,3.17721 -1.75542,4.63943 -0.69831,1.28061 -1.51909,2.48372 -2.59069,3.48561 -0.89374,0.84706 -1.88282,1.51305 -3.08172,1.84753 -1.05808,0.18911 -2.00467,0.009 -2.85154,-0.67374 -0.66179,-0.58848 -1.3052,-1.20816 -1.74705,-1.98662 -0.76006,-1.20636 -1.34531,-2.49746 -1.57313,-3.91684 -0.20247,-1.65577 -0.16533,-3.31475 -0.0578,-4.9782 0.13068,-1.7738 0.33566,-3.55115 1.08403,-5.18836 0.76067,-1.47248 1.86673,-2.64038 3.62319,-2.73604 2.12132,0 2.12132,3 0,3 z"
       inkscape:connector-curvature="0" />
    <path
       style="fill:#a40000;fill-opacity:1;stroke:none"
       id="path8240"
       d="m 21.333634,95.514752 c 0.309461,-0.87638 0.736724,-1.70041 1.119,-2.545111 0.403952,-0.920174 1.057015,-1.657661 1.788365,-2.329207 0.721705,-0.597375 1.51361,-1.10248 2.26107,-1.6674 1.095714,-0.800686 2.416955,-1.198658 3.71828,-1.524724 1.480396,-0.321509 2.961881,-0.6019 4.469495,-0.757959 1.457676,-0.121183 2.920881,-0.144082 4.382768,-0.155759 1.040296,-0.03246 2.064106,-0.011 3.090139,0.168976 1.165634,0.197506 2.207036,0.799182 3.142408,1.496188 0.81512,0.671359 1.519151,1.455906 2.313302,2.1493 0.994733,0.840242 1.579571,1.924334 2.079683,3.099326 0.327696,0.988684 0.72271,1.956904 1.003109,2.9609 0.255037,1.04935 0.278547,2.132543 0.297168,3.20646 -0.002,1.199528 0.0533,2.400178 -0.06716,3.594628 -0.143416,1.17071 -0.388146,2.31381 -0.741456,3.43824 -0.442569,1.38514 -1.214591,2.55358 -2.15673,3.64261 -0.956867,1.12547 -2.09888,2.04454 -3.347246,2.82324 -1.199878,0.76632 -2.515409,1.32061 -3.876169,1.72483 -0.73717,0.33948 -1.638647,0.17398 -2.364768,0.50313 -0.66685,0.35213 -0.396232,1.2502 -2.384187,-0.49168 -0.360706,-0.31606 0.0065,-0.95914 0.0097,-1.43872 0.387461,-0.60655 0.738362,-1.23452 1.095932,-1.85999 0.510272,-0.95496 0.983286,-1.92889 1.484406,-2.8886 0.411601,-0.77358 0.619686,-1.61813 1.080612,-2.36469 0.319616,-0.43621 0.708141,-0.81482 1.123456,-1.15874 0.976073,-0.77006 0.189384,0.15674 1.611521,2.4805 0.03166,0.0517 0.158874,-0.13726 0.164878,-0.0769 0.0074,0.0746 -0.104318,0.10757 -0.156477,0.16135 -0.651668,0.744 -1.273883,1.52755 -1.856931,2.32844 -0.766938,1.01148 -1.514561,2.03639 -2.277264,3.05113 -0.3991,0.73769 -1.022342,1.36538 -1.387141,2.11973 -0.05727,0.11789 -0.194047,0.48366 -0.109658,0.31256 -0.0013,0.13248 0.0042,0.26489 0.0065,0.39736 -0.186205,-0.91066 -0.603812,-1.01621 0.274783,-0.6203 0.977677,0.42239 2.001448,0.71183 2.996962,1.0867 0.751876,0.16719 1.407067,0.58636 2.114218,0.86053 0.658248,0.19509 0.652741,0.29329 1.413871,0.86546 1.135431,1.79187 -1.398656,3.39761 -2.534086,1.60574 l 0,0 c 1.728649,1.15652 0.539474,0.40781 -0.05591,0.28864 -0.659632,-0.29094 -1.289024,-0.64103 -1.99725,-0.81356 -1.055048,-0.39907 -2.143685,-0.70083 -3.175978,-1.16095 -1.036963,-0.47328 -1.787536,-0.84207 -2.036173,-2.0613 -0.0037,-0.21737 -0.01375,-0.43488 3.2e-5,-0.65216 0.04526,-0.55194 0.211359,-1.06137 0.471926,-1.55056 0.489373,-0.85756 1.092502,-1.64752 1.620634,-2.48147 0.756568,-1.00457 1.49671,-2.02059 2.256228,-3.02283 0.678375,-0.91822 1.385311,-1.82702 2.151596,-2.67212 1.421092,-1.40276 0.863604,-0.56935 2.409374,1.87105 -0.180559,0.1462 -0.343267,0.31134 -0.510649,0.4719 -0.469629,0.59173 -0.456805,1.52116 -0.941365,2.12618 -0.5211,0.99181 -1.005868,2.00226 -1.538873,2.988 -0.322575,0.56192 -0.622525,1.14099 -0.996129,1.67035 -0.02254,-0.42606 0.275502,-1.02459 -0.06761,-1.27819 -0.599663,-0.44322 -1.477519,-0.219 -2.201217,-0.39873 -0.222354,-0.0552 1.163127,-0.51796 0.875768,-0.49889 0.842839,-0.30238 1.726324,-0.34454 2.588134,-0.57801 1.107741,-0.31611 2.170906,-0.78047 3.144415,-1.39976 1.000227,-0.60458 1.894792,-1.34902 2.657287,-2.23825 0.681981,-0.77742 1.244437,-1.58142 1.560636,-2.58194 0.302757,-0.93783 0.495544,-1.89149 0.61979,-2.86939 0.147101,-1.05698 0.0058,-2.13988 0.04825,-3.203768 -0.01359,-0.824219 -0.0199,-1.656654 -0.191524,-2.466556 -0.231257,-0.876473 -0.604325,-1.71052 -0.869551,-2.576703 -0.325178,-0.764 -0.627623,-1.47179 -1.295076,-2.016704 -0.748201,-0.656144 -1.420899,-1.38475 -2.174178,-2.034733 -0.518387,-0.437625 -1.16526,-0.785234 -1.832285,-0.914832 -0.842332,-0.153373 -1.683508,-0.141114 -2.539784,-0.122507 -1.368,0.01081 -2.737189,0.03093 -4.101531,0.140302 -1.3705,0.138046 -2.714742,0.399683 -4.060854,0.687375 -0.909604,0.215625 -1.850307,0.474763 -2.627547,1.007514 -0.683225,0.512796 -1.399499,0.981145 -2.068823,1.509761 -0.447111,0.3725 -0.805133,0.797475 -1.052432,1.328223 -0.308683,0.680667 -0.6394,1.353482 -0.941204,2.034687 -0.514496,2.057983 -3.424923,1.330376 -2.910428,-0.727607 z"
       inkscape:connector-curvature="0"
       transform="translate(265.67202,472.40263)" />
    <path
       style="fill:#a40000;fill-opacity:1;stroke:none"
       id="path8242"
       d="m 287.09588,585.55716 c -0.33877,0.87851 -0.5743,1.84005 -0.55706,2.78529 0.0556,1.04793 0.12196,2.08944 0.36985,3.10965 0.24819,0.73239 0.76803,1.31684 1.19295,1.94831 0.21685,0.32475 0.28258,0.27553 0.58078,0.33942 0.35094,0.0402 0.14635,0.0112 0.0403,-0.0742 0.13541,-0.46586 0.32407,-0.97648 0.43841,-1.47348 0.40022,-1.14774 0.52135,-2.35813 0.76206,-3.54145 0.16804,-1.01069 0.46546,-1.97576 0.9466,-2.88036 0.1992,-0.39683 0.47539,-0.68801 0.83435,-0.94102 2.62804,1.50215 2.24666,0.84973 2.24088,2.89473 -0.0212,0.88597 -0.0268,1.75672 0.12015,2.6305 0.11149,1.02568 0.37658,2.01883 0.61252,3.02036 0.12772,0.33813 0.26931,0.67511 0.46305,0.98154 0.0615,0.14367 0.12296,0.28734 0.18443,0.43101 0.66941,2.01293 -2.17731,2.95961 -2.84671,0.94668 l 0,0 c 0.0347,0.0631 0.0694,0.12619 0.10404,0.18928 -0.35245,-0.58232 -0.63274,-1.20696 -0.82489,-1.86066 -0.25138,-1.06733 -0.52658,-2.12865 -0.6525,-3.22033 -0.16862,-1.03926 -0.19314,-2.07523 -0.16008,-3.12686 0.005,-1.7989 -0.45502,-1.87006 2.23017,-0.27169 0.21382,-0.15328 0.21175,-0.13092 0.35208,-0.28328 0.0204,-0.0222 0.0754,-0.0938 0.0539,-0.0727 -0.0307,0.0301 -0.0407,0.0789 -0.0714,0.10747 -0.3583,0.64514 -0.52326,1.34238 -0.64954,2.06693 -0.25955,1.20732 -0.361,2.4523 -0.78051,3.62416 -0.2573,1.05767 -0.57479,2.11537 -1.29528,2.9585 -0.82897,0.69331 -1.71991,1.07501 -2.81488,0.8089 -0.98346,-0.25211 -1.79953,-0.7296 -2.36747,-1.59454 -0.60515,-0.93286 -1.3459,-1.79052 -1.61018,-2.90563 -0.30193,-1.26542 -0.40503,-2.55619 -0.45273,-3.85527 0.0438,-1.39777 0.29611,-2.80001 0.87346,-4.08294 0.94868,-1.89736 3.63196,-0.55572 2.68328,1.34164 z"
       inkscape:connector-curvature="0" />
    <path
       style="fill:#a40000;fill-opacity:1;stroke:none"
       id="path8246"
       d="m 285.15934,578.19666 c 0.38408,-0.76511 0.8328,-1.50092 1.33455,-2.19457 0.29481,-0.36732 0.56423,-0.71964 0.81271,-1.12284 0.3442,-0.47458 0.79801,-0.83667 1.31045,-1.11153 0.97935,-0.42595 1.79908,-0.0335 2.55832,0.60559 0.53066,0.53842 0.94842,1.16634 1.33849,1.80962 0.31476,0.57468 0.66714,1.12452 0.9842,1.69907 0.25017,0.40052 0.38809,0.84267 0.43726,1.3108 0.003,0.0475 0.006,0.095 0.009,0.14247 0.11908,2.11798 -2.87619,2.28637 -2.99527,0.1684 l 0,0 c -2.4e-4,-0.0105 -4.8e-4,-0.021 -7.3e-4,-0.0314 0.19388,0.37899 0.053,0.0987 -0.0777,-0.14225 -0.29612,-0.53817 -0.62183,-1.0579 -0.92238,-1.59216 -0.22869,-0.37751 -0.46889,-0.74013 -0.73274,-1.09318 -0.0811,-0.0709 -0.23246,-0.10548 -0.24333,-0.21265 -0.009,-0.0868 0.14984,0.11018 0.23713,0.11112 0.59509,0.006 0.32456,0.0757 0.79373,-0.11477 -0.0412,0.0215 -0.20105,0.15626 -0.15334,0.0423 -0.28778,0.45572 -0.60318,0.88278 -0.93744,1.30667 -0.41287,0.54777 -0.75439,1.15349 -1.06965,1.76098 -0.94869,1.89737 -3.63197,0.55573 -2.68328,-1.34164 z"
       inkscape:connector-curvature="0" />
    <path
       style="fill:#204a87;fill-opacity:1;stroke:none"
       id="path8250"
       d="m 588.64751,529.55966 c 0.63389,0.76054 1.2955,1.4942 1.95788,2.22934 0.66103,0.57011 1.28147,1.17735 1.90781,1.78357 0.59013,0.68538 1.19497,1.36477 1.71674,2.10422 0.0385,0.0189 0.73437,1.27797 0.61714,0.9208 0.414,0.26888 0.62419,0.73873 0.96825,1.07279 0.0323,0.0313 -0.0523,-0.0733 -0.0785,-0.10987 0.0234,0.005 0.0478,0.006 0.0707,0.0125 2.05284,0.53467 1.2967,3.43782 -0.75613,2.90315 l 0,0 c -0.41545,-0.11498 -0.80736,-0.29751 -1.15872,-0.54938 -0.21306,-0.19158 -0.7576,-0.70441 -0.79891,-0.89483 -0.5813,-0.44926 -0.99534,-1.01891 -1.34166,-1.6638 -0.37474,-0.59737 -0.91721,-1.08404 -1.33625,-1.65048 -0.6676,-0.65739 -1.35674,-1.28579 -2.04348,-1.92517 -0.62275,-0.69777 -1.25927,-1.38362 -1.84626,-2.11151 -1.5,-1.5 0.62132,-3.62132 2.12132,-2.12132 z"
       inkscape:connector-curvature="0" />
    <path
       style="fill:#204a87;fill-opacity:1;stroke:none"
       id="path8252"
       d="m 586.38685,538.38879 c 0.4846,-0.66563 0.88672,-1.3869 1.34152,-2.07416 0.27113,-0.45228 0.57374,-0.88128 0.85751,-1.32728 0.37088,-0.56973 0.83651,-1.06811 1.30006,-1.56225 0.12106,-0.21008 0.46486,-0.30931 0.60214,-0.53156 0.0134,-0.0217 -0.0398,0.0454 -0.0649,0.0406 -0.0408,-0.008 0.025,-0.0793 0.0387,-0.11846 0.29292,-0.54951 0.54337,-1.10241 0.95451,-1.57711 0.0824,-0.0768 1.38363,-1.27937 0.65321,-0.54654 -0.0511,0.0471 -0.063,0.1014 -0.0875,0.15736 0.25583,-2.10584 3.23393,-1.74405 2.97811,0.36179 l 0,0 c -0.0505,0.37 -0.14966,0.72766 -0.33668,1.0548 -0.3097,0.38114 -0.6161,0.71172 -1.00533,1.01021 0.0943,-0.42964 -0.24641,0.61048 -0.38379,0.68535 -0.25739,0.59924 -0.6331,1.18614 -1.16109,1.51668 -0.34053,0.36258 -0.68982,0.72316 -0.96779,1.13741 -0.29905,0.44893 -0.60759,0.88934 -0.87574,1.35515 -0.48742,0.73582 -0.91502,1.51047 -1.44296,2.21802 -1.27279,1.69706 -3.67279,-0.10295 -2.4,-1.8 z"
       inkscape:connector-curvature="0" />
    <path
       style="fill:#204a87;fill-opacity:1;stroke:none"
       id="path8268"
       d="m 517.74386,499.57257 c -0.24928,1.78892 -0.56678,3.56638 -0.83071,5.35355 -0.5015,2.68253 -0.90276,5.38119 -1.42281,8.06039 -0.59107,3.15788 -1.2548,6.30162 -1.95788,9.43639 -0.65356,3.15419 -1.41633,6.2852 -1.98647,9.45627 -0.51952,2.77934 -1.0736,5.5543 -1.53053,8.34488 -0.49138,2.37106 -0.90817,4.75604 -1.51168,7.10198 -0.61602,1.88527 -0.77099,3.86108 -1.0814,5.80539 -0.25928,1.79588 -0.7404,3.54625 -1.06146,5.33025 -0.27503,1.72176 -0.55807,3.45334 -0.9493,5.15355 -0.31435,1.27822 -0.72234,2.52864 -1.0626,3.79924 -0.23227,1.11724 -0.58184,2.20302 -0.84061,3.3144 -0.41085,1.04983 -0.67053,2.12392 -0.82295,3.23728 -0.3504,1.19847 -0.52572,2.43673 -0.84788,3.64014 -0.30252,1.17018 -0.63078,2.32686 -0.98451,3.48313 -0.39174,0.90064 -0.74883,1.79251 -0.96878,2.74989 -0.0798,0.46641 -0.0912,0.94011 -0.0976,1.41214 0.0778,1.23207 -0.75031,2.01013 -1.78175,2.38266 -2.8408,0.67199 -3.79112,-3.34552 -0.95032,-4.0175 l 0,0 c -1.27189,0.54591 -1.43127,2.92143 -1.39587,1.57566 0.011,-0.7667 0.0464,-1.53568 0.20454,-2.28852 0.24543,-1.04526 0.57691,-2.05738 1.04334,-3.02645 0.34798,-1.1292 0.66824,-2.25727 0.96057,-3.40227 0.32603,-0.99805 0.34852,-2.08777 0.72914,-3.07702 0.17313,-1.23173 0.41186,-2.45411 0.89196,-3.60851 0.2715,-1.15831 0.6335,-2.28883 0.87567,-3.4535 0.3347,-1.22662 0.72237,-2.4354 1.02984,-3.66988 0.39787,-1.62246 0.627,-3.29464 0.90485,-4.94041 0.32054,-1.75909 0.78544,-3.48659 1.04877,-5.25645 0.3434,-2.06752 0.49925,-4.17364 1.16023,-6.17989 0.58223,-2.2222 0.95464,-4.48922 1.43405,-6.73473 0.4635,-2.81131 1.01638,-5.60811 1.54144,-8.40832 0.58397,-3.22772 1.35192,-6.4169 2.02108,-9.62733 0.69522,-3.09639 1.34998,-6.20194 1.93379,-9.32131 0.51119,-2.61789 0.89673,-5.25648 1.39142,-7.87731 0.27631,-1.85525 0.59992,-3.70111 0.8662,-5.55743 0.57251,-2.86251 4.62071,-2.05287 4.0482,0.80964 z"
       inkscape:connector-curvature="0" />
    <path
       style="fill:#204a87;fill-opacity:1;stroke:none"
       id="path8270"
       d="m 504.51408,500.83664 c 0.85738,-0.22703 1.7437,-0.3403 2.5281,-0.77491 0.95057,-0.40882 1.82699,-0.93945 2.69725,-1.4901 0.81121,-0.45067 1.492,-1.08327 2.24854,-1.61176 0.69601,-0.56297 1.436,-1.08927 2.20109,-1.55606 0.69058,-0.31832 1.32096,-0.73123 2.01723,-1.03844 -0.63593,0.17615 1.04166,-0.7574 1.1148,-0.79557 1.86596,-0.9036 3.16028,0.493 3.3235,2.06676 -6.7e-4,-0.0677 -0.0607,-0.16928 -10e-4,-0.20318 0.0354,-0.0204 0.12165,0.3859 0.2587,0.8202 0.18711,0.59299 0.39119,1.17321 0.55965,1.77331 0.564,1.60402 1.01394,3.24909 1.39005,4.90699 0.41402,1.75793 0.98819,3.46127 1.6185,5.15083 0.60651,1.314 1.16569,2.64566 1.51252,4.0527 0.19245,1.46213 0.34596,0.67502 -0.19109,0.16781 2.36059,1.71736 -0.0681,5.05574 -2.42871,3.33837 l 0,0 c -0.81417,-0.65256 -1.29843,-1.5013 -1.39696,-2.55275 -0.27499,-1.24845 -0.87948,-2.38851 -1.36374,-3.56316 -0.69544,-1.86416 -1.3202,-3.74746 -1.77791,-5.68628 -0.3563,-1.59392 -0.8031,-3.16764 -1.34048,-4.70978 -0.29693,-1.08467 -0.71465,-2.12843 -0.95804,-3.22549 0.39298,1.39567 1.20571,0.98667 2.77209,1.29571 0.0303,0.006 -0.18449,0.0354 -0.0846,0.0376 -0.50119,0.25029 -0.84437,0.66234 -1.36552,0.91433 -0.54784,0.22825 -1.02459,0.59094 -1.57682,0.81554 -0.71671,0.35725 -1.3223,0.96092 -1.97681,1.41531 -0.81915,0.49384 -1.47137,1.26281 -2.35035,1.67813 -0.98659,0.62089 -1.98159,1.22245 -3.05296,1.69075 -1.07941,0.51759 -2.20373,0.84662 -3.37469,1.08829 -2.83205,0.70801 -3.83332,-3.29709 -1.00128,-4.0051 z"
       inkscape:connector-curvature="0" />
  </g>
</svg>
