<?xml version="1.0" encoding="UTF-8" standalone="no"?>
<!-- Created with Inkscape (http://www.inkscape.org/) -->

<svg
   xmlns:dc="http://purl.org/dc/elements/1.1/"
   xmlns:cc="http://creativecommons.org/ns#"
   xmlns:rdf="http://www.w3.org/1999/02/22-rdf-syntax-ns#"
   xmlns:svg="http://www.w3.org/2000/svg"
   xmlns="http://www.w3.org/2000/svg"
   xmlns:sodipodi="http://sodipodi.sourceforge.net/DTD/sodipodi-0.dtd"
   xmlns:inkscape="http://www.inkscape.org/namespaces/inkscape"
   width="361.8259"
   height="106.89155"
   id="svg4803"
   version="1.1"
   inkscape:version="0.48.3.1 r9886"
   sodipodi:docname="vector_addition.svg">
  <defs
     id="defs4805" />
  <sodipodi:namedview
     id="base"
     pagecolor="#ffffff"
     bordercolor="#666666"
     borderopacity="1.0"
     inkscape:pageopacity="0.0"
     inkscape:pageshadow="2"
     inkscape:zoom="0.98994949"
     inkscape:cx="224.99602"
     inkscape:cy="52.756626"
     inkscape:document-units="px"
     inkscape:current-layer="layer1"
     showgrid="false"
     inkscape:window-width="848"
     inkscape:window-height="789"
     inkscape:window-x="711"
     inkscape:window-y="71"
     inkscape:window-maximized="0"
     fit-margin-top="0"
     fit-margin-left="0"
     fit-margin-right="0"
     fit-margin-bottom="0" />
  <metadata
     id="metadata4808">
    <rdf:RDF>
      <cc:Work
         rdf:about="">
        <dc:format>image/svg+xml</dc:format>
        <dc:type
           rdf:resource="http://purl.org/dc/dcmitype/StillImage" />
        <dc:title />
      </cc:Work>
    </rdf:RDF>
  </metadata>
  <g
     inkscape:label="Layer 1"
     inkscape:groupmode="layer"
     id="layer1"
     transform="translate(-258.72229,-478.22726)">
    <path
       style="fill:#204a87;fill-opacity:1;stroke:none"
       id="path5378"
       d="m 260.89825,574.49826 c 0.0149,-1.69067 0.46988,-3.35334 0.88164,-4.98335 0.73046,-3.35068 1.36011,-6.72205 2.05687,-10.07967 1.11018,-5.93622 2.64426,-11.77693 4.1146,-17.63015 1.55155,-5.72854 2.98214,-11.48301 4.21397,-17.2885 0.99794,-4.41993 1.73521,-8.88588 2.35298,-13.37255 0.32899,-2.32394 0.56696,-4.66794 0.19403,-6.9971 -0.0834,-0.39073 -0.0922,-0.47114 -0.19182,-0.81872 -0.0187,-0.0651 -0.09,-0.25574 -0.0625,-0.19371 0.16671,0.37579 0.26098,0.55561 0.59326,0.80802 1.07776,0.13938 1.35559,0.4555 2.15,-0.21723 0.18621,-0.15771 0.25584,-0.42221 0.43222,-0.59083 0.0793,-0.0758 -0.0815,0.204 -0.13034,0.30222 -0.12183,0.24467 -0.25965,0.4811 -0.38264,0.72517 -0.57036,1.17542 -1.46537,2.10004 -2.41196,2.97594 -0.8129,0.72352 -1.63089,1.44082 -2.26393,2.33207 -0.20472,0.10326 -0.5405,1.80194 -0.38294,1.04296 -0.12382,-1.01002 -0.53126,-1.27698 -1.44846,-1.503 -0.0438,-0.0106 -7.4e-4,-0.0931 0.0164,-0.1345 1.08813,-0.96874 1.74837,-2.27357 2.43365,-3.53354 0.63768,-1.24421 1.06488,-2.57525 1.592,-3.86411 0.4364,-1.01958 1.32343,-2.31001 2.63598,-2.03352 0.49578,0.10446 0.91568,0.43404 1.37353,0.65107 1.1787,1.24572 1.96982,2.78278 2.8207,4.25564 1.28765,2.255 2.70981,4.41075 4.29054,6.46836 0.99917,1.31901 2.19622,2.47073 3.21241,3.77521 1.71316,2.23427 -1.44659,4.65703 -3.15973,2.42276 l 0,0 c -0.98675,-1.3234 -2.25436,-2.42249 -3.21064,-3.7729 -1.686,-2.19644 -3.20594,-4.49682 -4.58068,-6.90236 -0.64094,-1.11046 -1.23927,-2.24494 -2.01563,-3.26876 1.59095,0.53395 1.35026,0.53387 2.57809,-0.54972 0.1411,-0.12448 -0.42181,0.60916 -0.27279,0.49426 -0.61297,1.39536 -1.02226,2.88664 -1.76722,4.22879 -0.95749,1.75518 -1.94627,3.52225 -3.52647,4.80305 -0.26894,0.18279 -0.51986,0.39538 -0.80681,0.54836 -1.26926,0.67666 -2.9539,0.53083 -3.77541,-0.78108 -0.1957,-0.31252 -0.24172,-0.69675 -0.36259,-1.04511 0.0232,-1.3248 0.39767,-2.5533 1.14916,-3.66169 0.80761,-1.07649 1.74542,-2.0251 2.76995,-2.8977 0.6054,-0.55746 1.20849,-1.10558 1.56825,-1.86398 0.39384,-0.76249 0.79275,-1.88175 1.75885,-2.04147 0.52772,-0.0872 1.06635,0.0848 1.59952,0.12728 1.19358,0.77962 1.49539,1.76306 1.71332,3.10596 0.40683,2.71452 0.22334,5.43927 -0.1848,8.14744 -0.63184,4.58139 -1.38455,9.14202 -2.40245,13.65561 -1.24251,5.85339 -2.68225,11.65624 -4.24722,17.43201 -1.45709,5.79984 -2.97864,11.587 -4.07772,17.46933 -0.70894,3.41389 -1.34536,6.84273 -2.09565,10.24807 -0.33282,1.30996 -0.7227,2.64932 -0.75975,4.00564 0,2.81548 -3.98169,2.81548 -3.98169,0 z"
       inkscape:connector-curvature="0" />
    <path
       style="fill:#204a87;fill-opacity:1;stroke:none"
       id="path5382"
       d="m 266.91953,486.06401 c -0.55613,-0.1889 -1.07056,-0.0863 -1.63914,-0.029 -0.80313,0.0655 -0.17106,0.0304 -0.22181,0.0914 -0.14412,0.17333 -0.31666,0.32092 -0.47392,0.48243 -0.71297,0.90662 -1.11822,2.03908 -1.48316,3.12334 -0.39258,1.27838 -0.52777,2.58205 -0.31748,3.90236 0.18371,0.95179 0.67113,1.73131 1.25396,2.4755 0.45345,0.47651 0.87722,0.47659 -0.0773,0.21359 -0.12371,-0.10008 -0.3195,0.0962 -0.40569,0.0624 -0.0628,-0.0249 0.0817,-0.10737 0.12039,-0.16266 0.18743,-0.26834 0.3693,-0.54051 0.55558,-0.80964 0.61231,-1.23653 1.04552,-2.55868 1.5253,-3.85196 0.47352,-1.31172 0.90268,-2.62855 1.14399,-4.00384 -0.0684,-0.76833 0.50938,-1.55941 0.38103,-2.30194 -0.019,-0.11666 -0.0386,-0.23361 -0.0697,-0.34758 0.33023,0.37057 0.53853,0.907 0.99071,1.11171 1.17798,0.53324 2.24073,-0.0933 2.50538,-1.17414 0.2579,0.71385 0.57055,1.43292 0.90406,2.12195 0.57916,1.24006 1.54004,2.24261 2.46635,3.23045 0.8447,0.8061 1.84711,1.42511 2.83246,2.043 0.52599,0.29253 1.06644,0.52194 1.5616,0.87311 2.25124,1.69079 -0.13995,4.87451 -2.39116,3.1837 l 0,0 c -0.28905,-0.14562 -0.91868,-0.43507 -1.29504,-0.68931 -1.26898,-0.80435 -2.55454,-1.61171 -3.61459,-2.68934 -1.20324,-1.2872 -2.40479,-2.61645 -3.15114,-4.23266 -0.55452,-1.1684 -1.14764,-2.38156 -1.29091,-3.67919 0.0221,-0.30366 0.009,-0.61211 0.0663,-0.91091 0.25707,-1.31878 1.67892,-2.24869 3.03134,-1.71185 0.50507,0.2005 0.75388,0.78287 1.13083,1.17432 0.1676,0.48746 0.26213,0.99599 0.30089,1.50996 0.0257,1.09736 -0.28772,2.11266 -0.43914,3.19139 -0.2926,1.60625 -0.76887,3.15571 -1.33069,4.68766 -0.59561,1.60111 -1.1172,3.25367 -1.98484,4.73298 -0.87743,1.26537 -1.80922,2.5536 -3.49939,2.62396 -0.33514,-0.0487 -0.67551,-0.0698 -1.00545,-0.14613 -0.85627,-0.19814 -1.50901,-1.01782 -2.09762,-1.59614 -1.01805,-1.30353 -1.7732,-2.73665 -2.06208,-4.38627 -0.24344,-1.94321 -0.12117,-3.8638 0.49576,-5.7361 0.57108,-1.64252 1.22262,-3.31179 2.40615,-4.6189 0.87663,-0.88978 1.81789,-1.71023 3.14065,-1.74826 1.00766,-0.10128 2.01737,-0.17103 3.00327,0.12794 2.7314,0.68287 1.76572,4.54564 -0.96569,3.8628 z"
       inkscape:connector-curvature="0" />
    <path
       style="fill:#204a87;fill-opacity:1;stroke:none"
       id="path5386"
       d="m 352.36988,569.87212 c 2.23598,-0.5473 4.41618,-1.29885 6.60644,-2.00213 5.13634,-1.7545 10.36067,-3.23594 15.56588,-4.77007 6.82662,-1.97907 13.67544,-3.88007 20.53403,-5.74492 6.49487,-1.74802 12.95623,-3.61659 19.43165,-5.4347 4.1899,-1.14609 8.39466,-2.23604 12.58254,-3.38903 0.78262,-0.21564 1.5652,-0.43146 2.34767,-0.64773 0.11759,-0.0326 0.46022,-0.1587 0.35069,-0.10499 -0.13926,0.0684 -0.27629,0.1411 -0.41444,0.21165 0.21372,1.18084 0.38736,2.36965 0.64116,3.54253 0.0164,0.0761 0.52564,0.0231 0.49594,0.0254 -0.077,0.005 -0.15396,0.0119 -0.23097,0.0185 -1.01865,-0.13167 -1.72551,-0.62398 -2.57823,-1.1162 -1.44504,-0.79331 -3.02634,-1.31671 -4.5744,-1.87125 -2.28812,-0.79957 -4.55286,-1.66034 -6.85447,-2.42128 -0.7877,-0.23626 -1.53137,-0.5979 -2.30553,-0.86984 -0.0893,-0.0312 -0.37198,-0.0695 -0.27904,-0.0518 0.0552,0.0105 0.11123,0.0172 0.16676,0.0256 0.5172,-3.49586 -0.67023,-4.41941 1.16706,-3.75215 0.75383,0.27376 1.41967,0.7371 2.16286,1.03774 1.94266,0.82109 4.03586,1.1388 6.09956,1.49447 2.28853,0.33697 4.58111,0.62796 6.83884,1.13962 1.3194,0.39413 2.90533,1.00268 3.19599,2.5582 0.0708,0.37934 -0.0119,0.77172 -0.0189,1.15758 -0.33522,0.97574 -0.91426,1.8274 -1.2309,2.80899 -0.27785,1.21423 -0.29658,2.47035 -0.33004,3.71016 -0.10749,1.24084 -0.26885,2.47638 -0.41757,3.71283 -0.0309,0.78874 -0.21158,1.16388 -0.53348,1.99178 -1.7094,2.23717 -4.87321,-0.18025 -3.16383,-2.41742 l 0,0 c -0.70782,2.12427 -0.22702,0.56084 -0.25588,-0.0498 0.13411,-1.1149 0.27247,-2.22947 0.39058,-3.34619 0.0453,-1.63428 0.0883,-3.29093 0.53753,-4.87436 0.10365,-0.29952 0.84656,-2.2855 1.10249,-2.46215 0.0547,-0.0377 -0.009,0.13245 -0.0136,0.1986 0.0285,0.19807 0.0197,0.40527 0.0859,0.59419 0.29536,0.8454 1.15393,0.75476 -0.23176,0.30004 -2.18803,-0.50027 -4.41472,-0.76016 -6.63159,-1.09822 -2.36678,-0.40794 -4.75761,-0.80296 -6.98112,-1.75401 -0.24228,-0.1059 -1.74175,-0.73477 -1.99906,-0.97235 -0.0372,-0.0343 0.1006,0.0119 0.15083,0.0173 0.12939,-1.32147 0.25878,-2.64293 0.38816,-3.9644 1.18121,0.1466 2.23613,0.71949 3.35668,1.08534 2.33209,0.77245 4.6286,1.64105 6.9468,2.45309 1.77237,0.63546 3.57519,1.2466 5.22202,2.17127 0.49501,0.28585 2.58617,1.30921 0.3761,0.58836 -0.26128,0.0337 0.72227,-0.0527 0.80335,0.0439 0.27371,1.19409 0.54742,2.38816 0.82114,3.58221 -1.0984,0.60453 -2.35765,0.76934 -3.54639,1.14347 -4.18141,1.1512 -8.37958,2.23987 -12.56314,3.38363 -6.48595,1.82098 -12.95781,3.69268 -19.46326,5.44344 -6.83154,1.85744 -13.65333,3.75096 -20.45307,5.72198 -5.17457,1.52511 -10.36839,2.997 -15.47427,4.74187 -2.33313,0.74914 -4.65587,1.55179 -7.04283,2.11545 -2.7608,0.55216 -3.54166,-3.35219 -0.78087,-3.90437 z"
       inkscape:connector-curvature="0" />
    <path
       style="fill:#204a87;fill-opacity:1;stroke:none"
       id="path5388"
       d="m 418.4589,520.91481 c 0.009,1.00807 0.27742,2.00359 0.5447,2.97047 0.41333,1.66692 0.73195,3.36065 0.99836,5.05741 0.182,1.82282 0.43823,3.63717 0.62116,5.46005 0.20492,1.41699 0.0699,2.86506 0.24918,4.28083 0.0989,0.59033 0.20926,1.17876 0.33557,1.76382 0.17809,1.83018 -1.45936,3.15872 -3.13467,2.19047 -0.76757,-0.44359 -0.96611,-1.20496 -1.11135,-1.97978 -0.0627,-1.20601 -0.26304,-2.39646 -0.39019,-3.59694 -0.19152,-1.67953 -0.19451,-3.35093 0.11667,-5.01266 0.5318,-1.86185 1.08243,-2.89084 2.73567,-3.9793 1.4908,-0.74034 3.1498,-0.80082 4.77968,-0.84781 1.62025,-0.10379 3.13092,0.31778 4.48246,1.18772 1.53365,1.21975 1.87427,2.63361 1.7342,4.51722 -0.31542,1.75887 -1.29143,3.27227 -2.24612,4.74723 -0.92326,1.4506 -2.03876,2.69101 -3.46464,3.64953 -1.09562,0.66856 -2.3322,0.99953 -3.58649,1.20579 -0.0906,0.012 -0.18117,0.0241 -0.27176,0.0363 -2.79191,0.36348 -3.30596,-3.58486 -0.51404,-3.94834 l 0,0 c 0.0506,-0.007 0.10099,-0.012 0.1516,-0.0189 0.70471,-0.11029 1.41195,-0.26242 2.04312,-0.60839 0.98742,-0.60874 1.65956,-1.53106 2.30245,-2.484 0.61771,-0.94831 1.26547,-1.91222 1.62576,-2.99303 0.0347,-0.16423 -0.018,-0.35194 0.0615,-0.4998 0.0168,-0.0313 0.0766,0.0819 0.094,0.0508 0.0533,-0.0952 -0.1982,-0.35986 -0.23657,-0.40935 -0.19259,-0.43527 -1.68571,-0.47046 -2.0638,-0.4528 -0.94757,0.0257 -1.90315,0.0459 -2.82859,0.27339 -0.0809,0.029 -0.18577,0.007 -0.24985,0.0643 -0.36742,0.32903 -0.44405,0.87034 -0.64475,1.29299 -0.2854,1.25564 -0.16723,2.54064 -0.0606,3.81267 0.11759,1.12738 0.31972,2.24665 0.36135,3.3804 -0.0157,0.15685 0.012,-0.0313 -0.12979,-0.18837 -0.37979,-0.41944 -1.03952,-1.13159 -1.75324,-0.85197 -1.88943,0.74022 -1.6468,0.97228 -1.69424,2.30144 -0.15488,-0.71968 -0.29251,-1.44333 -0.40154,-2.17145 -0.14232,-1.43468 -0.0945,-2.88126 -0.25287,-4.31614 -0.17413,-1.75029 -0.4253,-3.4917 -0.59335,-5.2425 -0.24002,-1.55118 -0.53494,-3.09854 -0.90563,-4.6234 -0.35366,-1.31084 -0.6873,-2.65167 -0.68497,-4.01799 0,-2.81547 3.98166,-2.81547 3.98166,0 z"
       inkscape:connector-curvature="0" />
    <path
       style="fill:#204a87;fill-opacity:1;stroke:none"
       id="path5378-4"
       d="m 500.90999,582.95253 c 0.015,-1.69068 0.46989,-3.35334 0.88166,-4.98334 0.73045,-3.3507 1.3601,-6.72207 2.05686,-10.07968 1.11016,-5.93622 2.64423,-11.77694 4.1146,-17.63016 1.55155,-5.72853 2.98214,-11.48299 4.21396,-17.2885 0.99795,-4.41992 1.73521,-8.88587 2.35299,-13.37254 0.32897,-2.32394 0.56693,-4.66795 0.19401,-6.9971 -0.0834,-0.39073 -0.0922,-0.47115 -0.19181,-0.81872 -0.0188,-0.0652 -0.09,-0.25574 -0.0625,-0.19371 0.16671,0.37579 0.26099,0.5556 0.59327,0.80802 1.07776,0.13937 1.35559,0.4555 2.14999,-0.21724 0.1862,-0.1577 0.25584,-0.4222 0.43222,-0.59082 0.0794,-0.0757 -0.0815,0.20401 -0.13033,0.30221 -0.12184,0.24467 -0.25967,0.4811 -0.38263,0.72518 -0.57036,1.17542 -1.46538,2.10004 -2.41197,2.97594 -0.8129,0.72352 -1.63091,1.44082 -2.26394,2.33207 -0.20471,0.10326 -0.54049,1.80195 -0.38293,1.04296 -0.12383,-1.01002 -0.53124,-1.27698 -1.44845,-1.503 -0.0438,-0.0106 -7.3e-4,-0.093 0.0164,-0.1345 1.08813,-0.96874 1.74836,-2.27356 2.43364,-3.53354 0.63767,-1.24421 1.06486,-2.57525 1.592,-3.86411 0.4364,-1.01957 1.32344,-2.31002 2.63598,-2.03353 0.49578,0.10446 0.91567,0.43405 1.3735,0.65107 1.17872,1.24572 1.96985,2.78279 2.82073,4.25566 1.28764,2.25499 2.70979,4.41074 4.29055,6.46835 0.99914,1.319 2.1962,2.47074 3.2124,3.7752 1.71315,2.23428 -1.4466,4.65705 -3.15973,2.42277 l 0,0 c -0.98675,-1.3234 -2.25437,-2.4225 -3.21064,-3.7729 -1.68602,-2.19643 -3.20595,-4.49682 -4.58068,-6.90237 -0.64095,-1.11045 -1.23928,-2.24493 -2.01565,-3.26876 1.59095,0.53396 1.35029,0.53388 2.5781,-0.54971 0.14111,-0.12449 -0.42182,0.60915 -0.27278,0.49427 -0.61298,1.39534 -1.02228,2.88663 -1.76724,4.22877 -0.95747,1.7552 -1.94626,3.52227 -3.52645,4.80306 -0.26895,0.18278 -0.51986,0.39538 -0.80681,0.54836 -1.26925,0.67665 -2.95388,0.53082 -3.77539,-0.78109 -0.19571,-0.31253 -0.24174,-0.69673 -0.36261,-1.04509 0.0232,-1.32481 0.39767,-2.55332 1.14917,-3.6617 0.8076,-1.07648 1.74544,-2.0251 2.76994,-2.89771 0.6054,-0.55745 1.20849,-1.10558 1.56824,-1.86397 0.39385,-0.7625 0.79276,-1.88175 1.75885,-2.04147 0.52771,-0.0872 1.06634,0.0849 1.59952,0.12727 1.1936,0.77965 1.4954,1.76307 1.71331,3.10596 0.40684,2.71452 0.22335,5.43928 -0.18478,8.14746 -0.63186,4.58137 -1.38455,9.14201 -2.40246,13.65559 -1.24252,5.8534 -2.68222,11.65625 -4.24722,17.43202 -1.45707,5.79984 -2.97862,11.58698 -4.0777,17.46933 -0.70897,3.4139 -1.34536,6.84273 -2.09567,10.24807 -0.33281,1.30995 -0.72269,2.64932 -0.75974,4.00564 0,2.81548 -3.98167,2.81548 -3.98167,0 z"
       inkscape:connector-curvature="0" />
    <path
       style="fill:#204a87;fill-opacity:1;stroke:none"
       id="path5386-5"
       d="m 518.56799,506.79695 c 2.23599,-0.5473 4.41617,-1.29885 6.60643,-2.00214 5.13635,-1.75448 10.3607,-3.23592 15.56589,-4.77007 6.82663,-1.97905 13.67543,-3.88007 20.53403,-5.74491 6.49487,-1.74802 12.95623,-3.61661 19.43166,-5.43471 4.18988,-1.1461 8.39465,-2.23605 12.58253,-3.38902 0.78263,-0.21565 1.56522,-0.43146 2.34767,-0.64774 0.11758,-0.0326 0.46023,-0.15869 0.35068,-0.10498 -0.13925,0.0684 -0.27627,0.14111 -0.41442,0.21164 0.21371,1.18084 0.38736,2.36966 0.64115,3.54254 0.0164,0.0761 0.52563,0.0231 0.49594,0.0254 -0.077,0.005 -0.15397,0.012 -0.23096,0.0185 -1.01865,-0.13165 -1.72554,-0.62395 -2.57823,-1.1162 -1.44505,-0.79331 -3.02635,-1.31669 -4.57442,-1.87125 -2.2881,-0.79958 -4.55284,-1.66033 -6.85448,-2.42127 -0.78768,-0.23625 -1.53135,-0.59791 -2.3055,-0.86984 -0.0893,-0.0313 -0.37199,-0.0696 -0.27904,-0.0518 0.0552,0.0106 0.11119,0.0171 0.16674,0.0256 0.5172,-3.49584 -0.67022,-4.41939 1.16705,-3.75215 0.75385,0.27376 1.41968,0.73711 2.16289,1.03774 1.94264,0.82109 4.03586,1.13882 6.09956,1.49447 2.28853,0.33699 4.5811,0.62799 6.83882,1.13962 1.31941,0.39414 2.90534,1.00269 3.196,2.55822 0.0708,0.37934 -0.0119,0.77169 -0.0189,1.15758 -0.33522,0.97572 -0.91423,1.8274 -1.23089,2.80897 -0.27786,1.21424 -0.29658,2.47035 -0.33003,3.71019 -0.10751,1.24083 -0.26887,2.47638 -0.41756,3.71282 -0.0309,0.78872 -0.21159,1.16386 -0.5335,1.99179 -1.70939,2.23715 -4.87321,-0.18028 -3.16383,-2.41744 l 0,0 c -0.70782,2.12427 -0.22701,0.56085 -0.25588,-0.0498 0.13411,-1.11492 0.27248,-2.22947 0.39059,-3.3462 0.0452,-1.6343 0.0882,-3.29092 0.53752,-4.87436 0.10366,-0.29953 0.84656,-2.28551 1.10249,-2.46216 0.0547,-0.0377 -0.009,0.13246 -0.0136,0.1986 0.0285,0.19807 0.0197,0.40528 0.0859,0.59419 0.29533,0.8454 1.15391,0.75477 -0.23178,0.30003 -2.18802,-0.50027 -4.41471,-0.76016 -6.63159,-1.09822 -2.3668,-0.40792 -4.7576,-0.80296 -6.98112,-1.75399 -0.24226,-0.10591 -1.74175,-0.73477 -1.99906,-0.97234 -0.0372,-0.0345 0.1006,0.012 0.15082,0.0174 0.12941,-1.32147 0.25878,-2.64293 0.38817,-3.9644 1.18121,0.14659 2.23614,0.71948 3.35668,1.08534 2.33208,0.77245 4.6286,1.64105 6.94682,2.4531 1.77237,0.63544 3.57517,1.24658 5.22199,2.17125 0.49501,0.28584 2.58617,1.30922 0.37611,0.58837 -0.26126,0.0337 0.72227,-0.0527 0.80335,0.0439 0.27371,1.19407 0.54743,2.38812 0.82114,3.5822 -1.09838,0.60452 -2.35764,0.76933 -3.5464,1.14345 -4.18139,1.15121 -8.37958,2.23986 -12.56313,3.38365 -6.48596,1.82097 -12.9578,3.69267 -19.46325,5.44345 -6.83155,1.85742 -13.65333,3.75094 -20.45307,5.72196 -5.17459,1.5251 -10.3684,2.99699 -15.47429,4.74188 -2.33313,0.74914 -4.65585,1.5518 -7.04281,2.11545 -2.7608,0.55216 -3.54168,-3.3522 -0.78088,-3.90437 z"
       inkscape:connector-curvature="0" />
    <path
       style="fill:#a40000;fill-opacity:1;stroke:none"
       id="path5461"
       d="m 502.5048,581.62268 c 1.29697,-1.23939 2.41684,-2.64394 3.61508,-3.97513 2.26763,-2.6409 4.73168,-5.09919 7.15566,-7.59412 3.47486,-3.42598 6.99154,-6.80917 10.47524,-10.22624 3.71172,-3.64461 7.31804,-7.39744 10.8033,-11.259 3.53772,-3.79848 6.66519,-7.94561 9.89345,-12.00236 2.87266,-3.80917 6.14158,-7.2786 9.47378,-10.68228 2.65435,-2.91653 5.51408,-5.6259 8.36027,-8.35045 2.50547,-2.37954 5.08193,-4.68045 7.65424,-6.98673 2.22864,-1.89725 4.41589,-3.84016 6.54886,-5.84423 1.7656,-1.72743 3.36924,-3.60454 4.98083,-5.47294 1.38468,-1.5878 2.77483,-3.16564 4.25296,-4.66743 1.28736,-1.21921 2.57825,-2.42965 3.9085,-3.60238 1.15818,-0.93459 2.32363,-1.85921 3.44398,-2.83931 0.44595,-0.44461 0.8738,-0.89467 1.22893,-1.41601 -0.0439,0.15542 0.0768,-0.15506 0.0687,-0.11202 -0.39654,2.10904 -0.47004,1.03739 0.49057,2.45309 0.0439,0.0647 -0.14075,-0.0675 -0.21115,-0.10128 -0.7208,-0.27715 -1.50994,-0.29666 -2.27195,-0.34383 -1.03497,-0.0516 -2.07146,-0.0548 -3.10748,-0.0558 -0.1925,0.1131 -0.89885,0.81811 0.53345,-0.49337 0.33812,-1.09369 0.45875,-1.61643 -0.37251,-2.39671 -0.10047,-0.0942 -0.25401,-0.11758 -0.35557,-0.2107 -0.003,-0.003 0.0663,7.4e-4 0.47093,0.0274 1.17286,0.12769 2.31869,-0.12117 3.46423,-0.33606 1.39519,-0.27827 2.8099,-0.42844 4.22793,-0.5238 1.8151,-0.17744 2.79028,0.48216 3.20322,2.30653 -0.0466,1.4005 -0.22604,2.80432 -0.40715,4.19613 -0.27195,1.87812 -0.38227,3.77266 -0.45144,5.66732 -0.051,1.70229 -0.0546,3.40544 -0.056,5.10834 1.6e-4,1.17589 0.003,2.35177 0.004,3.52764 0.003,2.81549 -3.97875,2.81962 -3.98167,0.004 l 0,0 c -7.3e-4,-1.1784 -0.004,-2.35681 -0.004,-3.53522 7.4e-4,-1.75049 0.005,-3.50124 0.0587,-5.25111 0.0747,-2.02081 0.19453,-4.04134 0.48334,-6.04466 0.099,-0.72945 0.15149,-1.46093 0.24239,-2.19127 0.0379,-0.30368 0.0153,-0.62558 0.13194,-0.90856 0.012,-0.0302 0.0351,0.0552 0.0525,0.0829 0.32782,0.5609 0.5456,0.73796 1.20954,0.96901 0.12318,0.0429 0.26257,-0.0105 0.39129,0.0106 0.20123,0.0334 -0.96633,-0.0162 -0.61122,0.0309 -1.26104,0.0837 -2.51923,0.21514 -3.75965,0.46447 -1.4854,0.27844 -2.97947,0.55032 -4.49788,0.39294 -1.10657,-0.0916 -2.10164,-0.24165 -2.79167,-1.24482 -0.15064,-0.21897 -0.28237,-0.47826 -0.28674,-0.74398 -0.009,-0.506 0.16671,-0.9983 0.25005,-1.49745 0.24697,-0.25555 0.47904,-0.52636 0.74088,-0.76664 0.5289,-0.48534 1.46878,-0.50663 2.11446,-0.62569 1.11909,7.3e-4 2.23874,0.005 3.35658,0.0639 1.28195,0.0832 2.58447,0.18803 3.76573,0.73919 1.48741,0.73331 2.2147,2.05465 1.18152,3.60176 -0.54785,0.78688 -1.19048,1.49001 -1.88459,2.15077 -1.11685,0.9753 -2.27117,1.90474 -3.43113,2.82804 -1.26007,1.11084 -2.48379,2.2559 -3.70449,3.40936 -1.41743,1.43873 -2.74695,2.95322 -4.07502,4.47434 -1.70246,1.97376 -3.39979,3.95429 -5.26972,5.77436 -2.15575,2.02478 -4.36403,3.9906 -6.61705,5.90679 -2.54014,2.27739 -5.08474,4.54905 -7.55906,6.89858 -2.81548,2.69444 -5.64388,5.37408 -8.26838,8.25962 -3.23737,3.30596 -6.41584,6.67316 -9.20334,10.37607 -3.27994,4.12107 -6.45913,8.3324 -10.05344,12.19108 -3.54018,3.92054 -7.20083,7.73286 -10.97064,11.43342 -3.4609,3.39465 -6.95364,6.7566 -10.4076,10.15829 -2.38955,2.45948 -4.81981,4.88164 -7.05435,7.48589 -1.24654,1.37982 -2.40702,2.84015 -3.7567,4.12425 -1.99084,1.99084 -4.80631,-0.82463 -2.81548,-2.81548 z"
       inkscape:connector-curvature="0" />
    <path
       style="fill:#a40000;fill-opacity:1;stroke:none"
       id="path5473"
       d="m 580.36089,532.18427 c -0.74291,-0.22887 -1.52242,-0.26687 -2.2703,-0.0267 -0.86247,0.36421 -1.5056,0.94843 -2.05148,1.69498 -0.92164,1.18212 -1.27142,2.67029 -1.70694,4.07783 -0.12793,0.66293 -0.12475,1.2988 0.14672,1.84729 -0.0571,-0.27535 0.77033,0.37712 1.07438,0.45073 -0.0168,-0.0255 -0.0782,-0.0635 -0.0506,-0.0765 0.0865,-0.0409 0.193,-0.009 0.28486,-0.0342 0.25088,-0.0727 0.73111,-0.62119 0.89967,-0.76576 0.82436,-0.8826 1.50717,-1.88822 1.99324,-2.99357 0.36508,-1.05242 0.78635,-2.07325 1.02412,-3.16374 0.10709,-0.9034 0.48442,-1.74352 0.98696,-2.4922 0.79533,-1.07489 1.35177,-0.9994 3.14846,-0.51102 0.28538,0.0775 0.37015,0.46134 0.55522,0.69198 0.62317,1.16681 0.89727,2.44366 1.23191,3.70918 0.32742,1.67854 0.97632,3.26258 1.50133,4.88265 0.35295,0.87788 0.73225,1.7305 1.24407,2.52664 0.094,0.18472 0.59756,0.74963 -0.0905,-0.0362 2.3125,1.60601 0.0413,4.87638 -2.27122,3.27036 l 0,0 c -0.41705,-0.38063 -0.72807,-0.6236 -0.99499,-1.09256 -0.68862,-1.08516 -1.22196,-2.2434 -1.67664,-3.44539 -0.54349,-1.69265 -1.22281,-3.34621 -1.56436,-5.09876 -0.21778,-0.84126 -0.46393,-1.99435 -0.77344,-2.63362 0.76153,0.73647 2.31212,0.90153 2.9666,-7.4e-4 -0.24196,0.33536 -0.35266,0.66229 -0.37623,1.09198 -0.3058,1.3616 -0.80264,2.65252 -1.29046,3.95771 -0.76215,1.62767 -1.74724,3.14192 -3.05586,4.38847 -1.47463,1.21854 -3.00748,2.04337 -4.97711,1.59403 -1.28755,-0.47417 -2.44266,-1.18464 -3.27745,-2.29899 -0.77242,-1.59461 -0.89166,-3.21706 -0.4617,-4.94723 0.57972,-1.86494 1.11412,-3.78843 2.36296,-5.33768 1.14594,-1.43397 2.48249,-2.57208 4.26547,-3.1264 1.3838,-0.2979 2.79571,-0.40021 4.16894,0.0348 2.73141,0.68283 1.76571,4.54564 -0.9657,3.86276 z"
       inkscape:connector-curvature="0" />
    <path
       style="fill:#a40000;fill-opacity:1;stroke:none"
       id="path5475"
       d="m 597.92377,526.81921 c 0.32488,1.71256 0.70436,3.4122 0.95733,5.13852 0.20079,1.79933 0.59122,3.56928 0.8272,5.36449 0.11695,0.93583 0.18613,1.87764 0.20909,2.82037 0.004,0.33639 0.003,0.177 0.004,0.47818 0.009,2.81545 -3.9735,2.82703 -3.98166,0.0119 l 0,0 c -6.4e-4,-0.25241 1.8e-4,-0.1197 -0.003,-0.39807 -0.0169,-0.80106 -0.0797,-1.60132 -0.17664,-2.39654 -0.23013,-1.77666 -0.62645,-3.52684 -0.81944,-5.30812 -0.22877,-1.59456 -0.58995,-3.16171 -0.87973,-4.74467 -0.68285,-2.7314 3.17995,-3.69711 3.8628,-0.9657 z"
       inkscape:connector-curvature="0" />
    <path
       style="fill:#a40000;fill-opacity:1;stroke:none"
       id="path5477"
       d="m 592.21083,531.69399 c 1.66934,-0.21762 3.31658,-0.55721 4.97804,-0.82693 1.714,-0.37585 3.42633,-0.75669 5.16169,-1.02078 0.36021,-0.0536 0.72173,-0.0968 1.08367,-0.13657 2.79885,-0.30548 3.23084,3.65271 0.432,3.95817 l 0,0 c -0.30689,0.0332 -0.6134,0.07 -0.91882,0.11506 -1.72293,0.26011 -3.41878,0.65635 -5.12309,1.01476 -1.87046,0.30097 -3.72327,0.70948 -5.61349,0.87796 -2.81548,0 -2.81548,-3.98169 0,-3.98169 z"
       inkscape:connector-curvature="0" />
    <path
       style="fill:#a40000;fill-opacity:1;stroke:none"
       id="path5479"
       d="m 610.61272,518.5875 c -0.0875,1.65539 0.12795,3.2902 0.29355,4.93293 0.14552,2.50078 0.37421,4.98786 0.64644,7.47761 0.30907,2.17679 0.19741,4.39038 0.45135,6.56854 0.17513,1.07835 0.38214,2.15038 0.53081,3.23289 -0.005,0.16262 0.17407,0.98109 -0.0336,0.0521 0.94589,2.65183 -2.80435,3.98951 -3.75025,1.33769 l 0,0 c -0.07,-0.28737 -0.14121,-0.5557 -0.16103,-0.84936 -0.15283,-1.11885 -0.37937,-2.22471 -0.54421,-3.34179 -0.2261,-2.18265 -0.1768,-4.38662 -0.45124,-6.56738 -0.27331,-2.50079 -0.50572,-4.99935 -0.64996,-7.5112 -0.17867,-1.77438 -0.39838,-3.54446 -0.31358,-5.33203 0,-2.81547 3.98165,-2.81547 3.98165,0 z"
       inkscape:connector-curvature="0" />
    <path
       style="fill:#a40000;fill-opacity:1;stroke:none"
       id="path5481"
       d="m 611.14118,526.98079 c 1.53175,-0.42103 3.0381,-0.47521 4.58198,-0.12371 1.77051,0.45621 2.99656,1.64369 3.94418,3.14694 0.89881,1.72117 0.98915,3.60245 0.79787,5.49386 -0.15278,1.84537 -0.92957,3.53096 -1.85428,5.10608 -1.11363,1.72579 -2.83946,2.73698 -4.64798,3.59601 -0.98931,0.43955 -2.04942,0.6648 -3.11528,0.81796 -2.78798,0.39254 -3.34311,-3.55025 -0.55514,-3.94279 l 0,0 c 0.67084,-0.0916 1.34297,-0.21632 1.97162,-0.47627 1.09226,-0.51068 2.2,-1.03302 2.92632,-2.03306 0.65158,-1.06974 1.21344,-2.2232 1.31534,-3.48838 0.11627,-1.02548 0.15497,-2.05751 -0.25676,-3.0316 -0.3375,-0.66019 -0.81354,-1.15043 -1.54801,-1.3405 -0.81634,-0.36349 -1.76615,0.0105 -2.59416,0.13826 -2.73143,0.68287 -3.69711,-3.17993 -0.9657,-3.86278 z"
       inkscape:connector-curvature="0" />
  </g>
</svg>
